<?xml version="1.0" encoding="UTF-8"?>
<svg  viewBox="0 0 221 227" version="1.1" xmlns="http://www.w3.org/2000/svg" xmlns:xlink="http://www.w3.org/1999/xlink">
    <g id="Artist-page" stroke="none" stroke-width="1" fill="none" fill-rule="evenodd">
        <g id="Artboard" transform="translate(-4113.000000, -2983.000000)">
            <g id="Cookie" transform="translate(4113.000000, 2983.000000)">
                <g id="Cookies-base">
                    <ellipse id="Oval-Copy-2" fill="#A98265" cx="110.5" cy="116.697183" rx="110.5" ry="110.302817"></ellipse>
                    <ellipse id="Oval" fill="#CDA18C" cx="110.5" cy="110.302817" rx="110.5" ry="110.302817"></ellipse>
                    <ellipse id="Oval-Copy" fill="#E5B999" cx="107.697464" cy="105.107394" rx="105.29529" ry="105.107394"></ellipse>
                </g>
                <g id="Chocolate" transform="translate(21.000000, 17.000000)" fill="#503928">
                    <path d="M38.5118987,51.7647059 C43.6584743,51.7647059 49.1729041,49.6075535 49.1729041,43.2914752 C49.1729041,36.9753968 47.7941935,31.8552036 41.1371898,31.8552036 C34.4801861,31.8552036 28.9285714,33.2451877 28.9285714,39.5612661 C28.9285714,45.8773445 33.3653231,51.7647059 38.5118987,51.7647059 Z" id="Oval"></path>
                    <path d="M27.9104232,146.533937 C34.5674269,146.533937 38.5714286,144.376784 38.5714286,138.060706 C38.5714286,131.744628 35.1837894,129.054071 28.5267857,129.054071 C21.869782,129.054071 18.4821429,131.744628 18.4821429,138.060706 C18.4821429,144.376784 21.2534195,146.533937 27.9104232,146.533937 Z" id="Oval-Copy-9"></path>
                    <path d="M114.696137,131.402715 C118.032776,130.643753 125.357143,129.245563 125.357143,122.929484 C125.357143,116.613406 121.535302,111.493213 117.321429,111.493213 C113.107555,111.493213 103.661876,115.131885 103.661876,121.447964 C103.661876,127.764042 111.359499,132.161676 114.696137,131.402715 Z" id="Oval-Copy-10"></path>
                    <path d="M47.9997089,108.307692 C51.1671896,108.307692 58.6607143,103.769733 58.6607143,99.8344616 C58.6607143,95.8991902 57.2820037,88.39819 50.625,88.39819 C43.9679963,88.39819 40.3128329,90.0459126 40.3128329,96.361991 C40.3128329,102.678069 44.8322282,108.307692 47.9997089,108.307692 Z" id="Oval-Copy-11"></path>
                    <path d="M127.225458,64.5067873 C131.220437,64.5067873 136.250454,59.4313932 136.250454,55.9412948 C136.250454,52.4511965 130.586069,47.2584916 125.887281,47.2584916 C121.188493,47.2584916 120.352749,51.2723058 120.352749,56.8304548 C120.352749,62.3886037 123.230479,64.5067873 127.225458,64.5067873 Z" id="Oval-Copy-12"></path>
                    <path d="M91.2126708,35.8371041 C95.4731532,35.8371041 98.0357143,34.4565266 98.0357143,30.4142364 C98.0357143,26.3719463 97.1533395,23.0950226 92.8928571,23.0950226 C88.6323748,23.0950226 85.1785714,22.8684437 85.1785714,26.9107338 C85.1785714,30.953024 86.9521885,35.8371041 91.2126708,35.8371041 Z" id="Oval-Copy-3"></path>
                    <path d="M67.105528,56.5452888 C71.3660103,56.5452888 73.9285714,54.5223063 73.9285714,51.1224211 C73.9285714,47.722536 73.5616876,44.8454476 69.4080623,44.0593403 C65.254437,43.2732331 62.6228723,45.2727003 61.6907653,47.722536 C60.7586584,50.1723716 62.8450456,56.5452888 67.105528,56.5452888 Z" id="Oval-Copy-4"></path>
                    <path d="M166.348137,123.356387 C170.608619,123.356387 173.17118,121.333405 173.17118,117.933519 C173.17118,114.533634 172.804296,111.656546 168.650671,110.870439 C164.497046,110.084331 161.865481,112.083799 160.933374,114.533634 C160.001267,116.98347 162.087654,123.356387 166.348137,123.356387 Z" id="Oval-Copy-28"></path>
                    <path d="M140.633851,144.85865 C144.894333,144.85865 147.456894,142.835667 147.456894,139.435782 C147.456894,136.035897 147.090011,133.158808 142.936385,132.372701 C138.78276,131.586594 136.151195,133.586061 135.219088,136.035897 C134.286981,138.485732 136.373369,144.85865 140.633851,144.85865 Z" id="Oval-Copy-29"></path>
                    <path d="M145.051957,104.328094 C149.312439,104.328094 151.875,102.947517 151.875,98.9052266 C151.875,94.8629364 150.992625,91.5860128 146.732143,91.5860128 C142.471661,91.5860128 139.017857,91.3594338 139.017857,95.401724 C139.017857,99.4440141 140.791474,104.328094 145.051957,104.328094 Z" id="Oval-Copy-5"></path>
                    <path d="M84.7840994,175.205922 C89.0445818,175.205922 91.6071429,173.825345 91.6071429,169.783055 C91.6071429,165.740764 90.7247681,162.463841 86.4642857,162.463841 C82.2038034,162.463841 78.75,162.237262 78.75,166.279552 C78.75,170.321842 80.5236171,175.205922 84.7840994,175.205922 Z" id="Oval-Copy-6"></path>
                    <path d="M57.4626708,162.463841 C61.7231532,162.463841 64.2857143,161.083263 64.2857143,157.040973 C64.2857143,152.998683 60.8597773,150.857929 57.8571429,150.857929 C54.8545084,150.857929 52.7995547,150.857929 51.4285714,155.295269 C50.0575882,159.732608 53.2021885,162.463841 57.4626708,162.463841 Z" id="Oval-Copy-20"></path>
                    <path d="M93.6233851,100.346194 C97.8838675,100.346194 100.446429,98.9656163 100.446429,94.9233261 C100.446429,90.8810359 99.5640538,87.6041123 95.3035714,87.6041123 C91.0430891,87.6041123 87.5892857,87.3775334 87.5892857,91.4198235 C87.5892857,95.4621137 89.3629028,100.346194 93.6233851,100.346194 Z" id="Oval-Copy-7" transform="translate(94.017857, 93.974002) rotate(-180.000000) translate(-94.017857, -93.974002) "></path>
                    <path d="M173.176957,85.214972 C177.437439,85.214972 180,83.8343945 180,79.7921044 C180,75.7498142 179.117625,72.4728906 174.857143,72.4728906 C170.596661,72.4728906 167.142857,72.2463116 167.142857,76.2886018 C167.142857,80.330892 168.916474,85.214972 173.176957,85.214972 Z" id="Oval-Copy-18"></path>
                    <path d="M115.319814,97.9570535 C119.580296,97.9570535 122.142857,96.576476 122.142857,92.5341858 C122.142857,88.4918957 121.260482,85.214972 117,85.214972 C112.739518,85.214972 109.285714,84.9883931 109.285714,89.0306833 C109.285714,93.0729734 111.059331,97.9570535 115.319814,97.9570535 Z" id="Oval-Copy-17"></path>
                    <path d="M160.953538,140.514854 C164.511254,140.514854 164.907027,137.357888 164.907027,135.416813 C164.907027,133.475738 163.993187,132.161676 161.154005,132.161676 C158.314823,132.161676 156.871313,134.028423 156.871313,136.164829 C156.871313,138.301235 157.395821,140.514854 160.953538,140.514854 Z" id="Oval-Copy-19"></path>
                    <path d="M14.5093171,63.3239135 C18.0511139,63.3079941 18.45937,60.1350036 18.468197,58.1851643 C18.476898,56.2353251 17.57308,54.9194197 14.7466024,54.9321239 C11.9201248,54.9448281 10.474645,56.8264626 10.4649991,58.9725145 C10.4553532,61.1185665 10.9675203,63.3398329 14.5093171,63.3239135 Z" id="Oval-Copy-21" transform="translate(14.466532, 59.128016) rotate(-315.000000) translate(-14.466532, -59.128016) "></path>
                    <path d="M54.6878885,134.998122 C58.2296853,134.982202 58.6379414,131.809212 58.6467684,129.859372 C58.6554694,127.909533 57.7516514,126.593628 54.9251738,126.606332 C52.0986962,126.619036 50.6532164,128.500671 50.6435705,130.646723 C50.6339246,132.792775 51.1460917,135.014041 54.6878885,134.998122 Z" id="Oval-Copy-33" transform="translate(54.645104, 130.802224) rotate(-315.000000) translate(-54.645104, -130.802224) "></path>
                    <path d="M98.0807457,60.1383931 C101.622542,60.1224737 102.030799,56.9494832 102.039626,54.999644 C102.048327,53.0498047 101.144509,51.7338993 98.318031,51.7466035 C95.4915533,51.7593078 94.0460736,53.6409422 94.0364276,55.7869942 C94.0267817,57.9330461 94.5389489,60.1543125 98.0807457,60.1383931 Z" id="Oval-Copy-22" transform="translate(98.037961, 55.942495) rotate(-315.000000) translate(-98.037961, -55.942495) "></path>
                    <path d="M135.848603,82.4370357 C139.3904,82.4211163 139.798656,79.2481258 139.807483,77.2982865 C139.816184,75.3484473 138.912366,74.0325418 136.085888,74.0452461 C133.25941,74.0579503 131.813931,75.9395847 131.804285,78.0856367 C131.794639,80.2316887 132.306806,82.4529551 135.848603,82.4370357 Z" id="Oval-Copy-27" transform="translate(135.805818, 78.241138) rotate(-315.000000) translate(-135.805818, -78.241138) "></path>
                    <path d="M126.205746,174.020746 C129.747542,174.004827 130.155799,170.831836 130.164626,168.881997 C130.173327,166.932158 129.269509,165.616252 126.443031,165.628956 C123.616553,165.641661 122.171074,167.523295 122.161428,169.669347 C122.151782,171.815399 122.663949,174.036665 126.205746,174.020746 Z" id="Oval-Copy-24" transform="translate(126.162961, 169.824848) rotate(-315.000000) translate(-126.162961, -169.824848) "></path>
                    <path d="M93.2593171,149.332963 C96.8011139,149.317044 97.20937,146.144053 97.218197,144.194214 C97.226898,142.244375 96.32308,140.928469 93.4966024,140.941174 C90.6701248,140.953878 89.224645,142.835512 89.2149991,144.981564 C89.2053532,147.127616 89.7175203,149.348883 93.2593171,149.332963 Z" id="Oval-Copy-25" transform="translate(93.216532, 145.137065) rotate(-315.000000) translate(-93.216532, -145.137065) "></path>
                    <path d="M160.791313,49.0004582 C164.320565,49.0102365 164.704397,45.8288751 164.699056,43.8721298 C164.693605,41.9153844 163.783424,40.5881971 160.966957,40.5803513 C158.150491,40.5725541 156.723718,42.4503944 156.729638,44.6040475 C156.735595,46.7577005 157.262061,48.9906346 160.791313,49.0004582 Z" id="Oval-Copy-23" transform="translate(160.714347, 44.790405) rotate(-251.000000) translate(-160.714347, -44.790405) "></path>
                    <path d="M6.03409941,117.070176 C10.2945818,117.070176 12.8571429,115.689598 12.8571429,111.647308 C12.8571429,107.605018 11.9747681,104.328094 7.71428571,104.328094 C3.45380336,104.328094 0,104.101515 0,108.143805 C0,112.186096 1.77361706,117.070176 6.03409941,117.070176 Z" id="Oval-Copy-15"></path>
                    <path d="M74.3258072,129.851041 C78.5576936,129.867551 81.0976568,128.48755 81.0819242,124.417872 C81.066045,120.348194 80.1767794,117.045649 75.9448931,117.029058 C71.7130067,117.012629 69.1331338,119.535894 69.1418126,121.776141 C69.1505352,124.016388 70.0939209,129.834531 74.3258072,129.851041 Z" id="Oval-Copy-13" transform="translate(75.111868, 123.440123) rotate(-60.000000) translate(-75.111868, -123.440123) "></path>
                    <path d="M20.5019153,88.4580335 C24.7242697,88.4580335 27.2638979,87.0649893 27.2638979,82.9861972 C27.2638979,78.907405 26.3894196,75.6008906 22.1670653,75.6008906 C17.9447109,75.6008906 14.5218164,75.3722657 14.5218164,79.4510579 C14.5218164,83.52985 16.279561,88.4580335 20.5019153,88.4580335 Z" id="Oval-Copy-8" transform="translate(20.892857, 82.028300) rotate(-270.000000) translate(-20.892857, -82.028300) "></path>
                    <path d="M71.9305294,12.8018852 C76.1528838,12.8018852 78.6925119,11.4088411 78.6925119,7.33004889 C78.6925119,3.25125672 77.8180337,-0.0552576452 73.5956793,-0.0552576452 C69.373325,-0.0552576452 65.9503452,-0.283882608 65.9503452,3.79490956 C65.9503452,7.87370173 67.708175,12.8018852 71.9305294,12.8018852 Z" id="Oval-Copy-30" transform="translate(72.321429, 6.372152) rotate(-270.000000) translate(-72.321429, -6.372152) "></path>
                    <path d="M67.9126296,83.679753 C72.134984,83.679753 74.6746122,82.2867088 74.6746122,78.2079166 C74.6746122,74.1291245 73.8001339,70.8226101 69.5777796,70.8226101 C65.3554252,70.8226101 61.9325307,70.5939851 61.9325307,74.6727773 C61.9325307,78.7515695 63.6902753,83.679753 67.9126296,83.679753 Z" id="Oval-Copy-26" transform="translate(68.303571, 77.250020) rotate(-270.000000) translate(-68.303571, -77.250020) "></path>
                    <path d="M96.8412011,81.2906127 C101.063555,81.2906127 103.603184,79.8975685 103.603184,75.8187764 C103.603184,71.7399842 102.728705,68.4334698 98.506351,68.4334698 C94.2839966,68.4334698 90.8611021,68.2048449 90.8611021,72.283637 C90.8611021,76.3624292 92.6188467,81.2906127 96.8412011,81.2906127 Z" id="Oval-Copy-31" transform="translate(97.232143, 74.860880) rotate(-270.000000) translate(-97.232143, -74.860880) "></path>
                    <path d="M131.391242,25.4864653 C135.651725,25.4864653 138.214286,24.1058878 138.214286,20.0635976 C138.214286,16.0213074 137.331911,12.7443838 133.071429,12.7443838 C128.810946,12.7443838 125.357143,12.5178049 125.357143,16.560095 C125.357143,20.6023852 127.13076,25.4864653 131.391242,25.4864653 Z" id="Oval-Copy-16"></path>
                    <path d="M118.534099,161.667461 C122.794582,161.667461 125.357143,160.286883 125.357143,156.244593 C125.357143,152.202303 124.474768,148.925379 120.214286,148.925379 C115.953803,148.925379 111.359499,152.618595 111.359499,156.660885 C111.359499,160.703175 114.273617,161.667461 118.534099,161.667461 Z" id="Oval-Copy-14"></path>
                </g>
            </g>
        </g>
    </g>
</svg>