<?xml version="1.0" encoding="UTF-8"?>
<svg  viewBox="0 0 218 12" version="1.1" xmlns="http://www.w3.org/2000/svg" xmlns:xlink="http://www.w3.org/1999/xlink">
    <!-- Generator: Sketch 59.1 (86144) - https://sketch.com -->
    <title>keep-it-together-underline</title>
    <desc>Created with Sketch.</desc>
    <g id="Page-1" stroke="none" stroke-width="1" fill="none" fill-rule="evenodd">
        <g id="Landing-Page-" transform="translate(-301.000000, -1777.000000)" fill="#FAE44A">
            <g id="S1---Keep-it-together" transform="translate(224.000000, 1653.000000)">
                <g id="Group-10" transform="translate(77.000000, 124.000000)">
                    <path d="M2.4723021,3.7233091 C5.24595697,4.00321203 8.02414724,4.3045361 10.8028415,4.36308722 C16.9347151,4.49232812 23.0686044,4.58086884 29.1999741,4.50375273 C45.9714144,4.29168341 62.7418469,3.97679262 79.5127833,3.72116698 C86.8646821,3.609063 94.2175887,3.4384079 101.569487,3.47696596 C109.829476,3.52123632 118.088457,3.84469557 126.348445,3.91467131 C139.189197,4.02249106 152.030453,4.06747546 164.871709,4.0496245 C178.125184,4.03105951 191.379162,3.92752399 204.632636,3.81042174 C209.088424,3.77114965 213.544212,3.57621725 218,3.45268866 C213.532622,3.41698676 209.06222,2.91001972 204.586274,2.54800241 C200.095211,2.18527106 195.599109,1.89322948 191.102502,1.70115324 C184.000051,1.39625898 176.895584,1.14848776 169.790109,0.975690544 C163.910203,0.833596965 158.028784,0.861444451 152.148374,0.766477385 C145.609825,0.661513787 139.071781,0.444446209 132.533232,0.383038933 C126.818112,0.329486077 121.10148,0.495856951 115.38636,0.432307561 C109.175369,0.362331829 102.965386,0.0624358329 96.7538905,0.0060268241 C92.0884659,-0.0375294991 87.4225374,0.167399431 82.7566089,0.223094402 C74.0168749,0.328058001 65.2766369,0.359475677 56.5379107,0.515850017 C52.9453624,0.580113445 49.3558378,0.991399382 45.7632895,1.06280319 C37.9155193,1.22060561 30.0667413,1.31057441 22.2184671,1.33556574 C16.0850817,1.35627284 9.95119234,1.19061601 3.81780691,1.21703542 C2.61138799,1.22203368 1.19482843,0.664369939 0,2.92001625 C0.984183857,3.25061589 1.720432,3.64762106 2.4723021,3.7233091 M208.822851,11.2692636 C207.174985,11.3370972 205.528128,11.4184975 203.880262,11.4699083 C197.600232,11.6626986 191.320202,11.9932982 185.039667,11.9997245 C175.167089,12.009007 165.295014,11.7812289 155.422436,11.6869759 C151.669636,11.651274 147.916333,11.7912254 144.165045,11.6991145 C139.027938,11.5741579 133.893855,11.2985391 128.757756,11.1021787 C127.860752,11.0679048 126.962741,11.1221717 126.065234,11.1093191 C119.196104,11.0100678 112.325967,10.9750799 105.457845,10.7844317 C95.6492663,10.5116692 85.8432071,9.94686505 76.0346282,9.83690319 C67.3765315,9.74050805 58.7159151,10.1575063 50.0563066,10.2331943 C42.8560921,10.2967437 35.6528539,10.3253052 28.4551591,10.1053815 C25.4043403,10.0118425 22.3641042,9.24210946 19.3188287,8.78084086 C19.3233641,8.40954105 19.3278995,8.03966933 19.3324349,7.66836952 C20.2259105,7.64409223 21.1193862,7.61053244 22.0133658,7.59696571 C22.9965418,7.58125688 23.9792139,7.58482707 24.9618859,7.57840072 C32.8207427,7.53056017 40.6806073,7.60839032 48.5369444,7.39632101 C55.6479625,7.20424477 62.7534374,6.50091725 69.8639516,6.38310097 C76.6418691,6.27028295 83.4238181,6.683711 90.2042552,6.75083058 C95.4310627,6.80295536 100.658878,6.62801603 105.886189,6.64301083 C111.85882,6.65943371 117.83145,6.76868153 123.803577,6.84793976 C129.283359,6.92148568 134.763142,6.99074738 140.24242,7.09642502 C154.379292,7.36775949 168.518683,7.52627594 182.65253,7.99254281 C189.913217,8.23245961 197.164329,9.02646996 204.418968,9.58484774 C205.890457,9.69766576 207.359425,9.87688932 208.829906,10.0261233 C208.827386,10.4402654 208.824867,10.8551215 208.822851,11.2692636" id="keep-it-together-underline"></path>
                </g>
            </g>
        </g>
    </g>
</svg>