<svg height="1756" preserveAspectRatio="xMidYMax slice" viewBox="0 0 1440 1756" width="1440" xmlns="http://www.w3.org/2000/svg" xmlns:xlink="http://www.w3.org/1999/xlink"><linearGradient id="a"><stop offset="0" stop-color="#f6f1c2"/><stop offset="1" stop-color="#f7e355"/></linearGradient><linearGradient id="b" x1="-49.136851%" x2="62.742831%" xlink:href="#a" y1="42.122557%" y2="50.185514%"/><linearGradient id="c" x1="62.742831%" x2="62.742831%" xlink:href="#a" y1="0%" y2="57.876207%"/><linearGradient id="d" x1="52.03552%" x2="52.085236%" y1="1.283791%" y2="87.453761%"><stop offset="0" stop-color="#b5cfff"/><stop offset=".117099957" stop-color="#a9c3ff"/><stop offset=".295073184" stop-color="#98b4ff"/><stop offset=".511204083" stop-color="#7b9cf4"/><stop offset=".713895747" stop-color="#5e84ed"/><stop offset=".949834578" stop-color="#3b6efd"/><stop offset="1" stop-color="#3268ff"/></linearGradient><g fill="none" fill-rule="evenodd"><g transform="translate(0 1534)"><path d="m.00069348 2.98730756 1439.99930652-1.98730756v144.996096l-1088.42005-14.564251-351.57925652 90.568155z" fill="url(#b)"/><path d="m0 99c284.595857-127.9919512 764.595857-112.6599192 1440 45.996096 0-95.4181808 0-143.7502128 0-144.996096h-1440v221z" fill="#b5cfff"/><path d="m0 222c361.108438-212.75583858 841.108438-238.0904733 1440-76.003904v76.003904z" fill="#0b1940"/></g><g transform="matrix(-1 0 0 -1 1440 1535)"><path d="m0 1117.48133h1438v414.99519l-1438 2.00481z" fill="url(#c)"/><path d="m0 1534.48133c403.420425-211.56496 882.753759-235.38891 1438-71.47183l2 71.47183z" fill="#0b1940"/><path d="m0 1395.57074c412.020943-254.35107 892.020943-208.04754 1440 138.91059 0-1020.655352 0-1531.988685 0-1534.0000022h-1440v1534.0000022z" fill="url(#d)"/></g></g></svg>