<svg viewBox="0 0 1440 351" xmlns="http://www.w3.org/2000/svg" xmlns:xlink="http://www.w3.org/1999/xlink"><linearGradient id="a" x1="-.001%" x2="99.999%" y1="50%" y2="50%"><stop offset="0" stop-color="#3f81ff"/><stop offset="1" stop-color="#2c4bff"/></linearGradient><linearGradient id="b" x1="-.001%" x2="99.999%" y1="50%" y2="50%"><stop offset="0" stop-color="#203cb8"/><stop offset=".11" stop-color="#2644de"/><stop offset=".2" stop-color="#2a49f6"/><stop offset=".25" stop-color="#2c4bff"/><stop offset=".7" stop-color="#1e39a9"/><stop offset="1" stop-color="#183388"/></linearGradient><g fill="none"><path d="m811.436502 10.6c-47.901553-5.55381462-96.918139-8.54696297-145.968735-9.54670465-13.843369-.28215341-27.803352-.02265114-41.627838 0-8.418494.01379353-16.715077-.30113996-25.11207-.18192513-302.752578 4.29827664-587.9628392 75.24633198-598.42806719 77.87862978v271.92c111.92227619-110 283.80291419-193 427.70298419-237 145.369049-44.45 274.619292-53 367.744622-53 85.940319 0 235.466482 20.87 369.153642 51.59-90.35725-44.59-222.685356-86.49-353.464538-101.66z" fill="url(#a)"/><path d="m0 .66772461v98.15227539s439.67-111.36 812-68.22c345.22 40 628 199 628 199v-228.93227539c-162.15391 0-1369.0031905 0-1440 0z" fill="url(#b)"/></g></svg>