<svg viewBox="0 0 1440 532" xmlns="http://www.w3.org/2000/svg" xmlns:xlink="http://www.w3.org/1999/xlink"><linearGradient id="a" x1="0%" x2="100%" y1="50%" y2="50%"><stop offset="0" stop-color="#3f81ff"/><stop offset="1" stop-color="#2c4bff"/></linearGradient><linearGradient id="b" x1="-.001%" x2="99.999%" y1="50%" y2="50%"><stop offset="0" stop-color="#203cb8"/><stop offset=".11" stop-color="#2644de"/><stop offset=".2" stop-color="#2a49f6"/><stop offset=".25" stop-color="#2c4bff"/><stop offset=".7" stop-color="#1e39a9"/><stop offset="1" stop-color="#183388"/></linearGradient><g fill="none"><path d="m1143.49591 371.67c-159.699102 92.38-300.301462 117.64-407.776826 120.64 19.302682 16.938525 66.102904 29.186338 115.731259 35.77763 27.604076 3.666181 56.205524 1.086614 81.314404 1.086614 25.749742 0 52.287743 2.96078 79.417153 0 154.12906-16.820939 323.39576-79.66203 426.8088-168.504244 0 0 .29979-255 .29979-360-30.97848 97-122.91464 271-295.79458 371z" fill="url(#a)"/><path d="m932.642332 516.67c-182.873005 0-328.771687-65-482.664816-117-116.349202-39.32-221.915892-56-271.811243-64-37.264122-6.01-106.2861897-14.35-178.166273-15.16v211.49h802.800278 637.199722l-.99931-195.81c-121.60555 104.48-334.31783 180.48-506.358358 180.48z" fill="url(#b)"/></g></svg>