<svg preserveAspectRatio="xMidYMax slice" viewBox="0 0 1440 853" xmlns="http://www.w3.org/2000/svg" xmlns:xlink="http://www.w3.org/1999/xlink"><linearGradient id="a" x1="-.001%" x2="99.999%" y1="50%" y2="50%"><stop offset="0" stop-color="#3f81ff"/><stop offset="1" stop-color="#2c4bff"/></linearGradient><linearGradient id="b" x1="-.001%" x2="99.999%" y1="50%" y2="50%"><stop offset="0" stop-color="#203cb8"/><stop offset=".11" stop-color="#2644de"/><stop offset=".2" stop-color="#2a49f6"/><stop offset=".25" stop-color="#2c4bff"/><stop offset=".7" stop-color="#1e39a9"/><stop offset="1" stop-color="#183388"/></linearGradient><g fill="none"><path d="m810.752456 512.599937c-366.346574-42.489731-797.8352812 64.880274-810.752456 68.130253v272.26981c111.883595-109.999305 283.60418-193.330992 427.453625-237.330714 145.317907-44.449719 274.522679-52.999665 367.615246-52.999665 85.910085 0 235.383639 20.869868 369.023769 51.589674-90.32546-44.589718-222.607012-86.489454-353.340184-101.659358z" fill="url(#a)"/><path d="m.00069348 1v599.795359s556.00474752-129.352504 809.77325652-86.166931c276.66269 47.081638 629.22744 215.371572 629.22744 215.371572l.99861-730c-130.38947 0-1368.319203 1.10099345-1439.99930652 1z" fill="url(#b)"/></g></svg>