<svg viewBox="0 0 1440 536" xmlns="http://www.w3.org/2000/svg" xmlns:xlink="http://www.w3.org/1999/xlink"><linearGradient id="a" x1="0%" x2="100%" y1="50%" y2="50%"><stop offset="0" stop-color="#3f81ff"/><stop offset="1" stop-color="#2c4bff"/></linearGradient><linearGradient id="b" x1="-.001%" x2="99.999%" y1="50%" y2="50%"><stop offset="0" stop-color="#203cb8"/><stop offset=".11" stop-color="#2644de"/><stop offset=".2" stop-color="#2a49f6"/><stop offset=".25" stop-color="#2c4bff"/><stop offset=".7" stop-color="#1e39a9"/><stop offset="1" stop-color="#183388"/></linearGradient><g fill="none"><path d="m1143.74431 373.06212c-159.796382 92.726642-300.484391 118.081426-408.025226 121.092683 30.057438 26.458912 126.749197 41.515197 197.043207 41.515197 172.145329 0 385.548079-68.573342 507.237709-173.445387 0 0-.28092-256.160617-.28092-361.554613-30.99735 97.3639775-122.98951 272.016886-295.97477 372.39212z" fill="url(#a)"/><path d="m932.642331 430.014108c-182.873004 0-328.771686-35.460425-482.664816-63.828765-116.349201-21.45083-221.915891-30.550521-271.811242-34.914881-37.264122-3.278725-106.2861897-7.828571-178.166273-8.270462v212.67c0 .001661 1440 .33 1440 .33v-204.729538c-121.60555 56.998542-335.31714 98.743646-507.357669 98.743646z" fill="url(#b)"/></g></svg>