<svg height="836" viewBox="0 0 1680 836" width="1680" xmlns="http://www.w3.org/2000/svg"><path d="m445.347086-387.131657c-26.276259 54.797816-20.400532 282.030249-4.837205 428.2908963 5.359404 49.8629677 13.284006 98.8351187 16.03241 149.5011607 3.266805 60.234563-.883636 121.016663-6.023457 180.750409-11.03677 128.268547-26.723237 255.986708-27.223375 386.049424s16.097947 266.227257 61.472988 361.446687c37.008421 77.66222 88.867664 118.84241 143.042417 137.34425 19.702343 6.72877 4.447387 1.46431 59.062876 1.46431h571.80116c0-3.24084 0-18.48944 0-51.2798 0-131.86224 0-496.811369 0-847.105521 0-148.851251 0-294.2481249 0-419.1755504 0-105.7749056 0-226.5879916 0-362.4392596-72.82766 0-152.89384 0-240.19851 0-225.54878 0-530.470627 0-548.491078 0-8.962014 7.870638-17.174756 19.588302-24.638226 35.152994z" fill="#ffee9c" transform="matrix(0 -1 1 0 422.284523 1258.674901)"/></svg>