<svg height="600" viewBox="0 0 600 600" width="600" xmlns="http://www.w3.org/2000/svg" xmlns:xlink="http://www.w3.org/1999/xlink"><defs><rect id="a" height="528" rx="4" width="285"/><filter id="b" height="108.9%" width="116.5%" x="-10.4%" y="-2.9%"><feMorphology in="SourceAlpha" operator="erode" radius="0.5" result="shadowSpreadOuter1"/><feOffset dx="-6" dy="8" in="shadowSpreadOuter1" result="shadowOffsetOuter1"/><feGaussianBlur in="shadowOffsetOuter1" result="shadowBlurOuter1" stdDeviation="7"/><feColorMatrix in="shadowBlurOuter1" type="matrix" values="0 0 0 0 0   0 0 0 0 0   0 0 0 0 0  0 0 0 0.5 0"/></filter><path id="c" d="m4 0h33c2.209139 0 4 1.790861 4 4v28c0 2.209139-1.790861 4-4 4h-33c-2.209139 0-4-1.790861-4-4v-28c0-2.209139 1.790861-4 4-4z"/><path id="d" d="m4 0h33c2.209139 0 4 1.790861 4 4v28c0 2.209139-1.790861 4-4 4h-33c-2.209139 0-4-1.790861-4-4v-28c0-2.209139 1.790861-4 4-4z"/><path id="e" d="m4 0h33c2.209139 0 4 1.790861 4 4v28c0 2.209139-1.790861 4-4 4h-33c-2.209139 0-4-1.790861-4-4v-28c0-2.209139 1.790861-4 4-4z"/><rect id="f" height="64" rx="4" width="174"/><filter id="g" height="131.2%" width="110.3%" x="-6.3%" y="-7.8%"><feOffset dx="-2" dy="6" in="SourceAlpha" result="shadowOffsetOuter1"/><feGaussianBlur in="shadowOffsetOuter1" result="shadowBlurOuter1" stdDeviation="2"/><feColorMatrix in="shadowBlurOuter1" type="matrix" values="0 0 0 0 0   0 0 0 0 0   0 0 0 0 0  0 0 0 0.5 0"/></filter><mask id="h" fill="#fff"><use fill="#fff" fill-rule="evenodd" xlink:href="#c"/></mask><mask id="i" fill="#fff"><path d="m19 3h-14c-1.11 0-2 .9-2 2v14c0 1.1.89 2 2 2h14c1.1 0 2-.9 2-2v-14c0-1.1-.9-2-2-2zm-2 10h-4v4h-2v-4h-4v-2h4v-4h2v4h4z" fill="#fff" fill-rule="evenodd"/></mask><mask id="j" fill="#fff"><use fill="#fff" fill-rule="evenodd" xlink:href="#d"/></mask><mask id="k" fill="#fff"><path d="m19 3h-14c-1.11 0-2 .9-2 2v14c0 1.1.89 2 2 2h14c1.1 0 2-.9 2-2v-14c0-1.1-.9-2-2-2zm-2 10h-4v4h-2v-4h-4v-2h4v-4h2v4h4z" fill="#fff" fill-rule="evenodd"/></mask><mask id="l" fill="#fff"><use fill="#fff" fill-rule="evenodd" xlink:href="#e"/></mask><mask id="m" fill="#fff"><path d="m19 3h-14c-1.11 0-2 .9-2 2v14c0 1.1.89 2 2 2h14c1.1 0 2-.9 2-2v-14c0-1.1-.9-2-2-2zm-2 10h-4v4h-2v-4h-4v-2h4v-4h2v4h4z" fill="#fff" fill-rule="evenodd"/></mask><mask id="n" fill="#fff"><path d="m0 0h213v1h-213z" fill="#fff" fill-rule="evenodd"/></mask><mask id="o" fill="#fff"><path d="m2.5 19h19v2h-19zm19.57-9.36c-.21-.8-1.04-1.28-1.84-1.06l-5.31 1.42-6.9-6.43-1.93.51 4.14 7.17-4.97 1.33-1.97-1.54-1.45.39 1.82 3.16.77 1.33 1.6-.43 5.31-1.42 4.35-1.16 5.31-1.42c.81-.23 1.28-1.05 1.07-1.85z" fill="#fff" fill-rule="evenodd"/></mask><mask id="p" fill="#fff"><path d="m12 2c-5.52 0-10 4.48-10 10s4.48 10 10 10 10-4.48 10-10-4.48-10-10-10zm1.41 16.09v1.91h-2.67v-1.93c-1.71-.36-3.16-1.46-3.27-3.4h1.96c.1 1.05.82 1.87 2.65 1.87 1.96 0 2.4-.98 2.4-1.59 0-.83-.44-1.61-2.67-2.14-2.48-.6-4.18-1.62-4.18-3.67 0-1.72 1.39-2.84 3.11-3.21v-1.93h2.67v1.95c1.86.45 2.79 1.86 2.85 3.39h-1.96c-.05-1.11-.64-1.87-2.22-1.87-1.5 0-2.4.68-2.4 1.64 0 .84.65 1.39 2.67 1.91s4.18 1.39 4.18 3.91c-.01 1.83-1.38 2.83-3.12 3.16z" fill="#fff" fill-rule="evenodd"/></mask><mask id="q" fill="#fff"><path d="m19 3h-14c-1.11 0-2 .9-2 2v14c0 1.1.89 2 2 2h14c1.11 0 2-.9 2-2v-14c0-1.1-.89-2-2-2zm-9 14-5-5 1.41-1.41 3.59 3.58 7.59-7.59 1.41 1.42z" fill="#fff" fill-rule="evenodd"/></mask><mask id="r" fill="#fff"><path d="m0 0h213v1h-213z" fill="#fff" fill-rule="evenodd"/></mask><mask id="s" fill="#fff"><path d="m12 2c-5.52 0-10 4.48-10 10s4.48 10 10 10 10-4.48 10-10-4.48-10-10-10zm1 15h-2v-6h2zm0-8h-2v-2h2z" fill="#fff" fill-rule="evenodd"/></mask><mask id="t" fill="#fff"><path d="m0 0h213v1h-213z" fill="#fff" fill-rule="evenodd"/></mask><mask id="u" fill="#fff"><path d="m3 17v2h6v-2zm0-12v2h10v-2zm10 16v-2h8v-2h-8v-2h-2v6zm-6-12v2h-4v2h4v2h2v-6zm14 4v-2h-10v2zm-6-4h2v-2h4v-2h-4v-2h-2z" fill="#fff" fill-rule="evenodd"/></mask><mask id="v" fill="#fff"><path d="m0 0h212v1h-212z" fill="#fff" fill-rule="evenodd"/></mask><mask id="w" fill="#fff"><path d="m7 13c1.66 0 3-1.34 3-3s-1.34-3-3-3-3 1.34-3 3 1.34 3 3 3zm12-6h-8v7h-8v-9h-2v15h2v-3h18v3h2v-9c0-2.21-1.79-4-4-4z" fill="#fff" fill-rule="evenodd"/></mask><mask id="x" fill="#fff"><path d="m19 3h-14c-1.11 0-2 .9-2 2v14c0 1.1.89 2 2 2h14c1.11 0 2-.9 2-2v-14c0-1.1-.89-2-2-2zm-9 14-5-5 1.41-1.41 3.59 3.58 7.59-7.59 1.41 1.42z" fill="#fff" fill-rule="evenodd"/></mask><mask id="y" fill="#fff"><path d="m0 0h211v1h-211z" fill="#fff" fill-rule="evenodd"/></mask><mask id="z" fill="#fff"><path d="m18.92 6.00999998c-.2-.59000001-.76-1.01000002-1.42-1.01000002h-2.5v-2h-6.00000004v2h-2.5c-.65999999 0-1.20999999.42000001-1.41999999 1.01000002l-2.08000001 5.99000002v8c0 .55.45 1 1 1h1c.55000001 0 1-.45 1-1v-1h12.00000004v1c0 .55.45 1 1 1h1c.55 0 1-.45 1-1v-8zm-12.42000003 9.99000002c-.83 0-1.5-.67-1.5-1.5s.67-1.5 1.5-1.5c.83000001 0 1.5.67 1.5 1.5s-.66999999 1.5-1.5 1.5zm11.00000003 0c-.83 0-1.5-.67-1.5-1.5s.67-1.5 1.5-1.5 1.5.67 1.5 1.5-.67 1.5-1.5 1.5zm-12.50000003-5 1.5-4.50000002h11.00000003l1.5 4.50000002z" fill="#fff" fill-rule="evenodd"/></mask><mask id="A" fill="#fff"><path d="m19 5v14h-14v-14zm0-2h-14c-1.1 0-2 .9-2 2v14c0 1.1.9 2 2 2h14c1.1 0 2-.9 2-2v-14c0-1.1-.9-2-2-2z" fill="#fff" fill-rule="evenodd"/></mask><mask id="B" fill="#fff"><path d="m24 21.44c-1.0133333 0-1.92.4-2.6133333 1.0266667l-9.5066667-5.5333334c.0666667-.3066666.12-.6133333.12-.9333333s-.0533333-.6266667-.12-.9333333l9.4-5.48000003c.72.66666663 1.6666667 1.08000003 2.72 1.08000003 2.2133333 0 4-1.7866667 4-4.00000003 0-2.21333334-1.7866667-4-4-4s-4 1.78666666-4 4c0 .32.0533333.62666666.12.93333333l-9.4 5.48c-.72-.6666667-1.66666667-1.08-2.72-1.08-2.21333333 0-4 1.7866667-4 4s1.78666667 4 4 4c1.05333333 0 2-.4133333 2.72-1.08l9.4933333 5.5466667c-.0666666.28-.1066666.5733333-.1066666.8666666 0 2.1466667 1.7466666 3.8933334 3.8933333 3.8933334s3.8933333-1.7466667 3.8933333-3.8933334c0-2.1466666-1.7466666-3.8933333-3.8933333-3.8933333z" fill="#fff" fill-rule="evenodd"/></mask></defs><g fill="none" fill-rule="evenodd"><path d="m0 0h600v600h-600z" fill="#f4f0ea"/><g transform="translate(291 48)"><use fill="#000" filter="url(#b)" xlink:href="#a"/><use fill="#f9f9fa" fill-rule="evenodd" xlink:href="#a"/></g><g transform="translate(291 64)"><g transform="translate(239 50)"><use fill="none" xlink:href="#c"/><g mask="url(#h)"><g fill="#000" fill-opacity=".87" mask="url(#i)" transform="translate(9 8)"><path d="m0 0h24v24h-24z"/></g></g></g><g transform="translate(239 122)"><use fill="none" xlink:href="#d"/><g mask="url(#j)"><g fill="#000" fill-opacity=".87" mask="url(#k)" transform="translate(9 8)"><path d="m0 0h24v24h-24z"/></g></g></g><g transform="translate(239 194)"><use fill="none" xlink:href="#e"/><g mask="url(#l)"><g fill="#000" fill-opacity=".87" mask="url(#m)" transform="translate(9 8)"><path d="m0 0h24v24h-24z"/></g></g></g><path d="m4 0h33c2.209139 0 4 1.790861 4 4v28c0 2.209139-1.790861 4-4 4h-33c-2.209139 0-4-1.790861-4-4v-28c0-2.209139 1.790861-4 4-4z" fill="none" transform="translate(237 260)"/><g fill="#000" fill-opacity=".87" mask="url(#n)" opacity=".12" transform="translate(72 103)"><path d="m0 0h213v1h-213z"/></g><g fill="#000" fill-opacity=".54" mask="url(#o)" transform="translate(16 56)"><path d="m0 0h24v24h-24z"/></g><text fill="#000" fill-opacity=".6" font-family="RobotoCondensed-Regular, Roboto Condensed" font-size="14" letter-spacing=".25" transform="translate(56 70)"><tspan x="0" y="13">Performer</tspan></text><text fill="#000" fill-opacity=".87" font-family="RobotoCondensed-Regular, Roboto Condensed" font-size="16" letter-spacing=".150000006" transform="translate(56 46)"><tspan x="0" y="16">Flights</tspan></text><g fill="#000" fill-opacity=".54" mask="url(#p)" transform="translate(16 272)"><path d="m0 0h24v24h-24z"/></g><text fill="#000" fill-opacity=".6" font-family="RobotoCondensed-Regular, Roboto Condensed" font-size="14" letter-spacing=".25" transform="translate(56 286)"><tspan x="0" y="13">Performer</tspan></text><text fill="#000" fill-opacity=".87" font-family="RobotoCondensed-Regular, Roboto Condensed" font-size="16" letter-spacing=".150000006" transform="translate(56 262)"><tspan x="0" y="16">Payment Information</tspan></text><g fill="#1935e6" mask="url(#q)" transform="translate(244.947368 272)"><path d="m0 0h24v24h-24z"/></g><g fill="#000"><g fill-opacity=".87" mask="url(#r)" opacity=".12" transform="translate(72 175)"><path d="m0 0h213v1h-213z"/></g><g fill-opacity=".54" mask="url(#s)" transform="translate(16 128)"><path d="m0 0h24v24h-24z"/></g><text fill-opacity=".6" font-family="RobotoCondensed-Regular, Roboto Condensed" font-size="14" letter-spacing=".25" transform="translate(56 142)"><tspan x="0" y="13">Performer</tspan></text><text fill-opacity=".87" font-family="RobotoCondensed-Regular, Roboto Condensed" font-size="16" letter-spacing=".150000006" transform="translate(56 118)"><tspan x="0" y="16">Contacts</tspan></text><g fill-opacity=".87" mask="url(#t)" opacity=".12" transform="translate(72 247)"><path d="m0 0h213v1h-213z"/></g><g fill-opacity=".54" mask="url(#u)" transform="translate(16 200)"><path d="m0 0h24v24h-24z"/></g><text fill-opacity=".6" font-family="RobotoCondensed-Regular, Roboto Condensed" font-size="14" letter-spacing=".25" transform="translate(56 214)"><tspan x="0" y="13">Performer</tspan></text><text fill-opacity=".87" font-family="RobotoCondensed-Regular, Roboto Condensed" font-size="16" letter-spacing=".150000006" transform="translate(56 190)"><tspan x="0" y="16">Riders</tspan></text></g><text fill="#636363" font-family="Roboto-Regular, Roboto" font-size="18" letter-spacing=".225"><tspan x="16" y="17">Advancing checklist</tspan></text></g><g transform="translate(291 395)"><g fill="#000" fill-opacity=".87" mask="url(#v)" opacity=".12" transform="translate(72 108)"><path d="m0 0h212v1h-212z"/></g><g fill="#000" fill-opacity=".54" mask="url(#w)" transform="translate(16 61)"><path d="m0 0h24v24h-24z"/></g><text fill="#000" fill-opacity=".6" font-family="RobotoCondensed-Regular, Roboto Condensed" font-size="14" letter-spacing=".25" transform="translate(56 75)"><tspan x="0" y="13">Event Organizer</tspan></text><text fill="#000" fill-opacity=".87" font-family="RobotoCondensed-Regular, Roboto Condensed" font-size="16" letter-spacing=".150000006" transform="translate(56 51)"><tspan x="0" y="16">Accommodation</tspan></text><g fill="#1935e6" mask="url(#x)" transform="translate(245.894737 61)"><path d="m0 0h24v24h-24z"/></g><g fill="#000"><g fill-opacity=".87" mask="url(#y)" opacity=".12" transform="translate(72 180)"><path d="m0 0h211v1h-211z"/></g><g fill-opacity=".54" mask="url(#z)" transform="translate(16 133)"><path d="m0 0h24v24h-24z"/></g><text fill-opacity=".6" font-family="RobotoCondensed-Regular, Roboto Condensed" font-size="14" letter-spacing=".25" transform="translate(56 147)"><tspan x="0" y="13">Event Organizer</tspan></text><text fill-opacity=".87" font-family="RobotoCondensed-Regular, Roboto Condensed" font-size="16" letter-spacing=".150000006" transform="translate(56 123)"><tspan x="0" y="16">Pickups</tspan></text><g fill-opacity=".54" mask="url(#A)" transform="translate(244.947368 133)"><path d="m0 0h24v24h-24z"/></g></g><text fill="#636363" font-family="Roboto-Regular, Roboto" font-size="18" letter-spacing=".225"><tspan x="16" y="17">Provided by us</tspan></text></g><g transform="translate(27 208)"><use fill="#000" filter="url(#g)" xlink:href="#f"/><use fill="#2c4bff" fill-rule="evenodd" xlink:href="#f"/><g fill="#fff"><text font-family="Roboto-Regular, Roboto" font-size="24" letter-spacing=".375"><tspan x="72" y="40">SHARE</tspan></text><g mask="url(#B)" transform="translate(16 16)"><path d="m0 0h32v32h-32z"/></g></g></g><path d="m229.732108 86.0612307c26.094051-34.6203692 25.141847-59.7433232 23.36629-69.8793441-.959915-5.4798136-1.565882-11.02824522-5.441734-15.16849493-3.875853-4.14024972 1.52878 16.52713853 1.057853 24.87117643-.629003 11.1458325-3.41028 20.4620787-6.607351 28.0860943-6.226441 14.8481216-21.710711 39.6304797-48.1023 47.8958826-38.276656 14.151538-109.8280458-22.3890021-131.1538199-37.4509731-10.1171574-7.1455474-22.5607255-16.0744082-34.7510267-25.6401112-14.7088545-11.5420062-26.05323739-22.8344409-27.03426654-22.1715654-2.01849967 1.3638882 4.82522753 12.0026234 18.05304274 22.524214 9.8358691 7.8235888 15.9179461 12.9393583 25.2705791 20.1177533 12.88284 9.887923 27.6831431 19.0317785 34.773377 23.8232669 11.9190695 8.054753 36.5222213 19.7431205 59.4077193 25.3294055 22.885498 5.586284 65.067586 12.283065 91.161637-22.3373043z" fill="#131a59" fill-rule="nonzero" transform="matrix(.76604444 -.64278761 -.64278761 -.76604444 116.12047046001 218.14758402468)"/><path d="m305.909536 35.4023032c.683528 2.8387623 1.124089 5.1604851 1.321683 6.9651684.722334 6.5972842.045426 13.6354187-1.388019 15.2260309-2.224588 2.4685004-9.133456-1.7202263-12.406718-3.9072026s-6.632866-6.149478-7.017969-6.609672c-.256736-.3067959.246215-.2980169 1.508852.0263371" stroke="#131a59" stroke-dasharray="0 2" stroke-linecap="round" stroke-width="3.5" transform="matrix(.9998477 -.01745241 .01745241 .9998477 -.772864 5.189426)"/><path d="m141.448449 69.1300231 36.726713 7.5791541-20.241029 48.8000478 21.011484 2.253261-24.78454 56.220078-25.408895-6.793684.755077-22.529064-21.777378-1.353334 3.586817-11.475125-10.296923 1.059168-10.3810637-45.5276258 42.9114727-7.6526017c-2.504378 9.7116109-3.737168 14.4124625-3.698369 14.1025565.022535-.179995 4.936203.934539 4.9556.753162.463391-4.332908 2.677069-16.1449061 6.641034-35.4359929z" fill="#6d7278" transform="matrix(.999999995 0 0 .999999995 -16.5616034572 408.81413758267)"/><g fill-rule="nonzero"><path d="m171.73341 109.75045c2.789846-.368077 5.616551 1.317001 8.281898 2.961465l3.934567 2.427544c8.645741 5.333988 18.698883-1.611225 23.66666-11.492791 1.31805-2.561481 2.156384-5.3410035 2.47381-8.2019939.407376-5.0942393-.697666-10.1945289-3.177431-14.6653488-2.193656-3.9710016-5.357607-7.3249819-9.198566-9.7510388-1.733516-1.0986687-3.57775-1.9873814-5.424317-1.9939542-3.348118-.0121466-6.094538 3.082113-7.388838 7.16691-.713672 3.7677184-.917301 7.0283754.320525 10.9335911.265033.8353376.565959 1.6443046.879304 2.4442895.070443.1557707.142545.3102473.217204.4625072.005735.010397-.00362.0247273-.018216.0403958.282646.7079066.570123 1.412421.852087 2.1213312.481928.8650695.842546 1.7920223 1.071771 2.7549459.26564.4807717.538428.960547.825719 1.4397794 1.463602 2.4415336 3.153107 5.0350416 4.282531 7.7679116.129775.301161.189203.627825.173798.955322 1.732109-.777391 3.464259-1.554792 5.196451-2.332203-3.271383-2.37016-5.735297-6.4817434-7.762147-10.7230233-1.295576-2.7109201-2.486637-5.6368769-2.749409-8.7453209s.612792-6.4373664 2.616017-7.6932968c1.413412-.8859537 3.133967-.631106 4.729841-.1004547 1.034723.3266596 2.014949.804794 2.908582 1.4187477 2.187147 1.5440586 3.881823 4.2087705 5.25578 7.0089834 1.778873 3.6253836 3.169352 8.033634 2.372872 11.9682222-.829704 4.0984294-3.758467 6.4833464-6.586292 8.2040524-2.811061 1.823296-5.933172 3.117675-9.21161 3.81899-3.778812.708693-7.686078-.012753-10.958325-2.02337-3.297169-1.964088-6.961711-2.281602-10.111738-.52922-3.528575 1.963125-6.127795 6.40002-6.786071 11.584135 1.141235-.263008 2.1392.098601 3.261435.725321.28732-4.218548 2.948495-7.543032 6.052108-7.952429z" fill="#7f0f04" transform="matrix(.999999995 0 0 .999999995 -11.17537220846 419.25136523993)"/><g transform="matrix(.999999995 0 0 .999999995 3.8575864333 419.72269063408)"><g fill="#eab124"><path d="m14.2156616 53.2541334c2.2536009.2257057 4.498996-.4280059 6.7523426-.1914156-1.0216971-4.3678432-1.7570163-8.8021655-2.201743-13.2775498l-7.3406956 1.3259003c.8856195 4.0636314 1.6655728 8.1503455 2.4496061 12.2362259.0974413-.073199.2202168-.1067914.3404899-.0931608z" transform="matrix(.999999995 0 0 .999999995 66.75925190659 43.99243534643)"/><path d="m20.5777744 59.3293305c.033521.0908846.0245964.1911683-.0248366.2790815-.0161432.0393089-.0294206.0794056-.0397483.1200371.0051367.0492925.014734.0979933.0287005.1456389.0430098.1116988.0124174.2376022-.079709.3280435.277357.6601863 1.001881 1.0785614 1.8090852 1.0446531.4637152-.0233924.8930149-.2479313 1.1463898-.5996024.253375-.3516711.2979421-.7848344.1190108-1.1567071-.4304955-.7256023-2.5308047-.8942066-2.9588924-.1611446z" transform="matrix(.999999995 0 0 .999999995 64.07837471761 44.86219477751)"/><path d="m25.5079939 60.6849665c-.5656341-2.4646122-1.2078965-4.9138828-1.8485568-7.3641833-.0531057.0163495-.1084658.022374-.1632174.0177619-2.2435404-.2101941-4.4413736.6332308-6.6911099.5115609.6278736 2.6137236 1.2586397 5.2266517 1.9209046 7.8308527.7903802 3.1081977 1.7053576 6.1794111 2.5752707 9.2619459 1.9543306-.5832654 3.9622903-.9314264 5.9832679-1.0374416-.5588628-3.0884907-1.0802787-6.186691-1.7765591-9.2204965zm-.9225931.839474c-1.1807912 2.1839531-5.0869965.8382342-4.7395998-1.4517986-.0372931-.851576.5620465-1.606159 1.4143716-1.7807279 2.105611-.6281307 4.5531766.9613574 3.3252282 3.2325265z" transform="matrix(.999999995 0 0 .999999995 63.68327866668 44.82245883361)"/><path d="m23.8207819 41.5461474c-.3339685-.1073859-.69826-.0555945-1.0076306.1432549-.3093706.1988495-.5366722.5273076-.6287166.9085154-.0256123.0758062-.0661879.1447889-.1186479.2017136-.099146.5420591.0537217 1.09246.4059988 1.4617998.352277.3693399.8558803.5072067 1.3375109.3661581.6961817-.1681715 1.5990793-.8477564 1.3746022-1.7433439-.2231747-.6747523-.7315747-1.173821-1.3631168-1.3380979z" transform="matrix(.999999995 0 0 .999999995 67.28667173081 45.47421220846)"/><path d="m38.6114185 35.4445797c.1373079.9121642.1334556 1.8402256.2378719 2.7570462.9958776-.0210354 1.9886383-.2009055 2.9438051-.5333636-.1541332-.8763031-.252984-1.7643347-.2959253-2.6584617-.9655897.1103632-1.9275069.2552895-2.8857517.4347791z" transform="matrix(.999999995 0 0 .999999995 68.21875966507 48.75589777815)"/><path d="m39.4360378 34.1544824c1.4095281 16.4874451 1.7571941 33.0583057 1.0407107 49.6035682-.0205745.5519221-.8555957.5695262-.8348842.0144914.7141936-16.4995623.3710534-33.024604-1.0271797-49.4672029l-8.5342798 1.5699221c.9203033 7.8511306 2.3561642 15.6219339 3.2910755 23.4715118.980007 8.2284152.2279902 16.6494222 2.2550124 24.7345197.1344196.5361604-.6676315.7788503-.8020629.2427531-1.9865622-7.9242888-1.3451524-16.1660029-2.2068731-24.2415572-.8597845-8.0553629-2.390248-16.0136151-3.3525264-24.0571748l-7.338326 1.3498936c.7209014 7.654895 2.8876427 15.0771398 4.2449495 22.6308366.5248336 2.9204234.9045685 5.8867782 1.3233421 8.8452593.0120934.0003802.0243141-.0002614.0363369.0004975.2081497.0065012.3791145.1701996.4007672.3837335.0216526.213534-.1126259.4116284-.314769.464363.6941593 4.7956896 1.536524 9.5583449 3.3165214 14.0616665.2025852.512411-.6015321.7495342-.8019782.2426387-1.8092612-4.5770716-2.6499229-9.4212135-3.3508794-14.2966352-1.9852732-.0296746-3.9680105.1850601-5.9061754.6396515 1.0113929 4.0008085 1.7305136 8.0755305 2.1513302 12.1899875.0478191.5520882-.7873325.5632578-.8349335.0144165-.680186-7.846024-3.1085949-15.3320935-4.6947903-22.9969605-1.4198589-6.8602678-2.6876929-13.7540074-4.2156414-20.5887752l-7.46975095 1.3741441 10.43660085 47.2182006 22.7509348 4.4063469 11.1495208-59.7807132zm6.3836154 6.9010594-.0004874-.0188561c-.9876307.3328678-2.0271537.4693738-3.0629857.4022188-.1273784-.0163155-.2420981-.0867803-.3163317-.1943019s-.1011989-.2422765-.074355-.3715771c-.1232995-.8817987-.1196041-1.7816496-.2962962-2.6542976-.0138686-.0690944-.0112725-.1406772.0075667-.2086419-.0794095-.1034176-.0996373-.2425082-.0531936-.36577s.152646-.2123477.2792828-.2342714c1.1556333-.2104183 2.3160193-.3740911 3.4852783-.4756434.0756431-.0069813.1514498.0102196.2170688.0492538.0935589.0047934.1805143.0505111.2389496.1256304s.0827765.1724745.0668884.2675279c-.1293355 1.2412339.3768441 2.4244094.3450858 3.6643876-.0139474.5527027-.8507189.5693389-.8364708.0143409zm-9.8411935 11.0770055c-.9110342-.7175961-1.5141558-1.7727017-1.6820493-2.9425903-.0151259.0068443-.0320332.0116427-.0470481.0185738-.4861108.227849-.9281325-.5034609-.4388117-.7328527 1.09066-.5113396 2.6848311-.9486168 3.8747487-.6471887 1.1317849.2865635 1.4269042 2.0728153 1.1862017 3.0851975-.1626886.6077422-.5904624 1.1041049-1.1573779 1.3429507s-1.2084272.1929813-1.7356634-.1240903zm-7.4201013-8.5105361c-.8402185.9117256-2.1887223 1.0847722-3.2153048.4126036-.4893877-.3401669-.8107849-.8822543-.8812134-1.4863064s.1170149-1.2108615.5139362-1.6637626c.0249396-.0281277.0536158-.0524917.085173-.0723648.4160598-.5741603 1.1066515-.8645153 1.7927416-.7537472 1.5402882.2191062 3.0584652 2.1680977 1.7046674 3.5635774zm-19.10245949.1294998c.81761459-.1315273 1.64343859-.2021351 2.47094079-.2112652.2259451.004854.4073821.1916561.4104734.4226111.0030913.2309551-.1732728.423162-.3989967.4348387-.8274706.0089908-1.6532721.0794728-2.47087042.2108883-.53419036.0738703-.54083727-.7842054-.01154707-.8570729zm.89034319 3.4801614c.8092011-.4468391 1.7116164-.6877908 2.6307632-.7024337.2263594.0043264.408414.1912879.4116158.42271.0032018.231422-.1736016.4240169-.399743.4354466-.7684236.0074847-1.5239392.2045644-2.2022997.5744802-.4793345.2513032-.92080708-.4782725-.4404212-.7300892zm.9977704 3.0510092c.7600155-.1153346 1.5281878-.1641651 2.2961581-.1459602.2262504.0043596.408158.1913357.4112316.4226898.0030735.2313541-.1737936.4237784-.399837.4350062-.6929848-.0229079-1.3866955.0143672-2.0736629.1114239-.5268251.0967666-.7645985-.7257136-.2337289-.8229982zm.8279968 3.1661752 1.5640916.2991258c.5308681.1015262.4249983.4204-.1040878.3192146l-1.5640301-.2991141c-.5311224-.1015242-.4250682-.4203627.1039564-.319189zm2.6433019 4.3199612c-.657244-.0753242-1.3224304-.0333135-1.9658803.1241577-.5265324.1025214-.7638119-.7199187-.2338727-.8229513.7877226-.1885362 1.601631-.2336055 2.404326-.133137.5327928.0890202.3252583.9204415-.2046579.8320444zm-.2520383 6.0825388c.5597039-.1736736 1.1500989-.2171485 1.7279598-.1272417.5327894.0900779.3255625.9223249-.2044375.8326565-.4328843-.0587426-.8732636-.0183386-1.289308.1182915-.219014.0568242-.4424433-.0738102-.5055504-.2955847-.063107-.2217745.056746-.4551342.2711897-.5280196zm.8949783 3.09605c.5460683-.1890017 1.144058-.1332799 1.6468811.1534594.4813942.251983.075982 1.0053735-.4038617.753951-.3080694-.1777147-.6769514-.2079436-1.0093208-.0827112-.5088553.1885549-.73918-.637516-.2337835-.8245851zm1.749135 5.8953359c-.5851057-.0808649-1.1763658-.1059257-1.7661471-.0748588-.2261247-.0045304-.4078269-.1914874-.4108317-.4227129-.0030048-.2312254.173769-.4235131.3996886-.4347655.6623622-.0295049 1.3258947.0041829 1.9819856.1006262.5319249.0948964.3244533.9261334-.2047804.8318247zm7.0646496 4.1143239c-.1057667-1.0616933-.4121229-2.085818-.4840232-3.1541256-.037367-.5543327.7962051-.5669956.8334484-.0150478.0718178 1.0667176.3782309 2.0922306.4840232 3.1541256.0550088.5523106-.77851.5636722-.83335.015198z" transform="matrix(.999999995 0 0 .999999995 63.58370437534 45.95576926556)"/><path d="m35.6030799 47.5976313c-.2723167-.1587327-.9159856-.0773176-1.2275834-.0518138-.513872.0421513-1.0239525.1182852-1.5247839.2275873.1095795.6752539.4697073 1.3029081 1.0359524 1.8055253.3479558.3182289.9321076.4070912 1.4288791.2173638.4967716-.1897274.7845521-.6115989.7039328-1.0319293-.0122188-.3119161-.0680797-.9637636-.416397-1.1667333z" transform="matrix(.999999995 0 0 .999999995 66.01714046849 47.43457255476)"/></g><path d="m54.1747484 19.0159254c3.6479154 1.5443877 6.320005 4.771473 10.0494646 6.2789608 4.0506204 1.6373678 8.0933656 1.6119886 12.3998979 1.0586114 1.5937135-.2408387 3.1976875-.3598855 4.7991373-.3561917l2.2895214-5.4100306c-2.8892577-.2535713-6.018607.6322286-8.9509752 1.0255691-3.5777611.4799322-6.5470731-.7051433-9.3588744-2.838857-3.4787632-2.6396913-6.4051051-5.3233059-11.0610438-4.7586432-2.1789954.264165-4.2307252.7360117-6.3237628.9005119l-.9065749 4.4321977c2.3754125-.533796 4.5045957-1.4153521 7.0632099-.3321284z" fill="#ffee9c" transform="matrix(.999999995 0 0 .999999995 70.86372384653 53.86545367688)"/><path d="m52.8127492 26.9123015c3.417025.801539 5.8756789 3.3066337 8.9119659 4.8539403 3.9399424 2.007832 8.4795296 2.4633167 12.9001521 2.3535247 1.6428475-.0407554 3.3019072-.1295164 4.947956-.112452l3.0041541-6.879678c-2.2533862.0883402-4.5048533.3056088-6.7436908.6507722-3.4683137.3896967-6.9487361-.0265223-10.1768338-1.2170335-3.5035444-1.2992166-6.0121232-3.7223755-9.1539657-5.5918233-1.8645989-1.1787704-4.1587407-1.4923914-6.3275007-.865002-.6798196.1793146-1.3391777.3808991-2.0038141.5462226l-1.4004212 6.6377235c1.9664991-.6615249 4.0503442-.7912719 6.0419982-.3761945z" fill="#ffee9c" transform="matrix(.999999995 0 0 .999999995 69.60935787056 53.60249303085)"/><path d="m73.3029104 54.9328518c-2.450458-.4035776-4.928241-.3397959-7.4027064-.522825-4.2415046-.3646093-8.3918975-1.3277489-12.3344149-2.8623228-.489963-.1828166-.2760738-1.0126079.2194804-.8276853 4.5890726 1.7714315 9.4528354 2.7685492 14.407138 2.9536004 3.0259557.0718448 6.0183815.5204786 8.911579 1.3360517l2.3875784-5.5523532c-.3667441.0323423-.7342908.0378943-1.0998394.0166137-2.3964031-.2644297-4.7146821-.9527495-6.8527181-2.0346395-2.556463-1.1654937-4.8842604-2.7462322-7.3970846-3.9929614-2.6484668-1.3153676-5.614493-1.8802214-8.6003172-1.6378554-.5343455.0342652-.5270302-.8156063.006477-.849763 2.4291065-.2162791 4.8563049.0914413 7.1243038.9032196 2.6331149.993987 4.958109 2.6153591 7.4363558 3.9176785 2.7753134 1.4587028 6.1200648 3.0576232 9.3739596 2.855118.1268129-.0079857.2533834-.0278703.3800612-.0406742l2.8924451-6.7264628c-4.0851689-.6392644-8.2858566-.5007686-12.3868649-1.2353894-4.7322126-.8477795-8.2581394-5.5967495-13.2797152-4.9239118-.5312661.0710323-.5209255-.7792025.0063688-.8498473 5.0329117-.6742342 8.1896951 3.8117247 12.7696414 4.8080953 4.3612391.9487153 8.8613683.7155414 13.2335945 1.4034056l2.2843553-5.3123512c-1.8598177.0021086-3.7355966.1374588-5.5884199.1558539-3.4580141.1052446-6.8839628-.4166955-10.119564-1.5417063-3.193531-1.1952286-5.6282274-3.5955711-8.7162521-4.9637296-2.6742204-1.1846446-5.3013155-.9975246-7.9371453-.1564333l-11.4256599 55.3368314 21.1545758 3.8011527 14.0345293-32.6373921c-1.1401058-.3476563-2.3029411-.6212927-3.4817415-.8193172z" fill="#ffee9c" transform="matrix(.999999995 0 0 .999999995 63.61713707159 52.79734146587)"/><path d="m54.3763788 12.908351c3.6358418.0456208 6.2696577 2.2065479 9.0009047 4.363051 1.8896445 1.4919198 3.8653649 2.8934093 6.2636521 3.3588646 2.5745679.4998506 5.2181566-.2757823 7.7871296-.6950428 1.7033436-.3202815 3.4309624-.4098548 5.139687-.2664818l3.6384182-8.5611095-37.7645712-7.05396287-2.0214038 9.83827227c2.6501966-.2612105 5.2415383-1.0179066 7.9561834-.9835909z" fill="#ffee9c" transform="matrix(.999999995 0 0 .999999995 72.3532820161 54.18239997888)"/><path d="m62.2952666 64.1952874c.6877597 1.8932469 2.87228-.3055488 3.8175473-1.0071869.7057208-.6139894 1.5203964-1.0848595 2.3994339-1.3868363.2225785-.0654055.4549276.0596518.5255212.2828513.8691674 3.2496444-.0060954 6.5908402-.0315453 9.9000417l3.6216907-20.3990115-28.0343349-10.3914026-21.4390629 53.8432223 40.2390515 8.5602256 5.3673418-30.2313147c-.1268937.0517174-.2700739.0387065-.3850605-.0349906-.1149867-.0736972-.1878511-.1991535-.1959573-.3373949-.0329572-1.7148192.0530941-3.4307167.2575147-5.1349466.0836194-.9615791.639297-4.1234192-.0565356-4.9579923.231197-.3430744.1000648-.3340181-.3933966.0271688-.2350925.137941-.4640444.2857752-.6868557.4435026-.5167003.3458121-1.0007815.7434845-1.5001635 1.1140407-.6683513.5854656-1.4256114 1.0567583-2.2418597 1.3952564-3.5203642 1.0892478-1.5686053-5.1148801-1.3487675-7.4242173-1.3704938.946932-2.539254 2.1452334-3.8168124 3.2211606-.7931632.667854-2.341731 2.0563283-3.4921563 1.9763022-1.0079433-.0700446-1.3733295-1.0232189-2.5700497-.5608663-1.2726729.4916341-2.0650041 1.8140853-3.3769574 2.2935354-1.2906106.4714569-2.8926661.5538122-2.9094511-1.1550559-.0094926-.9604557.5020439-1.8699261.4352109-2.8426318-.1573555-2.2910675-2.6839867-.1180209-3.7051789.3016224-.2227543.0674276-.4563939-.0583442-.5253973-.2828295-.2971306-1.0638615-.327559-2.1881115-.0885253-3.2707752-1.1810929 1.1354041-2.0273707 2.6106442-3.1896169 3.7733348-.3881989.3881399-1.0058421-.1908615-.6176096-.5791903 1.4598312-1.460552 2.4350959-3.3590991 4.1301474-4.572381.1287175-.0813543.2898369-.0873354.4229997-.0157026s.2182709.2100681.2234411.3634451c-.0646767.6545459-.6476565 2.4951393-.3278596 2.9976131.5160328.811065 1.2467734-.2464857 1.8292874-.5443284.748216-.3826797 1.4833125-.4878888 2.1178324.1654618 1.1867705 1.2212157-.5342137 4.6461738.6920004 5.1064324 1.5380264.5771756 3.2909347-1.9827388 4.5368624-2.54637 1.1506763-.5206057 1.4316492-.0818017 2.5002948.2426806.7863216.2389357.5458236.327475 1.533973-.1876813.9665978-.5646089 1.8611149-1.2487109 2.6629328-2.0365376 1.1359312-1.1180173 2.3767471-2.1204171 3.704471-2.9926771.1118514-.0700462.2488328-.0842038.3714945-.0383955.1226617.0458082.2173877.1464974.2568977.2730699.5728407 2.1405648-1.4496594 4.6212683-.7127926 6.6497485zm-6.940486 24.5174559c-1.5818248.089114-3.7897644 1.7132761-5.3220675.7166203-.4118664-.3076119-.7117913-.7452935-.8535381-1.2455717-.3811472-.9681261-.076015-.9563408-1.1698319-1.5314928-1.0292507-.5412879-.8969892-.4735325-1.6783203.1331246-.9004905.69928-1.9870763 1.8764125-3.2432142 1.3337321-1.2739285-.55023-1.3963352-2.2954018-1.8572763-3.5249985-1.4472804 1.2687274-4.2297948 4.6223564-5.6160188 2.0992939-.1994247-.5262621-.2945155-1.0881889-.2798245-1.6535864-.1584339-1.5388004-1.1642994-2.8916792-2.7034832-1.8329173-1.3428214.9234381-2.3298373 2.1347062-3.8916996 2.7192229-.5128766.1919175-.7538275-.6303022-.2441573-.8210876 1.8799855-.7037743 4.3633451-4.5694925 6.5292049-2.8334903 1.2661662 1.0150339.667923 2.1709064 1.1961905 3.3992078 1.064551 2.4756666 3.9121356-1.4140418 4.9491771-2.1136249.1979111-.1257394.4571225-.0678686.5828599.1301276.3255248.6089803.3906058 1.3260867.6975061 1.9278925.3392701.6654739 1.0430687 1.6222615 1.9712724 1.5750225.2388011-.0120927.8011697-.5849995.9751401-.7213814.7573725-.5937847 1.5805186-1.4623586 2.631346-1.3185522 1.2370004.1692741 1.5037806 1.3407905 1.8348169 2.3546725.8173995 2.5046058 3.6266411.4520479 5.4717611.3479672.2294051-.0014624.4167134.1833992.4221819.4166672.0054685.2332681-.1728969.4298801-.4020252.443152zm-17.0910884-21.7440685c.1191284-.1226999.2975991-.1632485.4556002-.1035124s.2659839.2085852.2756587.3799823c.1142483 1.4612814-.2275778 2.9050721-.1207708 4.3582161 1.0562212-.7027873 1.880907-1.6995446 2.9893719-2.3476842.1118773-.0705028.2490969-.0849226.3719785-.0390897.1228817.045833.2177206.1468071.257092.2737233.1006723.7317137.0753285 1.4765756-.0749003 2.2013358-.1214136.811149-.8268131 2.7595842-.3931399 3.4773761.9453429 1.5645459 3.7185592-2.632668 4.8473198-3.292198.1118531-.0705368.2490704-.0849839.3719527-.0391614.1228822.0458224.2177169.146801.257067.273721.2000254 1.0449608-.5005337 4.363053 1.0965932 4.465007.9629666.0616069 2.0651528-1.6115419 3.1182805-1.8157005 1.2782651-.247759 1.9966038.3757624 2.9158004 1.1114749 2.4494256 1.9604406 5.6187998 1.476612 8.532358 1.7228071.5352155.0451287.5610605.9034367.0201157.857821-2.4922066-.21055-5.1304409.1275173-7.4799428-.9184049-.9733001-.4332341-1.5930816-1.328069-2.5077439-1.757172-1.5355618-.7203145-2.3774812.5024793-3.5107219 1.1959523-3.1718834 1.9407761-2.7867255-1.79237-2.9182595-3.9211266-1.3330355 1.3154313-3.2010361 4.3726529-4.853962 3.562697-1.7414571-.8534883-.3591712-4.3492049-.2142059-6.2213529-.9943662.7428652-1.8070566 1.6946435-2.9395805 2.2672054-.2143028.1083328-.5792712.0679024-.6290817-.2345705-.2304482-1.3987875.0103491-2.7748154.0399256-4.1677535-1.4495269 1.6088728-2.6541655 3.4285422-3.5734453 5.3978752-.1146695.2003758-.3641513.2737114-.5644683.1659265-.2003169-.107785-.2795949-.358017-.1793714-.5661658 1.076701-2.3522658 2.5722409-4.4841211 4.4106039-6.2872068zm18.6784678-10.4853726c-.6638181.2789851-1.4182813.1362598-1.933541-.365777-.2944139-.2777673-.3694566-.6879538-.6093486-.9913539-.6105594-.772254-.2220667-.5404686-1.3271523-.3562694-.634873.1585444-1.3002297.0813618-1.8791772-.2179881-.6120464-.3743266-.7042089-1.5782225-1.1132795-1.8182035-.6906706-.405213-2.1060056 1.7120201-3.1835917.6743965-.7943368-.764966-.4779902-2.5875541-.2857146-4.0245733-.8240571 1.1903565-1.4509727 2.5125674-1.8545863 3.9114585-.1593043.5370346-.9806947.3474887-.8201912-.1931103.5690487-1.9870268 1.5557476-3.8248921 2.8888533-5.3808948.1188776-.1265349.2978081-.1694975.4560702-.1095059.1582621.0599915.2659375.2115962.2744503.3864203.0829798 1.2304309-.2210696 2.4580364-.2022503 3.6897325.0299487 1.9540224 1.8896268.1154369 2.898483-.1641091.2228755-.0694815.4560665.0569385.5253263.2847954.3729277 2.2175667 1.7834846 2.3230421 3.5728746 1.6642599.2229487-.0701903.4565974.0564778.5253263.2847954.2259002.8851187.4906416 2.2274937 1.8249115 1.8931186.527793-.1318228.7724021.7000868.2426611.8328296z" fill="#7f0f04" transform="matrix(.999999995 0 0 .999999995 61.248485033 49.56546160572)"/><path d="m52.441241 54.8838213-5.1316878 58.9148447 29.5429259 5.664077 25.3228719-56.8588945zm5.4559143 40.6262973c-.9629051-.3368315-1.992381-.4431684-3.0056464-.31046-.5335069.0888892-.7707165-.7239731-.2327554-.8135526 1.1585434-.1732737 2.3407707-.0694818 3.4492811.3028247.5166489.1673255.3093618.989589-.2108793.8211879zm1.0607833-15.7557864c-1.2666823-.2787326-2.5503086-.4758006-3.8429304-.5899836-.5419753-.0332712-.5533649-.8803878-.0073177-.8471715 1.3659042.1181038 2.7224742.3237406 4.0613196.6156384.5366816.1032661.3239937.9241505-.2110715.8215167zm-2.8562881-17.8833593 4.0755399.7720171c.5369372.1017104.4261468.4145884-.1089259.3132312l-4.0755398-.7720172c-.5370616-.1017339-.4262712-.4146119.1088015-.3132547zm-.2804521 4.8484026c1.3278616.0192441 2.6532512.1145033 3.9696362.285308.5382339.0937645.324553.9145647-.210961.8210651-1.2441966-.1578232-2.4966792-.244414-3.7513034-.2593476-.5423395-.0317839-.5535982-.8790408-.0071855-.8469898zm-.2552454 5.8451679 4.07554.7720172c.5369373.1017104.4261469.4145883-.108988.3132194l-4.0755399-.7720172c-.5370617-.101734-.4262712-.4146119.1088636-.3132429zm-1.7673249 10.8212793c1.5013802-.0031661 3.0015017.0761391 4.4935582.2375557.538407.0485436.5513601.8960025.0073769.8469675-1.4920746-.1612443-2.9921917-.2405283-4.4935704-.2374937-.2289746-.0047446-.4122705-.1898788-.4142913-.4184463s.1779618-.4181972.4068024-.4286071zm.4962039 5.2081636 4.5283723.8577952c.5369358.10171.4262684.4139634-.108865.3125948l-4.5283723-.8577952c-.5372329-.101841-.4263927-.4139869.1087407-.3126183zm-1.2767977 13.1053747c1.2454727.07037 2.4938065.022 3.7392049.09242.5424173.030742.5536649.877967.0074849.847018-1.2454605-.070432-2.4939294-.021702-3.7392548-.092494-.5425037-.03063-.5537513-.877855-.0075592-.846968zm3.6445239 6.239865c-1.3158645.069776-2.6333233.110213-3.9493742.179953-.5460971.029024-.5523243-.818062-.0074928-.846879 1.3158889-.0699 2.6333476-.110337 3.9493607-.180213.5459607-.028986.5522501.818112.0073821.847116zm9.8649946-44.9442489c7.6528393 1.4395532 15.4370829 2.3796757 22.7076107 5.3021029.5058022.2032563.0869356.9512788-.4133086.750254-7.1948793-2.8919909-14.9340516-3.7978876-22.5060717-5.2222764-.5370811-.1010722-.3233978-.9307225.2116453-.8301042zm-.8076779 9.6869701c6.8995601 2.1962219 14.1968912 2.8357476 20.9274119 5.5970306.5046236.2072591.0855468.9588506-.4138672.7539567-6.658886-2.7317519-13.8988218-3.3440691-20.7259788-5.5170155-.5179036-.1645843-.3089372-.9996092.2123229-.8337317zm-.8770277 5.0154479c6.8100157 2.9256425 14.6208935 2.110721 21.0093121 6.2215416.4573138.294341.0463214 1.0463481-.4133937.750443-6.3748948-4.1021897-14.2026907-3.2973276-21.0092499-6.2215297-.5017411-.2152609-.0839337-.9638857.4132205-.7502159zm7.9164369 37.2366549c-2.9657077-1.991984-6.741322-2.082592-10.1322389-2.859455-.2196566-.063387-.3487346-.290016-.2918208-.512365.0569139-.222349.2793313-.360375.5028431-.312051 3.4654388.793899 7.3011246.901944 10.3338625 2.939059.4498046.302445.0403575 1.049355-.4127568.745049zm3.0037413-3.334215c-3.8691358-2.247254-8.2291661-3.134126-12.5484376-4.108582-.2197005-.0634-.3487378-.290605-.2917159-.513645.0570218-.22304.2795717-.361608.5031208-.313262 4.3913803.990958 8.8181783 1.90452 12.7500052 4.188116.1996239.115824.2693633.371285.1569161.574796-.1124472.20351-.3657766.280316-.5699996.172815zm1.513656-6.906672c-4.8283202-2.672475-10.6474755-2.537333-15.9552988-3.501989-.5375468-.097766-.3242136-.922364.2111088-.825089 5.3918296.980012 11.2512458.866406 16.1568949 3.581472.2049218.113161.2786318.371858.1646359.577817s-.3725298.281187-.5774516.168026zm2.4918614-3.119731c-4.9925821-2.6107668-10.8121585-2.797889-15.879398-5.2382203-.492519-.2372477-.0770064-.9835956.4129256-.7476201 5.066219 2.4396176 10.880585 2.6243828 15.8794602 5.2382324.1980835.116539.2666914.371031.1546879.573794-.1120034.202764-.3638309.27996-.5677867.174052zm2.6301734-6.2177086c-5.5310711-2.6449879-11.9580354-2.1900398-17.8804011-3.2658208-.537514-.0976987-.3231945-.9209988.2119723-.8234938 5.9970366 1.0894502 12.4728512.663409 18.0818621 3.3457465.4929383.2360726.0771552.9784778-.4135444.7438049zm2.3018063-6.1337824c-6.010328-3.5037984-13.5795426-4.5326389-20.4345356-4.8372531-.5434106-.0241609-.5538622-.8760012-.0072466-.8514217 7.0169716.3117663 14.7055869 1.3578685 20.8545315 4.9425288.1970868.1168463.2650432.3701658.1534313.5719427-.111612.201777-.3623847.2789611-.5661928.1742657zm3.4166013-15.7935725c-6.6933692-2.9011604-14.0399703-3.3309548-21.2162732-4.0460069-.5373865-.0534881-.5520926-.8957771-.0089559-.8417007 7.3310595.7308414 14.798161 1.187139 21.6362719 4.1510311.5007101.2170281.0855371.9520832-.4110548.7367382z" fill="#131a59" transform="matrix(.999999995 0 0 .999999995 57.93541224094 54.41740943649)"/><g transform="matrix(.98162718 .190809 -.190809 .98162718 15.642324 .492112)"><ellipse cx="43.628765" cy="39.590957" fill="#ffee9c" rx="31.36594" ry="30.067769"/><path d="m9.275962 36.65467h58.862069v11.929269h-58.862069z" fill="#7f0f04"/><path d="m37.7747469 0c-15.2780181 0-29.05166293 9.30312003-34.89830145 23.571327-5.84663852 14.268207-2.61487443 30.6916197 8.18832475 41.6120216 10.8031992 10.9204018 27.0503268 14.187205 41.1653677 8.2771033 14.1150409-5.9101016 23.3182518-19.8332139 23.3182518-35.2770072 0-21.0881445-16.9118605-38.1834447-37.7736428-38.1834447zm9.3827215 67.3130205c-14.7582091 0-26.7220532-12.0937648-26.7220532-27.0121088s11.9639281-27.0120239 26.7221372-27.0120239c14.758209 0 26.7220951 12.0937224 26.7220951 27.0120664 0 7.1640564-2.8153664 14.0346908-7.8267489 19.1004378-5.0113825 5.0657469-11.8082735 7.9116285-18.8954302 7.9116285z" fill="#131a59"/><g fill="#ffee9c"><ellipse cx="10.429186" cy="19.336378" rx="8.228106" ry="3.418956" transform="matrix(.53663704 -.84381318 .84381318 .53663704 -11.483792 17.760046)"/><ellipse cx="19.998371" cy="66.509616" rx="2.341637" ry="5.59167" transform="matrix(.59272891 -.80540204 .80540204 .59272891 -45.422222 43.194173)"/></g></g><path d="m94.915321 133.922119.2016859.208611c-2.1580876-7.598824-7.7287171-13.511257-14.7941682-15.701912-10.5485933-3.140463-21.4076199 2.752627-32.298766 3.688402-4.0788635.350558-8.3491193-.049618-11.9426332-2.185025-4.0027286-2.378859-6.8109479-6.779977-7.9699194-11.553728-1.0616161-4.831477-.8641226-9.8810564.5705074-14.5869223.5237398-1.8405532 1.7791782-7.5074689-1.7023081-7.3417575-2.211623.1054117-3.0251375 5.0200939-3.4450465 6.7857818-1.5215996 6.3500304-1.2865302 13.051047.676129 19.274106 1.1504994 3.575915 2.9194875 7.003275 5.5652982 9.487435 2.2429179 2.105917 5.0054374 3.441311 7.7680358 4.615692 2.5568959 1.193303 5.2543971 1.993604 8.0136828 2.377521 10.6042029 1.086155 20.3426024-8.30855 30.9313375-7.048818 8.2729717.984242 14.8597791 7.900379 20.099371 14.294412 5.2531198 6.323025 13.1648458 9.237469 20.8703318 7.688008-.57742-1.188248-1.037614-2.438502-1.372949-3.730022-6.202062.158096-12.630225-1.651772-17.3341759-6.048471-3.6102197-3.373955-6.3666013-8.30553-10.9677273-9.651574" fill="#131a59" transform="matrix(.98162718 .190809 -.190809 .98162718 23.303497 -11.236852)"/></g><g fill="#0b1940" transform="translate(26.76359 10.91113)"><g transform="translate(.182662 74.132596)"><path d="m11.2179417 4.8763745v10.3369156c.0217838.6216258.5268576 1.1141887 1.1424886 1.1141887s1.1207048-.4925629 1.1424887-1.1141887v-10.3369156c-.0217839-.62162581-.5268577-1.1141887-1.1424887-1.1141887s-1.1207048.49256289-1.1424886 1.1141887z"/><path d="m4.62346443 9.96133894c3.72277727-.23633466 7.45721487.20795146 11.02384087 1.31150666 1.86525.5929956 3.4471364 1.6974222 4.7884091-.1602355.206866-.3602763.206866-.8049105 0-1.16518671l-.2211136-.47264667c-.6279546-1.34243778-2.5985455-.17222222-1.9729773 1.16518668.2545455-.84223557-.0779545-1.2622052-.9975-1.2599089-.6560454-.23376296-1.3192045-.44454-1.9894773-.63233111-1.1736127-.32576537-2.365019-.58214523-3.568159-.76783556-2.33670961-.35680191-4.70388018-.46637696-7.06309096-.32694666-1.46277272.07832666-1.47190909 2.38748223 0 2.30867333z"/><path d="m13.5136235.83776339-.1916591-.27645111c-.3288958-.53644848-1.0160928-.71851645-1.5632045-.41416-.5403086.32522243-.7227079 1.02810916-.4098409 1.57934666l.1917272.27652c.3288924.53641427 1.0160624.71845276 1.5631364.41409112.5403085-.32522244.7227079-1.02810916.4098409-1.57934667z"/><path d="m1.92673715 10.2446101.12-.1211756c.42363983-.45456311.41304455-1.16699976-.02392139-1.6084972s-1.14209019-.4522026-1.5919877-.02416947l-.11993181.12117556c-.42363983.45456311-.41304456 1.16699976.02392139 1.60849721.43696594.4414974 1.14209019.4522026 1.5919877.0241695z"/><path d="m12.1005553 17.8882456-.0872045.0180489.8803636.1164222-.0777272-.0425044.409909.4140911c.0445088.2539924.016532.5155385-.080659.7540578-.0510457.0618712-.1225488.1029616-.2012728.1156644-.2910141.0271732-.5500571-.1858972-.58275-.4793289.0113864-.4991.8978182-.6120089.9152046-.0259711-.0439091-1.4822822-2.3290909-1.4885511-2.2849773 0 .0119502.5786403.2805838 1.1212371.7317006 1.4779178.4511168.3566808 1.0369755.4896982 1.5957539.3623111.5412458-.169494.9781338-.5763036 1.1894246-1.1075363.2112907-.5312326.1745039-1.1303679-.1001518-1.6311415-.2916796-.4775234-.7805837-.79705-1.3312462-.870045s-1.1045983.1082943-1.508322.4936361c-1.0585227.9950311-.4545 2.9612578 1.1393864 2.6305911.6053389-.1720377.9593794-.8058793.7922555-1.4183816-.1671238-.6125023-.7926114-.9735034-1.3996874-.8078317z"/><path d="m23.4740326 8.20129672-.0284318-.03961111v1.16525556l.0222273-.04560445-.4098409.41409111.0483409-.03444444-.5766137.15761778.0500455-.00564889-.9865227-.57177778.0272727.04043778c.3280947.53749851 1.0162062.71981672 1.5631363.41416.5398913-.32553505.7222161-1.02801785.4099091-1.57934667l-.0272727-.04043778c-.2042461-.35482119-.5802003-.57273518-.9864545-.57178092-.459036.00250672-.8815489.25333813-1.1071364.65727203-.2077907.36004891-.2077907.80520665 0 1.16525556l.0283636.03954222c.3297486.53523661 1.0158638.71702588 1.5631364.41416.5407445-.32488645.7232746-1.02815992.4099091-1.57934666z"/></g><path d="m537.750249 3.22579371c-.461727 2.00122223-.044114 4.15785778 2.10975 4.87078889 1.991518.54135276 4.07609-.46635134 4.908477-2.37280889.704826-1.85175169-.037996-3.9458134-1.746545-4.92362666-.821538-.53031288-1.839015-.64882693-2.758432-.32129778-1.058864.39755778-1.1535 1.21361556-1.827273 1.96856889-.982432 1.10098222.6285 2.73881555 1.615909 1.63266667.435409-.48794.701659-1.65112889 1.486364-1.45114445.786322.28358277 1.292465 1.05815432 1.241659 1.90016222-.241369.84787834-1.005921 1.43438615-1.879091 1.4415-1.188818-.08425111-1.154864-1.23180222-.947727-2.13087111.333477-1.44549555-1.869068-2.06246444-2.203296-.61373111z"/><path d="m209.282213 147.587231c-.651306.398111-1.061558 1.099749-1.092368 1.868232s.32193 1.501348.939232 1.951381c1.428695.940201 3.310041.762737 4.541795-.42842.963276-1.170718.954908-2.871427-.019841-4.032411-.522827-.629189-1.304922-.977783-2.11733-.943731-.812408.034051-1.563239.446896-2.032693 1.117676-.314125.551068-.131482 1.254896.409841 1.579346.546887.306052 1.235285.123696 1.563205-.414091.156204-.205771.544841.282858.585818.38068.093837.233169.07763.496801-.044045.716445-.221046.344444-.861955.330666-1.221819.263086-.129407-.014448-.254252-.056729-.366136-.124.061773.044503.035727.041334.007636.059934 1.221682-.815369.078478-2.815489-1.153295-1.993438z"/><path d="m112.227739 406.281678c-2.376979 2.427651-2.45284 6.328445-.172108 8.84979 2.380068 2.418982 6.142785 2.701106 8.845917.663257 2.61984-2.041028 3.268887-5.781255 1.49429-8.611063-1.86635-3.118435-6.19727-4.203019-8.869226-1.464778-.782849.845537-.76327 2.170746.044205 2.99198.807475.821233 2.110483.841146 2.941854.044957 1.565099-1.603554 4.019211 2.480807 1.577194 3.791303-2.076004 1.114056-4.867151-1.365212-2.876066-3.229149 2.003305-1.875725-.988172-4.906512-2.98606-3.036937z"/></g></g></g></svg>