<svg id="Layer_1" data-name="Layer 1" xmlns="http://www.w3.org/2000/svg" xmlns:xlink="http://www.w3.org/1999/xlink" viewBox="0 0 800 200"><defs><style>.cls-1{fill:url(#linear-gradient);}.cls-2{fill:#fff;}.cls-3{fill:#2c4bff;}</style><linearGradient id="linear-gradient" x1="32.69" y1="100" x2="164.64" y2="100" gradientUnits="userSpaceOnUse"><stop offset="0" stop-color="#4085ff"/><stop offset="1" stop-color="#2c4bff"/></linearGradient></defs><title>BG_Logotype_Horizontal_Gradient</title><path class="cls-1" d="M109.14,24.39C91,23,73.59,34.06,62.65,48.66S46,81,40.47,98.42c-4.6,14.49-9.26,29.55-7.34,44.64s12.39,30.23,27.44,32.39c20.17,2.89,36.11-17.08,55.79-22.36,8.23-2.21,16.94-1.76,25.35-3.15,35-5.74,21.39-56.6,14.39-80.33C149.56,47.44,132.19,26.23,109.14,24.39Z"/><path class="cls-2" d="M79.72,72.44c.1-4.33,1.59-8.7,4.88-11.43a6.61,6.61,0,0,1,7.94-.6,11,11,0,0,1,4,6c1.86,6,.83,20.29-8.51,19.46-3.76-.34-6.62-4.3-7.57-7.63A20,20,0,0,1,79.72,72.44Z"/><path class="cls-2" d="M112.46,72.84a19.16,19.16,0,0,1,3-10,7.49,7.49,0,0,1,5-3.36,7.17,7.17,0,0,1,6.17,2.67,14.29,14.29,0,0,1,2.83,6.29c.88,3.9.93,8.49-.77,12.19-1.87,4.09-7.35,7.24-11.61,4.51a8.8,8.8,0,0,1-3.17-4.09A19.78,19.78,0,0,1,112.46,72.84Z"/><path class="cls-3" d="M290,119.5a37.43,37.43,0,0,0-.14-31,25.66,25.66,0,0,0-9.22-10.45,24.14,24.14,0,0,0-13.09-3.65h-.05a22,22,0,0,0-8.89,1.81,17.54,17.54,0,0,0-6.67,5.06L251,82.41l-.05-39-19.09,0,.11,89.47,17.87,0,.26-7.76.89,1.4a16.93,16.93,0,0,0,6.68,6A20.35,20.35,0,0,0,267,134.6H267a23.69,23.69,0,0,0,13.66-4.12A27.34,27.34,0,0,0,290,119.5ZM270.89,114a11.52,11.52,0,0,1-8.81,3.75h0a11.34,11.34,0,0,1-8.75-3.73,15.09,15.09,0,0,1,0-19,11.31,11.31,0,0,1,8.76-3.75h0a11.49,11.49,0,0,1,8.8,3.73,14.9,14.9,0,0,1,0,19Z"/><rect class="cls-3" x="303.01" y="43.29" width="19.08" height="89.47" transform="translate(-0.11 0.39) rotate(-0.07)"/><path class="cls-3" d="M388.77,76l-19.08,0,0,31.22c0,3.57-.64,6.13-2,7.8s-3.39,2.55-6.15,2.55-5.08-.87-6.44-2.59-2-4.29-2-7.74l0-31.22-19.08,0,0,31.78c0,8.68,2.37,15.36,7,19.84s11.49,6.76,20.39,6.76h0c8.91,0,15.76-2.28,20.36-6.75s6.92-11.17,6.91-19.92Z"/><path class="cls-3" d="M448,81.79c-5-5-11.77-7.59-20.21-7.59h0a30.57,30.57,0,0,0-15.66,4,27.11,27.11,0,0,0-10.35,10.76,32.56,32.56,0,0,0-3.61,15.41,30.1,30.1,0,0,0,4.25,16.2,27.26,27.26,0,0,0,11.91,10.29,42.87,42.87,0,0,0,18.05,3.56h.07a66.34,66.34,0,0,0,12.24-1.12,44.78,44.78,0,0,0,10.1-3.06l-1.68-14a40.1,40.1,0,0,1-8.18,2.54,48.87,48.87,0,0,1-9.82,1h0c-5.05,0-9.08-.83-12-2.46a12.89,12.89,0,0,1-6.12-7.72l-.21-.67,38.27,0a32.38,32.38,0,0,0,.57-6.42C455.5,93.79,453,86.83,448,81.79ZM416.4,97.9l.12-.62c1.31-6.65,5-10,10.88-10A9.93,9.93,0,0,1,434.53,90a11.6,11.6,0,0,1,3.23,7.35l.05.57Z"/><path class="cls-3" d="M526.07,75.79l-17.86,0L508,83.68l-.89-1.4a17.09,17.09,0,0,0-6.74-6.06,20,20,0,0,0-9.24-2.17h0a23.78,23.78,0,0,0-13.67,4.12,27.41,27.41,0,0,0-9.31,11,34.85,34.85,0,0,0-3.28,15.26,32.61,32.61,0,0,0,3.48,15.28,24.31,24.31,0,0,0,22.27,13.55h0a23.3,23.3,0,0,0,9.62-1.92,17.18,17.18,0,0,0,6.84-5.38l.92-1.23v4.22c0,10.2-5.84,15.38-17.37,15.4h0a38.64,38.64,0,0,1-9.36-1.29,35.55,35.55,0,0,1-7.95-3l-1.86,16.43a40.1,40.1,0,0,0,9.61,3,61.5,61.5,0,0,0,12.31,1.31h.1c10.76,0,19-2.79,24.49-8.25s8.26-13.66,8.25-24.34Zm-21.3,37.14a11.81,11.81,0,0,1-8.74,3.46h0a11.81,11.81,0,0,1-12.24-12.23,13.59,13.59,0,0,1,3.42-9.52A11.52,11.52,0,0,1,496,90.89h0a11.34,11.34,0,0,1,8.72,3.73,13.73,13.73,0,0,1,3.39,9.51A12.12,12.12,0,0,1,504.77,112.93Z"/><path class="cls-3" d="M575,101.59l0,30.77,19.09,0L594,97.76c0-7.81-1.68-13.8-5-17.82s-8.18-6-14.6-6h0A21.36,21.36,0,0,0,565,76a15.83,15.83,0,0,0-6.49,5.69l-.94,1.47-.06-40.22-19.08,0,.11,89.47,19.09,0,0-30c0-3.67.77-6.54,2.33-8.54a8.13,8.13,0,0,1,6.77-3h0C572.18,90.8,574.94,94.43,575,101.59Z"/><path class="cls-3" d="M661.94,119a31.48,31.48,0,0,0-.37-30.76,28.52,28.52,0,0,0-11.26-10.64,33.29,33.29,0,0,0-15.63-3.71h0A32.57,32.57,0,0,0,618.35,78a29,29,0,0,0-11,10.94A30.21,30.21,0,0,0,603.45,104a29.77,29.77,0,0,0,4.24,15.7A29,29,0,0,0,619,130.35a33.29,33.29,0,0,0,15.63,3.72h.06A32.1,32.1,0,0,0,651,129.92,28.89,28.89,0,0,0,661.94,119Zm-18.5-5.52a11.37,11.37,0,0,1-8.76,3.76h0a11.48,11.48,0,0,1-8.8-3.73,14.88,14.88,0,0,1,0-19,11.45,11.45,0,0,1,8.81-3.75h0a11.32,11.32,0,0,1,8.74,3.73,15.07,15.07,0,0,1,0,19Z"/><path class="cls-3" d="M721.2,116.14c0-5-1.55-9.13-4.56-12.13s-8-5.44-14.85-7.12a29,29,0,0,1-7-2.33,3.72,3.72,0,0,1-2-3.29c0-2.57,2.24-3.87,6.65-3.88h0a37.25,37.25,0,0,1,8.92,1.18,42.88,42.88,0,0,1,8.17,2.9l1.86-13.36A32.85,32.85,0,0,0,709.54,75a53.46,53.46,0,0,0-11.29-1.2h0c-7.53,0-13.51,1.64-17.79,4.83a15.51,15.51,0,0,0-6.36,13.12c0,5.05,1.48,9.06,4.38,11.92s8,5.28,14.91,7.11a30.54,30.54,0,0,1,7,2.39,3.62,3.62,0,0,1,1.93,3.23c0,2.64-2.62,4-7.77,4h0A37.94,37.94,0,0,1,684,118.87a35.73,35.73,0,0,1-8.87-3.82l-2,13.54a30.55,30.55,0,0,0,9.57,3.87,57.82,57.82,0,0,0,13,1.53c8.12,0,14.48-1.6,18.92-4.74A15.16,15.16,0,0,0,721.2,116.14Z"/><polygon class="cls-3" points="736.43 132.15 755.52 132.12 755.47 90.67 767.31 90.66 767.29 75.49 755.45 75.5 755.43 60.64 736.35 60.67 736.36 75.53 726.65 75.54 726.66 90.71 736.39 90.7 736.43 132.15"/></svg>