<svg id="Layer_1" data-name="Layer 1" xmlns="http://www.w3.org/2000/svg" xmlns:xlink="http://www.w3.org/1999/xlink" viewBox="0 0 500 500"><defs><style>.cls-1{fill:url(#linear-gradient);}.cls-2{fill:#fff;}</style><linearGradient id="linear-gradient" x1="53.99" y1="250" x2="446.01" y2="250" gradientUnits="userSpaceOnUse"><stop offset="0" stop-color="#4085ff"/><stop offset="1" stop-color="#2c4bff"/></linearGradient></defs><title>BG_Logomark_Gradient</title><path class="cls-1" d="M281.13,25.38c-54-4.3-105.62,28.71-138.13,72.1S93.53,193.62,77.12,245.3C63.45,288.36,49.6,333.11,55.31,377.93s36.8,89.8,81.52,96.22c59.93,8.6,107.27-50.74,165.75-66.43,24.46-6.57,50.32-5.23,75.31-9.34,103.86-17.06,63.54-168.16,42.75-238.66C401.22,93.84,349.59,30.82,281.13,25.38Z"/><path class="cls-2" d="M193.71,168.13c.29-12.87,4.75-25.87,14.5-34,6.69-5.55,16.22-6.79,23.6-1.78,6,4.09,9.66,10.93,11.81,17.9,5.52,17.86,2.49,60.3-25.28,57.81-11.17-1-19.66-12.75-22.47-22.67A59.37,59.37,0,0,1,193.71,168.13Z"/><path class="cls-2" d="M291,169.31c.38-10.72,3.35-21.46,8.9-29.6,3.43-5,8.65-9.15,14.71-10,6.89-.92,13.84,2.65,18.34,7.91s6.88,12,8.4,18.69c2.61,11.59,2.75,25.24-2.29,36.22-5.56,12.14-21.85,21.5-34.49,13.4-4.39-2.82-7.4-7.37-9.43-12.15A58.36,58.36,0,0,1,291,169.31Z"/></svg>