<svg height="136" viewBox="0 0 126 136" width="126" xmlns="http://www.w3.org/2000/svg"><g fill="none" transform="matrix(-.87461971 -.48480962 .48480962 -.87461971 72.874594 135.786373)"><path d="m38.7888 107.5851c-2 0-6 1-6 0-8-13-10-29-4-43 8-20 16-44 3-63 2 0 6-1 6 0 12 19 9 43-3 61-5 15-3 31 4 45z" fill="#131a59"/><path d="m56.7888 106.5851c-2 0-5 1-6 0-9-12-10-29-4-42 8-20 15-43 4-63 2 0 5-1 6 0 7 11 7 24 5 37-1 10-6 19-10 28-5 13 0 28 5 40z" fill="#ff8b78"/><path d="m74.7888 106.5851c-2 0-5 1-6 0-7-11-7-24-6-37 2-13 12-25 13-38 0-11-3-21-7-31 2 0 5-1 6 0 9 13 10 29 4 43-8 20-15 43-4 63z" fill="#7f0f04"/><circle cx="14.6721" cy="28.2068" fill="#ba3500" r="14.3564"/></g></svg>