<svg height="176" viewBox="0 0 200 176" width="200" xmlns="http://www.w3.org/2000/svg"><g fill="none" fill-rule="evenodd" transform="matrix(-1 0 0 -1 200 175.789474)"><path d="m8.78657786 63.8350397c9.82509754-23.6747797 60.13144884-65.46097736 100.01632014-44.3942617 16.013962 8.4583851 19.100554.3403383 46.374682 10.9676634 13.549399 5.2795038 17.204094 16.2769451 24.222676 20.0279427 30.300677 16.1938367 23.58156 79.6607809 2.942396 99.2794269-20.639165 19.618645-71.260994 39.019543-130.2603349 14.755284-36.1299464-14.858918-60.47607725-59.23792-43.29573924-100.6360553z" fill="#3360ff"/><g fill-rule="nonzero"><g fill="#fff" transform="translate(24.210526 87.368421)"><g transform="translate(35.523736 26.09981)"><path d="m7.66776603 3.2288388v6.8444772c.01488984.4116028.36012141.737748.78092183.737748s.76603198-.3261452.78092183-.737748v-6.8444772c-.01488985-.41160283-.36012141-.73774803-.78092183-.73774803s-.76603199.3261452-.78092183.73774803z"/><path d="m3.16026277 6.59579319c2.54461877-.15648645 5.09720771.13769283 7.53509293.8684 1.2749487.39264561 2.3562107 1.12392982 3.2730069-.10609825.1413984-.23855301.1413984-.53296277 0-.77151579l-.1511372-.31295789c-.4292239-.8888807-1.776176-.11403509-1.3485832.77151579.1739887-.55767719-.0532841-.83575556-.6818182-.83423509-.4484248-.15478362-.9017119-.29434737-1.3598614-.41869123-.80219601-.21570202-1.61655442-.38546119-2.4389331-.50841403-1.59720408-.23625255-3.21522908-.30880648-4.82781334-.21648421-.99984465.05186316-1.0060896 1.58084561 0 1.52866316z"/><path d="m9.23692653.554716-.13100416-.18304913c-.22480921-.35520358-.69452685-.47575792-1.06849251-.27423158-.36931548.21534253-.49399033.6807514-.28013733 1.04574737l.13105077.18309474c.22480684.35518093.69450606.47571575 1.06844591.27418596.36931547-.21534252.49399032-.68075139.28013732-1.04574736z"/><path d="m1.31697687 6.7833581.08202324-.08023509c.28956926-.30098406.2823271-.77271631-.01635092-1.06504908s-.78064949-.29942107-1.08816658-.01600355l-.08197663.08023509c-.28956926.30098406-.2823271.77271631.01635092 1.06504908.29867801.29233277.78064948.29942107 1.08816657.01600355z"/><path d="m8.27105628 11.844509-.05960666.0119509.60175231.0770877-.05312869-.0281439.28018393.274186c.03042292.1681783.01130006.3413583-.05513266.4992912-.03489106.0409674-.08376539.0681749-.13757535.076586-.19891602.0179924-.37597888-.1230899-.39832536-.3173825.00778289-.3304737.61368297-.4052351.62556702-.0171965-.03001305-.9814772-1.59199652-.985628-1.56184366 0 .00816825.3831404.19178659.742415.50013712.9785874.30835054.2361723.70880077.3242483 1.0907409.2399003.3699561-.1122286.66858085-.3815932.81300378-.7333432.14442294-.3517499.11927814-.7484609-.06845646-1.0800427-.19937084-.316187-.53355002-.5277581-.90994271-.576091-.37639269-.0483328-.75502273.071706-1.03097881.3268559-.72352886.6588491-.31066302 1.9607649.77880135 1.7418175.41376553-.1139129.65576177-.5336043.54152809-.9391661-.11423369-.4055618-.54177134-.6445948-.95672414-.534897z"/><path d="m16.0451351 5.43040021-.0194339-.02622807v.7715614l.0151929-.03019649-.2801373.27418596.0330423-.02280701-.394131.10436491.0342074-.00374035-.6743149-.37859649.0186416.02677543c.2242616.35589885.6946044.47661891 1.068446.27423158.3690302-.21554952.4936542-.68069093.2801839-1.04574736l-.0186417-.02677544c-.1396077-.23494103-.3965825-.37923043-.6742683-.37859857-.3137634.00165979-.6025624.1677451-.7567576.43520558-.1420305.23840251-.1420305.53315891 0 .77156141l.0193873.02618245c.2253921.35440115.6943704.47477098 1.0684459.27423158.3696135-.21512006.4943777-.68078501.280184-1.04574737z"/></g><path d="m.11531984 27.7667433c-.31560306 1.3250878-.03015286 2.7530807 1.44207109 3.2251404 1.36125618.3584509 2.78611791-.3087895 3.35507674-1.5711298.48176724-1.2261175-.02597106-2.6126778-1.19381098-3.2601263-.56154337-.351141-1.25701599-.4296138-1.88546262-.2127439-.72376188.2632386-.78844839.8035824-1.24899024 1.3034667-.67151868.7290035.42959671 1.8134772 1.10451749 1.0810526.29761387-.3230842.47960293-1.0932772 1.01596967-.9608597.53747248.1877713.88343488.7006455.84870752 1.258172-.1649824.5614135-.68757423.9497633-1.28440937.9544737-.81258933-.055786-.78938048-.8156246-.64779718-1.4109334.22794072-.9571193-1.27755857-1.3656386-1.50601193-.4063754z"/><path d="m71.3617313 1.0509679c-.4451851.26360523-.7256034.7281867-.7466629 1.23702972-.0210596.50884301.2200476.99410157.6419901 1.29208607.9765522.62254361 2.2625024.50503764 3.1044398-.28367368.658425-.77517882.6527052-1.90128437-.0135618-2.67001754-.3573667-.41661114-.8919492-.64742839-1.4472523-.62488165-.5553031.02254675-1.0685164.29590722-1.3894003.74005708-.2147133.36488366-.0898715.83091589.2801373 1.04574737.3738119.20264874.8443504.08190381 1.0684926-.27418596.10677-.13624913.3724134.18729123.4004225.25206316.0641403.15439026.053062.32895144-.0301063.47438596-.1510905.22807018-.5891692.21894737-.8351457.1742-.0884537-.00956649-.1737886-.03756268-.2502641-.08210526.0422234.02946666.0244206.02736842.0052197.03968421.8350525-.53988772.0536413-1.86424562-.7883086-1.31993334z"/><path d="m134.804004 17.564151c-.879224.8641659-.907284 2.2527238-.063661 3.1502421.880366.8610803 2.272163.9615075 3.272028.2360982.969056-.7265407 1.209133-2.0579419.552725-3.0652631-.690347-1.1100632-2.292316-1.4961404-3.28065-.5214141-.289569.3009841-.282327.7727163.016351 1.0650491s.78065.2994211 1.088167.0160036c.578916-.5708141 1.486671.8830877.58339 1.3495824-.767896.3965684-1.800317-.4859719-1.063832-1.1494737.741005-.6676982-.365516-1.7465614-1.104518-1.0810526z"/></g><path d="m22.5388519 64.7736751c-8.2771635-5.336067-11.5161318-13.63841-9.1556-21.5109198s9.1556-13.6304311 18.9939714-15.979918c9.8383714-2.3494868 16.6956964-6.7507163 24.6338164-13.5751841 9.4578342-8.13097874 17.3760823-2.0609315 39.1756321-6.10288284 21.7995502-4.04195131 55.9397632 1.98875769 63.8832792 10.21871404 8.938326 9.2606384 7.37028 15.7458977 15.190287 22.2312527 6.4788 5.3730542 10.498075 18.3981292-4.603372 25.4846693-15.101446 7.0865402-48.688211 9.117368-68.10907 10.9597965-16.5608176 1.5722196-36.6650329 4.4903906-52.9799315.2431638-9.6261816-2.5916963-18.751849-6.6326245-27.0290126-11.9686916z" fill="#131a59"/><path d="m50.0700439 58.4179772c-.0145619-4.624395 7.2386907-5.9526093 10.5124654-6.6514386 5.1859204-1.1070826 10.1654988-2.6469819 13.3548433-7.1900018 2.8339366-4.0366836 4.0295015-8.9022686 7.2369073-12.7195308 3.4880965-4.0908693 8.2735018-6.8632117 13.5588254-7.8550729 3.9152931-.7510992 3.1072569-6.9177013-.8333254-6.1618267-8.9657074 1.5787003-16.7062189 7.1915104-20.9902102 15.2204496-1.3655823 2.5416862-2.2629815 5.3705204-3.920452 7.7472454-3.7404558 5.3640965-11.2560636 4.425827-16.6976537 6.8587501-4.9027302 2.1918661-8.4031208 6.0622604-8.3859073 11.5835654.0126268 3.9889465 6.1768353 3.1183552 6.164368-.8320006z" fill="#ff8b78" transform="matrix(.98480775 -.17364818 .17364818 .98480775 -5.84048 12.864361)"/><path d="m71.7689357 73.5491396c-1.5914321-6.2595392 7.2749588-9.4856584 11.6702232-11.5650464 5.3040749-2.5094295 10.3026501-5.5053622 12.8041511-11.0233279 2.4076517-5.311001 2.2241002-11.3268269 5.331568-16.3998855 3.257236-5.3175567 8.258933-9.3134571 13.062167-13.1906633 3.109192-2.5097526-.719714-7.4022076-3.848058-4.8769892-5.210924 4.2062815-10.609688 8.6142646-14.1977259 14.3347168-1.6279064 2.5896907-2.8431296 5.412532-3.6028567 8.3690739-.812678 3.1281076-1.1490726 6.4462829-2.5204666 9.4055594-2.8164604 6.0774121-10.502884 7.8098122-15.8974067 10.8845974-5.2283524 2.9800976-10.6691008 8.2742017-9.0006413 14.8365935.9710663 3.8196365 7.1790591 3.0799097 6.1990459-.7747211z" fill="#ff8b78"/><path d="m156.120604 62.1224948c.19619-2.0427555 1.861231-3.7745552 3.470822-5.3983721l2.376065-2.3970675c5.220941-5.2673113 1.924681-13.5509938-4.299252-18.7034638-1.608376-1.357152-3.450925-2.4092478-5.437112-3.1045923-3.562513-1.1259762-7.377859-1.178304-10.970626-.1504631-3.189653.906622-6.099141 2.6040031-8.458765 4.9348022-1.067612 1.0513319-2.003833 2.2158114-2.31192 3.5268085-.558845 2.3769915 1.194404 4.8365527 3.891987 6.4269702 2.567086 1.1257882 4.85672 1.8059034 7.84244 1.5676402.638697-.051149 1.264503-.1321312 1.885952-.2234134.122556-.0244738.244462-.0503395.36521-.0783858.00835-.0023678.017022.0066324.025787.0195765.550801-.0845885 1.09998-.1731673 1.651384-.2571063.69552-.2003805 1.415196-.3044023 2.13891-.3091577.386181-.1098022.772828-.2248478 1.161471-.3502873 1.980001-.6390359 4.105398-1.4136316 6.238053-1.7673788.235891-.0427577.478392-.0313436.70919.0333802-.26924-1.3583971-.538481-2.7168252-.807721-4.0752842-2.226206 1.9352673-5.560427 3.0108349-8.915233 3.7545519-2.144318.4754104-4.424668.8412468-6.682496.5175261-2.257828-.3237208-4.485686-1.4924869-5.051318-3.1221045-.398955-1.1497753.065338-2.3304609.705642-3.3772655.402759-.6815778.904484-1.2995596 1.488745-1.8337108 1.459478-1.3005212 3.636455-2.0670984 5.857271-2.5835397 2.875255-.6686526 6.244452-.9327796 8.916819.2792486 2.783639 1.2625391 4.001545 3.7351835 4.762812 6.0270378.837114 2.2967889 1.246281 4.72774 1.207226 7.1723825-.116021 2.8013935-1.27207 5.4592184-3.242257 7.4541401-1.941132 2.0202703-2.76951 4.571958-2.038619 7.0979528.818833 2.8295763 3.552847 5.4050173 7.138165 6.724028.000145-.8540884.421765-1.5038093 1.052686-2.1982956-2.958344-.8968758-4.889626-3.3336706-4.671318-5.6061572z" fill="#7f0f04" transform="matrix(.40673664 .91354546 -.91354546 .40673664 133.880549 -104.596723)"/><g><g transform="translate(79.791601 83.582273)"><g fill="#eab124"><path d="m9.77499237 33.526023c1.62712253-.1142376 3.10967613-.8715563 4.73833663-.9777903-1.410783-3.0723404-2.6298149-6.2288949-3.6501084-9.4515704l-4.9748108 1.8816869c1.26667899 2.8664107 2.46237847 5.7628349 3.66082764 8.6581423.05726264-.0656992.13866643-.1055325.22575493-.1104685z"/><path d="m13.3249466 37.901906c.0400563.0694971.0510422.151964.0305729.229499-.0048411.0339179-.0074721.0681137-.0078763.1023718.0122892.0393355.0277023.0776293.0460924.1145169.0505407.0851848.0503081.1911617-.0006058.2761246.3154637.5005618.9123501.7486621 1.4903833.6194891.3313825-.0773801.6028841-.313581.7250103-.6307443.1221262-.3171632.0790274-.6741273-.1150899-.9532268-.4376215-.5343343-1.9863077-.4065557-2.1684869.2419697z"/><path d="m16.9321784 38.2064156c-.6854673-1.7045837-1.4258819-3.3910662-2.1652246-5.0784328-.0374595.0166216-.0777054.0260913-.1186565.0279196-1.6803455.0597945-3.2125335.8666239-4.88784571.9901215.74763841 1.8050942 1.49732741 3.6093508 2.26934031 5.4044405.9213821 2.1425024 1.9308011 4.2469876 2.9081559 6.3637574 1.3805335-.5985594 2.8262129-1.0344845 4.3077991-1.2989586-.7481977-2.1500872-1.4697839-4.3105977-2.3135685-6.4088476zm-.7636706.7111584c-.6278168 1.6615875-3.489088 1.0396788-3.4551595-.6253522-.1040775-.6047214.2469787-1.1954193.8284516-1.3939783 1.4184717-.6310757 3.2795983.2913874 2.6267079 2.0193305z"/><path d="m15.5423688 24.7794687c-.2394562-.0246709-.478553.0499224-.661342.2063251s-.29323.38089-.30548.6209322c-.0073687.0486065-.0257295.0948985-.053689.1353635.0040013.3375411.1791866.6500201.4652717.8299075.286085.1798874.6440213.2026299.9506367.0604015.4478746-.1841297.96836-.7002232.6996818-1.2115704-.238907-.3788085-.6473373-.6180155-1.0950792-.6413594z"/><path d="m26.8451683 20.5591443c.2104219.5496901.330896 1.1252058.5204854 1.6815035.6466518-.1257367 1.2702222-.3495436 1.8490558-.6636485-.2166418-.5255643-.3987867-1.0646525-.5452792-1.613845-.6150625.1776616-1.2231499.376325-1.824262.59599z"/><path d="m23.8861197 18.1710427c3.2988626 11.5365731 5.8280574 23.2788225 7.5709458 35.1495003.0605866.3955275-.5512447.52312-.6121575.125359-1.7383029-11.8378467-4.2578824-23.5481196-7.5422837-35.0543411l-6.0624797 2.2930354c1.7541214 5.459256 3.8764693 10.7903145 5.6411234 16.2464527 1.8498015 5.7194665 2.4519389 11.8146375 5.0522684 17.2878532.1724387.3629546-.3842588.6461522-.5566975.2832442-2.5485046-5.3643759-3.207407-11.3167382-4.9492246-16.9437443-1.7376231-5.6129067-3.9552784-11.0642986-5.7666774-16.6546836l-5.212916 1.9716811c1.5805175 5.3471123 4.1926846 10.3294552 6.2274616 15.5168674.7867401 2.0055568 1.4730462 4.0637886 2.1869892 6.1110386.0089481-.001396.0178497-.0035365.0267979-.0046532.1540081-.0240578.3022295.0688543.3474532.2177998.0452238.1489455-.0263746.3083934-.1678373.3737696 1.1685753 3.3164744 2.4416392 6.5890219 4.3688517 9.5478464.2193235.3366637-.3396576.6161852-.5566508.2831511-1.9588574-3.0072649-3.2418482-6.3380248-4.4263624-9.7102918-1.4644498.2524602-2.8935024.678468-4.2568598 1.2689916 1.29288 2.7072016 2.3809034 5.5072682 3.2549442 8.3767129.11092.3862209-.50189.5092532-.6122041.1253124-1.5767891-5.4887111-4.3901969-10.480407-6.6085979-15.7153756-1.98565525-4.6854181-3.86407229-9.4156007-5.92574043-14.0679806l-5.30626597 2.0070459 14.1553556 32.1575446h17.3402523v-44.070366zm5.4921736 4.0354502-.0029361-.0133549c-.67936.3729543-1.4236574.6132823-2.1930944.7081337-.095721.0059288-.1895556-.0284299-.2587424-.0947418-.0691867-.0663118-.1074046-.1585183-.105383-.254253-.2110743-.6106943-.3314086-1.251728-.5804194-1.8485556-.019627-.0472723-.0275099-.0985834-.0229763-.149556-.0724245-.0626777-.1062902-.1588984-.0890575-.2530338s.0829987-.1721738.1729466-.2052196c.8194102-.3089302 1.6487007-.585241 2.492998-.8185557.054564-.0153868.1125548-.0135829.1660538.0051651.0693235-.0094728.1393963.0110943.1925571.0565175s.0843386.1113696.0856751.1812178c.0748012.9013373.6081029 1.6738256.7543496 2.5608308.0653403.3953413-.5465376.522422-.6119711.1254055zm-5.6629811 9.2353332c-.765629-.3852031-1.3513954-1.0523659-1.6336473-1.8606542-.0101599.0069334-.0219044.0126569-.031971.0196368-.3254432.2284287-.7490366-.2307089-.4214496-.4606732.7301615-.5126035 1.839595-1.0414935 2.7531008-.990168.8688582.0487196 1.3282443 1.2775536 1.2894689 2.0298468-.0366169.4540984-.2827577.8653359-.6659546 1.1126376-.3831968.2473017-.8598212.3025113-1.2895472.1493742zm-6.6135846-4.9865309c-.4917479.7625664-1.456081 1.0697851-2.2993074.7325169-.4046572-.1748011-.7136606-.5160159-.8472316-.9355497-.1335711-.4195338-.0786177-.8762652.1506724-1.2522755.0144515-.0233918.0321511-.0446202.0525705-.0630517.2268527-.4647761.6933252-.7654337 1.2109393-.780492 1.1580426-.0548155 2.5346629 1.1224138 1.7323568 2.298852zm-13.9568646 2.7647369c.58033273-.207346 1.17499638-.3722893 1.77928806-.4935252.16600247-.0278518.32429545.0805097.35811356.2451513s-.0689776.3264654-.23255952.3661015c-.60428754.1211319-1.19895199.2859821-1.77928807.4932459-.38080996.126848-.50291522-.4855215-.12555403-.6109735zm1.13716352 2.3452451c.53098732-.4308295 1.15817607-.7274959 1.8284098-.8648557.16613914-.0281628.32473836.0802187.35858439.2450448.03384602.1648261-.06924219.3267766-.23307696.3661614-.56097536.1114382-1.08669996.3564919-1.53246766.7143226-.31635516.2456458-.73855042-.2144224-.42149618-.4605801zm1.15622499 2.0250539c.54051581-.1877424 1.09609034-.3290939 1.66067818-.4225163.1661951-.0282403.32489099.0801559.35875782.2450473.03386683.1648913-.06929045.3269022-.23320378.366252-.51034649.0796698-1.01299962.2024447-1.50254721.3670029-.37237445.1421572-.65880916-.4126049-.2835452-.5556928zm1.04949939 1.9404112h1.18623865c.40262114 0 .36519727.6228394-.03607231.6228394h-1.18619205c-.40280755.000093-.36524387-.6227464.03597911-.6227464zm2.53415027 2.8928877c-.49132052.0372759-.97241801.1595047-1.42182724.3612329-.37134914.1462521-.65741101-.4086031-.28363841-.5556928.55075449-.243927 1.14028123-.3889571 1.74149136-.428426.40210848-.0102372.36384572.6126952-.03607232.622979zm.66696504 4.3455902c.38593289-.2013524.81208109-.3139801 1.24724469-.3296372.4022017-.0093065.3640321.6135794-.0360723.6227929-.3248138.0178753-.6415928.1075799-.92744077.2626302-.15253516.0708393-.33386423.0084375-.41029062-.1411956-.07642639-.1496332-.02053449-.3328213.12646579-.4144972zm1.08738929 2.0726569c.3741165-.2099545.8195844-.2525837 1.2268317-.1174018.386822.1133535.1925721.7063189-.1930382.5931515-.2497892-.0842743-.5240206-.055023-.7503415.0800362-.3469281.2045109-.6280964-.3527174-.2834986-.5556928zm2.1008164 3.9450373c-.4393993.0234121-.875667.087562-1.3031707.1916214-.1661569.0281459-.3247598-.0802551-.3586038-.2450965-.0338441-.1648415.0692496-.3268053.2330963-.3662028.4808511-.1130166.9712072-.1810313 1.4647039-.2031615.4023881-.0060027.3642652.6168832-.0360723.6229325zm5.7417437 1.9225426c-.2240772-.7387522-.5908124-1.4232474-.7908413-2.1713526-.1038361-.3881753.5087408-.5118591.6121575-.125359.1997493.7469885.5667175 1.4324608.7908413 2.1713526.1165592.3843131-.4961575.5070662-.6120643.125452z"/><path d="m24.4902145 28.7907685c-.2162941-.1050707-.6431498.0418793-.8523599.1009758-.3450022.0975384-.6811205.2240465-1.0047586.3781708.2000361.5715759.5632856 1.0721785 1.0449321 1.4400456.2977026.2341671.7151695.2417033 1.0211555.018434.3059859-.2232694.4255849-.6226873.292548-.9770064-.0660394-.2685864-.2248694-.8262801-.5015171-.9606198z"/></g><path d="m38.3299606 9.83969912c2.9384026.60338878 5.4085641 2.51304178 8.4018208 3.07990238 3.2510294.6157199 6.2440997.0680773 9.3526573-.8838875 1.1449141-.3775384 2.3159015-.6711329 3.5036288-.8784432l.8769208-4.08863696c-2.180278.20111407-4.3657758 1.2315794-6.4799212 1.89136571-2.5794504.80501468-4.9603166.36430404-7.3682604-.76136707-2.9790887-1.39258233-5.5553234-2.88832753-8.9211876-1.8826641-1.5752511.47058459-3.0246685 1.069925-4.5513105 1.45944974v3.22261798c1.6799726-.6851466 3.124683-1.58155135 5.185652-1.15833698z" fill="#ffee9c"/><path d="m37.5293323 15.5100736c2.637194.1305706 4.8339236 1.6071909 7.3068348 2.3219788 3.2088984.9275351 6.6179189.6640673 9.8517509.010749 1.2018048-.2427607 2.4080836-.5220496 3.6212134-.7237686l1.141824-5.3233341c-1.6434039.3562381-3.265393.8046707-4.8582515 1.3431646-2.4900894.7302332-5.1141222.8841844-7.6727312.4501568-2.7780346-.4761685-4.9987658-1.88755-7.5992817-2.8195988-1.5540886-.6028376-3.2898284-.5295154-4.7873652.2022308-.4721092.2169352-.9257163.4471787-1.3888308.6521085v4.9413941c1.3435007-.729932 2.8558019-1.0938225 4.3848373-1.0550811z" fill="#ffee9c"/><path d="m52.1398795 33.1047165c-1.88126.026384-3.7111611.391991-5.5764355.5798898-3.2050841.2855347-6.4342759.129396-9.596728-.4640235-.3918088-.0680773-.3602106-.6917077.0360723-.6228394 3.6788104.6801031 7.4428668.7685769 11.1496553.2620718 2.2576945-.3389383 4.5482563-.402908 6.8213965-.1905046l.9215219-4.2963122c-.2673383.0705645-.5393795.1219897-.8140506.1538835-1.8197943.1193551-3.6465667-.075846-5.399849-.5770048-2.0767681-.5072058-4.0474166-1.3421875-6.1042378-1.9133756-2.1680541-.6029833-4.4568317-.6258997-6.6365609-.0664486-.3914825.0935771-.5163375-.5178153-.1254608-.6112063 1.7703823-.4688608 3.6196777-.5610955 5.428045-.2707269 2.1073877.3741225 4.082184 1.2386524 6.1218546 1.8542327 2.2842073.6895672 5.0127006 1.406356 7.3975749.8409379.0929305-.022103.183857-.0527215.2759486-.0782679l1.1163776-5.2048155c-3.1311145.0680773-6.2287666.7097158-9.3862595.7113445-3.6434906.0018148-6.9894078-2.9542178-10.6146292-1.8228231-.3835597.1195888-.5062242-.492455-.125554-.6112528 3.6334238-1.1338609 6.6649433 1.6808986 10.2181599 1.8054664 3.3835275.1185652 6.6889915-.6297262 10.0406878-.6999439l.8816746-4.1106004c-1.3805352.2415509-2.752495.5808669-4.1253403.8332134-2.5513369.5219021-5.1750143.5891694-7.749816.1986944-2.5543303-.4463411-4.7299944-1.8562336-7.2324998-2.4404043-2.1671354-.5057633-4.0889884-.0322937-5.9170719.9120397v41.2221496h16.2893547l5.4168598-25.2542413c-.8997902-.1025685-1.8051091-.1490361-2.7106902-.1391326z" fill="#ffee9c"/><path d="m38.8465777 5.40122973c2.6805834-.44173436 4.9439117.72200045 7.2782194 1.86996069 1.6150052.79417258 3.2796448 1.51407906 5.1136007 1.52627061 1.9687842.01321527 3.7956094-.87192862 5.6214094-1.49886288 1.2041966-.44517547 2.4611025-.73264434 3.7393105-.8552234l1.3820731-6.44337475h-28.8367424v7.12330969c1.9094094-.52730788 3.7006749-1.39244274 5.7021293-1.72207996z" fill="#ffee9c"/><path d="m43.5267047 39.5891796c.7472656 1.2696431 2.0566814-.581658 2.6556497-1.2037529.4354973-.5290433.9690579-.9693024 1.5714761-1.2966786.1539693-.0749715.3397487-.0147117.4201912.1362941 1.0554182 2.2185833.8495637 4.7230631 1.2597814 7.097298v-15.0731322l-21.8067416-3.9049726-8.6700796 41.2858062 30.4768212 1.0516376v-22.3383663c-.0859093.0530803-.1920923.06184-.2855622.0235579-.09347-.0382821-.1629046-.1189688-.1867335-.2169941-.2462519-1.2244945-.4057876-2.4647909-.4774222-3.7116761-.0635693-.6995252-.0677172-3.035138-.6836963-3.5452288.1242802-.2750079.0297496-.2519588-.2835918.0691475-.1537035.1285231-.3016435.2633592-.44382.4045082-.3322941.3130251-.6340619.6590883-.9505102.9876553-.4119201.503887-.9035224.9371979-1.4553829 1.2828118-2.4281238 1.2250183-1.8075774-3.4666817-1.9463672-5.1490693-.8775268.8515473-1.5752512 1.8577226-2.3682363 2.7899575-.4923359.57868-1.4426131 1.769078-2.2925962 1.8570247-.7447023.0771045-1.1348799-.5596946-1.9483712-.0772908-.8651298.5129759-1.2720386 1.5605652-2.1674151 2.0697719-.8808356.5007843-2.0393909.7621116-2.2730687-.4601613-.1313796-.6869614.1241093-1.4031918-.0507063-2.0916887-.4117091-1.6216625-1.9741438.2543939-2.6650639.6840298-.1538355.0764426-.3406495.0158338-.420098-.1362941-.354705-.7247256-.5225879-1.5264006-.488421-2.332309-.7148751.9626673-1.141358 2.1265417-1.8389426 3.1063795-.2330253.3271244-.7588236-.0097254-.5257983-.3369894.8761752-1.2308349 1.3419462-2.7142955 2.4218321-3.7976684.0834001-.0745453.2002147-.0991781.3066827-.0646706.1064679.0345076.1865201.1229474.2101674.2321881.0376103.4771457-.1493692 1.8695419.1491362 2.1891746.4817099.5159539.8779928-.3340578 1.2645352-.6210246.4964837-.3686781 1.0193459-.5368936 1.5670952-.1489045 1.0243792.7251182.2121462 3.3964175 1.1667111 3.5713337 1.197284.2193083 2.1449048-1.8362246 2.981186-2.3974082.7723391-.5183271 1.0342596-.2394104 1.856233-.141878.6048405.0718929.4407907.1657027 1.095219-.3281947.6322915-.5266082 1.1964931-1.1297295 1.6795998-1.795462.6841677-.9445063 1.4598645-1.8194192 2.3158522-2.6120632.0725562-.0643132.1706946-.0917561.2661523-.0744255.0954578.0173307.1776384.077511.2228746.1632097.6954408 1.4613576-.4591997 3.4941826.3414287 4.8545178zm-2.0536987 18.7544689c-1.1410783.2616531-2.5406749 1.697883-3.7854962 1.1779738-.3397097-.1681118-.6146066-.4431211-.7823125-.7826325-.4023881-.6436394-.178544-.6734203-1.0495926-.9472184-.8196433-.2576978-.7145489-.2258694-1.2057196.3051611-.5660651.6120903-1.2061856 1.5887174-2.1913234 1.3584273-.9990727-.2334542-1.3130044-1.4643822-1.8072045-2.2847526-.8911354 1.0871886-2.4866597 3.8303808-3.8216151 2.2021572-.2130776-.3508466-.3547279-.7402226-.4168357-1.1458197-.3136055-1.0790454-1.2207264-1.9192388-2.2058642-.9704848-.8594906.8275365-1.4226661 1.8160759-2.4854014 2.4290038-.3489787.2012537-.6304267-.355742-.2836384-.5557858 1.2791692-.7379146 2.5907754-3.8093481 4.3924339-2.8407712 1.0532744.5663488.7662338 1.4666623 1.3093226 2.2776797 1.0944733 1.6346451 2.6683729-1.4995143 3.3338932-2.1289148.1280099-.1145671.32433-.1056893.4414431.0199625.3156095.3941314.4553781.8980799.7564934 1.2894194.3328999.4327536.9689192 1.0279061 1.6391466.8779779.1724388-.038529.5084147-.5180479.6176103-.637218.4753717-.5188389.9632801-1.2421423 1.7474568-1.2709925.9231065-.0339689 1.2683568.7692311 1.6401254 1.4518184.9181197 1.6862498 2.7006701-.1311756 4.0316641-.4364762.1669616-.0297617.3272453.078803.36127.2446983.0340248.1658954-.0706167.3286268-.2358558.3667871zm-15.4169546-13.5494208c.071022-.1027725.1959345-.1542339.318877-.1313707s.2209228.1157752.2501242.2371859c.272127 1.0311168.2093966 2.1070911.4750454 3.1333219.6794552-.6356824 1.1520772-1.4525629 1.8766927-2.055719.0724782-.0645154.170684-.0920936.2662188-.0747598.0955349.0173339.177744.0776467.2228547.1634976.1679601.5108479.2457203 1.046955.2298096 1.5843898.0162651.5956178-.246401 2.0783804.162605 2.5373784.8915549 1.0004518 2.3716384-2.3513409 3.109583-2.9651995.0724562-.0645367.1706568-.0921341.2661907-.0748078.095534.0173263.1777406.0776428.2228362.1634991.2808887.7224657.198724 3.1845543 1.3766203 3.0565895.7102146-.077058 1.2978112-1.4127775 2.0394376-1.6913219.9001767-.3380596 1.5045978.0176824 2.2699927.428426 2.0395774 1.0944943 4.2883648.3496463 6.4449209.1592813.396143-.0350391.5258915.5757949.1255074.6112062-1.844675.1628643-3.7249562.7366117-5.5734994.2838491-.7657678-.1875265-1.3333708-.7497804-2.0558425-.9417276-1.2128967-.322192-1.6688807.6585765-2.4057067 1.2972835-2.0623672 1.7875514-2.2638409-.9318161-2.6348172-2.4383103-.8021663 1.1088263-1.7694078 3.5311294-3.0794761 3.1595663-1.3802555-.3915722-.8238843-3.0665011-.9600643-4.4241839-.6291683.6565755-1.0988541 1.4397664-1.8507802 1.9918762-.1422853.1044658-.4136665.1214502-.4890735-.0886912-.3487923-.9717877-.3509828-1.9865715-.5093934-2.9868837-.8492037 1.3334259-1.4925833 2.7868629-1.9085239 4.3114818-.0577337.1577856-.2301956.2416377-.3902058.1897205-.1600101-.0519172-.2501566-.2209755-.2039621-.3825052.4812635-1.8183947 1.2964491-3.5317818 2.4041221-5.0530725zm12.0037397-10.1382991c-.4491031.276995-1.0184085.2684975-1.4590181-.0217773-.2505954-.1594673-.3579269-.4387562-.5719839-.6228859-.5448132-.4686767-.2313942-.3529966-1.0149185-.0889239-.4433848.1887819-.9392178.215522-1.4003889.0755225-.4949457-.1886898-.716413-1.0239973-1.0459108-1.1429347-.5563246-.2008349-1.3189233 1.4602408-2.238814.861831-.6781036-.4411759-.6804339-1.7612604-.7240096-2.7951226-.4494368.937343-.7380056 1.9433972-.8536649 2.9761811-.0475838.3970165-.6717654.3637457-.6237622-.0359232.1611774-1.466479.6464896-2.8789257 1.4208951-4.1353557.0706211-.1034482.1958036-.1554437.3190737-.1325296.12327.022914.2213244.1164058.2499276.2382983.2181582.8550838.153284 1.7553042.324744 2.6190896.2720804 1.3703398 1.3948895-.1489044 2.0959229-.4683045.1538825-.075993.3403836-.0154924.4201446.1362941.5563247 1.513893 1.600045 1.416314 2.822589.7352158.1538452-.0765004.3407124-.015881.4201447.1362941.2783254.5948733.6435693 1.5065407 1.5752511 1.1089659.3685994-.1569546.6537758.3982263.2838714.556065z" fill="#7f0f04"/><path d="m33.1444484 37.7744997 4.6359453 43.2833128h22.162618l10.2539991-44.5949749zm9.7158971 28.6047309c-.7439386-.1098961-1.5033249-.0439602-2.217096.1925056-.3731201.1382484-.6598811-.4163741-.2836384-.5557394.8130548-.2859367 1.6825191-.3748995 2.5367601-.259559.3972616.049278.3639856.6723501-.0360257.6227928zm-1.471415-11.5271122c-.9553482-.0256285-1.9113582.0101203-2.8621101.107025-.3965625.0511859-.525006-.5595084-.1255074-.6112993 1.0042906-.1042435 2.0142539-.1439245 3.0236432-.1187978.4026677.0001396.3653837.622979-.0360257.6230721zm-4.6045802-12.7151371h3.0560338c.4026211 0 .3651973.6228859-.0360257.6228859h-3.0560338c-.4027143 0-.3652904-.6228859.0359325-.6228859zm.4851587 3.7352215c.9627451-.170396 1.9344881-.2855052 2.9104396-.3447603.4024347-.0069334.364405.6159991-.0360257.6227463-.921919.0586186-1.839722.169874-2.7489064.3332203-.3966091.0523027-.5249594-.5585313-.1253676-.6112063zm.6467385 4.0626253h3.0560337c.4026212 0 .3651973.6228859-.0360723.6228859h-3.0560337c-.4027144 0-.3652905-.6228859.0359791-.6228859zm.2587513 8.255635c1.0850127-.2106854 2.180817-.3615863 3.2824411-.4520181.3961431-.0396458.5257517.5710951.1255075.6111597-1.1016128.0905588-2.1974109.2414744-3.2824412.4520646-.1662163.0283531-.3250031-.0800188-.358895-.2449457-.0338918-.1649269.0693251-.3269724.2332944-.3662605zm1.0995066 3.4975328h3.3955983c.4026211 0 .3651972.6227929-.0360724.6227929h-3.3955982c-.4028542-.0001396-.3652905-.6227929.0359791-.6227929zm.9378803 9.8378378c.9104299-.121962 1.806086-.330149 2.7164693-.4520646.3965158-.0530472.5248196.5577868.125554.6112063-.9104299.1219155-1.8061326.3303817-2.7165159.452018-.3965624.0531403-.5248662-.5576936-.1256006-.6111597zm3.5211523 4.0015745c-.9414223.2329889-1.8881575.4449916-2.8297196.6779806-.3906902.0967413-.5153122-.5146976-.1255074-.6111132.9414222-.233082 1.8881575-.4450847 2.8296729-.6781667.3905971-.0966948.5152656.514744.1254609.6112993zm.7475452-33.8423985c5.7375026-.01503 11.4995661-.4053458 17.1698176.6928245.3944652.0763601.1970928.6687671-.1930382.5932446-5.6112495-1.0867233-11.3358891-.6780736-17.0128051-.6632297-.4026678.0010237-.3651973-.6217691.0359325-.6228394zm.792286 7.119494c5.2996947.6274462 10.6676191.0920416 15.9247168 1.1449356.3941856.0791055.1970462.671373-.1930382.5932447-5.2011249-1.0415866-10.5237027-.4945955-15.7677509-1.1152943-.3977742-.0469049-.3643584-.6700701.0360257-.6226998zm.0784829 3.7442024c5.3380973 1.1630368 10.8722154-.4862661 16.0726413 1.5821098.3722812.1481134.1811538.7421491-.1930848.5932446-5.1894271-2.0640483-10.7372005-.4196313-16.0725946-1.5821097-.3932535-.0854805-.19672-.6780271.1929915-.5930585zm11.0124966 25.794811c-2.4263061-1.0259517-5.1694335-.5710021-7.731407-.6632763-.1678064-.0153847-.2931942-.1608115-.2834779-.3287821s.1510391-.2980174.3195037-.2940108c2.6182724.0942752 5.4073057-.3563935 7.888466.6928245.3680402.1558378.1775653.7501527-.1931314.5934308zm1.6978225-2.8252759c-3.1156883-1.0829076-6.3942146-1.1214366-9.6556368-1.2284617-.1678471-.0153789-.2932664-.1608435-.2835367-.3288533.0097297-.1680097.1511052-.2980718.319609-.2940326 3.3159035.1089795 6.6464877.157513 9.8126492 1.2579169.1607336.055785.2472596.2296811.1946865.3912721-.0525731.1615911-.2249341.2515207-.3878179.2023448zm.1132036-5.19858c-3.8691988-1.258801-8.0580152-.3605349-12.0325415-.3241929-.402528.0036295-.3648245-.6192099.0360257-.622886 4.0374431-.0368538 8.258417-.9251619 12.189554.3536481.1641779.053236.2540469.229278.200728.3932008s-.2296349.2536521-.3938128.2004161zm1.3582114-2.5992668c-3.9795131-1.1892347-8.2147947-.5254466-12.2242282-1.5821098-.3897116-.1027441-.1946228-.6954303.1930381-.5932446 4.0085947 1.0562909 8.2397751.3915256 12.2242749 1.5821098.1597192.0564822.2452843.2297388.1929206.3906358-.0523637.1608969-.2235874.2508415-.386052.2027949zm1.0186934-4.8594967c-4.3748638-1.1385607-8.9563278.081246-13.3907995.1278717-.4024813.0041879-.3646846-.6188842.0360723-.622886 4.4903978-.0471375 9.1112897-1.2528913 13.547812-.0982304.3899446.1017204.1949956.6944532-.1931314.5934308zm.7922861-4.7463294c-4.8414271-1.6931366-10.460413-1.3923962-15.4605769-.6690928-.3963761.0573282-.524307-.5537384-.1255541-.6112062 5.1183078-.7404274 10.8260763-1.0451697 15.7791692.6870544.1590328.0569238.2439711.2297277.191773.3901554s-.222635.2503987-.3848112.2031358zm.2263608-11.8661956c-5.2500603-1.1793698-10.6231113-.4695609-15.9133451.0089808-.3961431.0358767-.525845-.5749573-.1254609-.6112062 5.4043697-.4885927 10.8683006-1.1958889 16.2318907.0089808.3927409.0882259.1964404.6808656-.1930847.5932911z" fill="#131a59"/></g><g transform="translate(28.421053 56.842105)"><ellipse cx="32.272539" cy="28.926365" fill="#ffee9c" rx="23.201631" ry="21.968432"/><path d="m6.861501 26.781024h43.540733v8.715889h-43.540733z" fill="#7f0f04"/><path d="m27.942276 0c-11.3012696 0-21.48974252 6.7971442-25.81454679 17.2219329s-1.93424308 22.4242366 6.05696793 30.4030164c7.99121096 7.9787798 20.00933836 10.3656062 30.45034466 6.047505 10.4410062-4.3181011 17.2486934-14.4907531 17.2486934-25.7744611 0-15.4076437-12.5098356-27.8979932-27.9414592-27.8979932zm6.9404724 49.1809528c-10.9167627 0-19.7665118-8.8360747-19.7665118-19.7358734s8.8498112-19.73581127 19.766574-19.73581127c10.9167627 0 19.7665429 8.83604367 19.7665429 19.73584237 0 5.2342788-2.0825485 10.2541746-5.7895074 13.9553644-3.7069589 3.7011897-8.7346723 5.7804779-13.9770977 5.7804779z" fill="#131a59"/><ellipse cx="7.714581" cy="14.127702" fill="#ffee9c" rx="6.033054" ry="2.519882" transform="matrix(.53663704 -.84381318 .84381318 .53663704 -8.34649 13.055919)"/><ellipse cx="14.792951" cy="48.593961" fill="#ffee9c" rx="1.718182" ry="4.118291" transform="matrix(.59272891 -.80540204 .80540204 .59272891 -33.112934 31.705188)"/><path d="m74.1133985 88.2838663.1460603.1496489c-1.4234969-5.3221118-5.4538189-9.5598457-10.7035051-11.2543379-7.8410687-2.4396133-16.1499124 1.3762494-24.3541277 1.7542806-3.0725786.1416453-6.2694062-.2419698-8.912892-1.8118415-2.9445078-1.7488362-4.9393443-4.8700596-5.6858175-8.208637-.6718542-3.37618-.3923761-6.8722735.8073394-10.0993047.4411636-1.263082 1.531256-5.1608886-1.0878553-5.132704-1.6638007.018255-2.4024444 3.4055055-2.7636802 4.6192629-1.3077376 4.3648104-1.3052261 9.0166417.0072238 13.380042.7712205 2.5078766 2.010822 4.9281324 3.9334672 6.7162421 1.6298723 1.5158473 3.6700089 2.5103895 5.7143865 3.3932998 1.8893913.8909145 3.8945928 1.5128471 5.9570125 1.847625 7.9361896 1.0166917 15.494319-5.2547915 23.4143833-4.1181387 6.1879405.8880755 10.9554054 5.8469659 14.7245898 10.4103754 3.7811893 4.5145143 9.6476807 6.7318672 15.4752109 5.849153-.4028162-.8381978-.7159785-1.7164722-.9342917-2.620253-4.6622306-.0445783-9.4431643-1.4592171-12.8619253-4.6245069-2.623865-2.4290039-4.5659911-5.9167183-7.9867561-6.9643542" fill="#131a59"/></g></g><path d="m115.377251 47.6238851c3.475452-1.1901163 7.384555-1.7692335 10.782702-.3782112 1.324984.5424048 2.628221 1.5202978 2.874245 2.9161507.140655 1.1464149-.317831 2.2849096-1.217223 3.0225614-.896339.717114-1.97157 1.182616-3.112818 1.3476391-.492803.154544-1.030147.0770038-1.457613-.2103372-.563486-.5110291-.251473-1.446919.20849-2.0509712 1.682821-2.2103343 4.663243-3.0661746 7.461068-3.1654545 1.389393-.1231594 2.78626.1345297 4.037029.7447371.857356.5245268 1.594279 1.2202825 2.163507 2.0426442.736676.9852538 1.369923 2.1182313 1.393301 3.3429437l1.096097-.2706963c.135628-.0164895.259745-.083574.346939-.1875185.053907-.1161051.061767-.2479629.022028-.3695161-.53837-2.3188647-2.040816-4.3063214-4.138643-5.4746546-2.095112-1.1436702-4.497054-1.6190612-6.87644-1.3609808-2.692299.2479237-5.408022 1.3599226-7.050934 3.4815583-.884813 1.1428227-1.362658 2.9071796-.346753 3.9380709.632995.5301989 1.442567.809593 2.27206.7841177 2.342425.124951 4.936324-.6081007 6.17753-2.5746518.975528-1.7002604.927378-3.7923485-.125364-5.4470513-1.071434-1.6186198-2.731962-2.7681644-4.637723-3.2105859-1.893647-.4287432-3.859219-.4438474-5.759387-.0442573-4.352581.794837-8.349327 2.8954942-12.063911 5.2734265-.6021.3442019-1.142436.784402-1.599137 1.3027838-.508581.6411327-1.033461 1.973636.173284 1.5771606.982096-.3225446 2.053464-1.4657813 2.954996-2.0150409 2.023095-1.2332442 4.176825-2.2438915 6.42267-3.0138664z" fill="#ffee9c"/></g></g></svg>