<svg xmlns="http://www.w3.org/2000/svg" width="600" height="600" viewBox="0 0 600 600"><defs><style>.cls-1,.cls-11{fill:#131a59;}.cls-2{fill:#3360ff;}.cls-3{fill:#ffee9c;}.cls-4{fill:#ff8b78;}.cls-10,.cls-5{fill:#fff;}.cls-6{fill:#71e289;}.cls-7{fill:#eab124;}.cls-8{fill:#ba3500;}.cls-9{fill:#7f0f04;}.cls-10{stroke:#131a59;stroke-width:2px;}.cls-10,.cls-11{stroke-miterlimit:10;}.cls-11{stroke:#fff;}</style></defs><title>bg-new-contacts</title><g id="contatos"><g id="Camada_3" data-name="Camada 3"><g id="Camada_4" data-name="Camada 4"><path class="cls-1" d="M117.7351,402.2344c-.9407,32.4734-.517,68.6582,22.2657,92.2733,9.4856,9.8323,21.9369,16.3374,34.2551,22.4572q26.9567,13.3925,54.5823,25.4379c15.1368,6.6,30.749,12.9747,47.2671,14.2514,22.6478,1.7506,44.7958-6.2008,65.8943-14.45,25.5315-9.9826,51.0445-20.7252,73.3567-36.4523,55.7964-39.3288,85.18-104.7529,107.9574-168.2705,6.5276-18.2033,12.8051-37.06,11.7642-56.3257-1.2546-23.221-12.9556-44.4992-24.3855-64.882-24.1511-43.0682-50.8866-88.6432-95.7639-110.6213-26.9345-13.1908-57.6657-16.3661-87.6462-19.1529-25.3707-2.3583-51.2464-4.5613-76.1126.9037-38.0225,8.3564-70.02,34.0154-94.3311,63.8371-43.607,53.491-66.4129,126.7225-45.8252,192.1306,3.3039,10.4969,7.11,23.4687-.862,31.1961"/></g></g><g id="Camada_1" data-name="Camada 1"><polygon class="cls-2" points="366.792 371.172 136.74 436.697 5.302 29.572 268.654 6 366.792 371.172"/><ellipse class="cls-1" cx="241.8168" cy="114.6491" rx="6.7345" ry="10.3278" transform="translate(-21.3574 66.0783) rotate(-14.9096)"/><ellipse class="cls-3" cx="263.5441" cy="108.864" rx="6.7345" ry="10.3278" transform="translate(-19.1374 71.4739) rotate(-14.9096)"/><ellipse class="cls-4" cx="289.4158" cy="206.0314" rx="6.7345" ry="10.3278" transform="translate(-43.2671 81.4019) rotate(-14.9096)"/><path class="cls-3" d="M95.6515,159.0273c.33-1.7418-.7082-3.1608-.4454-4.8586.1633-1.055.577-1.5816.3931-2.6581-.2155-1.2605-2.3174-3.4487-.2355-4.5874.8545-.4673.0915-1.5745-.7611-1.1081-2.4748,1.3535-1.6279,2.7949-.9626,4.7628a5.3511,5.3511,0,0,1,.2161,3.0384,7.0575,7.0575,0,0,0-.3723,1.46c.0075,1.0586.877,2.0419.771,3.1029a10.7942,10.7942,0,0,1-1.8074,4.1626l-.6967.1731L88.7722,114.632c5.35,1.0414,10.8489-3.3348,13.1716-7.6234,1.2059.5172,2.0937,1.6786,3.053,2.4576.6949.5643,1.7666-.4411,1.0738-1.0037-1.1025-.8953-2.0907-2.2048-3.5158-2.7322a.851.851,0,0,0-.8838.1821.7045.7045,0,0,0-.9277.3115c-1.9946,3.8355-7.15,8.3809-12.0589,6.9967l-2.7506-44.218,24.7309,7.9337,18.928,76.1756-11.0159,2.7372c2.0882-1.9534.5156-4.2321-.2032-6.6748-.685-2.3283.83-3.7744.8877-5.9785.0407-1.552-1.0565-2.522-2.2988-3.441-.7217-.5338-1.796.47-1.0738,1.0037,3.3842,2.5033.3453,4.5215.6807,7.5714.253,2.3014,3.4115,5.3087.1554,7.2056a.6081.6081,0,0,0-.2825.844l-4.4219,1.0987c1.7873-1.5025,1.7069-3.6756,1.34-5.9524a9.5006,9.5006,0,0,1,.8782-6.0509c.6584-1.607.2036-2.5972-.8908-3.88-.5633-.66-1.877.0817-1.3095.7469,1.9744,2.3137-.7168,4.5764-.5208,7.2155.1772,2.3846,2.0058,6.1509-1.4251,7.5936a.7421.7421,0,0,0-.4656.9219l-10.9539,2.7218a2.8106,2.8106,0,0,0,.5157-2.0576c-.0621-1.5275-.6394-2.153.2737-3.7941a16.4665,16.4665,0,0,0,1.3835-2.04,2.6783,2.6783,0,0,0-.1885-2.43c-.42-.9395-3.6681-4.47-.9841-5.059.9592-.2106.5492-1.4708-.4042-1.2615-3.0118.6609-2.4524,2.8264-1.3928,4.6713a11.9279,11.9279,0,0,1,1.4061,2.303c.4134,1.4785-.6319,2.3026-1.3386,3.5639-.688,1.2278.1351,5.028-.8011,5.71a.6811.6811,0,0,0-.2588.8381l-2.4666.6128A8.9291,8.9291,0,0,0,95.6515,159.0273Zm4.98-69.3919a.7484.7484,0,0,0-.71-.1072,3.7368,3.7368,0,0,0-4.4844.4769,3.4447,3.4447,0,0,0-.1128,5.02,4.4183,4.4183,0,0,0,5.9657-.0115C103.1363,93.3114,102.3118,90.9314,100.6311,89.6354Z"/><path class="cls-1" d="M141.6811,147.59c.33-1.7418-.7083-3.1607-.4455-4.8586.1633-1.055.5771-1.5815.3931-2.6581-.2154-1.26-2.3174-3.4487-.2354-4.5874.8544-.4673.0914-1.5745-.7612-1.1081-2.4748,1.3535-1.6279,2.7949-.9625,4.7629a5.3516,5.3516,0,0,1,.2161,3.0383,7.0586,7.0586,0,0,0-.3724,1.46c.0076,1.0586.8771,2.0418.771,3.1028a10.7912,10.7912,0,0,1-1.8074,4.1626l-.6966.1731-2.9785-47.8828c5.3505,1.0415,10.8488-3.3348,13.1715-7.6234,1.2059.5173,2.0938,1.6787,3.0531,2.4576.6949.5643,1.7666-.4411,1.0738-1.0037-1.1025-.8953-2.0908-2.2048-3.5159-2.7322a.851.851,0,0,0-.8837.1821.7047.7047,0,0,0-.9278.3116c-1.9946,3.8354-7.15,8.3809-12.0588,6.9967l-2.7506-44.2181,24.7309,7.9338,18.928,76.1755-11.016,2.7372c2.0882-1.9534.5156-4.2321-.2031-6.6748-.6851-2.3283.83-3.7743.8877-5.9785.0406-1.552-1.0565-2.522-2.2988-3.4409-.7218-.5338-1.7961.4694-1.0738,1.0037,3.3842,2.5032.3453,4.5214.6806,7.5713.2531,2.3014,3.4115,5.3087.1555,7.2056a.608.608,0,0,0-.2825.844l-4.4219,1.0988c1.7872-1.5025,1.7068-3.6757,1.3395-5.9525a9.5008,9.5008,0,0,1,.8783-6.0509c.6584-1.607.2035-2.5972-.8908-3.88-.5633-.66-1.8771.0817-1.31.7469,1.9744,2.3138-.7168,4.5764-.5208,7.2155.1771,2.3846,2.0058,6.1509-1.4251,7.5937a.742.742,0,0,0-.4656.9218l-10.9539,2.7218a2.8106,2.8106,0,0,0,.5156-2.0576c-.062-1.5275-.6393-2.153.2738-3.794a16.4676,16.4676,0,0,0,1.3835-2.04,2.6783,2.6783,0,0,0-.1885-2.43c-.42-.94-3.6682-4.47-.9841-5.0591.9591-.21.5492-1.4708-.4043-1.2615-3.0117.6609-2.4523,2.8264-1.3927,4.6713a11.9328,11.9328,0,0,1,1.4061,2.303c.4133,1.4786-.632,2.3027-1.3387,3.5639-.6879,1.2278.1351,5.028-.801,5.71a.681.681,0,0,0-.2589.8381l-2.4665.6129A8.9328,8.9328,0,0,0,141.6811,147.59Zm4.98-69.3919a.7489.7489,0,0,0-.71-.1072,3.7367,3.7367,0,0,0-4.4844.477,3.4448,3.4448,0,0,0-.1128,5.0195,4.4185,4.4185,0,0,0,5.9658-.0116C149.1659,81.8741,148.3413,79.494,146.6607,78.198Z"/><path class="cls-5" d="M188.6141,135.9281c.33-1.7419-.7082-3.1608-.4455-4.8587.1633-1.0549.5771-1.5815.3932-2.658-.2155-1.26-2.3175-3.4488-.2355-4.5874.8544-.4673.0915-1.5745-.7611-1.1082-2.4749,1.3535-1.6279,2.7949-.9626,4.7629a5.3517,5.3517,0,0,1,.2161,3.0383,7.0537,7.0537,0,0,0-.3723,1.46c.0075,1.0586.877,2.0418.771,3.1028a10.794,10.794,0,0,1-1.8074,4.1627l-.6967.1731-2.9785-47.8829c5.35,1.0415,10.8488-3.3347,13.1715-7.6233,1.2059.5172,2.0938,1.6786,3.0531,2.4575.6949.5643,1.7666-.441,1.0738-1.0037-1.1025-.8952-2.0908-2.2048-3.5158-2.7322a.851.851,0,0,0-.8838.1822.7045.7045,0,0,0-.9277.3115c-1.9947,3.8354-7.15,8.3809-12.0589,6.9967l-2.7506-44.218,24.7309,7.9337,18.928,76.1755L211.5394,132.75c2.0881-1.9534.5155-4.2321-.2032-6.6749-.685-2.3283.83-3.7743.8877-5.9784.0406-1.5521-1.0565-2.522-2.2988-3.441-.7217-.5338-1.796.4694-1.0738,1.0037,3.3842,2.5032.3453,4.5215.6807,7.5714.253,2.3013,3.4115,5.3087.1554,7.2056a.6079.6079,0,0,0-.2825.8439l-4.4219,1.0988c1.7873-1.5025,1.7069-3.6757,1.3395-5.9525a9.5015,9.5015,0,0,1,.8783-6.0509c.6584-1.6069.2036-2.5971-.8908-3.88-.5633-.66-1.8771.0817-1.31.7469,1.9744,2.3137-.7168,4.5764-.5208,7.2154.1772,2.3847,2.0058,6.1509-1.4251,7.5937a.742.742,0,0,0-.4656.9218l-10.9539,2.7219a2.8108,2.8108,0,0,0,.5157-2.0577c-.0621-1.5275-.6394-2.153.2737-3.794a16.474,16.474,0,0,0,1.3835-2.04,2.6782,2.6782,0,0,0-.1885-2.43c-.42-.94-3.6681-4.47-.9841-5.0591.9591-.21.5492-1.4707-.4042-1.2615-3.0118.661-2.4524,2.8264-1.3928,4.6714a11.9268,11.9268,0,0,1,1.4061,2.303c.4133,1.4785-.632,2.3026-1.3387,3.5638-.6879,1.2279.1352,5.028-.801,5.7106a.6808.6808,0,0,0-.2588.838l-2.4666.6129A8.9314,8.9314,0,0,0,188.6141,135.9281Zm4.98-69.392a.7492.7492,0,0,0-.71-.1072,3.7368,3.7368,0,0,0-4.4843.477,3.4447,3.4447,0,0,0-.1128,5.0195,4.4184,4.4184,0,0,0,5.9657-.0115C196.0989,70.2122,195.2744,67.8322,193.5937,66.5361Z"/><path class="cls-6" d="M147.3443,249.3c.33-1.7418-.7082-3.1607-.4455-4.8586.1633-1.055.5771-1.5815.3932-2.6581-.2155-1.2605-2.3175-3.4487-.2355-4.5874.8544-.4673.0914-1.5745-.7611-1.1081-2.4749,1.3535-1.628,2.7949-.9626,4.7628a5.352,5.352,0,0,1,.2161,3.0384,7.0528,7.0528,0,0,0-.3723,1.46c.0075,1.0587.877,2.0419.7709,3.1029a10.7912,10.7912,0,0,1-1.8074,4.1626l-.6966.1731-2.9785-47.8828c5.35,1.0415,10.8488-3.3348,13.1715-7.6234,1.2059.5173,2.0938,1.6787,3.0531,2.4576.6949.5643,1.7666-.4411,1.0738-1.0037-1.1025-.8953-2.0908-2.2048-3.5158-2.7322a.8511.8511,0,0,0-.8838.1821.7045.7045,0,0,0-.9277.3116c-1.9947,3.8354-7.15,8.3809-12.0589,6.9967l-2.7506-44.2181,24.7309,7.9338,18.928,76.1755-11.016,2.7372c2.0882-1.9534.5156-4.2321-.2031-6.6748-.685-2.3283.83-3.7743.8877-5.9785.0406-1.552-1.0565-2.522-2.2988-3.4409-.7218-.5339-1.796.4694-1.0738,1.0037,3.3842,2.5032.3453,4.5214.6807,7.5713.253,2.3014,3.4114,5.3087.1554,7.2056a.608.608,0,0,0-.2825.844l-4.4219,1.0987c1.7873-1.5025,1.7068-3.6756,1.3395-5.9524a9.5015,9.5015,0,0,1,.8783-6.0509c.6584-1.607.2036-2.5972-.8908-3.88-.5633-.66-1.8771.0817-1.3095.7469,1.9744,2.3137-.7168,4.5764-.5208,7.2155.1772,2.3846,2.0058,6.1509-1.4251,7.5937a.742.742,0,0,0-.4656.9218l-10.9539,2.7218a2.8106,2.8106,0,0,0,.5157-2.0576c-.0621-1.5275-.6394-2.153.2737-3.794a16.4676,16.4676,0,0,0,1.3835-2.04,2.6783,2.6783,0,0,0-.1885-2.43c-.42-.94-3.6681-4.47-.9841-5.059.9591-.21.5492-1.4708-.4042-1.2615-3.0118.6609-2.4524,2.8264-1.3928,4.6713a11.9328,11.9328,0,0,1,1.4061,2.303c.4133,1.4785-.632,2.3027-1.3387,3.5639-.6879,1.2278.1352,5.028-.801,5.71a.6809.6809,0,0,0-.2588.8381l-2.4666.6129A8.9328,8.9328,0,0,0,147.3443,249.3Zm4.98-69.3919a.7486.7486,0,0,0-.71-.1072,3.7368,3.7368,0,0,0-4.4844.4769,3.4448,3.4448,0,0,0-.1128,5.0195,4.4184,4.4184,0,0,0,5.9658-.0115C154.8291,183.5842,154.0045,181.2041,152.3239,179.9081Z"/><path class="cls-7" d="M193.3739,237.8626c.33-1.7418-.7083-3.1607-.4455-4.8586.1633-1.0549.577-1.5815.3931-2.6581-.2154-1.26-2.3174-3.4487-.2355-4.5873.8545-.4674.0915-1.5745-.7611-1.1082-2.4748,1.3535-1.6279,2.7949-.9625,4.7629a5.3516,5.3516,0,0,1,.2161,3.0383,7.06,7.06,0,0,0-.3724,1.46c.0076,1.0586.877,2.0418.771,3.1028a10.7953,10.7953,0,0,1-1.8074,4.1627l-.6966.1731-2.9786-47.8829c5.3506,1.0415,10.8489-3.3348,13.1716-7.6233,1.2059.5172,2.0938,1.6786,3.053,2.4575.6949.5643,1.7667-.441,1.0738-1.0037-1.1024-.8953-2.0907-2.2048-3.5158-2.7322a.8511.8511,0,0,0-.8838.1822.7045.7045,0,0,0-.9277.3115c-1.9946,3.8354-7.15,8.3809-12.0589,6.9967l-2.75-44.2181,24.7309,7.9338,18.928,76.1755-11.016,2.7373c2.0882-1.9535.5156-4.2321-.2031-6.6749-.6851-2.3283.83-3.7743.8877-5.9785.0406-1.552-1.0565-2.5219-2.2988-3.4409-.7218-.5338-1.7961.4694-1.0738,1.0037,3.3842,2.5032.3452,4.5214.6806,7.5714.253,2.3013,3.4115,5.3086.1554,7.2056a.6079.6079,0,0,0-.2824.8439l-4.422,1.0988c1.7873-1.5025,1.7069-3.6757,1.34-5.9525a9.5014,9.5014,0,0,1,.8782-6.0509c.6584-1.607.2036-2.5971-.8908-3.88-.5632-.66-1.877.0817-1.3094.7469,1.9744,2.3137-.7168,4.5764-.5209,7.2154.1772,2.3847,2.0058,6.1509-1.4251,7.5937a.742.742,0,0,0-.4655.9218L196.3949,239.63a2.8108,2.8108,0,0,0,.5156-2.0576c-.0621-1.5275-.6393-2.153.2738-3.794a16.49,16.49,0,0,0,1.3835-2.04,2.6783,2.6783,0,0,0-.1886-2.43c-.42-.94-3.6681-4.47-.9841-5.0591.9592-.2105.5492-1.4708-.4042-1.2615-3.0117.661-2.4524,2.8264-1.3928,4.6714a11.9246,11.9246,0,0,1,1.4062,2.3029c.4133,1.4786-.632,2.3027-1.3387,3.5639-.688,1.2279.1351,5.028-.8011,5.7105a.6811.6811,0,0,0-.2588.8381l-2.4665.6129A8.9341,8.9341,0,0,0,193.3739,237.8626Zm4.98-69.3919a.7492.7492,0,0,0-.71-.1072,3.7368,3.7368,0,0,0-4.4844.477,3.4448,3.4448,0,0,0-.1128,5.02,4.4185,4.4185,0,0,0,5.9658-.0115C200.8586,172.1468,200.0341,169.7667,198.3535,168.4707Z"/><path class="cls-8" d="M240.3069,226.2008c.33-1.7419-.7083-3.1608-.4455-4.8587.1633-1.0549.5771-1.5815.3931-2.658-.2154-1.2605-2.3174-3.4488-.2354-4.5874.8544-.4673.0914-1.5745-.7612-1.1081-2.4748,1.3534-1.6279,2.7948-.9625,4.7628a5.3517,5.3517,0,0,1,.2161,3.0383,7.06,7.06,0,0,0-.3724,1.46c.0076,1.0586.8771,2.0418.771,3.1029a10.7912,10.7912,0,0,1-1.8074,4.1626l-.6966.1731-2.9786-47.8828c5.3506,1.0414,10.8489-3.3348,13.1716-7.6234,1.2059.5172,2.0938,1.6786,3.0531,2.4575.6948.5643,1.7666-.441,1.0738-1.0036-1.1025-.8953-2.0908-2.2048-3.5159-2.7322a.8506.8506,0,0,0-.8837.1821.7047.7047,0,0,0-.9278.3115c-1.9946,3.8355-7.15,8.3809-12.0588,6.9967l-2.7506-44.218L255.32,144.11l18.928,76.1756-11.016,2.7372c2.0882-1.9534.5156-4.2321-.2031-6.6748-.6851-2.3283.83-3.7744.8877-5.9785.0406-1.5521-1.0565-2.522-2.2988-3.441-.7218-.5338-1.7961.4694-1.0738,1.0037,3.3842,2.5033.3453,4.5215.6806,7.5714.2531,2.3014,3.4115,5.3087.1555,7.2056a.608.608,0,0,0-.2825.844l-4.4219,1.0987c1.7872-1.5025,1.7068-3.6757,1.34-5.9525a9.5,9.5,0,0,1,.8783-6.0508c.6584-1.607.2035-2.5972-.8909-3.88-.5632-.66-1.877.0817-1.3094.7469,1.9744,2.3137-.7168,4.5764-.5208,7.2155.1771,2.3846,2.0058,6.1509-1.4251,7.5936a.742.742,0,0,0-.4656.9219l-10.9539,2.7218a2.8106,2.8106,0,0,0,.5156-2.0576c-.062-1.5276-.6393-2.153.2738-3.7941a16.4665,16.4665,0,0,0,1.3835-2.04,2.6786,2.6786,0,0,0-.1885-2.43c-.42-.94-3.6682-4.47-.9841-5.0591.9591-.21.5492-1.4707-.4043-1.2615-3.0117.661-2.4524,2.8265-1.3927,4.6714a11.9328,11.9328,0,0,1,1.4061,2.303c.4133,1.4785-.632,2.3026-1.3387,3.5639-.6879,1.2278.1351,5.0279-.801,5.7105a.6809.6809,0,0,0-.2589.838l-2.4665.6129A8.9314,8.9314,0,0,0,240.3069,226.2008Zm4.98-69.3919a.749.749,0,0,0-.71-.1073,3.7369,3.7369,0,0,0-4.4844.477,3.4448,3.4448,0,0,0-.1128,5.02,4.4184,4.4184,0,0,0,5.9658-.0115C247.7917,160.4849,246.9671,158.1049,245.2865,156.8089Z"/><path class="cls-9" d="M132.4616,356.1153c.33-1.7418-.7083-3.1607-.4455-4.8586.1633-1.0549.577-1.5815.3931-2.6581-.2154-1.26-2.3174-3.4487-.2355-4.5873.8545-.4674.0915-1.5745-.7611-1.1082-2.4748,1.3535-1.6279,2.7949-.9625,4.7629a5.3516,5.3516,0,0,1,.2161,3.0383,7.06,7.06,0,0,0-.3724,1.46c.0076,1.0586.877,2.0418.771,3.1028a10.7953,10.7953,0,0,1-1.8074,4.1627l-.6966.1731L125.5822,311.72c5.3506,1.0415,10.8489-3.3348,13.1716-7.6233,1.2059.5172,2.0938,1.6786,3.0531,2.4575.6948.5643,1.7666-.441,1.0737-1.0037-1.1024-.8953-2.0907-2.2048-3.5158-2.7322a.8511.8511,0,0,0-.8838.1822.7045.7045,0,0,0-.9277.3115c-1.9946,3.8354-7.15,8.3809-12.0589,6.9967l-2.7505-44.2181,24.7309,7.9338L166.4028,350.2l-11.016,2.7373c2.0882-1.9535.5156-4.2321-.2031-6.6749-.6851-2.3283.83-3.7743.8877-5.9785.0406-1.552-1.0565-2.5219-2.2988-3.4409-.7218-.5338-1.7961.4694-1.0738,1.0037,3.3842,2.5032.3452,4.5214.6806,7.5714.253,2.3013,3.4115,5.3086.1555,7.2056a.6079.6079,0,0,0-.2825.8439l-4.422,1.0988c1.7873-1.5025,1.7069-3.6757,1.34-5.9525a9.5014,9.5014,0,0,1,.8782-6.0509c.6584-1.607.2036-2.5971-.8908-3.88-.5632-.66-1.877.0817-1.3094.7469,1.9744,2.3137-.7168,4.5764-.5209,7.2154.1772,2.3847,2.0058,6.1509-1.4251,7.5937a.742.742,0,0,0-.4655.9218l-10.9539,2.7218a2.8108,2.8108,0,0,0,.5156-2.0576c-.0621-1.5275-.6393-2.153.2738-3.794a16.4786,16.4786,0,0,0,1.3835-2.04,2.6786,2.6786,0,0,0-.1885-2.43c-.42-.94-3.6682-4.47-.9842-5.0591.9592-.2105.5492-1.4708-.4042-1.2615-3.0117.6609-2.4524,2.8264-1.3927,4.6714a11.9291,11.9291,0,0,1,1.4061,2.3029c.4133,1.4786-.632,2.3027-1.3387,3.5639-.688,1.2279.1351,5.028-.8011,5.71a.6811.6811,0,0,0-.2588.8381l-2.4665.6129A8.9351,8.9351,0,0,0,132.4616,356.1153Zm4.98-69.3919a.7492.7492,0,0,0-.71-.1072,3.7368,3.7368,0,0,0-4.4844.477,3.4448,3.4448,0,0,0-.1128,5.0195,4.4186,4.4186,0,0,0,5.9658-.0115C139.9463,290.4,139.1218,288.0194,137.4412,286.7234Z"/><path class="cls-5" d="M178.4911,344.678c.33-1.7419-.7082-3.1608-.4454-4.8587.1633-1.0549.577-1.5815.3931-2.658-.2155-1.26-2.3175-3.4488-.2355-4.5874.8545-.4673.0915-1.5745-.7611-1.1081-2.4748,1.3534-1.6279,2.7948-.9626,4.7628a5.3508,5.3508,0,0,1,.2161,3.0383,7.06,7.06,0,0,0-.3723,1.46c.0075,1.0586.877,2.0418.771,3.1029a10.7942,10.7942,0,0,1-1.8074,4.1626l-.6967.1731-2.9785-47.8829c5.3505,1.0415,10.8489-3.3347,13.1716-7.6233,1.2059.5172,2.0937,1.6786,3.053,2.4575.6949.5643,1.7666-.441,1.0738-1.0037-1.1025-.8952-2.0907-2.2048-3.5158-2.7321a.8507.8507,0,0,0-.8838.1821.7045.7045,0,0,0-.9277.3115c-1.9947,3.8354-7.15,8.3809-12.0589,6.9967l-2.7506-44.218,24.7309,7.9337,18.928,76.1756L201.4164,341.5c2.0881-1.9534.5156-4.2321-.2032-6.6749-.685-2.3283.83-3.7743.8877-5.9784.0407-1.5521-1.0565-2.522-2.2988-3.441-.7217-.5338-1.796.4694-1.0738,1.0037,3.3842,2.5032.3453,4.5215.6807,7.5714.253,2.3014,3.4115,5.3087.1554,7.2056a.608.608,0,0,0-.2825.844l-4.4219,1.0987c1.7873-1.5025,1.7069-3.6757,1.3395-5.9525a9.5015,9.5015,0,0,1,.8783-6.0509c.6584-1.6069.2036-2.5971-.8908-3.88-.5633-.66-1.877.0817-1.31.7469,1.9744,2.3137-.7168,4.5764-.5208,7.2154.1772,2.3847,2.0058,6.151-1.4251,7.5937a.742.742,0,0,0-.4656.9219l-10.9539,2.7218a2.8106,2.8106,0,0,0,.5157-2.0576c-.0621-1.5276-.6394-2.153.2737-3.7941a16.474,16.474,0,0,0,1.3835-2.04,2.6783,2.6783,0,0,0-.1885-2.43c-.42-.94-3.6681-4.47-.9841-5.0591.9592-.21.5492-1.4707-.4042-1.2615-3.0118.661-2.4524,2.8264-1.3928,4.6714a11.9218,11.9218,0,0,1,1.4061,2.303c.4134,1.4785-.6319,2.3026-1.3387,3.5638-.6879,1.2279.1352,5.028-.801,5.7106a.681.681,0,0,0-.2588.838l-2.4666.6129A8.9314,8.9314,0,0,0,178.4911,344.678Zm4.98-69.3919a.7488.7488,0,0,0-.71-.1073,3.7369,3.7369,0,0,0-4.4844.477,3.4447,3.4447,0,0,0-.1128,5.0195,4.4184,4.4184,0,0,0,5.9657-.0115C185.9759,278.9621,185.1514,276.5821,183.4707,275.2861Z"/><path class="cls-3" d="M236.44,330.3313c.33-1.7418-.7083-3.1607-.4455-4.8586.1633-1.0549.5771-1.5815.3931-2.6581-.2154-1.26-2.3174-3.4487-.2354-4.5873.8544-.4674.0914-1.5745-.7612-1.1082-2.4748,1.3535-1.6279,2.7949-.9625,4.7629a5.3516,5.3516,0,0,1,.2161,3.0383,7.0586,7.0586,0,0,0-.3724,1.46c.0076,1.0586.8771,2.0418.771,3.1028a10.7912,10.7912,0,0,1-1.8074,4.1626l-.6966.1731L229.56,285.936c5.3506,1.0415,10.8489-3.3348,13.1716-7.6234,1.2059.5173,2.0938,1.6787,3.0531,2.4576.6949.5643,1.7666-.4411,1.0738-1.0037-1.1025-.8953-2.0908-2.2048-3.5159-2.7322a.8508.8508,0,0,0-.8837.1822.7047.7047,0,0,0-.9278.3115c-1.9946,3.8354-7.15,8.3809-12.0588,6.9967l-2.7506-44.2181,24.7309,7.9338,18.928,76.1755-11.016,2.7372c2.0882-1.9534.5156-4.2321-.2031-6.6748-.6851-2.3283.83-3.7743.8877-5.9785.0406-1.552-1.0565-2.5219-2.2988-3.4409-.7218-.5338-1.7961.4694-1.0738,1.0037,3.3842,2.5032.3453,4.5214.6806,7.5713.2531,2.3014,3.4115,5.3087.1555,7.2057a.6079.6079,0,0,0-.2825.8439l-4.4219,1.0988c1.7872-1.5025,1.7068-3.6757,1.3395-5.9525a9.5008,9.5008,0,0,1,.8783-6.0509c.6584-1.607.2035-2.5971-.8908-3.88-.5633-.66-1.8771.0816-1.31.7468,1.9744,2.3138-.7168,4.5764-.5208,7.2155.1771,2.3847,2.0058,6.1509-1.4251,7.5937a.742.742,0,0,0-.4656.9218l-10.9539,2.7218a2.81,2.81,0,0,0,.5156-2.0576c-.062-1.5275-.6393-2.153.2738-3.794a16.4676,16.4676,0,0,0,1.3835-2.04,2.6783,2.6783,0,0,0-.1885-2.43c-.42-.94-3.6682-4.47-.9841-5.0591.9591-.2105.5492-1.4708-.4043-1.2615-3.0117.6609-2.4524,2.8264-1.3927,4.6713a11.9328,11.9328,0,0,1,1.4061,2.303c.4133,1.4786-.632,2.3027-1.3387,3.5639-.6879,1.2279.1351,5.028-.801,5.7105a.681.681,0,0,0-.2589.8381l-2.4665.6129A8.9328,8.9328,0,0,0,236.44,330.3313Zm4.98-69.3919a.7492.7492,0,0,0-.71-.1072,3.7368,3.7368,0,0,0-4.4844.477,3.4448,3.4448,0,0,0-.1128,5.02,4.4185,4.4185,0,0,0,5.9658-.0116C243.9244,264.6155,243.1,262.2354,241.4192,260.9394Z"/><path class="cls-4" d="M317.274,310.2457c-1.1378-1.3771-.8566-3.1239-1.9113-4.4944-.6552-.8516-1.2894-1.1178-1.6341-2.1544-.4035-1.2137.4928-4.147-1.9756-4.1549-1.0131-.0033-.8374-1.3438.1735-1.34,2.9342.0094,2.8407,1.6845,3.1667,3.7368a5.16,5.16,0,0,0,1.2529,2.7807c.329.39.7933.6416,1.0422,1.1085.4991.9364.1657,2.2186.771,3.1028a10.8554,10.8554,0,0,0,3.6605,2.804l.7265-.1805-20.1406-43.6185c-4.4467,3.4759-11.62,2.2484-15.8172-.42-.8671,1.0323-1.1323,2.48-1.6464,3.6253-.3724.8294-1.8435.4559-1.4722-.3711.5908-1.316.878-2.9425,1.9428-4.0886a.92.92,0,0,1,.9038-.262.7573.7573,0,0,1,1.0063-.169c3.6771,2.4261,10.6147,3.9667,14.4893.4L283.213,226.27l-19.0616,18.8153,18.928,76.1755,11.4889-2.8548c-2.8637-.723-2.5-3.4828-3.0035-5.979-.48-2.3792-2.5716-2.9291-3.6787-4.8438-.78-1.3482-.2295-2.7275.4792-4.1312.4118-.8155,1.8843-.4451,1.4723.371-1.9307,3.8239,1.8426,4.1494,2.9909,6.9974.8664,2.1489-.6146,6.309,3.3014,6.4238a.6073.6073,0,0,1,.6646.6087l4.6117-1.146c-2.37-.47-3.3347-2.4229-4.0838-4.6048a9.2956,9.2956,0,0,0-3.7046-4.9122c-1.3768-1.1012-1.43-2.1912-1.0317-3.8446.205-.851,1.7737-.8255,1.5672.0321-.7184,2.9828,2.8505,3.69,3.9311,6.1092.9764,2.1861,1.0872,6.3792,4.9476,6.01a.7512.7512,0,0,1,.871.59l11.4243-2.8386a2.7806,2.7806,0,0,1-1.46-1.5667c-.673-1.3757-.4385-2.2029-2.067-3.2124a16.9576,16.9576,0,0,1-2.2539-1.1363,2.5888,2.5888,0,0,1-.9875-2.2313c-.0608-1.029,1.2527-5.6928-1.5094-4.9286-.987.2731-1.2107-1.0335-.2295-1.3049,3.0993-.8575,3.6177,1.3181,3.52,3.45a11.5783,11.5783,0,0,0-.1984,2.7017c.3249,1.5,1.685,1.7269,2.9411,2.5,1.2228.7531,2.279,4.4953,3.4705,4.6491a.6781.6781,0,0,1,.64.6148l2.5724-.6392A8.9868,8.9868,0,0,1,317.274,310.2457Zm-37.7787-58.7674a.798.798,0,0,1,.6046-.4338,4.0224,4.0224,0,0,1,4.3722-1.7237,3.3712,3.3712,0,0,1,2.5041,4.3693,4.7261,4.7261,0,0,1-5.5187,2.8421C278.9377,255.9154,278.5618,253.4239,279.4953,251.4783Z"/><path class="cls-5" d="M97.4032,261.802c.33-1.7418-.7082-3.1607-.4455-4.8586.1633-1.055.5771-1.5815.3932-2.6581-.2155-1.26-2.3175-3.4487-.2355-4.5874.8544-.4673.0915-1.5745-.7611-1.1081-2.4749,1.3535-1.6279,2.7949-.9626,4.7628a5.352,5.352,0,0,1,.2161,3.0384,7.0528,7.0528,0,0,0-.3723,1.46c.0075,1.0587.877,2.0419.771,3.1029a10.7942,10.7942,0,0,1-1.8074,4.1626l-.6967.1731-2.9785-47.8828c5.35,1.0415,10.8488-3.3348,13.1715-7.6234,1.2059.5173,2.0938,1.6787,3.0531,2.4576.6949.5643,1.7666-.4411,1.0738-1.0037-1.1025-.8953-2.0908-2.2048-3.5158-2.7322a.8511.8511,0,0,0-.8838.1821.7045.7045,0,0,0-.9277.3116c-1.9947,3.8354-7.15,8.3809-12.0589,6.9967l-2.7506-44.2181,24.7309,7.9338,18.928,76.1755-11.0159,2.7372c2.0881-1.9534.5156-4.2321-.2032-6.6748-.685-2.3283.83-3.7743.8877-5.9785.0406-1.552-1.0565-2.522-2.2988-3.4409-.7217-.5338-1.796.4694-1.0738,1.0037,3.3842,2.5032.3453,4.5214.6807,7.5713.253,2.3014,3.4115,5.3087.1554,7.2056a.608.608,0,0,0-.2825.844l-4.4219,1.0987c1.7873-1.5025,1.7069-3.6756,1.34-5.9524a9.5015,9.5015,0,0,1,.8783-6.0509c.6584-1.607.2036-2.5972-.8908-3.88-.5633-.66-1.8771.0817-1.31.7469,1.9744,2.3138-.7168,4.5764-.5208,7.2155.1772,2.3846,2.0058,6.1509-1.4251,7.5937a.742.742,0,0,0-.4656.9218L100.4242,263.57a2.8106,2.8106,0,0,0,.5157-2.0576c-.0621-1.5275-.6394-2.153.2737-3.794a16.4676,16.4676,0,0,0,1.3835-2.04,2.6783,2.6783,0,0,0-.1885-2.43c-.42-.9395-3.6681-4.47-.9841-5.059.9591-.21.5492-1.4708-.4042-1.2615-3.0118.6609-2.4524,2.8264-1.3928,4.6713a11.9328,11.9328,0,0,1,1.4061,2.303c.4133,1.4785-.632,2.3027-1.3387,3.5639-.6879,1.2278.1352,5.028-.801,5.7105a.6809.6809,0,0,0-.2588.8381l-2.4666.6129A8.9328,8.9328,0,0,0,97.4032,261.802Zm4.98-69.3919a.7486.7486,0,0,0-.71-.1072,3.7366,3.7366,0,0,0-4.4843.4769,3.4447,3.4447,0,0,0-.1128,5.0195,4.4183,4.4183,0,0,0,5.9657-.0115C104.888,196.0862,104.0635,193.7061,102.3828,192.41Z"/><path class="cls-5" d="M187.826,407.2243a15.8316,15.8316,0,0,0,2.4289-.2621c1.2849-.0352,1.5523-.1434,2.6485-.2171.09-.0176,2.0814-.21,2.1722-.2211,2.6819-.315,3.4582-.37,5.5419-.5781,4.634-.4631,9.1133-1.02,14.1357-1.799l-4.7818-10.2785c-4.4467,3.4758-11.62,2.2483-15.8172-.42-.8671,1.0323-1.1324,2.48-1.6465,3.6253-.3724.8295-1.8435.456-1.4722-.3711.5908-1.316.878-2.9425,1.9428-4.0885a.92.92,0,0,1,.9039-.2621.7572.7572,0,0,1,1.0062-.169c3.6771,2.4261,10.6147,3.9667,14.4894.4l-18.5991-40.28L171.717,371.118l9.1357,36.7665c.1024-.034.6307-.0728.7384-.0834C183.789,407.5852,184.926,407.4893,187.826,407.2243Zm-.765-29.7131a.7975.7975,0,0,1,.6045-.4337,4.0224,4.0224,0,0,1,4.3723-1.7238,3.3712,3.3712,0,0,1,2.5041,4.3693,4.7261,4.7261,0,0,1-5.5187,2.8421C186.5034,381.9483,186.1274,379.4568,187.061,377.5112Z"/><path class="cls-7" d="M338.7023,300.9679c.2351-1.2407-.5044-2.2513-.3173-3.4606.1163-.7514.411-1.1265.28-1.8933-.1534-.8977-1.6506-2.4563-.1677-3.2673.6086-.3329.0652-1.1215-.5421-.7893-1.7627.964-1.1595,1.9906-.6856,3.3923a3.8116,3.8116,0,0,1,.1539,2.1641,5.035,5.035,0,0,0-.2652,1.04c.0054.754.6247,1.4543.5492,2.21a7.6875,7.6875,0,0,1-1.2874,2.9649l-.4962.1233-2.1214-34.1049c3.8109.7418,7.7271-2.3752,9.3815-5.43a10.2218,10.2218,0,0,1,2.1746,1.75c.4949.4019,1.2583-.3142.7648-.7149a9.7017,9.7017,0,0,0-2.5042-1.946.6061.6061,0,0,0-.6295.13.5019.5019,0,0,0-.6608.2219c-1.4206,2.7318-5.0927,5.9694-8.589,4.9834l-1.9591-31.4946,17.6148,5.6509,13.4816,54.2566-7.8462,1.95c1.4873-1.3913.3672-3.0144-.1447-4.7542-.4879-1.6584.5912-2.6883.6323-4.2582.0289-1.1055-.7525-1.7963-1.6374-2.4509-.514-.38-1.2792.3344-.7648.7149,2.41,1.783.2459,3.2205.4848,5.3928.18,1.6391,2.43,3.7811.1107,5.1322a.433.433,0,0,0-.2012.6011l-3.1495.7826c1.273-1.07,1.2157-2.618.9541-4.24a6.767,6.767,0,0,1,.6255-4.31,2.35,2.35,0,0,0-.6345-2.7634c-.4012-.47-1.3369.0582-.9326.532,1.4062,1.648-.5106,3.26-.371,5.1393.1262,1.6985,1.4286,4.381-1.015,5.4086a.5286.5286,0,0,0-.3317.6566l-7.8019,1.9387a2.0026,2.0026,0,0,0,.3672-1.4656c-.0442-1.088-.4554-1.5335.195-2.7023a11.7407,11.7407,0,0,0,.9854-1.4531,1.9076,1.9076,0,0,0-.1343-1.7307c-.2994-.6692-2.6126-3.1838-.7009-3.6034.6832-.15.3912-1.0475-.2879-.8985-2.1452.4708-1.7467,2.0131-.992,3.3272a8.5017,8.5017,0,0,1,1.0015,1.64c.2944,1.0531-.45,1.64-.9535,2.5384-.49.8746.0963,3.5812-.5705,4.0674a.4851.4851,0,0,0-.1844.5969l-1.7568.4365A6.3613,6.3613,0,0,0,338.7023,300.9679Zm3.5468-49.4249a.5332.5332,0,0,0-.5055-.0764,2.6616,2.6616,0,0,0-3.194.34,2.4536,2.4536,0,0,0-.08,3.5752,3.1472,3.1472,0,0,0,4.2492-.0082C344.0334,254.1613,343.4461,252.466,342.2491,251.543Z"/><path class="cls-5" d="M187.1019,371.3484c6.4345,0,6.4452-10,0-10-6.4345,0-6.4452,10,0,10Z"/><path class="cls-5" d="M122.3746,375.027c3.45-2.3974,6.1517-5.571,7.042-9.78,1.0238-4.84-1.6986-7.851-4.1246-11.79a34.68,34.68,0,0,1-4.2424-9.1935c-1.03-3.8776-.1638-7.2392.2352-11.0515.36-3.44-.27-6.847-3.3717-8.8327-5.6913-3.6441-12.3491-1.0156-10.2463,6.0633,1.162,3.9119,2.0958,6.491,1.57,10.7087-.3071,2.4656-.8722,4.9118-1.0482,7.3934-.4228,5.9626,4.24,12.5,1.968,18.0105-.7222,1.7518,2.1277,2.5152,2.8416.7834,2.59-6.2824-2.2866-12.3239-1.8626-18.7939.2364-3.6083,1.3354-7.1231,1.36-10.756a18.0707,18.0707,0,0,0-.3637-3.86c.124.5434-1.179-3.8327-1.24-3.4232l2.9625-4.4711q5.2876,1.5448,4.6114,6.1863c-.07,1.9764-.7461,3.9586-.9083,5.934a22.1339,22.1339,0,0,0,1.509,9.5881,43.1288,43.1288,0,0,0,4.2037,8.0165c3.9271,6.1526,4.3173,12.0672-2.3831,16.7231-1.5467,1.0747-.0752,3.63,1.4874,2.5445Z"/><path class="cls-5" d="M124.2469,392.8043a13.9012,13.9012,0,0,0-2.0737-21.7856c-1.5706-1.0716-3.0464,1.4809-1.4873,2.5446a10.9245,10.9245,0,0,1,1.4772,17.1573,1.4743,1.4743,0,0,0,2.0838,2.0837Z"/><path class="cls-2" d="M349.9683,253.5857c2.4889.1034,5.0889-1.0853,7.3935-.14,3.2994,1.3535,4.278,5.3186,2.9164,8.6147a3.4054,3.4054,0,0,1-.7719,1.2131c-.9925.9279-2.553.7512-3.8864.491a6.23,6.23,0,0,1,1.2166-3.5121,8.2939,8.2939,0,0,0,1.4923-3.4323,2.5665,2.5665,0,0,0-1.8748-2.8584,6.7679,6.7679,0,0,1-1.0308,4.7289c-1.0166,1.5368-2.699,2.7284-3.06,4.5352-.431,2.1551,1.3193,4.2437,3.362,5.0549s4.3139.6958,6.5111.7479a12.0545,12.0545,0,0,1,4.9306.9449c5.2154,33.9033,66.1151,42.9064,99.5889,39.7694-.9257,6.2283-2.1418,12.4111-3.61,18.5325a220.0746,220.0746,0,0,1,13.8485-33.3846c-.4762-1.0039-.95-2.009-1.4122-3.0194-3.9332-8.5976-6.6728-17.0519-7.595-26.325-3.0629.86-5.4871,1.483-6.3847,1.7045a123.4383,123.4383,0,0,1-31.9328,3.5317c-19.6008-.3822-36.8682-5.8989-54.0167-14.05a7.89,7.89,0,0,0,.3661-3.2465,3.9052,3.9052,0,0,0-1.9638-3.0157,2.5736,2.5736,0,0,0-3.2953.8379c.2965-1.89-2.755-3.945-3.1129-1.4707v.003a6.9248,6.9248,0,0,0-5.1865-2.5557,20.0381,20.0381,0,0,0-3.4268.687c-4.9438,1.0164-9.841-1.43-14.6891-2.8336-.317-.0917-.7067-.1619-.9369.0747a.8813.8813,0,0,0-.19.5347A7.38,7.38,0,0,0,349.9683,253.5857Z"/><path class="cls-2" d="M309.912,499.0755c-1.1739-1.1829-2.5238-2.3279-3.6427-3.5785-2.621-2.034-5.1924-4.2-7.592-6.4118-1.3192-1.2162,9.051,6.3978,7.85,4.9035-1.2223.3378.9645,1.1753-.2584,1.5083-36.2695,9.875-91.0913,8.4374-125.5227-6.6448A88.5971,88.5971,0,0,1,129.4,389.95a18.0778,18.0778,0,0,1-1.75-8.442c-.4955-1.8042-.998-3.6082-1.5355-5.4061a68.95,68.95,0,0,1-5.5827-15.79c-.4773-.41-.9666-.825-1.4866-1.2538-6.8952,14.1592-14.9925,29.95-14.8638,45.6982.4108,50.2755,39.4767,94.77,86.585,112.3372,43.3962,16.1827,93.595,20.0764,138.3316,7.2809C323.22,518.4581,315.7931,505.0013,309.912,499.0755Z"/></g><path class="cls-2" d="M289.9193,478.6645c-2.0481-3.3451-4.1281-6.82-4.6772-10.7126-1.6325-11.5731,10.8654-20.5468,22.4064-21.9089s23.3208,1.7888,34.784-.1319c19.7464-3.3084,34.4608-21.334,40.2731-40.6172s4.5028-39.8851,3.6219-60.0046-1.1593-40.9461,6.476-59.5772c13.1047-31.9769,48.9417-51.2913,83.2442-49.5849,11.8.5869,22.8576,5.0279,33.1168,10.9265,7.449,4.2828,15.9252,12.6413,20.097,20.5444,26.34,49.9,22.985,110.6941,11.8848,166.147-6.2626,31.2856-16.328,62.401-34.8251,88.3433s-46.3266,46.3174-77.765,50.4614c-22.61,2.98-45.8845-2.5688-65.8817-13.5493C329.2886,540.6681,309.308,510.3314,289.9193,478.6645Z"/><path class="cls-5" d="M395.6386,331.7169c.391-10.6326,1.3975-21.3746,4.9085-31.4163s9.7513-19.4168,18.763-24.9952c3.8744-2.3983,9.9536-3.5067,12.1291.5053.9647,1.7793.7146,3.9674.2318,5.9378-1.5458,6.3083-5.1259,11.8809-8.0723,17.6644-11.6743,22.9164-13.5171,49.66-11.8476,75.3354.8673,13.3381-13.6559,6.9021-15.05-2.3234C394.7159,359.29,395.1516,344.96,395.6386,331.7169Z"/><path d="M399.7852,332.2949c.391-10.6325,1.3975-21.3746,4.9085-31.4162s9.7513-19.4169,18.763-24.9952c3.8744-2.3983,9.9536-3.5068,12.129.5053.9648,1.7793.7147,3.9674.2319,5.9378-1.5458,6.3083-5.126,11.8808-8.0723,17.6644-11.6743,22.9164-13.5171,49.66-11.8476,75.3353.8673,13.3382-13.6559,6.9021-15.05-2.3233C398.8625,359.8683,399.2982,345.5378,399.7852,332.2949Z"/><path class="cls-5" d="M305.6976,501.4077c43.73-4.52,83.9421-28.9767,106.6356-66.871,5.79-9.6679,13.1558-27.0968,26.69-26.9289,7.7547.0962,10.5443,7.879,10.1467,14.4025-.4313,7.0767-4.0382,13.7476-7.85,19.55a226.3028,226.3028,0,0,1-45.7218,50.3276,175.7993,175.7993,0,0,1-69.24,34.4253c-1.5615.3841-.9,2.7956.6646,2.4107,47.893-11.7814,86.5686-43.2906,114.59-83.1716,5.967-8.4924,12.2587-19.5281,9.4518-30.31-2.5836-9.9241-12.5053-12.2613-20.8756-7.5707-10.56,5.9177-15.539,18.5482-21.6731,28.3139a133.5332,133.5332,0,0,1-25.1562,29.406,140.0927,140.0927,0,0,1-77.6628,33.516c-1.5845.1637-1.6014,2.6655,0,2.5Z"/><path class="cls-5" d="M389.416,403.174c1.8264,5.9731,7.9559,9.7551,14.0775,7.5917,7.2213-2.5521,12.14-10.3657,14.2759-17.3058.4743-1.5412-1.9381-2.2-2.4107-.6646a26.6781,26.6781,0,0,1-7.7834,12.4515c-5.2776,4.64-13.3525,5.0987-15.7486-2.7374-.4691-1.5341-2.883-.88-2.4107.6646Z"/></g><g id="Camada_52" data-name="Camada 52"><path class="cls-5" d="M182.8391,558.4171c.1567-.6984-.9939-.5629-.8431-.0235a.2553.2553,0,0,0,.3214.1987c.2787-.0633.1765-.7431-.0664-.8214l-.4345-.0708-.0781.0266a.8477.8477,0,1,1,.515,1.6152,1.1313,1.1313,0,0,1-1.2048-1.8321,1.57,1.57,0,0,1,2.3629-.1383,1.4179,1.4179,0,0,1-.6657,2.21,1.2514,1.2514,0,0,1-1.6088-1.44c.2454-1.0933,1.9472-.8169,1.7021.2755Z"/><path class="cls-5" d="M216.4343,532.4139l-4.0006,3.32c-.0015.17-.0022.34.0022.5065a7.5727,7.5727,0,0,1,.7772-.1344A16.8508,16.8508,0,0,0,216.4343,532.4139Z"/></g><g id="Camada_77" data-name="Camada 77"><path class="cls-5" d="M200.7219,533.66l-4.4728,5.1687c.0347.2206.07.4408.1121.6565a9.9227,9.9227,0,0,1,.9789-.3419A22.1539,22.1539,0,0,0,200.7219,533.66Z"/><path class="cls-4" d="M304.7419,530.347a72.777,72.777,0,0,1-21.6867,1.2812,28.3387,28.3387,0,0,1-9.4072.6058c-1.9418,1.8025-3.8125,3.6645-5.5642,5.6017-5.1874,5.7368-1.7322,14.5839,5.88,15.8413a17.3657,17.3657,0,0,0,10.1712-1.8524,73.3959,73.3959,0,0,0,8.91-5.54c9.3542-6.25,19.5494-11.11,29.4666-16.4217a7.0125,7.0125,0,0,0,2.1247-1.51,3.6535,3.6535,0,0,0,.7418-1.46A135.0083,135.0083,0,0,1,304.7419,530.347Z"/><path class="cls-10" d="M293.2494,578.815c-.573-3.5943-1-6.6008-.0423-9.5358a31.1145,31.1145,0,0,0-5.22-9.1456c-4.9161,4.714-10.3907,9.21-16.965,10.99s-14.4859.18-18.4058-5.39c-1.481-2.1045-2.3048-4.6081-3.73-6.7511s-3.789-3.9964-6.34-3.6566c-2.1659.2884-3.8047,2.0362-5.7388,3.0529-5.3776,2.8272-12.0432-.4222-16.3171-4.74s-7.503-9.8065-12.6686-13.0046a13.5622,13.5622,0,0,0-10.4826-1.4913c-.274.3277-.5524.6516-.8447.9631a11.832,11.832,0,0,0,4.9251,7.1857c2.3808,1.7669,4.9687,2.9788,7.0318,4.9139a24.0666,24.0666,0,0,1,3.9962,2.3752c4.0223,3.0314,6.54,7.638,10.1619,11.1385,12.3414,11.9291,33.0866,8.0036,48.2424,16.0605,5.83,3.0994,10.9387,8.0037,16.925,10.3952C291.97,589.4711,294.0792,584.02,293.2494,578.815Z"/><path class="cls-1" d="M293.5938,568.2515c1.2095-6.6459-2.2038-13.2718-5.5194-19.2172a14.2569,14.2569,0,0,1-22.2253-9.0813c-.1814-.9858-.3529-2.1382-1.2255-2.6313a2.9055,2.9055,0,0,0-1.5138-.2526c-4.3416.108-8.5581,1.3929-12.85,2.058a45.4511,45.4511,0,0,1-21.0866-1.7383c-4.385-1.4447-8.5293-3.5536-12.92-4.9818s-9.2053-2.15-13.6035-.7456a12.7328,12.7328,0,0,0-6.6507,4.9725,18.701,18.701,0,0,0,.9076,4.8661,17.9047,17.9047,0,0,1,2.3447-.6659c3.2655-.598,6.4626,1.2892,8.9921,3.4394,4.4614,3.7922,7.9777,8.6235,12.5982,12.22s11.0184,5.841,16.3459,3.4114a22.87,22.87,0,0,1,4.2569-1.9578c2.7831-.6269,5.632.9706,7.578,3.0565s3.2883,4.663,5.1265,6.8447c6.3348,7.5184,18.795,8.8172,26.5442,2.7668,2.1023-1.6415,3.9357-3.7631,6.4471-4.6617,2.4337-.8709,5.7827.1522,6.29,2.6243C293.475,568.4691,293.5452,568.36,293.5938,568.2515Z"/><path class="cls-8" d="M225.2325,534.4206a9.2007,9.2007,0,0,1,1.4026,3.5949,9.6478,9.6478,0,0,1,.036,5.045,4.092,4.092,0,0,1-3.7309,2.9582,1.2489,1.2489,0,0,1-1.0825-.5163,1.4989,1.4989,0,0,1-.1156-.8013,28.7293,28.7293,0,0,1,.3685-3.466,13.3557,13.3557,0,0,0,.35-3.6153,5.421,5.421,0,0,0-1.1724-2.7862c-.4733-.59-1.6943-1.091-1.341-1.9184C220.7963,530.9285,224.5586,533.5062,225.2325,534.4206Z"/><path class="cls-8" d="M238.6019,536.8027a10.346,10.346,0,0,1,3.8209,5.5128,8.5516,8.5516,0,0,1-.873,6.5907,2.6972,2.6972,0,0,1-1.7925,1.4319c-1.2561.1594-2.2167-1.1819-2.4166-2.4322-.3317-2.0739.55-4.2145.1373-6.2737s-3.3949-2.8556-3.6415-4.25C233.3725,534.7582,237.6481,536.0872,238.6019,536.8027Z"/><path class="cls-8" d="M255.32,538.0712a2.1839,2.1839,0,0,1,.1848.2375,9.7211,9.7211,0,0,1,1.2974,5.264,13.8242,13.8242,0,0,1-1.9865,8.0415c-.7058,1.0376-1.8588,2.0067-3.0849,1.739-1.4994-.3275-2.0255-2.2317-1.8674-3.7583.1807-1.7457.8582-3.4,1.2014-5.1207a6.84,6.84,0,0,0-.1982-3.9908c-.5006-1.1391-2.331-1.7873-2.0978-2.8144.7458-3.2841,5.5184-.3114,7.6426-.5623,4.0387-.4769,8.1277-2.52,12.1661-3.3228a3.379,3.379,0,0,1,1.3823-.0764,1.1847,1.1847,0,0,1,.9544.8989c.0894.6218-.4736,1.1169-.9294,1.5492a7.2865,7.2865,0,0,0-2.16,4.0821c-.4254,2.6132.5969,5.2212,1.5992,7.6718l-3.1916-1.4844a15.7778,15.7778,0,0,1-3.7064-2.1536c-2.1716-1.861-3.4364-4.9574-6.17-5.7983a11.356,11.356,0,0,1,1.8207-1.3453"/><path class="cls-6" d="M263.6873,550.0508a.8775.8775,0,0,1,.2408,1.2508,2.3624,2.3624,0,0,1-1.18.7962c-1.8678.7391-3.9965,1.2109-5.8609.4632-1.4891-.5972-2.664-1.92-4.2394-2.2242-2.9125-.5622-5.8876,2.5678-8.5862,1.3366a13.4206,13.4206,0,0,0-2.6761-1.2359,3.4453,3.4453,0,0,0-3.4921-1.9755c-1.6889.2164-2.9746,1.6593-4.6153,2.1147a5.8636,5.8636,0,0,1-5.2618-1.5974,27.34,27.34,0,0,1-3.5683-4.4743,10.0214,10.0214,0,0,0-4.2713-3.7052c-1.7894-.6737-4.1024-.28-5.129,1.3329,2.4538-.3987,4.8462-.2537,6.76,1.3333,2.7038,2.2426,3.9008,5.9638,6.7277,8.0492a8.1551,8.1551,0,0,0,8.1251.8063c1.0593-.4958,2.0964-1.2447,3.2627-1.1569,1.779.134,2.9347,2.1388,4.6971,2.4156,1.4022.22,2.7-.7116,4.0753-1.06,2.1219-.5379,4.3192.3333,6.3341,1.1888s4.21,1.7292,6.3334,1.1963S264.9587,551.8327,263.6873,550.0508Z"/><path class="cls-4" d="M286.6353,457.8029a66.32,66.32,0,0,0-7.5357-1.4037,89.4889,89.4889,0,0,0-20.9772-.6545A7.1894,7.1894,0,0,0,253.45,467.56a13.0575,13.0575,0,0,0,6.62,4.0756,55.1885,55.1885,0,0,0,7.7672,1.3792,204.1044,204.1044,0,0,1,21.2556,4.7515C284.5853,471.8691,282.4007,463.0726,286.6353,457.8029Z"/><path class="cls-10" d="M251.6029,491.3116c1.4859-2.2983,2.7577-4.1947,4.7687-5.3546a23.3949,23.3949,0,0,0,1.6768-7.7384c-5.1186.1659-10.44-.0709-15.0116-2.3794s-8.1926-7.1792-7.5856-12.2645c.2292-1.9213,1.0267-3.7356,1.3069-5.65s-.1108-4.1394-1.7082-5.2313c-1.3564-.9272-3.1513-.7733-4.7439-1.1766-4.4286-1.1213-6.5236-6.2886-6.7439-10.8515s.7319-9.2555-.55-13.64a10.1978,10.1978,0,0,0-5.1135-6.1022c-.3179.0455-.6364.0868-.9564.1141a8.8966,8.8966,0,0,0-.8567,6.4941c.4436,2.1847,1.282,4.1631,1.4633,6.2823A18.0951,18.0951,0,0,1,218.59,437.15c.7262,3.7169-.1805,7.5589.0858,11.3367.9074,12.8742,14.483,21.1045,18.9105,33.2274,1.7033,4.6637,2.0956,9.9738,4.2419,14.32A10.1215,10.1215,0,0,0,251.6029,491.3116Z"/><path class="cls-11" d="M257.1043,485.5765c4.0165-3.1091,5.4374-8.53,6.5709-13.522a10.72,10.72,0,0,1-7.8667-16.2487c.394-.6425.8772-1.3733.637-2.0876a2.1849,2.1849,0,0,0-.72-.902c-2.4825-2.1216-5.4866-3.522-8.2212-5.3068a34.1761,34.1761,0,0,1-10.92-11.57c-1.7265-3.0117-2.9845-6.274-4.7223-9.2793s-4.0682-5.8284-7.2337-7.2536a9.5741,9.5741,0,0,0-6.2187-.5612,14.0559,14.0559,0,0,0-1.9379,3.1777,13.4611,13.4611,0,0,1,1.646.8059c2.1269,1.3067,2.9667,3.9689,3.3008,6.4428.5894,4.3631.1281,8.8324.9048,13.1661s3.2271,8.8042,7.4277,10.1227a17.2013,17.2013,0,0,1,3.3649,1.0444c1.8716,1.048,2.6621,3.3733,2.7022,5.518s-.5043,4.2605-.5726,6.4045a15.009,15.009,0,0,0,13.4556,14.8876c2.0007.1385,4.0924-.1268,5.9486.6327,1.7989.7361,3.1578,2.9914,2.1992,4.629C256.9286,485.6385,257.0225,485.6129,257.1043,485.5765Z"/><path class="cls-8" d="M235.8722,432.2992a6.9189,6.9189,0,0,1-1.0223,2.7155,7.2532,7.2532,0,0,1-2.5153,2.84,3.0768,3.0768,0,0,1-3.5733-.22.9389.9389,0,0,1-.346-.8328,1.126,1.126,0,0,1,.3381-.5062,21.5907,21.5907,0,0,1,1.9479-1.7534,10.0417,10.0417,0,0,0,2.013-1.8459,4.0768,4.0768,0,0,0,.7445-2.1475c.0319-.568-.3993-1.4617.2141-1.7468C235.1459,428.1166,235.9547,431.4491,235.8722,432.2992Z"/><path class="cls-8" d="M242.1525,440.3505a7.7793,7.7793,0,0,1-.6336,5.0035,6.43,6.43,0,0,1-3.8,3.2474,2.0276,2.0276,0,0,1-1.7221-.1c-.7827-.5421-.6458-1.775-.1293-2.5748.8568-1.3266,2.4258-2.0806,3.23-3.44s-.4637-3.3033.0991-4.207C240.2551,436.5789,241.9786,439.471,242.1525,440.3505Z"/><path class="cls-8" d="M250.8651,449.4616a1.6548,1.6548,0,0,1-.016.2257,7.3093,7.3093,0,0,1-1.92,3.5961,10.3937,10.3937,0,0,1-5.1524,3.4993,2.45,2.45,0,0,1-2.5993-.5777c-.674-.9367-.0113-2.2662.8443-3.0406.9784-.8855,2.1885-1.47,3.2454-2.26a5.1429,5.1429,0,0,0,1.8948-2.3316c.2925-.8887-.4055-2.1711.2411-2.6284,2.0676-1.462,3.243,2.5992,4.5571,3.5264,2.4985,1.763,5.8121,2.6754,8.4744,4.2558a2.54,2.54,0,0,1,.8115.652.8906.8906,0,0,1,.082.9823c-.2625.3927-.8261.3867-1.2983.3994a5.4794,5.4794,0,0,0-3.2594,1.1977c-1.5513,1.2478-2.29,3.22-2.9612,5.0946l-1.039-2.4342a11.8641,11.8641,0,0,1-.9907-3.0672c-.2793-2.1323.5694-4.5-.5369-6.3438a8.5362,8.5362,0,0,1,1.6944.1626"/><path class="cls-6" d="M249.5247,460.3671a.66.66,0,0,1-.494.82,1.7766,1.7766,0,0,1-1.06-.1476,6.0536,6.0536,0,0,1-3.5108-2.6864c-.5327-1.0824-.525-2.4128-1.2533-3.3746-1.3464-1.7781-4.5834-1.5227-5.474-3.5675a10.0841,10.0841,0,0,0-.8756-2.0361,2.5906,2.5906,0,0,0-.96-2.86c-1.0534-.7278-2.4977-.5669-3.6442-1.1368a4.4089,4.4089,0,0,1-2.14-3.5377,20.559,20.559,0,0,1,.2528-4.2958,7.5341,7.5341,0,0,0-.5268-4.2189,3.2644,3.2644,0,0,0-3.5384-1.8322,6.0845,6.0845,0,0,1,3.1105,4.1429c.3852,2.6131-.8155,5.2959-.2824,7.8829a6.132,6.132,0,0,0,4.1391,4.5344,5.2082,5.2082,0,0,1,2.4062.9926c.9277.969.5665,2.6712,1.4132,3.7117.6735.8278,1.8674.9586,2.8121,1.455,1.4571.7656,2.2482,2.357,2.9452,3.8481s1.4858,3.0831,2.9411,3.8521S249.34,462.0026,249.5247,460.3671Z"/></g></svg>