<svg xmlns="http://www.w3.org/2000/svg" width="600" height="600" viewBox="0 0 600 600"><defs><style>.cls-1{fill:#131a59;}.cls-2{fill:#3360ff;}.cls-3{fill:#eab124;}.cls-4{fill:#ff8b78;}.cls-5{fill:#71e289;}.cls-6{fill:#7f0f04;}.cls-7{fill:#ba3500;}.cls-8{fill:none;}.cls-9{fill:#fff;}.cls-10{fill:#ffee9c;}</style></defs><title>bg-new-Onboarding - map</title><g id="Camada_103" data-name="Camada 103"><path class="cls-1" d="M512.4574,590.6837q.7523-.5744,1.4764-1.2c11.6932-10.1173,13.73-27.0873,15.9139-42.369,7.9133-55.3843,27.843-108.2454,41.9945-162.3805,3.5019-13.3961,6.674-27.0879,6.1275-40.9208-.9769-24.7261-13.628-47.3792-19.1179-71.5116a125.8973,125.8973,0,0,1,3.2245-67.1009c5.42-16.3727,14.1762-34.5061,6.1354-49.77-3.9879-7.57-11.4537-12.645-18.9451-16.8087C506.98,115.1187,456.33,111.27,412.5014,90.7663c-20.072-9.39-38.4045-22.136-58.3408-31.8087a213.75,213.75,0,0,0-101.78-21.1359c-31.3415,1.3192-61.634,7.3421-89.2686-11.1968C142.62,12.8775,122.3105-8.7378,95.7189,3.7382,74.0363,13.911,59.4582,41.4885,45.2111,59.476c-19.2287,24.2772-33.7092,49.5282-33.1039,81.5377.8373,44.2811,27.7114,86.0417,23.2871,130.11-2.3762,23.6683-13.62,45.4172-20.3724,68.2311-6.615,22.3488-8.9088,45.7416-9.97,69.0192-1.3052,28.6247-.1189,58.1887,8.569,85.7009,4.1724,13.2129,10.1079,25.9458,18.467,37.049,3.1842,4.23,12.553,11.018,13.0805,16.036.7561,7.1937-9.0187,15.3978-7.8806,24.56C38.58,582.1225,47.9347,590.0415,57.98,593.0373s20.777,2.0945,31.2359,1.3922c60.9959-4.0962,122.2047-.47,183.32,1.0017,17.2162.4146,35.5378-3.6783,51.9779-.8393a346.0371,346.0371,0,0,0,62.6519,5.3655l86.4739-.5716c22.5958-.1495,45.8226-6.4781,67.8061-11.8734,9.7981-2.4047,20.0579-5.057,27.4969-12.1753,10.2809-9.8377,12.6679-25.6062,14.4468-40.0964,6.33-51.5607,12.6711-103.6457,7.9074-155.3921-2.3763-25.8133-7.5021-51.3054-9.2931-77.1708-3.024-43.6722,3.5056-87.39,4.9628-131.1509s-2.7652-89.6177-24.9039-126.7164c-2.7213-4.56-5.8274-9.086-10.2259-11.8455-6.8356-4.2887-15.4123-3.544-23.2962-2.3782-26.1512,3.8672-52.3285,10.8807-78.61,8.1564-34.9888-3.6269-66.9942-24.24-102.0721-26.7441-23.7332-1.6941-47.2852,5.0366-71.0653,5.682-38.3157,1.04-75.7147-13.7-114.043-13.8135-9.7528-.0288-20.3287,1.26-27.4215,8.2927-10.8758,10.7842-8.6286,29.231-5.5442,44.6053"/></g><g id="Camada_104" data-name="Camada 104"><polygon class="cls-2" points="336.348 195.695 154.804 235.384 100.938 114.439 231.247 108.053 336.348 195.695"/><polygon class="cls-3" points="473.027 303.834 227.659 416.181 154.804 235.384 336.348 195.695 473.027 303.834"/><polygon class="cls-4" points="227.659 416.181 10.376 496.655 6.643 272.107 154.804 235.384 227.659 416.181"/><polygon class="cls-5" points="597.459 370.371 295.102 573.854 227.659 416.181 473.027 303.834 597.459 370.371"/><polygon class="cls-6" points="473.027 303.834 336.348 195.695 422.998 179.821 548.266 252.783 473.027 303.834"/></g><g id="Camada_117" data-name="Camada 117"><polygon class="cls-6" points="266.607 241.252 246.502 213.161 248.391 167.433 276.779 183.762 266.607 241.252"/></g><g id="Camada_113" data-name="Camada 113"><polygon class="cls-5" points="334.728 369.392 241.544 385.368 201.401 340.767 266.371 320.489 334.728 369.392"/><polygon class="cls-7" points="266.371 320.489 225.131 333.361 233.332 284.335 273.268 274.02 266.371 320.489"/><polygon class="cls-3" points="400.316 382.042 320.988 298.927 353.127 290.745 452.997 354.877 400.316 382.042"/></g><g id="Camada_106" data-name="Camada 106"><polygon class="cls-3" points="200.446 193.957 152.526 210.515 114.651 110.646 150.551 115.106 200.446 193.957"/></g><g id="Camada_105" data-name="Camada 105"><g id="Camada_115" data-name="Camada 115"><polygon class="cls-7" points="122.009 352.106 51.912 407.139 43.256 354.861 146.36 281.004 122.009 352.106"/></g><g id="Camada_108" data-name="Camada 108"><path class="cls-1" d="M198.451,220.7127l4.954,2.5181a14.9971,14.9971,0,0,1,.9225-2.752L151.4792,132.25l-19.3578-9.9331,25.364,51.7428c4.7646,3.7655,7.672,3.5588,8.0711,2.0381.04-.1526.3742.04.7.3142.12-.0136.3624.0936.7071.3787,1.427,1.18,2.7465,2.6533,4.0208,3.9045.8009.7862.2176.8711-.5857.0825-1.1086-1.0885-2.2888-2.4015-3.5213-3.45-.5268,1.6475-3.7923,1.5409-8.8223-2.2393l19.331,34.9169.547.2781a1.8811,1.8811,0,0,0,.1214-1.8546c-.2783-.6755-1.38-1.8543-1.7566-2.593-.1878-.3682-.0986-.5124-.1855-.8a7.5569,7.5569,0,0,0-1.25-2.2312c-1.2679-1.7453-2.51-3.2292-.825-2.7537.5805.1638,1.6328,1.3678,1.051,1.2036-1.4177-.4,1.18,2.3193,1.8085,3.3167a4.4707,4.4707,0,0,1,.586,1.6191c.3642,1.0276,1.7655,2.6053,2.0864,3.6249a1.5249,1.5249,0,0,1-.0894,1.254l1.9368.9845c-.188-.2471-.2685-.4548-.0672-.4334.578.0616-1.4679-3.0448-1.297-3.5034.1754-.4711.7991-.4453-.0782-1.7072-.4756-.6842-1.4158-1.6617-2.0309-2.401-1.5689-1.8853-2.8134-3.7072-.4179-2.4444.7582.4,1.5563,1.5082.7933,1.106-2.1347-1.1252,1.9313,3.18,2.6263,4.0718.6654.8542.9909,1.3143,1.0135,1.7932.0178.3731-.3961.3547-.4936.6246-.2228.6165.4993,1.38,1.0872,2.4753.339.6314.467.9963.2694,1.1327l7.9055,4.0182c-1.5806-1.9649-2.3765-3.6482-1.8368-4.107.2717-.2309.8434-.1135,1.5889.2682-.1432-.2272-.2759-.4431-.3833-.634-1.0932-1.9425.463-1.974-2.0673-4.7074-.7275-.7857.159-.55.8808.23,1.4027,1.5151,2.1454,2.4619,2.1328,3.2a4.8287,4.8287,0,0,0,.8012,2.7676,22.9972,22.9972,0,0,1,2.939,2.5832,22.1,22.1,0,0,1,2.5051,3.0476c.6677-.4335-2.3232-3.5715-3.2147-5.0858-1.3583-2.3073.5865-1.97-3.2395-5.6409-.8165-.7834-.23-.8654.5856-.0827a16.2964,16.2964,0,0,1,3.2072,3.7008c.72,1.4959-.0958,1.6331,1.3151,3.64C197.4217,218.0716,199.5893,220.551,198.451,220.7127Zm-36.3355-52.0791c-.9427.1164-3.3714-1.5029-5.1986-3.4013-1.6509-1.7153-2.5-3.2964-1.6558-3.4174.7383-.1057,2.3207.9454,3.744,2.2319a2.4856,2.4856,0,0,1,.6564.48C161.58,166.3861,163.1309,168.5084,162.1155,168.6336Z"/><path class="cls-1" d="M177.2214,210.5979l1.69,5.3927,1.3159,4.1988.5922,1.89a.8452.8452,0,0,0,.3322.5265.7667.7667,0,0,0,.8273-.1887,2.2582,2.2582,0,0,1,.6984-.5339c-1.3889-1.5855-1.3546-3.8244-2.04-5.7639a20.3189,20.3189,0,0,0-1.8193-3.453,23.0925,23.0925,0,0,1-1.578-3.5741C176.81,209.3645,177.086,210.166,177.2214,210.5979Z"/><path class="cls-1" d="M179.7729,212.4618a7.1755,7.1755,0,0,0,1.3678,1.5135,2.2265,2.2265,0,0,1,.6395.8013,2.3411,2.3411,0,0,1,.0988.6953,7.8925,7.8925,0,0,0,1.0479,3.4866l.9805-.7551-.3923-1.9765a11.3,11.3,0,0,0-.633-2.3127,11.8066,11.8066,0,0,0-.9919-1.7262,3.9791,3.9791,0,0,0-1.14-1.2868C179.2289,209.95,179.17,211.4563,179.7729,212.4618Z"/><path class="cls-8" d="M184.4021,214.7105c.0827.1776.1394.3941.3256.4783.3305.15.7582-.2589,1.0473-.0457.105-.2019-.0294-.4411-.16-.6349-.4121-.6125-1.2935-2.6028-2.3907-1.978C182.1388,213.1485,184.1135,214.091,184.4021,214.7105Z"/><path class="cls-3" d="M156.7725,199.6827l-.32.134,6.3291,4.8214.0118-.1866-.1786,1.3292a1.6384,1.6384,0,0,1,.0882-.3626l-.504,1.1943a2.44,2.44,0,0,1,.2782-.49l-.7819,1.0119a1.7414,1.7414,0,0,1,.2706-.2688l-1.012.7818.1577-.1116-7.345-5.6465-.0814.1934.5041-1.1944a9.563,9.563,0,0,1-1.07,1.8117l.7818-1.012a10.1465,10.1465,0,0,1-1.1609,1.2469l8.3569,4.8647a3.811,3.811,0,0,1,.1851-.7337l-.504,1.1944a3.8348,3.8348,0,0,1,.4812-.8221l-.7818,1.0119a4.21,4.21,0,0,1,.556-.5384l-1.012.7818a3.1781,3.1781,0,0,1,.3268-.2173l-6.841-6.8409a7.9681,7.9681,0,0,1-.92,1.5468l.7818-1.012-.1428.1766a5.4061,5.4061,0,0,0-1.4644,3.5356,5.0883,5.0883,0,0,0,1.4644,3.5355,5,5,0,0,0,7.0711,0,18.8791,18.8791,0,0,0,1.7383-2.2419,5.0008,5.0008,0,0,0-8.6347-5.0472c-.1232.186-.25.3667-.3822.5462l.7818-1.0119c-.1833.2357-.3738.4624-.5743.6837l7.0711,7.0711a12.7476,12.7476,0,0,0,1.8448-2.7353,5.53,5.53,0,0,0,.5934-3.1882,4.7519,4.7519,0,0,0-1.3752-2.871,5.1114,5.1114,0,0,0-6.0591-.7818,8.9256,8.9256,0,0,0-2.793,2.7025,6.5015,6.5015,0,0,0-1.0539,2.5972,5.6341,5.6341,0,0,0,.252,3.2556,4.775,4.775,0,0,0,2.0458,2.3909,5.1963,5.1963,0,0,0,6.0592-.7818,14.7565,14.7565,0,0,0,3.5976-5.4582l.1786-1.3292L163.41,201.89a4.96,4.96,0,0,0-1.7919-2.5973,4.7369,4.7369,0,0,0-2.3649-.9842,4.6606,4.6606,0,0,0-3.1882.5933,7.2267,7.2267,0,0,0-2.3793,2.41,7.0915,7.0915,0,0,0-.9035,3.3271,4.7776,4.7776,0,0,0,1.97,3.9265,4.6922,4.6922,0,0,0,4.3587.8949l.32-.134a5.5213,5.5213,0,0,0,2.9882-2.2978,5,5,0,0,0-1.7938-6.841,4.8117,4.8117,0,0,0-3.8528-.504Z"/><path class="cls-3" d="M161.5425,209.5726c.5056-.5764,1.0618-1.0689,1.6127-1.5986q.4236-.3516-.3226.2342.2121-.159.4317-.3076c.3417-.2351.6935-.451,1.0513-.66l-7.345-2.9882c.2651,1.0084.1218-1.0049.0071.0281l.1063-.65a4.1409,4.1409,0,0,1-.182.6589l9.6428,2.6584c.0612-.4136.2055-.8407.2462-1.2511.05-.507-.47.8309-.1991.4169q.1933-.3372-.1641.1671a2.0622,2.0622,0,0,1-.81.7168l-7.345-2.9882q.232.7845-.0224-.4787a2.8686,2.8686,0,0,1,.3562-1.4308l8.6347,5.0472.1723-.3737a5.4025,5.4025,0,0,0,.504-3.8528,5.1,5.1,0,0,0-2.2978-2.9881c-2.2032-1.1641-5.6717-.742-6.841,1.7937l-.1722.3737a5.4021,5.4021,0,0,0-.5041,3.8528,5.0013,5.0013,0,0,0,9.1388,1.1944,7.3161,7.3161,0,0,0,.6743-5.7961c-.9195-2.7984-4.58-4.979-7.345-2.9881a8.4979,8.4979,0,0,0-3.6681,5.9266,5.4845,5.4845,0,0,0,.5041,3.8528,5.0008,5.0008,0,0,0,9.1387-1.1944,9.589,9.589,0,0,0,.0686-5.354,5.0519,5.0519,0,0,0-7.345-2.9882,19.4992,19.4992,0,0,0-4.7969,3.8961c-1.7239,1.965-2.0786,5.1629,0,7.0711,1.8886,1.7337,5.2291,2.1,7.071,0Z"/><path class="cls-1" d="M183.1222,193.7267l-.7194-.2165-2.6584,9.6428q.7545.2094-.4489-.2188-.9487-.8194-.4215-.2646l4.8647-8.3569q-.3059-.0788-.605-.18-.7561-.28.3171.1546a8.1458,8.1458,0,0,0-1.0953-.6077,5.0067,5.0067,0,0,0-6.0591,7.8529,7.1577,7.1577,0,0,0,2.2315,1.604l3.8528-9.1387c-.18-.0413-1.0724-.2679-.2622-.0375.6724.1912.051-.0519-.1682-.22l1.7937,6.841a3.5087,3.5087,0,0,1-1.8767,1.5013q-1.32.1145-.7112.11.5805.0111-.6561-.09c.8908.1778-.8873-.57-.0627-.04.2581.1656.5334.3091.7949.47,2.89,1.7766,6.3391-.0181,7.345-2.9882a6.2477,6.2477,0,0,0,.0884-3.4015,7.9708,7.9708,0,0,0-1.637-2.887l-6.0591,7.8529.6363.4692c1.5869,1.17,4.1251.7125,5.5532-.3909,1.4241-1.1,2.5488-3.438,1.7918-5.2556l-.2626-.6305a5.512,5.512,0,0,0-2.2978-2.9881,5,5,0,0,0-6.8409,1.7937,4.8171,4.8171,0,0,0-.5041,3.8528l.2626.6305,7.345-5.6466-.6363-.4692a4.9811,4.9811,0,0,0-3.8528-.504,5.18,5.18,0,0,0-2.5973,1.7918,4.7648,4.7648,0,0,0-1.0735,3.03,5.793,5.793,0,0,0,1.4644,3.5355,3.9528,3.9528,0,0,1-1.0231-3.441l7.345-2.9881a10.0417,10.0417,0,0,0-5.2485-1.7057,6.9785,6.9785,0,0,0-5.9216,3.3421,5.0624,5.0624,0,0,0-.504,3.8528,5.9076,5.9076,0,0,0,2.2978,2.9881,7.5237,7.5237,0,0,0,2.8192,1.2655,5.0385,5.0385,0,0,0,5.8986-2.895c.865-2.05.2479-5.2738-2.0458-6.2438a3.0988,3.0988,0,0,1-.5386-.259q.8942.7628.331.2186l-6.0591,7.8529a14.3069,14.3069,0,0,0,3.7719,1.6407,5.0754,5.0754,0,0,0,5.6465-2.2978,5.2083,5.2083,0,0,0-.7818-6.0592,7.1609,7.1609,0,0,0-3.5422-2.0883,5.0013,5.0013,0,0,0-2.6584,9.6428l.7194.2165a5.05,5.05,0,0,0,6.1506-3.4922,5.1027,5.1027,0,0,0-3.4922-6.1506Z"/></g><polygon class="cls-1" points="190.698 180.191 181.74 165.186 184.657 125.733 205.705 141.321 190.698 180.191"/><path class="cls-5" d="M250.0238,179.9026a16.4138,16.4138,0,0,1,3.1579-1.7116,2.0741,2.0741,0,0,1,1.723.0447c.1774-.0642.355-.128.5339-.1889a2.1627,2.1627,0,0,1,2.8644,2.5516l39.2785-9.1346-6.9637-48.2162L98.3192,153.6434,72.8524,223.7267,249.488,182.6484A2.0115,2.0115,0,0,1,250.0238,179.9026Zm-49.5951,14.155-49.1057,11.42,18.1007-51.7428L206.75,156.269Z"/><polygon class="cls-9" points="200.446 193.957 190.698 180.191 198.376 155.599 206.767 156.168 200.446 193.957"/><polygon class="cls-9" points="284.191 120.177 98.336 153.543 102.638 158.353 290.635 123.147 284.191 120.177"/><polygon class="cls-9" points="85.541 221.023 72.913 223.364 98.38 153.281 103.3 158.195 85.541 221.023"/><path class="cls-9" d="M191.2386,108.8531a16.9469,16.9469,0,0,0,5.7019,1.574,7.0358,7.0358,0,0,0,5.667-2.458,11.5471,11.5471,0,0,1-12.6085-3.1945,23.34,23.34,0,0,0,11.471-1.3564c-4.7562-1.4466-10.4133-.0736-14.2112-3.8594a20.4453,20.4453,0,0,1-3.6457-6.1549q-2.0076-4.4817-4.0151-8.9636c-4.1817-9.3359-7.3-20.0455-14.3472-26.3756a30.3266,30.3266,0,0,0-6.4463-4.31,47.4542,47.4542,0,0,0-20.64-5.3391c-3.0351-.0769-5.4985.4172-9.396-.5426-10.8335-1.1085-21.584-5.2592-31.5075-11.7659A100.0155,100.0155,0,0,1,76.8785,17.6408c-2.7,3.2892-5.4777,6.5163-8.3,9.7075-1.8567,2.1-3.7175,4.2946-5.6662,6.4134,7.97,9.4673,17.8833,15.9823,27.9829,21.457,8.7651,4.7512,17.9309,8.8737,27.6772,9.4314,13.8206.7907,28.9911-5.4486,41.06,2.1978,9.9912,6.33,15.3193,21.6453,14.3315,36.7938-.28,4.2886-1.0051,8.628-.6818,12.8366s1.9924,8.4371,5.04,9.6064a7.7865,7.7865,0,0,1,2.7462,1.1358,2.6038,2.6038,0,0,1,.306,3.3041c1.273.5305,1.8483-1.505,2.11-3.3037a10.5614,10.5614,0,0,0-.857-5.0829,11.5976,11.5976,0,0,1-.9872-5.0445c.1742-1.8062,1.478-3.6894,2.8082-3.3847,1.0441.2392,1.6195,1.6715,1.7357,3.0613s-.093,2.8393.0178,4.23c.2937,3.69,3.1575,6.3778,6.012,5.6415a1.2527,1.2527,0,0,0,1.0208-1.01,1.4169,1.4169,0,0,0-.6021-1.1385c-2.9134-2.7278-4.2351-7.9906-3.2233-12.8345,1.9513,1.7314,4.1017,3.2452,6.52,3.5868a7.0412,7.0412,0,0,0,6.8451-3.2414C198.6031,112.5614,193.8091,112.8256,191.2386,108.8531Z"/></g><g id="Camada_107" data-name="Camada 107"><path class="cls-6" d="M193.2316,221.2582a3.0483,3.0483,0,0,1,1.749-.29,3.5647,3.5647,0,0,1,.1022-.3974c.4156-1.2439,2.3993-1.7695,1.7377-3.2011-.19-.4115.7057-.5022.8945-.0938.3667.7935.4278,1.3324-.2679,1.9427a4.5243,4.5243,0,0,0-1.5417,2.0149,2.9362,2.9362,0,0,1,1.313,1.1772,2.62,2.62,0,0,1,.34,1.6978c1.2378-.57.37-2.1862.6448-3.1433.4183-1.4582,2.5511-1.8061,1.1249-3.5911-.3044-.381.5075-.6365.8116-.2559.5236.6553.9543,1.3064.6212,2.0085-.473.997-1.6242,1.3717-1.6994,2.566-.0788,1.253.3612,2.5926-1.2176,3.0909l6.8169.8323L209.1029,187.2l-12.4918-8.3069-7.2665,20.7413c2.5175,1.5617,6.36.4584,8.2613-.9182a.497.497,0,0,1,.59.0331.6157.6157,0,0,1,.5394.0839,7.2,7.2,0,0,1,1.4554,1.9146c.282.3884-.5289.6453-.8117.2558a7.5011,7.5011,0,0,0-1.2469-1.7014c-2.1786,1.5217-6.1823,2.4827-9.02.9942l-7.8687,22.46.4311.0526a5.551,5.551,0,0,0,1.86-1.5616c.2722-.4652-.0263-1.0793.1809-1.5648.1033-.2421.3479-.3891.5035-.5972a2.2078,2.2078,0,0,0,.4839-1.43c.0144-1.0259-.18-1.8452,1.4992-1.996.5784-.0519.7916.5987.2118.6507-1.4124.1269-.653,1.5253-.7822,2.1424-.11.5271-.451.69-.7547,1.1412-.4887.7267-.1811,1.572-.7169,2.3061a4.5956,4.5956,0,0,1-1.267,1.0583l1.5263.1864c-.0085-.1425.0816-.2872.3147-.3343.6693-.135.96-2.0285,1.5966-2.46.6542-.443,1.4138-.6221,1.4738-1.3765a5.1526,5.1526,0,0,0-.34-1.3191c-.2347-1.0442-.12-2.14,1.7258-1.8727.5844.0846.5661.7385-.0219.6533-1.6454-.2384-.502,1.99-.45,2.5a1.1206,1.1206,0,0,1-.378,1.1468,9.4917,9.4917,0,0,1-1.195.6713c-.8475.5777-.6438.9729-.9136,1.6832a1.3264,1.3264,0,0,1-.7045.8434l6.23.7607A2.64,2.64,0,0,1,193.2316,221.2582Zm6.9247-27.5655a3.0625,3.0625,0,0,1-3.3979-1.1233,1.539,1.539,0,0,1,1.0668-2.2741,2.6607,2.6607,0,0,1,2.6477.63.51.51,0,0,1,.3825.1833C201.5531,192.02,201.5471,193.2639,200.1563,193.6927Z"/><path class="cls-1" d="M410.8983,340.9186a3.0482,3.0482,0,0,1,1.749-.29,3.5689,3.5689,0,0,1,.1021-.3973c.4156-1.2439,2.3994-1.7695,1.7377-3.2011-.19-.4116.7058-.5023.8945-.0939.3668.7936.4279,1.3325-.2679,1.9428a4.5245,4.5245,0,0,0-1.5417,2.0149,2.937,2.937,0,0,1,1.3131,1.1772,2.62,2.62,0,0,1,.34,1.6978c1.2378-.57.37-2.1863.6448-3.1433.4183-1.4582,2.5512-1.8062,1.1249-3.5912-.3044-.3809.5075-.6365.8117-.2558.5235.6553.9543,1.3064.6211,2.0084-.473.9971-1.6242,1.3717-1.6994,2.566-.0788,1.2531.3612,2.5927-1.2175,3.0909l6.8168.8324L426.77,306.86l-12.4918-8.307-7.2665,20.7413c2.5175,1.5617,6.36.4584,8.2613-.9181a.4972.4972,0,0,1,.59.033.6158.6158,0,0,1,.5394.084,7.1965,7.1965,0,0,1,1.4554,1.9146c.282.3883-.5288.6453-.8116.2558a7.51,7.51,0,0,0-1.2469-1.7015c-2.1787,1.5218-6.1824,2.4828-9.02.9943l-7.8687,22.46.4311.0527a5.55,5.55,0,0,0,1.86-1.5617c.2722-.4651-.0263-1.0792.1809-1.5648.1033-.242.348-.389.5036-.5972a2.2073,2.2073,0,0,0,.4838-1.43c.0144-1.0258-.18-1.8452,1.4992-1.9959.5785-.052.7916.5987.2119.6507-1.4124.1268-.6531,1.5252-.7822,2.1424-.11.5271-.4511.69-.7547,1.1411-.4887.7268-.1812,1.572-.7169,2.3062a4.6011,4.6011,0,0,1-1.2671,1.0583l1.5264.1863c-.0086-.1425.0816-.2872.3147-.3343.6692-.135.96-2.0285,1.5965-2.46.6542-.4431,1.4138-.6222,1.4738-1.3765a5.1544,5.1544,0,0,0-.34-1.3192c-.2346-1.0441-.12-2.14,1.7258-1.8727.5844.0847.5661.7386-.0219.6534-1.6454-.2384-.5019,1.99-.45,2.5a1.1206,1.1206,0,0,1-.3781,1.1468,9.5037,9.5037,0,0,1-1.195.6712c-.8475.5777-.6438.973-.9136,1.6833a1.3264,1.3264,0,0,1-.7044.8433l6.23.7608A2.64,2.64,0,0,1,410.8983,340.9186Zm6.9246-27.5655a3.0625,3.0625,0,0,1-3.3979-1.1234,1.539,1.539,0,0,1,1.0668-2.2741,2.6608,2.6608,0,0,1,2.6477.63.51.51,0,0,1,.3825.1833C419.22,311.68,419.2137,312.9242,417.8229,313.3531Z"/><path class="cls-2" d="M246.2474,346.59a3.0481,3.0481,0,0,1,1.7489-.29,3.5906,3.5906,0,0,1,.1022-.3973c.4156-1.2439,2.3993-1.7695,1.7377-3.2011-.19-.4116.7058-.5023.8945-.0939.3668.7936.4279,1.3325-.2679,1.9428a4.5245,4.5245,0,0,0-1.5417,2.0149,2.937,2.937,0,0,1,1.3131,1.1772,2.62,2.62,0,0,1,.34,1.6978c1.2378-.57.37-2.1863.6448-3.1433.4183-1.4582,2.5512-1.8062,1.1249-3.5912-.3044-.3809.5075-.6365.8117-.2558.5235.6553.9543,1.3064.6211,2.0085-.473.997-1.6242,1.3717-1.6994,2.5659-.0788,1.2531.3612,2.5927-1.2176,3.0909l6.8169.8324,4.4416-38.4161-12.4918-8.3069L242.36,324.9662c2.5175,1.5617,6.36.4584,8.2613-.9182a.497.497,0,0,1,.59.0331.6157.6157,0,0,1,.5394.0839,7.1965,7.1965,0,0,1,1.4554,1.9146c.282.3883-.5288.6453-.8116.2558a7.51,7.51,0,0,0-1.2469-1.7015c-2.1787,1.5218-6.1824,2.4828-9.02.9943l-7.8687,22.46.4311.0526a5.55,5.55,0,0,0,1.86-1.5617c.2722-.4651-.0263-1.0792.1809-1.5648.1033-.242.3479-.389.5036-.5971a2.2077,2.2077,0,0,0,.4838-1.43c.0144-1.0258-.18-1.8452,1.4992-1.9959.5785-.052.7916.5987.2119.6507-1.4125.1268-.6531,1.5252-.7822,2.1424-.11.5271-.4511.69-.7547,1.1411-.4887.7268-.1812,1.572-.7169,2.3062A4.5993,4.5993,0,0,1,235.91,348.29l1.5264.1864c-.0086-.1426.0816-.2873.3147-.3343.6692-.135.96-2.0285,1.5965-2.46.6542-.4431,1.4138-.6222,1.4738-1.3765a5.1544,5.1544,0,0,0-.34-1.3192c-.2346-1.0441-.1205-2.14,1.7258-1.8727.5844.0847.5661.7386-.0219.6534-1.6454-.2384-.5019,1.99-.45,2.5a1.12,1.12,0,0,1-.378,1.1468,9.4912,9.4912,0,0,1-1.195.6712c-.8475.5777-.6438.973-.9136,1.6833a1.3264,1.3264,0,0,1-.7045.8434l6.23.7607A2.64,2.64,0,0,1,246.2474,346.59Zm6.9246-27.5655a3.0623,3.0623,0,0,1-3.3979-1.1234,1.539,1.539,0,0,1,1.0668-2.2741,2.6608,2.6608,0,0,1,2.6477.63.51.51,0,0,1,.3825.1833C254.5688,317.3514,254.5628,318.5958,253.172,319.0247Z"/><path class="cls-9" d="M290.7413,436.4986a5.5067,5.5067,0,0,1,3.16-.5241,6.4248,6.4248,0,0,1,.1846-.7179c.7508-2.2472,4.3347-3.1968,3.1393-5.7832-.3436-.7435,1.2751-.9073,1.616-.17.6626,1.4337.773,2.4072-.4839,3.51a8.1741,8.1741,0,0,0-2.7853,3.64,5.306,5.306,0,0,1,2.3722,2.1268,4.7332,4.7332,0,0,1,.6151,3.0673c2.2362-1.03.6688-3.95,1.1649-5.6788.7557-2.6344,4.609-3.2631,2.0322-6.4879-.55-.6882.9168-1.15,1.4664-.4622.9459,1.1838,1.7241,2.36,1.1222,3.6285-.8546,1.8013-2.9344,2.4782-3.07,4.6358-.1424,2.2639.6525,4.684-2.2,5.5841l12.3156,1.5038,8.0243-69.4038L296.8467,359.96l-13.1279,37.4719c4.5483,2.8214,11.49.8281,14.9251-1.6589a.8981.8981,0,0,1,1.0665.06,1.1126,1.1126,0,0,1,.9745.1516c1.2751.9228,1.8188,2.3424,2.6294,3.459.5094.7016-.9554,1.1659-1.4664.4622a13.5551,13.5551,0,0,0-2.2526-3.0739c-3.9361,2.7492-11.1693,4.4854-16.2955,1.7962L269.084,439.2055l.7788.0951a10.026,10.026,0,0,0,3.3607-2.8213c.4919-.84-.0474-1.95.3268-2.827.1867-.4374.6287-.7029.91-1.0789a3.9878,3.9878,0,0,0,.8741-2.5841c.026-1.8533-.3247-3.3336,2.7085-3.6059,1.0451-.0939,1.43,1.0816.3828,1.1756-2.5517.2291-1.18,2.7555-1.4132,3.87-.1993.9522-.8148,1.2458-1.3634,2.0616-.8829,1.313-.3273,2.84-1.2952,4.1664a8.3078,8.3078,0,0,1-2.2891,1.9119l2.7576.3368c-.0155-.2576.1474-.519.5685-.604,1.209-.2439,1.734-3.6648,2.8844-4.4441,1.1818-.8,2.5541-1.124,2.6626-2.4868a9.3112,9.3112,0,0,0-.6148-2.3833c-.4239-1.8864-.2177-3.8666,3.1178-3.3832,1.0559.1529,1.0228,1.3343-.0395,1.18-2.9726-.4307-.9068,3.5961-.8136,4.5161a2.0245,2.0245,0,0,1-.683,2.0719,17.1646,17.1646,0,0,1-2.1589,1.2126c-1.5311,1.0437-1.1631,1.7578-1.6505,3.041a2.3962,2.3962,0,0,1-1.2728,1.5237l11.2554,1.3743A4.769,4.769,0,0,1,290.7413,436.4986Zm12.51-49.8007c-2.3326.7193-5.15-.2737-6.1388-2.03-.8932-1.5865-.1907-3.439,1.9273-4.1084a4.8069,4.8069,0,0,1,4.7835,1.1387.9224.9224,0,0,1,.691.3311C305.7752,383.6748,305.7642,385.923,303.2516,386.6979Z"/><path class="cls-8" d="M396.703,470.9016c-9.5682.273-18.8921-3.1488-27.586-7.105-6.1438-2.7957-12.2507-5.9663-16.9758-10.612-4.4708-4.3956-7.4761-9.8848-10.3236-15.3257-10.4135-19.898-19.7018-40.6921-22.5213-62.5633s1.4692-45.1473,15.9335-62.1337c3.118-3.6617,6.9307-7.1379,11.8172-8.2337l-1.0978,3.1643"/><path class="cls-10" d="M202.8787,106.7105a1.6182,1.6182,0,0,1,.9283-.1539,1.8936,1.8936,0,0,1,.0542-.2109c.2206-.66,1.2734-.9392.9223-1.699-.101-.2184.3745-.2665.4747-.05.1947.4212.2271.7072-.1422,1.0311a2.4016,2.4016,0,0,0-.8182,1.0694,1.5587,1.5587,0,0,1,.6969.6248,1.39,1.39,0,0,1,.1807.9011c.6569-.3027.1965-1.16.3422-1.6683.222-.7739,1.354-.9586.597-1.906-.1615-.2021.2693-.3378.4308-.1358.2779.3478.5065.6934.33,1.066-.2511.5292-.8621.728-.902,1.3619-.0418.665.1917,1.376-.6462,1.64l3.618.4418,2.3573-20.3889-6.63-4.4088-3.8566,11.0082c1.3362.8289,3.3755.2433,4.3846-.4873a.2638.2638,0,0,1,.3133.0176.3266.3266,0,0,1,.2863.0445,3.82,3.82,0,0,1,.7724,1.0161c.15.2062-.2807.3425-.4308.1358a3.9829,3.9829,0,0,0-.6617-.903,5.0562,5.0562,0,0,1-4.7872.5277l-4.1762,11.9205.2288.028a2.9471,2.9471,0,0,0,.9873-.8288c.1445-.2469-.0139-.5729.096-.8306.0548-.1284.1847-.2064.2673-.3169a1.1714,1.1714,0,0,0,.2568-.7591c.0076-.5445-.0954-.9793.7956-1.0593.3071-.0276.42.3177.1125.3453-.75.0673-.3466.8095-.4152,1.1371-.0585.28-.2393.366-.4.6056-.2594.3857-.0961.8343-.38,1.224a2.438,2.438,0,0,1-.6725.5616l.81.099c-.0045-.0757.0433-.1525.1671-.1775.3551-.0716.5093-1.0766.8473-1.3055.3472-.2352.75-.33.7822-.7306a2.7368,2.7368,0,0,0-.1806-.7c-.1245-.5542-.064-1.1359.9159-.9939.31.0449.3.392-.0116.3467-.8732-.1265-.2664,1.0565-.239,1.3267a.5947.5947,0,0,1-.2006.6087,5.03,5.03,0,0,1-.6343.3562c-.45.3066-.3417.5164-.4848.8934a.7041.7041,0,0,1-.3739.4476l3.3065.4038A1.4011,1.4011,0,0,1,202.8787,106.7105Zm3.6752-14.63a1.6253,1.6253,0,0,1-1.8034-.5963.8168.8168,0,0,1,.5662-1.2069,1.4121,1.4121,0,0,1,1.4052.3345.2714.2714,0,0,1,.2031.0973A.8049.8049,0,0,1,206.5539,92.0805Z"/><path class="cls-10" d="M364.6392,197.6009a2.332,2.332,0,0,1,1.3374-.2218,2.71,2.71,0,0,1,.0781-.3038c.3178-.9511,1.8346-1.353,1.3287-2.4477-.1455-.3147.54-.384.6839-.0717.2805.6068.3272,1.0188-.2048,1.4855a3.4591,3.4591,0,0,0-1.1788,1.5406,2.2461,2.2461,0,0,1,1.004.9,2.0033,2.0033,0,0,1,.26,1.2982c.9465-.4361.2831-1.6717.493-2.4035.32-1.115,1.9507-1.3811.86-2.746-.2328-.2912.388-.4867.6206-.1956.4.5011.73.9989.475,1.5358-.3617.7623-1.242,1.0488-1.2995,1.962-.06.9582.2762,1.9824-.931,2.3634l5.2125.6365,3.3962-29.3745-9.5518-6.3518-5.5562,15.86c1.925,1.1942,4.863.3506,6.3169-.702a.38.38,0,0,1,.4514.0253.4706.4706,0,0,1,.4124.0641,5.5047,5.5047,0,0,1,1.1129,1.464c.2156.2969-.4044.4934-.6206.1956a5.7422,5.7422,0,0,0-.9534-1.301c-1.6659,1.1636-4.7273,1.8984-6.8969.76l-6.0167,17.1741.33.04a4.2437,4.2437,0,0,0,1.4224-1.1941c.2082-.3557-.02-.8253.1383-1.1965.079-.1851.2661-.2975.3851-.4567a1.6875,1.6875,0,0,0,.37-1.0936c.011-.7844-.1374-1.411,1.1464-1.5262.4423-.04.6052.4578.162.4975-1.08.097-.4994,1.1663-.5981,1.6382-.0844.403-.3449.5273-.5771.8725-.3737.5558-.1385,1.2021-.5482,1.7634a3.5137,3.5137,0,0,1-.9688.8092l1.1671.1426c-.0065-.109.0624-.22.2406-.2557.5117-.1032.7339-1.551,1.2208-1.8809.5-.3388,1.081-.4757,1.1269-1.0525a3.9433,3.9433,0,0,0-.26-1.0087c-.1794-.7984-.0921-1.6365,1.32-1.4319.4469.0647.4329.5647-.0167.5-1.2581-.1822-.3838,1.5221-.3444,1.9114a.857.857,0,0,1-.289.8769,7.2623,7.2623,0,0,1-.9137.5133c-.6481.4417-.4924.7439-.6986,1.2871a1.0142,1.0142,0,0,1-.5387.6448l4.7637.5817A2.0185,2.0185,0,0,1,364.6392,197.6009Zm5.2949-21.0776a2.3417,2.3417,0,0,1-2.5982-.859,1.1769,1.1769,0,0,1,.8157-1.7389,2.0347,2.0347,0,0,1,2.0246.482.39.39,0,0,1,.2924.14A1.16,1.16,0,0,1,369.9341,176.5233Z"/></g><g id="Camada_109" data-name="Camada 109"><path class="cls-3" d="M162.2306,204.4235a17.5545,17.5545,0,0,0,1.33,1.8082c1.8632,2.3674,6.6446,1.74,7.8529-1.0119a5.977,5.977,0,0,0-.0165-5.7008c-2.5482-5.198-10.5145-1.5039-9.1388,3.8527a8.0807,8.0807,0,0,0,1.8513,3.3074c1.3934,1.6839,4.2769,1.8243,6.0591.7819,2.0729-1.2125,2.6174-3.42,2.2978-5.6466a2.9182,2.9182,0,0,0-.2512-1.0462c-2.0549-6.0387-11.5534-3.5454-9.6428,2.6584a13.7276,13.7276,0,0,0,1,2.39l8.6347-5.0472-.6-.9108c-3.5209-5.3416-12.127-.4056-8.6347,5.0472l.3492.5454c3.1935,4.9862,10.0322,1.6217,9.1388-3.8528a2.8734,2.8734,0,0,0-.2325-.9274l-9.6428,2.6584a9.7945,9.7945,0,0,0,2.0749,3.404c3.9706,4.0936,10.6926-1.1461,7.8529-6.0592a4.1658,4.1658,0,0,0-.6006-.8981c-2.1715-2.8321-6.6119-3.5929-8.6347,0-.27.4794-.542.9577-.81,1.4383q-.1515.2778-.3172.5473-.444.7306.2834-.4127l2.5236-.6827-.391-.04,4.3173,2.4764c.3373.6178.181-.06.1705-.4751-.1026-4.05-4.1062-5.8815-7.5236-4.3174a6.62,6.62,0,0,0-2.3345,2.0394c-.3847.46-2.5042,2.3685-.8707,1.6858l6.3292,4.8214a6.8039,6.8039,0,0,1,.5062-1.9768c1.6682-4.58-5.2234-8.6956-8.3569-4.8647l-1.9451,2.378,8.357,4.8647a17.5926,17.5926,0,0,1,.7558-2.1823c1.9382-4.6155-5.2347-8.5034-8.3569-4.8647-1.05,1.2238-2.0383,2.4939-2.9992,3.7888l9.3174,2.5235a.9389.9389,0,0,1,.1282-.879c1.2568-5.322-6.4123-9.059-9.1388-3.8528l-1.111,2.1215c-3.0183,5.7636,4.9782,10.2921,8.6347,5.0472l.789-1.1316L152.6,202.7813l-.66,1.4413c-2.4286,5.3012,3.35,9.6085,7.8529,6.0591l.6278-.4949c2.1226-1.673,1.7512-5.32,0-7.0711-2.096-2.096-4.943-1.6773-7.071,0l-.6279.4949,7.8529,6.0592.66-1.4413a5.004,5.004,0,0,0-8.6347-5.0472l-.789,1.1316,8.6347,5.0472,1.1111-2.1215-9.1388-3.8528a19.0569,19.0569,0,0,0-.4854,3.5374,5.0622,5.0622,0,0,0,3.6708,4.8214,5.23,5.23,0,0,0,5.6465-2.2978c.4538-.6115.9394-1.1865,1.4356-1.7648l-8.357-4.8648a17.5926,17.5926,0,0,0-.7558,2.1823c-1.2482,4.5249,5.0732,8.8792,8.3569,4.8647l1.9451-2.3779-8.357-4.8648a16.1171,16.1171,0,0,0-.8634,4.6352c-.1747,2.9559,3.3875,6.0508,6.3292,4.8214a10.0969,10.0969,0,0,0,3.6991-2.3214c.357-.3723.6645-.804.99-1.2032l.8917-1.0994q.5927-.6738.0134-.1093l-7.5236-4.3173c.0932,3.6772,1.1922,7.96,5.7077,8.0185,3.6687.0478,5.5641-3.006,7.15-5.8231h-8.6347a4.1658,4.1658,0,0,1,.6006.8981l7.8529-6.0591-.5147-.5307,1.2858,2.2064-.2743-.667c-1.0264-2.4956-3.3206-4.27-6.1506-3.4922a5.0483,5.0483,0,0,0-3.4922,6.1506,2.8734,2.8734,0,0,1,.2325.9274l9.1388-3.8528-.3493-.5454-8.6347,5.0472.6.9108c3.5343,5.362,11.6589.6752,8.6347-5.0472l.0086-.0008-9.6428,2.6584a2.9182,2.9182,0,0,1,.2512,1.0462l8.3569-4.8647-.41-.4952,1.2858,2.2064-.1556-.6059-9.1387,3.8527.16.3266v-5.0472l-.1436.3271,7.8529-1.012.2333.2157c-3.2995-5.518-11.9488-.4951-8.6347,5.0472Z"/><path class="cls-1" d="M183.6876,193.7278a7.9207,7.9207,0,0,0-2.63-1.1908,4.2813,4.2813,0,0,0-1.72-.204q-.3708-.0063.0758.0725a2.3264,2.3264,0,0,1,1.3637.8624l1.2859,4.8647.039-.1361-1.2858,2.2064c-1.1965,1.1582-1.6383.7966-.6211.4917,1.2957-.3885-.0821-.1745-.6843-.18-.5391-.0049-.4633-.15.098.1349a6.934,6.934,0,0,0,1.6839.6368,6.2057,6.2057,0,0,0,4.2826-.6153,5.4478,5.4478,0,0,0,1.9183-1.8619l.1379-.23q.9576-2.2617.1021-.2538l-4.3174,2.4765a4.7749,4.7749,0,0,0,.5442.0133c3.6076-.017,6.4754-4.3015,4.3174-7.5236l-.263-.3926-5.6465,7.345.43.1493c4.05,1.4073,8.0143-3.79,5.6466-7.345l-.1282-.1925-6.8409,6.841.5168.3582c2.0473,1.419,5.0338.5453,6.45-1.2878,1.4094-1.8242,1.5219-4.959-.3909-6.5651a18.9729,18.9729,0,0,0-1.5243-1.1692,5.0309,5.0309,0,0,0-6.8409,1.7937c-1.39,2.6311-.444,5.1526,1.7937,6.841a2.0811,2.0811,0,0,0,.5959.3744,5.0473,5.0473,0,0,0,6.45-1.2878c1.376-1.781,1.5667-5.02-.3909-6.5651a6.0023,6.0023,0,0,0-2.7187-1.5149c-2.5657-.4582-5.5132.6935-6.1506,3.4922-.5558,2.44.7389,5.6588,3.4922,6.1506l.2871.0513-2.2063-1.2859.2252.1778,6.0591-7.8529a2.082,2.082,0,0,1-.5958-.3744l-5.0472,8.6347-.5-.3944,6.0591-7.8529-.5169-.3582c-4.094-2.8377-9.5549,2.7656-6.8409,6.8409l.1282.1925,5.6465-7.345-.43-.1493c-4.0423-1.4046-8.0262,3.7921-5.6466,7.345l.263.3926,4.3173-7.5236a5.5167,5.5167,0,0,0-3.5738,1.06,5.22,5.22,0,0,0-1.3246,1.459c-.1846.3121-1.31,2.2768-.2031.4279l1.7937-1.7937.64-.3247h2.6584q.8645.4928.3507.1815-.2556-.1624-.5235-.3043a8.6217,8.6217,0,0,0-1.6091-.6489,8.8918,8.8918,0,0,0-4.1935.06c-2.4658.5624-4.8227,1.9875-5.5555,4.5422a4.9289,4.9289,0,0,0,1.2859,4.8647,8.076,8.076,0,0,0,3.5477,1.8085,16.9785,16.9785,0,0,0,1.918.1941c.0095.1629-1.6936-.7728-.5312.021a5.03,5.03,0,0,0,6.841-1.7938,5.1239,5.1239,0,0,0-1.7938-6.8409Z"/><path class="cls-1" d="M175.1285,197.916q-.2655-.018-.0058.0309l.5516.3214a1.6315,1.6315,0,0,0-.6836-.3925,1.25,1.25,0,0,0-.6646,2.4107l.0645.0154-.5516-.3215a1.7576,1.7576,0,0,0,1.29.4356,1.2508,1.2508,0,0,0,0-2.5Z"/><path class="cls-1" d="M186.3414,198.27c.6321-.2068,1.2357.2255,1.8978-.0383a1.5087,1.5087,0,0,0,.7579-2.1276l-1.9632,1.5148.36.2872a1.3035,1.3035,0,0,0,1.5148.1955,1.2815,1.2815,0,0,0,.5745-1.4117,1.8845,1.8845,0,0,0-.4207-.75c-.8771-1.0966-2.8107.3734-1.9632,1.5148a1.7075,1.7075,0,0,0,1.3952.7954c.87.0881,1.3443-.865,1.2054-1.5823a.7592.7592,0,0,0-.0648-.2325l-2.0892,1.2162q-.0907-.1478.0113.0456l1.9632-1.5148-.2058-.2312-.8839,2.1339.106-.01-.6309-.1706.0937.05a1.2658,1.2658,0,0,0,1.8809-1.0794,1.3,1.3,0,0,0-.2356-.8583l-1.9632,1.5148.1465.1883,1.7678-1.7677a2.1569,2.1569,0,0,0-.5173-.3758,1.2825,1.2825,0,0,0-1.71.4484,1.2615,1.2615,0,0,0,.4484,1.71l.0113-.0151a1.25,1.25,0,1,0,1.7678-1.7677l-.1465-.1884a1.2517,1.2517,0,0,0-1.9632,1.5148l.0726.1044-.1706-.6309-.0078.123,1.8809-1.0793a1.4088,1.4088,0,0,0-.8306-.2106,1.268,1.268,0,0,0-.8839,2.1339l.2059.2312a1.2435,1.2435,0,0,0,1.6412.0977,1.2685,1.2685,0,0,0,.322-1.6125,2.2249,2.2249,0,0,0-.4023-.5516c-.8246-.8714-2.5258.0244-2.0892,1.2162a.7592.7592,0,0,1,.0648.2325l1.2053-1.5823-.1287-.013.6309.1707-.1126-.0629.4485.4485-.0746-.1-1.9632,1.5148.0718.09-.3214-.5515.0273.1086,2.0892-1.2161-.36-.2873a1.2564,1.2564,0,0,0-1.9633,1.5148l.0418.0989-.126-.9632-.0237.106.3215-.5516.0747-.0459.6309-.1707c-.175.018-.6794-.1077-.9388-.1248a3.0614,3.0614,0,0,0-1.142.1447,1.2778,1.2778,0,0,0-.873,1.5377,1.2629,1.2629,0,0,0,1.5376.873Z"/></g><g id="Camada_112" data-name="Camada 112"><polygon class="cls-9" points="246.502 213.161 237.182 215.66 243.303 179.067 252.86 175.624 246.502 213.161"/><polygon class="cls-9" points="277.568 247.899 268.711 251.906 281.544 200.272 288.11 207.632 277.568 247.899"/></g><g id="Camada_111" data-name="Camada 111"><polygon class="cls-9" points="283.494 336.586 266.371 320.489 274.702 265.451 296.527 269.102 283.494 336.586"/><polygon class="cls-9" points="369.184 302.95 359.572 295.039 368.616 237.614 378.288 239.232 369.184 302.95"/><polygon class="cls-9" points="351.5 222.499 329.467 230.048 226.058 135.24 230.086 134.486 351.5 222.499"/><path class="cls-1" d="M226.0578,135.24l-9.0992,54.393L237.1815,215.66l6.1215-36.5929,25.7444,4.3066L258.958,243.6856,269.21,256.88l12.5843-57.04,10.6837,26.408-5.9887,35.7989a8.2682,8.2682,0,0,1,2.26,1.587,2.0462,2.0462,0,0,1,.3152,2.9124c-.397.4487-.7719.8791-1.16,1.2921a1.78,1.78,0,0,1-.8926,1.1935,6.0257,6.0257,0,0,1-2.0844.79c-2.18.4547-3.28-2.7053-1.5481-3.7524a5.28,5.28,0,0,0,.7128-.5206,17.0326,17.0326,0,0,0-6.01-1.0024,38.1032,38.1032,0,0,0,4.5993,4.9368,1.8625,1.8625,0,0,1,1.5242.9349c.333.53.68,1.0162,1.043,1.4855A31.34,31.34,0,0,1,288,274.6618a1.887,1.887,0,0,1-.0195,2.3663,1.8184,1.8184,0,0,1-1.7061,1.8137L319.4905,321.59l14.6041-87.3Z"/></g><g id="Camada_110" data-name="Camada 110"><polygon class="cls-4" points="347.18 246.436 377.085 251.438 368.554 302.432 426.351 279.225 404.36 210.729 134.626 296.808 115.276 404.13 220.35 361.94 233.332 284.335 283.959 271.259 283.494 336.586 335.599 315.664 347.18 246.436"/><polygon class="cls-9" points="394.333 207.822 134.626 296.808 142.021 302.855 404.36 210.729 394.333 207.822"/><polygon class="cls-9" points="132.903 397.976 115.276 404.13 134.626 296.808 142.937 302.871 132.903 397.976"/><path class="cls-9" d="M281.0025,303.6088l.8154-1.053a5.5619,5.5619,0,0,0,1.4645-3.5355,5.088,5.088,0,0,0-1.4645-3.5355,5.0313,5.0313,0,0,0-3.5355-1.4645,4.8107,4.8107,0,0,0-3.5355,1.4645l-.8155,1.053a5.5625,5.5625,0,0,0-1.4644,3.5355,5.0883,5.0883,0,0,0,1.4644,3.5355,5.03,5.03,0,0,0,3.5356,1.4645,4.8107,4.8107,0,0,0,3.5355-1.4645Z"/><path class="cls-9" d="M261.6153,298.866a3.4721,3.4721,0,0,0-1.196,4.9528,3.66,3.66,0,0,0,6.2814-3.7332c-.8257-1.7792-3.3069-2.6079-4.761-1.0415-1.0935,1.178.67,2.95,1.7678,1.7678.3964-.427.7905.3776.8545.704a1.0648,1.0648,0,0,1-.7138,1.3321,1.0341,1.0341,0,0,1-.9711-1.8233c1.3545-.86.1017-3.0245-1.2618-2.1587Z"/><polygon class="cls-1" points="403.825 310.425 368.554 302.432 376.972 251.178 409.941 249.549 403.825 310.425"/><path class="cls-9" d="M396.5442,282.3041c-.8828,1.2512-1.0437,3.0657.3447,4.04a4.0656,4.0656,0,0,0,4.3475.1149,2.9875,2.9875,0,0,0,1.0525-3.6183,3.34,3.34,0,0,0-3.6726-1.7842,1.2579,1.2579,0,0,0-.873,1.5376,1.2824,1.2824,0,0,0,1.5376.8731c.54-.0814,1.0714.5828.52.9552a1.5561,1.5561,0,0,1-1.3647-.0668c-.2029-.2261.0591-.4955.267-.79.93-1.3172-1.2373-2.5676-2.1587-1.2618Z"/><path class="cls-9" d="M185.7888,157.9346l.3064-.2034a1.2791,1.2791,0,0,0,.4484-1.71,1.2626,1.2626,0,0,0-1.71-.4485l-.3064.2034a1.2791,1.2791,0,0,0-.4485,1.71,1.2627,1.2627,0,0,0,1.71.4485Z"/><path class="cls-9" d="M586.7594,176.9866c-.364-.39-1.982-.9178-2.3621-1.29-11.8794-11.6377-29.2049-17.3786-46.1939-20.4973-17.3867-3.1916-35.3847-4.0764-52.529-.907s-33.4165,10.5766-44.9453,22.2492c-3.6214,3.6664-5.9244,4.8615-8.3951,9.2561-3.7922,6.7444-9.3429,11.6327-15.7893,16.268-6.4323,4.6253-15.3625.4575-21.9384-3.1474-6.1956-3.3963-11.9438-7.5615-18.5755-10.1557-1.8616,1.8007.1218,4.76,2.1675,6.52a63.6958,63.6958,0,0,0,16.5192,10.2395A43.76,43.76,0,0,1,374.8,203.351c-3.912-1.3875-7.67-3.348-11.8-3.8879-1.1687,1.5862.9456,3.5674,2.8346,4.5446a67.945,67.945,0,0,0,22.27,6.9627,63.4328,63.4328,0,0,1-15.63,4.5025c-4.3673.6739-9.15,1.0349-12.3675,3.719a20.3921,20.3921,0,0,0,15.5388,2.0173c4.3686-1.2413,8.0615-3.9545,12.4311-5.142a6.4214,6.4214,0,0,0-.5981,2.7675c.0928,5.463,6.758,8.723,10.7954,12.9184a16.223,16.223,0,0,1,4.55,13.3287c-.1667,1.1759-.4487,2.4642.2527,3.495.89,1.3085,3.0872,1.4906,4.4469.651a4.9537,4.9537,0,0,0,2.1139-3.89c.38-4.2175-2.37-8.1746-3.8122-12.2594s-.81-9.5908,3.6049-10.91a10.6063,10.6063,0,0,1,4.71-.04,34.3174,34.3174,0,0,1,11.5563,4.1272c3.2307,1.8715,6.324,4.681,6.4578,8.0934.332,8.4781-16.4422,10.8608-15.5125,19.3216,13.2613,2.5907,27.416-6.5155,28.8552-18.5636.556-4.6545-.5378-9.3839-.6616-14.0856s.97-9.7855,4.8941-12.75c12.6674-9.57,21.042-22.6992,36.7732-27.5455a80.3482,80.3482,0,0,1,49.4062,1.0879,140.0169,140.0169,0,0,1,21.4832,10.1906c9.7883,5.4243,20.6959,12.85,27.1088,21.3688C585.5132,199.9912,586.165,190.1992,586.7594,176.9866Zm-176.7761,28.491,4.39-2.1537C412.9562,204.1133,411.4844,204.8217,409.9833,205.4776Z"/><g id="Camada_114" data-name="Camada 114"><polygon class="cls-9" points="146.36 281.004 43.256 354.861 31.018 210.062 131.504 199.306 146.36 281.004"/><polygon class="cls-1" points="132.921 272.962 53.782 329.651 44.39 218.509 121.518 210.254 132.921 272.962"/><polygon class="cls-1" points="104.64 365.129 88.153 378.687 80.736 338.029 112.28 319.459 104.64 365.129"/><polygon class="cls-7" points="102.687 270.835 70.947 286.156 44.39 218.509 121.518 210.254 102.687 270.835"/></g></g><g id="Camada_116" data-name="Camada 116"><path class="cls-9" d="M85.8681,286.591a2.6206,2.6206,0,0,1,1.5027-.2492A3.0689,3.0689,0,0,1,87.4586,286c.357-1.0687,2.0614-1.52,1.4929-2.75-.1634-.3536.6064-.4315.7685-.0806.3151.6818.3676,1.1447-.23,1.6691a3.8873,3.8873,0,0,0-1.3246,1.7311,2.5229,2.5229,0,0,1,1.1281,1.0114,2.25,2.25,0,0,1,.2925,1.4587c1.0635-.49.3181-1.8784.554-2.7006.3594-1.2528,2.1918-1.5518.9665-3.0854-.2615-.3272.436-.5468.6973-.22.45.563.82,1.1224.5337,1.7256-.4064.8566-1.3955,1.1785-1.46,2.2046-.0677,1.0766.31,2.2275-1.0461,2.6555l5.8568.7152L99.504,257.33l-10.7324-7.1369-6.243,17.82c2.1629,1.3417,5.4641.3938,7.0977-.7889a.427.427,0,0,1,.5071.0284.5293.5293,0,0,1,.4635.0721,6.1852,6.1852,0,0,1,1.25,1.6449c.2423.3337-.4544.5545-.6973.22a6.452,6.452,0,0,0-1.0713-1.4618c-1.8718,1.3074-5.3116,2.1331-7.7494.8542l-6.76,19.297.37.0452a4.77,4.77,0,0,0,1.5982-1.3417c.2339-.4-.0226-.9273.1554-1.3444.0888-.208.2989-.3343.4326-.5131a1.8963,1.8963,0,0,0,.4157-1.2289c.0124-.8813-.1544-1.5853,1.2881-1.7148.497-.0446.68.5144.182.5591-1.2135.1089-.5611,1.31-.672,1.8406-.0948.4529-.3875.5925-.6484.98-.42.6244-.1557,1.3506-.616,1.9814a3.9513,3.9513,0,0,1-1.0886.9092l1.3114.16c-.0073-.1224.07-.2467.27-.2872.5749-.116.8246-1.7428,1.3717-2.1134.562-.3806,1.2146-.5345,1.2662-1.1826a4.43,4.43,0,0,0-.2924-1.1334c-.2016-.8971-.1035-1.8388,1.4827-1.6089.5022.0727.4864.6345-.0188.5613-1.4136-.2048-.4312,1.71-.3869,2.1477a.9625.9625,0,0,1-.3248.9852,8.1486,8.1486,0,0,1-1.0266.5767c-.7282.4964-.5532.836-.785,1.4462a1.14,1.14,0,0,1-.6052.7246l5.3525.6536A2.2682,2.2682,0,0,1,85.8681,286.591Zm5.9494-23.683a2.6311,2.6311,0,0,1-2.9193-.9651,1.3222,1.3222,0,0,1,.9165-1.9538,2.2861,2.2861,0,0,1,2.2748.5415.4384.4384,0,0,1,.3286.1575A1.3028,1.3028,0,0,1,91.8175,262.908Z"/></g></svg>