<svg height="600" viewBox="0 0 600 600" width="600" xmlns="http://www.w3.org/2000/svg"><path d="m24.5414 16.0817a272.579 272.579 0 0 0 -12.8452 153.5119c3.6391 17.5032 9.02 34.6937 10.8862 52.4788 2.2182 21.1439-.6 42.48-4.09 63.4481-7.4941 45.0256-18.1454 89.858-18.485 135.5134s10.9307 93.4527 41.7409 126.8772c34.3628 37.2786 87.5232 50.97 137.9564 51.9907s100.4936-8.7668 150.9164-10.2218c65.8288-1.9 134.0851 10.0921 196.0565-12.4018 12.6883-4.6055 28.4767 1.0415 41.96.9873 6.1375-11.6733 6.6814-25.4137 7.0916-38.6229 5.0531-162.72 10.0948-325.8989-3.9775-488.0781-.8-9.2191-1.8968-19.0356-7.71-26.1917-6.5922-8.1154-17.6234-10.8162-27.93-12.19-48.2126-6.4282-96.8065 5.5849-145.4089 7.2735-27.9136.97-55.8172-1.4742-83.6713-3.5521-90.5477-6.7555-191.7003-1.7778-282.4901-.8225z" fill="#ffee9c"/><path d="m349.181 62.1237h124.3891v182.5653h-124.3891z" fill="#7f0f04"/><path d="m547.7909 103.2331a10.6867 10.6867 0 0 1 .056-5.45c2.5947-9.7412 2.7607-18.9984.0356-28.3a59.357 59.357 0 0 0 -12.6316-21.9935 86.5877 86.5877 0 0 0 -21.1942-16.98l-37.9317 2.617c-51.211 3.5336-102.8858 7.0577-153.79.9921-36.6465-4.3667-72.354-13.65-108.9717-18.2-61.6956-7.6675-124.1908-2.0107-182.582 17.14-7.4056 51.0968-14.75 103.4831-1.561 153.6672 10.5168 40.0165 33.86 77.5016 37.2194 118.47 2.5778 31.434-6.8065 63.5665 1.287 94.2652a1581.1153 1581.1153 0 0 1 169.7441-8.1836c62.5222.3491 126.4494 4.2507 186.2993-11.6838l-4.5542 11.0358c42.5625.3968 79.7883-6.2581 122.2284-9.1267a1191.4975 1191.4975 0 0 1 6.3466-278.2697z" fill="#131a59"/><path d="m375.6058 284.8953c2.3043.6475 4.9986.1114 6.9442 1.5054 2.7857 1.9958 2.8233 5.92.8206 8.7006a3.2716 3.2716 0 0 1 -.99.9635c-1.1334.6481-2.5534.1375-3.7427-.4008a5.9869 5.9869 0 0 1 1.9149-3.0149 7.9693 7.9693 0 0 0 2.1549-2.8791 2.4662 2.4662 0 0 0 -1.12-3.0877 6.5032 6.5032 0 0 1 -2.0105 4.1937c-1.2906 1.212-3.1274 1.9539-3.8652 3.5634-.88 1.92.2946 4.26 2.0251 5.4707s3.88 1.6052 5.9227 2.14a11.5825 11.5825 0 0 1 4.4014 1.9746c-2.626 32.8558 52.3264 54.7512 84.3206 59.2256q-3.3658 8.4284-7.4769 16.53a211.4732 211.4732 0 0 1 20.3371-28.1519c-.2231-1.0441-.4437-2.0888-.6524-3.1359a78.6164 78.6164 0 0 1 -1.2761-26.2962c-3.0542.1263-5.4589.1725-6.3473.1809a118.605 118.605 0 0 1 -30.64-3.7643c-18.2433-4.695-33.1686-13.6746-47.4-25.0916a7.5814 7.5814 0 0 0 1.0608-2.9547 3.7528 3.7528 0 0 0 -1.1689-3.2545 2.473 2.473 0 0 0 -3.2667.0543c.6955-1.7017-1.7031-4.2985-2.5853-2.0641l-.0007.0028a6.6541 6.6541 0 0 0 -4.284-3.5375 19.26 19.26 0 0 0 -3.3564-.1159c-4.8476-.1437-8.8854-3.5153-13.1081-5.9-.2761-.1558-.6249-.3077-.8925-.1375a.8456.8456 0 0 0 -.296.458 7.0906 7.0906 0 0 0 4.5774 8.8231z" fill="#3360ff"/><path d="m273.445 498.1866c-1.8918-1.2471-9.95-8.2926-8.7456-6.9991 2.6087 2.8018 5.4492 5.6124 8.3831 8.3153 1.5237.0572-.5925-1.1692.3625-1.3162z" fill="#3360ff"/><path d="m276.9936 503.9619c-1.2539-1.4647-2.7433-2.9479-3.9111-4.4591-49.0125-1.8489-119.4743-19.9444-160.5907-44.5679-25.8132-15.459-44.3425-38.0622-50.2136-61.2538a64.1444 64.1444 0 0 1 4.1867-43.716 76.4133 76.4133 0 0 1 .1942-9.4854 2.5822 2.5822 0 0 1 -.1018-.5326 97.5342 97.5342 0 0 1 .121-13.6445c-.0126-2.8789.0393-5.757.057-8.6373q-.006-1.4292-.0022-2.85c0-.012 0-.0229 0-.035q.0087-2.2651.1082-4.521a.4341.4341 0 0 0 -.0933-.16c-12.0358 11.1328-31.18 28.0414-34.4985 42.8062-10.5955 47.1361 29.9956 100.6783 86.9291 131.4986 52.4472 28.3919 116.3968 47.3714 176.9874 49.0765-6.2796-7.3284-12.8908-22.1806-19.1724-29.5187z" fill="#3360ff"/><path d="m269.647 482.0687c-1.1748-3.5811-2.3507-7.2909-2.0028-11.0519 1.0346-11.1829 14.7068-16.8081 25.8-15.5277s21.41 6.8334 32.5543 7.5743c19.1962 1.2762 36.944-12.3225 46.6462-29.0672s13.0366-36.2984 16.6653-55.3062 7.9772-38.5436 19.24-54.2751c19.33-27 57.1141-37.13 88.8113-27.9432 10.9034 3.16 20.26 9.76 28.5481 17.5456 6.0176 5.6532 12.0936 15.3446 14.2455 23.6577 13.5866 52.4887-3.004 108.5921-25.6549 157.9874-12.7793 27.868-29.0769 54.7353-52.1137 74.8995s-53.568 33.0576-83.8818 29.9753c-21.8009-2.2168-42.3363-12.5562-58.6049-27.249-27.1613-24.5301-39.1308-57.3182-50.2526-91.2195z" fill="#3360ff"/><path d="m401.02 368.0593c2.7185-9.8555 6.0369-19.6772 11.542-28.29s13.415-15.998 23.0759-19.22c4.1536-1.3851 10.0832-1.0763 11.23 3.1567.5084 1.8772-.21 3.8679-1.0973 5.6034-2.8414 5.5566-7.4222 9.975-11.4571 14.7309-15.9875 18.8447-23.6288 43.4433-27.75 67.8212-2.1408 12.6639-14.2965 3.4319-13.5587-5.503 1.0504-12.7206 4.6292-26.024 8.0152-38.2992z" fill="#fff"/><path d="m404.7693 369.5175c2.7186-9.8555 6.037-19.6772 11.5421-28.29s13.415-15.998 23.0759-19.22c4.1536-1.3852 10.0832-1.0763 11.23 3.1566.5083 1.8773-.21 3.8679-1.0973 5.6035-2.8414 5.5566-7.4222 9.9749-11.4571 14.7309-15.9875 18.8447-23.6288 43.4433-27.75 67.8212-2.1407 12.6639-14.2964 3.4318-13.5586-5.503 1.0503-12.7207 4.6291-26.0241 8.015-38.2992z"/><path d="m279.6442 506.9078c41.8236 5.4217 84.7962-8.6816 114.32-39.0324 7.4781-7.6874 16.431-20.0212 28.4482-19.5151 8.3331.3509 10.6723 8.47 8.7932 15.4017-1.6374 6.0407-5.9021 11.2278-10.2433 15.5629-15.65 15.6275-35.4647 28.7651-55.3213 38.3872a169.0511 169.0511 0 0 1 -72.421 16.9254 1.2508 1.2508 0 0 0 0 2.5c47.7152-.4421 92.2413-21.6713 127.0466-53.6964 7.2508-6.6716 15.3346-16.0613 14.0179-26.684-1.123-9.06-9.6336-12.4047-17.7466-10.0858-11.258 3.218-18.6971 13.9516-26.658 21.7725a128.078 128.078 0 0 1 -30.2318 21.9983 135.0325 135.0325 0 0 1 -80.0034 13.9657c-1.5908-.2063-1.5758 2.2957 0 2.5z" fill="#fff"/><path d="m379.3388 433.455c.44 6.08 5.318 11.0349 11.6548 10.285 7.277-.8611 13.551-6.9833 17.0822-12.9964a1.2509 1.2509 0 0 0 -2.1587-1.2618 25.6681 25.6681 0 0 1 -9.3621 9.5448c-5.8634 3.3587-14.107 2.8554-14.7162-5.5716-.1153-1.5953-2.6163-1.6079-2.5 0z" fill="#fff"/><path d="m189.04 516.0655-4.4755 2.2193c-.039.1585-.0772.317-.11.4741a7.2649 7.2649 0 0 1 .7564.0463 16.1919 16.1919 0 0 0 3.8291-2.7397z" fill="#fff"/><path d="m174.0718 513.7532-5.3261 3.8432c-.0164.214-.0318.4278-.0405.6387a9.5177 9.5177 0 0 1 .991-.103 21.2858 21.2858 0 0 0 4.3756-4.3789z" fill="#fff"/><path d="m272.07 533.6751a69.9313 69.9313 0 0 1 -20.5619-3.6012 27.2308 27.2308 0 0 1 -8.93-1.5153c-2.2146 1.2557-4.3759 2.5828-6.4426 4.0065-6.12 4.2163-4.8471 13.2535 1.993 16.1139a16.6864 16.6864 0 0 0 9.9206.5188 70.516 70.516 0 0 0 9.5571-3.2085c10.13-3.774 20.7384-6.0621 31.1871-8.8343a6.7381 6.7381 0 0 0 2.321-.9422 3.5119 3.5119 0 0 0 1.0166-1.2007 129.7324 129.7324 0 0 1 -20.0609-1.337z" fill="#ff8b78"/><path d="m250.5978 576.4523c.26-3.4877.5252-6.3935 2.0707-8.9259a29.8984 29.8984 0 0 0 -2.8569-9.7068c-5.64 3.32-11.7541 6.3124-18.2954 6.5219s-13.5851-3.0371-16.0177-9.1129c-.9192-2.2955-1.1354-4.8189-1.9933-7.138s-2.6586-4.5753-5.119-4.8221c-2.0891-.21-4.0082 1.062-6.0416 1.5847-5.6541 1.4535-11.1678-3.06-14.2085-8.0433s-4.8456-10.83-8.968-14.9637a13.0321 13.0321 0 0 0 -9.4719-3.7141c-.3287.2457-.6608.487-1.003.7135a11.37 11.37 0 0 0 3.0151 7.8091c1.8352 2.1789 3.9869 3.8848 5.4877 6.1509a23.1263 23.1263 0 0 1 3.2111 3.1053c3.09 3.7246 4.4254 8.5893 7.0371 12.6639 8.9 13.8855 29.1667 14.8058 41.5554 25.6934 4.7659 4.1884 8.457 9.9047 13.5254 13.4657 4.5187-1.6006 7.6968-6.2312 8.0728-11.2816z" fill="#fff" stroke="#131a59" stroke-miterlimit="10" stroke-width="2"/><path d="m253.2575 566.651c2.6017-5.9466.8764-12.8976-.9083-19.1906a13.6994 13.6994 0 0 1 -18.7723-13.41c.0486-.9619.1432-2.0775-.5636-2.7316a2.7908 2.7908 0 0 0 -1.36-.5712c-4.0835-.86-8.3106-.5915-12.4708-.9193a43.6732 43.6732 0 0 1 -19.3325-6.2918c-3.7806-2.3213-7.1891-5.21-10.9783-7.5174s-8.1318-4.0471-12.5551-3.7076a12.2348 12.2348 0 0 0 -7.3192 3.1777 17.9676 17.9676 0 0 0 -.2282 4.751 17.2 17.2 0 0 1 2.34-.1037c3.1858.1634 5.7577 2.6356 7.6471 5.2059 3.3324 4.5333 5.5512 9.8289 9.0757 14.2146s9.01 7.9 14.5294 6.8071a21.9847 21.9847 0 0 1 4.4138-.8886c2.741.03 5.0514 2.1539 6.4094 4.5351s2.0429 5.0878 3.2789 7.5346c4.26 8.432 15.6232 12.4039 24.2081 8.4613 2.3291-1.07 4.5129-2.6478 7.06-2.9322 2.4685-.2758 5.3736 1.422 5.301 3.8458.0657-.0919.1554-.1781.2249-.2691z" fill="#131a59"/><path d="m196.8223 519.8889a8.8387 8.8387 0 0 1 .5159 3.6719 9.2689 9.2689 0 0 1 -1.0827 4.7253 3.9321 3.9321 0 0 1 -4.1433 1.94 1.2 1.2 0 0 1 -.8979-.7223 1.439 1.439 0 0 1 .0693-.7749 27.582 27.582 0 0 1 1.1115-3.1593 12.8338 12.8338 0 0 0 1.1278-3.3031 5.21 5.21 0 0 0 -.48-2.8647c-.312-.6566-1.3428-1.3951-.8294-2.0905 1.2335-1.6694 4.181 1.5735 4.6088 2.5776z" fill="#ba3500"/><path d="m208.7964 525.0749a9.9419 9.9419 0 0 1 2.3527 6 8.2169 8.2169 0 0 1 -2.2748 5.97 2.5915 2.5915 0 0 1 -1.9929.9422c-1.21-.1289-1.8112-1.5957-1.7215-2.809.1488-2.0127 1.4472-3.819 1.5168-5.8359s-2.5426-3.4214-2.4646-4.78c.1469-2.5563 3.8507-.3673 4.5843.5127z" fill="#ba3500"/><path d="m224.1476 529.9607a2.0886 2.0886 0 0 1 .12.2629 9.34 9.34 0 0 1 .0482 5.2092 13.2824 13.2824 0 0 1 -3.637 7.08c-.89.8141-2.1822 1.4651-3.2694.9434-1.33-.638-1.4-2.535-.9145-3.9275.5553-1.5923 1.5548-2.9888 2.2566-4.5223a6.5714 6.5714 0 0 0 .6978-3.7754c-.216-1.1759-1.7841-2.1871-1.3387-3.0959 1.4241-2.9058 5.229.93 7.2707 1.1655 3.882.4478 8.1575-.5575 12.1114-.4147a3.2464 3.2464 0 0 1 1.3094.2345 1.1383 1.1383 0 0 1 .6935 1.0517c-.054.6012-.69.94-1.2118 1.2429a7.0026 7.0026 0 0 0 -2.9229 3.339c-.976 2.3494-.5973 5.0144-.2024 7.5276l-2.6558-2.0943a15.1623 15.1623 0 0 1 -2.9891-2.834c-1.6188-2.2207-2.1162-5.3959-4.4862-6.7871a10.9161 10.9161 0 0 1 2-.8551" fill="#ba3500"/><path d="m229.3209 543.014a.8431.8431 0 0 1 -.0517 1.2229 2.27 2.27 0 0 1 -1.2794.4834 7.7356 7.7356 0 0 1 -5.5828-.8639c-1.26-.888-2.0661-2.385-3.4719-3.0179-2.5989-1.17-6.0735 1.0981-8.3244-.65a12.8947 12.8947 0 0 0 -2.2288-1.7479 3.3106 3.3106 0 0 0 -2.8281-2.62c-1.6271-.1714-3.1487.8933-4.7836.956a5.6344 5.6344 0 0 1 -4.5666-2.658 26.2772 26.2772 0 0 1 -2.3465-4.9734 9.6278 9.6278 0 0 0 -3.1739-4.41 4.1715 4.1715 0 0 0 -5.0908.1112c2.3826.17 4.5876.8353 6.0255 2.7426 2.032 2.6954 2.3277 6.44 4.51 9.0153a7.8361 7.8361 0 0 0 7.419 2.5521c1.1-.2292 2.2358-.7 3.3069-.36 1.6338.519 2.2708 2.6494 3.8575 3.2982 1.2624.5162 2.6817-.068 4.0453-.09 2.1031-.0333 3.9649 1.2674 5.66 2.5133s3.5542 2.5486 5.6574 2.52 4.0414-2.0763 3.2469-4.0239z" fill="#71e289"/><path d="m271.1928 461.8351a63.746 63.746 0 0 0 -6.7356-2.98 85.9937 85.9937 0 0 0 -19.47-5.2542 6.9083 6.9083 0 0 0 -6.9836 10.0141 12.547 12.547 0 0 0 5.288 5.2758 53.0258 53.0258 0 0 0 6.9576 3.0085 196.1351 196.1351 0 0 1 18.8237 9.1468c-2.9097-6.5119-3.0058-15.2206 2.1199-19.211z" fill="#ff8b78"/><path d="m231.02 485.4151c1.898-1.82 3.5069-3.3119 5.644-3.9515a22.4813 22.4813 0 0 0 3.28-6.8648c-4.8229-.9777-9.7464-2.3766-13.51-5.5469s-6.0718-8.526-4.3789-13.1467c.6395-1.7458 1.7867-3.2658 2.4724-4.994s.8124-3.8951-.44-5.27c-1.0631-1.1671-2.7755-1.42-4.1755-2.15-3.8928-2.0285-4.7083-7.3238-3.9045-11.6392s2.7326-8.4924 2.5044-12.8761a9.7993 9.7993 0 0 0 -3.431-6.8375c-.3074-.0278-.6144-.06-.92-.105a8.5491 8.5491 0 0 0 -2.2382 5.8828c-.0687 2.141.2774 4.1765-.022 6.1981a17.392 17.392 0 0 1 .2354 3.3506c-.1435 3.6362-1.8415 7.028-2.4286 10.6194-2 12.239 8.8721 22.939 10.3293 35.2545.5607 4.7377-.2477 9.79.7975 14.3286a9.7253 9.7253 0 0 0 10.1857-2.2523z" fill="#fff" stroke="#131a59" stroke-miterlimit="10" stroke-width="2"/><path d="m237.4334 481.27c4.4437-2.0185 6.972-6.7732 9.1365-11.19a10.3009 10.3009 0 0 1 -3.76-16.9344c.5106-.5136 1.1242-1.09 1.0576-1.811a2.0985 2.0985 0 0 0 -.4733-1.0027c-1.8518-2.5332-4.3509-4.5075-6.5129-6.7816a32.8365 32.8365 0 0 1 -7.6506-13.2348c-.9479-3.1982-1.4024-6.527-2.3622-9.7217s-2.5142-6.35-5.1588-8.3833a9.1988 9.1988 0 0 0 -5.6906-1.901 13.51 13.51 0 0 0 -2.5153 2.5425 12.9347 12.9347 0 0 1 1.3608 1.1178c1.7 1.6925 1.8957 4.3677 1.6607 6.7548-.4145 4.21-1.8348 8.2872-2.0676 12.5113s1.0691 8.9467 4.7052 11.1092a16.518 16.518 0 0 1 2.9152 1.7212c1.5181 1.3941 1.7428 3.7433 1.3056 5.7575s-1.4144 3.8723-1.9527 5.8619a14.422 14.422 0 0 0 9.2872 16.8985c1.84.5723 3.8548.7871 5.4223 1.9081 1.5192 1.0863 2.2908 3.4959 1.032 4.815.0829-.0182.1764-.0214.2609-.0373z" fill="#131a59" stroke="#fff" stroke-miterlimit="10"/><path d="m229.37 426.7539a6.6476 6.6476 0 0 1 -1.5568 2.3129 6.97 6.97 0 0 1 -2.98 2.0988 2.9566 2.9566 0 0 1 -3.2925-.997.9024.9024 0 0 1 -.1392-.8552 1.0826 1.0826 0 0 1 .4282-.3986 20.7639 20.7639 0 0 1 2.2094-1.2084 9.6474 9.6474 0 0 0 2.2908-1.2806 3.9175 3.9175 0 0 0 1.1714-1.8433c.1555-.524-.05-1.4551.5867-1.586 1.5288-.3143 1.5475 2.9808 1.282 3.7574z" fill="#ba3500"/><path d="m233.461 435.6721a7.4754 7.4754 0 0 1 -1.7 4.5384 6.1786 6.1786 0 0 1 -4.2723 2.1955 1.9487 1.9487 0 0 1 -1.5882-.4746c-.6119-.68-.2111-1.8027.4489-2.4362 1.0947-1.0509 2.7287-1.4086 3.7812-2.5017s.2974-3.1914 1.0237-3.9119c1.3672-1.356 2.3387 1.7297 2.3067 2.5905z" fill="#ba3500"/><path d="m239.5915 446.12a1.5827 1.5827 0 0 1 -.0649.2075 7.0235 7.0235 0 0 1 -2.591 2.9377 9.9876 9.9876 0 0 1 -5.5922 2.1319 2.3545 2.3545 0 0 1 -2.3026-1.1154c-.423-1.0251.4909-2.1215 1.4623-2.6563 1.1108-.6115 2.3717-.89 3.5348-1.3952a4.9427 4.9427 0 0 0 2.2877-1.7609c.47-.7663.1013-2.12.8071-2.4043 2.2569-.9095 2.4572 3.148 3.4808 4.3058 1.9461 2.2014 4.8426 3.7879 6.9823 5.8548a2.4406 2.4406 0 0 1 .6145.7892.856.856 0 0 1 -.1407.9367c-.3323.3091-.8581.1788-1.3024.0862a5.2638 5.2638 0 0 0 -3.3128.3986c-1.7267.8235-2.8541 2.5043-3.8963 4.1084l-.4328-2.5061a11.396 11.396 0 0 1 -.2476-3.0872c.2107-2.0556 1.5282-4.0815.9018-6.0506a8.1989 8.1989 0 0 1 1.5484.527" fill="#ba3500"/><path d="m235.9248 456.02c.0641.3427-.295.647-.6435.6579a1.7068 1.7068 0 0 1 -.9585-.3726 5.817 5.817 0 0 1 -2.6883-3.2889c-.2586-1.13.043-2.3722-.4251-3.4327-.8655-1.9606-3.9488-2.4382-4.329-4.5473a9.6938 9.6938 0 0 0 -.3682-2.0976 2.4893 2.4893 0 0 0 -.265-2.8867c-.8239-.9136-2.21-1.0828-3.1559-1.8694a4.2363 4.2363 0 0 1 -1.2182-3.7816 19.7527 19.7527 0 0 1 1.187-3.9608 7.24 7.24 0 0 0 .441-4.0615 3.1367 3.1367 0 0 0 -2.9032-2.4963 5.8463 5.8463 0 0 1 1.9918 4.5622c-.2182 2.5287-1.9345 4.7715-2.0086 7.3085a5.892 5.892 0 0 0 2.8668 5.1559 5.0033 5.0033 0 0 1 2.03 1.4607c.6529 1.1113-.0614 2.623.5 3.7833.4467.9231 1.534 1.31 2.3076 1.9829 1.193 1.0383 1.5806 2.7014 1.9023 4.25s.707 3.2116 1.8976 4.2527 3.3046.8701 3.8394-.6187z" fill="#71e289"/><path d="m86.1289 40.6976a59.41 59.41 0 0 0 -20.0237 2.5624c-5.1555 1.6053-10.7418 4.4934-13.9259 9.0213-2.3612 3.3578-3.2888 8.5325-1.3612 12.37 2.3243 4.6279 8.0752 5.7157 12.7468 5.8867 6.6714.2442 13.7317-1.1 20.17.9217 3.5256 1.107 13.6912 7.6158 7.4522 10.6332a38.2231 38.2231 0 0 1 -20.5528 3.18c-6.5751-1.0617-12.4454-4.1953-19.246-4.5717-3.215-.178-3.205 4.8226 0 5 6.8394.3788 12.8217 3.8359 19.5109 4.6088 5.8018.6705 12.7378-.4769 18.2835-2.1846 3.2926-1.0139 7.6362-2.4219 9.09-5.8839 1.8425-4.3864-2.483-8.6843-5.4786-11.2762-9.3016-8.0481-20.1906-4.1042-31.3653-5.61-5.2951-.7136-8.2226-4.2419-5.5809-9.4152 1.6237-3.18 4.8014-4.6455 7.7859-6.2733 7.0249-3.8314 14.711-4.0994 22.4947-3.9689 3.2187.0539 3.2194-4.9461 0-5z" fill="#3360ff"/><path d="m61.5213 37.4075c-1.0685 9.1933-1.0094 18.3293-1.6132 27.536-.5074 7.7364-1.3737 15.6094-1.545 23.3629h5v-.8936c0-3.2173-5-3.2226-5 0v.8936c0 3.2213 4.929 3.2172 5 0 .1711-7.7445 1.038-15.6333 1.545-23.3629.6038-9.207.5445-18.3408 1.6132-27.536.3708-3.19-4.6322-3.1637-5 0z" fill="#3360ff"/><path d="m75.207 34.2493a277.1767 277.1767 0 0 1 -1.5156 29.2266c-1.0235 10.327-.0173 20.9319-.59 31.3061-.1774 3.2151 4.8231 3.2051 5 0 .58-10.5046-.47-21.2812.6692-31.7253a250.3519 250.3519 0 0 0 1.4364-28.8074c-.0217-3.2162-5.0218-3.2234-5 0z" fill="#3360ff"/><path d="m150.685 38.067c-2.8969-1.07-4.48-2.4043-7.6927-2.6191a47.7386 47.7386 0 0 0 -9.9766.1743c-5.1147.7666-10.07 3.9189-14.0379 7.1084-6.8247 5.4857-12.3351 19.8431-3.1819 25.8352 4.1443 2.713 9.2014 2.1883 13.8429 1.5788 5.9916-.7867 12.8857 2.1523 17.1347 6.3715 3.4558 3.4317 4.8209 8.1473-.3972 10.735-2.9853 1.48-7.193 2.1981-10.4567 2.6739-3.8746.5648-8.2449.04-12.1419-.3267-3.08-.29-5.9464-1.4528-9.0822-1.4491-3.217.0038-3.2227 5.0038 0 5 3.02-.0036 5.747 1.3192 8.7414 1.5263a81.0027 81.0027 0 0 0 11.0668.482c5.258-.3773 12.42-1.6847 16.784-4.8565 8.8949-6.4648.522-16.8388-5.9545-20.9579a26.0691 26.0691 0 0 0 -13.42-4.3739c-5.4708-.1018-14.8667 3.2065-15.7535-5.08-.8556-7.994 5.7034-13.588 11.8-17.2792 6.7662-4.0963 14.6993-2.1955 21.3957.2785 3.0226 1.1167 4.3267-3.7139 1.3292-4.8214z" fill="#3360ff"/><path d="m123.9705 29.7267c-.284 5.9709-1.8183 11.834-2.2975 17.795-.5187 6.4523-1.3672 12.8727-2.26 19.2714-.829 5.9454-1.2921 11.9121-1.9143 17.8767-.6107 5.8553-2.24 11.7989-2.2438 17.6525-.0023 3.2259 4.8893 3.2109 5 0a20.4008 20.4008 0 0 1 .9465-4.865c.8568-3.1065-3.9656-4.4321-4.8214-1.3292a26.3313 26.3313 0 0 0 -1.1251 6.1942h5c.0042-5.7694 1.6919-11.864 2.2438-17.6525.6042-6.3369 1.3647-12.6238 2.1188-18.9428.724-6.0669 1.5183-12.0966 2.055-18.2053.524-5.9643 2.0126-11.805 2.2975-17.795.153-3.2166-4.8474-3.2087-5 0z" fill="#3360ff"/><path d="m136.8586 29.0621a174.0611 174.0611 0 0 0 -1.7432 18.6293c-.4107 6.2961-.7992 12.617-1.2979 18.9047-.582 7.3392-2.053 14.7194-3.2382 21.9838a49.4084 49.4084 0 0 0 -.52 7.5955c-.0359 2.9233-.9008 5.6625-.98 8.5781-.0885 3.2709 4.6872 3.1407 5 0l.4327-2.1767c.8433-3.11-3.9788-4.4362-4.8214-1.3292a18.7011 18.7011 0 0 0 -.6113 3.5059h5c.0639-2.3626.9454-4.5746 1.0321-6.9369a84.7163 84.7163 0 0 1 .7649-10.7954c1.0056-6.2265 2.1235-12.5036 2.794-18.7761.602-5.6327.7534-11.362 1.1949-17.0146.5316-6.8069.6355-14.1446 1.8141-20.8392.5541-3.1468-4.2635-4.4976-4.8214-1.3292z" fill="#3360ff"/><path d="m212.4788 33.8821c-1.6541.0184-4.162-1.4142-5.83-1.8111-1.3826-.3289-2.8075-.4743-4.2079-.709-3.4251-.5742-7.0208-1.5212-10.52-1.0883a25.8491 25.8491 0 0 0 -16.5729 8.5639c-7.1685 8.5278-12.0181 25.6117.7294 31.6068 7.27 3.4191 14.8939-.6221 22.284-.3679 10.0054.3441 19.297 10.3808 10.8 19.1028-5.84 5.9945-14.4974 6.8962-22.4387 6.1922-4.1277-.3659-7.7446-2.0094-11.6649-3.16-1.4287-.4192-2.8882-.8271-4.3408-1.1475q-.7679-.1168-1.5345-.241-1.9627-.8357-1.0115 2.1055c2.1588-2.3777-1.3669-5.924-3.5356-3.5355-3.74 4.119 1.4555 5.7651 4.7524 6.4923 7.9881 1.7622 14.61 4.8355 22.9848 4.5544 7.47-.2508 14.2353-1.98 19.8325-7.23 4.6846-4.3938 6.5645-10.5446 4.419-16.6791-2.2069-6.31-9.3369-10.2275-15.7-11.2467-7.97-1.2765-26.5306 7.1561-27.6085-6.309-.7711-9.6319 5.138-19.3482 14.3172-22.4515 5.1749-1.75 9.6047-1.0216 14.8427-.1256 3.4547.5909 6.508 2.5229 10.0035 2.4839 3.2153-.0359 3.2237-5.036 0-5z" fill="#3360ff"/><path d="m180.1659 108.0557c.01-6.8533 1.4542-13.3792 2.956-20.0148 1.6814-7.43 2.5224-14.8076 3.6167-22.33a202.0475 202.0475 0 0 0 1.9226-21.3684 66.4469 66.4469 0 0 1 1.4888-11.5286c.7313-3.4415.8227-7.18 1.7875-10.5383l-1.7461 1.7461.4263-.0756c3.1629-.5609 1.8225-5.38-1.3292-4.8214l-.4263.0756a2.4691 2.4691 0 0 0 -1.7461 1.7461c-.9756 3.3958-1.0626 7.0714-1.7875 10.5383a67.558 67.558 0 0 0 -1.6174 11.112c-.3423 7.82-1.0161 15.6979-2.0622 23.455-1.01 7.4872-1.9346 14.7423-3.6641 22.105-1.5494 6.5958-2.809 13.0728-2.8187 19.899-.0046 3.2174 4.9954 3.2223 5 0z" fill="#3360ff"/><path d="m200.2517 23.0713c.0546 6.7347-.9338 13.36-1.0645 20.0817-.1407 7.2353.1223 14.4651-.4159 21.691-1.0356 13.9044-1.8859 27.7492-2.6153 41.6758-.1684 3.2157 4.8321 3.2065 5 0 .7294-13.9257 1.58-27.7718 2.6153-41.6758.538-7.2233.3028-14.4569.4159-21.691.1051-6.7216 1.1192-13.3432 1.0645-20.0817-.0262-3.216-5.0262-3.2235-5 0z" fill="#3360ff"/><path d="m63.5687 117.2673h26.2545v86.364h-26.2545z" fill="#71e289"/><path d="m98.7079 141.0246h19.0323v62.6066h-19.0323z" fill="#eab124"/><path d="m128.7079 155.8315h14.5311v47.7998h-14.5311z" fill="#ba3500"/><path d="m156.0993 134.4288h21.0374v69.2025h-21.0374z" fill="#ff8b78"/><path d="m104.4611 135.3982h1.2474a4.827 4.827 0 0 0 4.5694-3.0736 3.7658 3.7658 0 0 0 .4306-1.9264l-.1786-1.3292a4.9958 4.9958 0 0 0 -1.2859-2.2063 5.1958 5.1958 0 0 0 -3.5355-1.4645h-1.2474a4.827 4.827 0 0 0 -4.5694 3.0736 3.7648 3.7648 0 0 0 -.4306 1.9264l.1786 1.3292a4.995 4.995 0 0 0 1.2858 2.2064 5.1959 5.1959 0 0 0 3.5356 1.4644z" fill="#fff"/><path d="m75.1465 110.45c6.4345 0 6.4452-10 0-10-6.4345 0-6.4452 10 0 10z" fill="#fff"/><path d="m136.2705 150.9911c6.4345 0 6.4451-10 0-10-6.4346 0-6.4452 10 0 10z" fill="#fff"/><path d="m176.1984 120.4188v-.6237a5.1387 5.1387 0 0 0 -5-5l-1.3292.1786a4.9958 4.9958 0 0 0 -2.2063 1.2859l-.7818 1.0119a4.9765 4.9765 0 0 0 -.6827 2.5236v.6237a5.1387 5.1387 0 0 0 5 5l1.3292-.1786a4.9962 4.9962 0 0 0 2.2064-1.2859l.7818-1.0119a4.977 4.977 0 0 0 .6826-2.5236z" fill="#fff"/><path d="m192.6922 197.15c1.1863-2.2542 4.6589-4.5137 6.5022-6.2139 2.1014-1.9382 4.1-3.96 6.2058-5.8792 2.3882-2.1773 4.5306-4.4622 7.016-6.5631 2.5508-2.1561 4.4021-4.9863 7.6351-2.3a82.5126 82.5126 0 0 0 14.196 9.2907c4.6068 2.3656 7.752-3.4932 10.3815-6.3858a122.9521 122.9521 0 0 0 10.4867-13.4123c1.7974-2.6346 3.0712-4.916 5.4393-7.1368 2.1345-2.0017 4.3853-3.9354 6.3421-6.1165 1.736-1.9351 3.538-3.9578 5.114-6.0272 1.2617-1.6567 2.3232-3.4126 3.6269-5.0489-.217.2724 2.1647-2.7663 2.2431-2.7886 1.9471-.5544 2.12.7786 3.1969 2.404.7495 1.1308 1.4385 2.3148 2.15 3.47.8614 1.3981 2.9069 3.2749 3.4418 4.7085 1.1147 2.9879 5.95 1.6946 4.8214-1.3292-.8448-2.2643-2.66-3.8644-3.9458-5.9029-1.5536-2.4635-2.9168-5.2571-4.9932-7.3464-4.5414-4.57-7.47-.4649-10.45 3.2492-4.5221 5.6365-8.627 11.202-13.9376 16.1606-4.6156 4.31-8.2183 9.4709-11.5765 14.7954-2.15 3.4088-4.9791 6.22-7.6443 9.2207q-1.061 1.2327-2.1666 2.4253.2929 1.4955-.886.1244c-.8569-.2-2.611-1.6244-3.3392-2.0641-3.6322-2.1934-7.0694-4.6764-10.44-7.1971-1.8439-1.379-3.21-2.7374-5.7308-2.1762-2.607.58-4.3628 3.1159-6.2249 4.7856-2.8113 2.5207-5.5157 5.0906-8.2918 7.6255-2.5622 2.34-5.0443 4.7774-7.5733 7.1715-1.9477 1.8438-4.6546 3.5356-5.9165 5.9335-1.4974 2.8452 2.8166 5.3753 4.3173 2.5236z" fill="#fff"/><path d="m292.1779 151.4278a11.0179 11.0179 0 0 0 3.7-2.2186c1.8706-1.3838 4.1037-2.1273 6.127-3.2389 3.8074-2.0918 6.8976-4.953 10.8521-6.8436 2.9018-1.3873.3681-5.7-2.5236-4.3174-3.5927 1.7176-6.2645 4.0217-9.6106 6.1213-1.527.9582-3.1941 1.6314-4.7938 2.4505-1.5395.7882-3.4613 2.7475-5.08 3.2253-3.0792.9089-1.7684 5.7358 1.3292 4.8214z" fill="#fff"/><ellipse cx="160.0857" cy="300.6221" fill="#ba3500" rx="74.4062" ry="62.9049"/><path d="m198.123 266.7481c5.0708-3.4234 10.2855-6.6157 15.5318-9.759-13.5344-11.8737-32.5242-19.272-53.5691-19.272a85.1066 85.1066 0 0 0 -34.56 7.191c5.5433 6.3311 11.0645 12.6806 16.8465 18.8227 7.805 8.2911 15.8975 16.7257 22.0333 26.3586 11.9897-6.5915 22.3887-15.6926 33.7175-23.3413z" fill="#3360ff"/><path d="m209.7317 286.608c-10.7231 7.24-20.6171 15.7739-31.8112 22.2563 4.4222 16.3843 8.1974 32.9375 11.4669 49.5895 26.5227-9.6178 45.1045-31.8875 45.1045-57.8316a54.557 54.557 0 0 0 -6.3774-25.4771c-6.2056 3.697-12.3945 7.4197-18.3828 11.4629z" fill="#71e289"/><path d="m156.3225 317.1805c-12.7851.1669-25.5043-1.9443-38.3429-1.1858-9.6819.5718-19.2674 2.1-28.8687 3.4627 9.4685 25.5351 37.6472 44.07 70.9748 44.07 2.3164 0 4.604-.102 6.8664-.2771q-4.593-23.195-10.6296-46.0698z" fill="#eab124"/><g fill="#fff"><path d="m335.4164 202.1482c3.8366 1.4145 6.9959 12.7994 12.6922 8.6543 2.3458-1.707 3.2028-5.7668 4.9018-8.18a70.4768 70.4768 0 0 1 4.5142-5.9515c.7936-.9054 2.2961-3.38 3.39-3.8188 2.95-1.1813 1.6629-6.0194-1.3292-4.8214-2.7889 1.1167-4.6708 3.9366-6.5841 6.2116a60.0709 60.0709 0 0 0 -6.5916 9.5189c-.3936.7166-.79 1.4383-1.117 2.1881-.543 1.2468-.0022.6728-.1247.57.3441.29-.62-1.5766-.7326-1.7426-.5725-.8472-1.4517-1.5416-2.1039-2.3348-1.68-2.0427-3.0167-4.1674-5.5864-5.1148-3.0235-1.1146-4.3278 3.7159-1.3292 4.8214z"/><path d="m338.0084 234.4874a95.9972 95.9972 0 0 0 5.0671 9.6591c1.2963 2.3164 3.1709 5.9083 6.3409 5.7491 2.5468-.128 3.783-2.5767 4.9379-4.475a66.6131 66.6131 0 0 1 9.5232-11.6892c2.25-2.304-1.2828-5.8429-3.5355-3.5356a72.3949 72.3949 0 0 0 -10.305 12.7012c-.8974 1.4754-.2489 1.7972-1.6341.5031-.88-.8219-1.3975-2.53-1.9864-3.549a59.8523 59.8523 0 0 1 -3.5867-6.6929c-1.2262-2.923-6.0666-1.6391-4.8214 1.3292z"/><path d="m345.0567 290.2408c2.1545-3.6643 4.6861-5.6414 7.8541-8.297 2.6821-2.2482 5.4077-6.1245 8.6015-7.5389 2.9361-1.3.3951-5.61-2.5236-4.3174-3.7159 1.6457-6.4972 5.7638-9.6134 8.3208-3.5625 2.9233-6.2431 5.2393-8.636 9.3089-1.6344 2.78 2.6857 5.2986 4.3174 2.5236z"/><path d="m343.2183 269.79c2.0719 3.9371 4.62 7.6129 6.7684 11.5134a57.2162 57.2162 0 0 0 6.0171 9.4437c2.0794 2.4613 5.601-1.0908 3.5356-3.5355-2.3382-2.7675-4.1161-6.35-5.8064-9.5476-1.8906-3.5768-4.314-6.8189-6.1974-10.3976-1.4991-2.8486-5.8161-.3244-4.3173 2.5236z"/><path d="m342.5985 318.7485c1.6719 2.5043 2.3829 5.5959 4.2147 7.94a4.5994 4.5994 0 0 0 5.14 1.8645c2.3568-.8017 4.1056-4.0941 5.6647-5.8481a57.8565 57.8565 0 0 1 8.8522-8.0172c2.5339-1.917.0451-6.2607-2.5236-4.3174a79.2665 79.2665 0 0 0 -11.3537 10.4073 15.085 15.085 0 0 1 -1.8463 2.1366c-1.0027.7291.29 1.0953-.5719-.3356-.6027-1.0009-.6614-2.3748-1.2154-3.4269a34.7773 34.7773 0 0 0 -2.0434-2.9266c-1.778-2.6634-6.1107-.1628-4.3174 2.5236z"/><path d="m349.6236 353.9594c-1.1774 1.1791-1.1216-.3288-.9594 1.2516a6.3622 6.3622 0 0 0 .8281 1.5567c.4955.94.9421 1.8823 1.391 2.8459.959 2.0584 1.8348 4.2292 4.2145 4.8528a2.5856 2.5856 0 0 0 2.8232-1.1489c5.0514-7.2126 9.98-14.4086 16.4919-20.5132 2.3527-2.2053-1.1883-5.7358-3.5355-3.5356-6.8528 6.4237-11.9688 13.9506-17.2737 21.5252l2.8233-1.1489c-.9047-.2371-3.3669-7.0125-4.182-8.09-1.6259-2.15-3.9656-3.325-6.1569-1.1307-2.2765 2.28 1.2579 5.8164 3.5355 3.5355z"/><path d="m314.8789 357.3206a8.2949 8.2949 0 0 1 .0233-1.2758l-.0893.6646a4.115 4.115 0 0 1 .1073-.47l-3.0753 1.7461a.99.99 0 0 1 .1753.0461l-.5972-.252a.6376.6376 0 0 1 .1374.0694l-.506-.3909a.4551.4551 0 0 1 .1.0912l-.3909-.506a.403.403 0 0 1 .0635.1115l-.252-.5972a.465.465 0 0 1 .0277.13l-.0893-.6646a.6439.6439 0 0 1 -.0077.1474l.0893-.6646a1.5446 1.5446 0 0 1 -.0762.25l.252-.5972-.0423.09 3.4205-.8969-.5085-.3831a2.5093 2.5093 0 0 0 -1.9264-.252 2.5493 2.5493 0 0 0 -1.4941 1.1489 2.5234 2.5234 0 0 0 -.252 1.9263l.252.5972a2.5119 2.5119 0 0 0 .8969.8969l.5085.3832a2.4863 2.4863 0 0 0 1.9264.252 2.4527 2.4527 0 0 0 1.494-1.1489 3.3494 3.3494 0 0 0 .2246-2.843 2.9772 2.9772 0 0 0 -2.0965-1.7657 2.554 2.554 0 0 0 -3.0753 1.7461 7.8771 7.8771 0 0 0 -.22 2.4108 2.5 2.5 0 0 0 5 0z"/><path d="m317.1513 334.1688c3.2173 0 3.2226-5 0-5-3.2172 0-3.2226 5 0 5z"/><path d="m243.7973 279.15c2.893 2.6178 7.4514 12.4394 11.4254 5.1549 2.367-4.3387 6.573-7.8513 10.42-10.9628 4.0795-3.3 10.3093-7.9367 15.7159-8.3737 3.1853-.2575 3.2128-5.26 0-5-8.5269.6892-16.8936 7.4215-22.9373 13.0312-2.1507 1.9963-7.0943 5.5287-7.5433 8.7463.2169-1.5539 1.8655 1.1443.7077-1.0891-.3657-.7053-1.3011-1.0108-1.77-1.5974-.9337-1.1671-1.2719-2.35-2.482-3.445-2.381-2.1544-5.9277 1.371-3.5356 3.5356z"/><path d="m243.7074 328.7106c3.46 1.4535 5.2962 5.5046 7.7591 8.14a2.519 2.519 0 0 0 4.1785-1.1032c1.7879-7.6724 7.6941-13.5945 14.4474-17.43 2.7978-1.589.2812-5.91-2.5236-4.3173-7.9283 4.5031-14.6464 11.4116-16.7452 20.4183l4.1784-1.1032c-3.2938-3.5243-5.3358-7.4812-9.9654-9.4257-2.9625-1.2444-4.2562 3.5919-1.3292 4.8214z"/><path d="m266.2539 209.4156c-6.1408-1.4491-11.0654.6123-15.6454 4.9136-4.1768 3.9227-6.9138 11.5814-2.09 16.0242 5.9139 5.4468 14.688-1.1576 20.5738 3.4107 6.1993 4.8115-3.6762 8.59-7.6683 8.6934-3.5082.091-10.7106-1.9634-13.7693-3.9819l-1.2618 4.6586.185.0159c3.2056.2746 3.1872-4.727 0-5l-.185-.0159c-2.6442-.2265-3.16 3.4058-1.2618 4.6587 2.7021 1.7832 6.781 2.554 9.8958 3.485a19.8063 19.8063 0 0 0 12.0115.1559c5.3426-1.6153 12.0355-6.97 8.67-13.1447-3.636-6.6707-11.254-5.89-17.4856-5.5935-2.8736.1367-6.242.3971-7.13-2.8608-.7439-2.7305 2.1122-6.1321 4.057-7.6847 3.0042-2.3984 6.0182-3.8 9.7747-2.9131 3.1291.7385 4.4646-4.0815 1.3292-4.8214z"/><path d="m255.8553 203.3327c.002 8.4656-1.0248 16.94-.5994 25.4091.3717 7.4.1116 14.94 1.6613 22.19.2506 1.1725 1.6915 1.069 2.2847.2986l.2351-.3053c.9808-1.274-1.19-2.52-2.1587-1.2618l-.2351.3053 2.2847.2986c-1.6-7.4861-1.4787-15.7343-1.6673-23.3984-.1933-7.85.6966-15.6921.6947-23.5362a1.2507 1.2507 0 0 0 -2.5 0z"/><path d="m263.7269 203c-1.2461 9.1072-.7416 18.2953-.346 27.4124.2044 4.71-.2066 9.366-.0778 14.0524.0842 3.0649.1466 7.3519 1.4194 10.1284.583 1.2718 2.1915.4328 2.3293-.6309l.07-.5377c.2061-1.5909-2.2959-1.5758-2.5 0l-.07.5377 2.3294-.6309a18.0417 18.0417 0 0 1 -.4344-3.4418 45.1474 45.1474 0 0 1 -.4392-9.2261 101.7031 101.7031 0 0 0 -.1076-11.1323c-.3535-8.5874-.94-17.26.2376-25.8666.2153-1.5733-2.1932-2.254-2.4107-.6646z"/><path d="m409.0809 250.1445c6.1225 0 10.714 1.4946 11.5627-5.6471.1211-1.0187-.3051-3.9066.289-4.7262q-.3423-1.0673.1907.9609a8.13 8.13 0 0 0 .4939 1.4734c.6571 1.2566 1.3083 2.2937 2.8426 1.9263 2.2262-.5331 1.8245-3.6477 3.473-4.77 4.5662-3.11 4.255 5.3458 5.516 7.6636 3.52 6.4713 6.3844-1.4446 10.3339-1.9522 1.5738-.2023 1.5939-2.7049 0-2.5a6.03 6.03 0 0 0 -3.4141 1.2282c-1.8743 1.394-2.7787 4.26-4.9584 1.3442-1.9739-2.6406-.52-8.1375-3.6776-10.148-1.997-1.2714-3.5354.1454-4.8478 1.6256-.3418.3854-3.0033 4.8521-2.94 4.8626-.23-.0386-1.4084-4.6-1.7721-5.2654a1.2556 1.2556 0 0 0 -1.4116-.5744c-1.9028.7942-2.121 2.171-2.3282 4.1257-.2316 2.1848.4222 6.6079-1.89 7.87-1.393.76-5.7961.0037-7.4615.0037a1.2507 1.2507 0 0 0 0 2.5z"/><path d="m450.8078 240.3525a67.738 67.738 0 0 0 .04 7.94 1.2677 1.2677 0 0 0 2.1338.8838c.9581-1.02 2.6-5.35 4.1293-3.9126.8237.7744-.3379 3.4851.5256 4.6684 1.9708 2.7007 3.46-.4177 5.1647-1.3128 3.3877-1.7793 4.409.3873 7.0517 1.3991a8.9277 8.9277 0 0 0 4.7784.2059c1.1037-.22 2.0268-.778 3.0916-1.0435 4.3187-1.0766 2.4356-.1258 5.0475-.0169 2.4646.1028 4.9044.521 7.2574-.3986 1.482-.5791.8372-2.9976-.6646-2.4106-3.9 1.524-7.5-1.25-11.2927-.0913-1.7057.5211-3.3364 1.6606-5.2109 1.6817-1.9779.0223-2.643-.9116-4.0951-1.7678-1.0256-.6048-1.1263-1.2581-2.4655-1.47a5.6558 5.6558 0 0 0 -3.0241.6967c-.4811.2168-2.85 2.3071-3.0241 2.2866-.8893-.1048-.7608-5.3085-2.13-6.6088a1.2535 1.2535 0 0 0 -1.2162-.3214c-3.0212.9776-3.6836 4.5109-5.691 6.6481l2.1339.8839a68.04 68.04 0 0 1 -.04-7.94 1.2507 1.2507 0 0 0 -2.5 0z"/><path d="m498.7718 249.3437a105.5566 105.5566 0 0 1 13.08-.5339 1.2507 1.2507 0 0 0 0-2.5 105.5816 105.5816 0 0 0 -13.08.5339c-1.5762.1939-1.5957 2.6963 0 2.5z"/><path d="m409.68 267.7177c2.6092-.5019 6.396-1.4186 8.5951-2.8794 2.1288-1.4141 2.1007-3.81 3.9687-5.4085h-1.7678c1.6047 2.0475 1.4236 9.5945 5.7129 7.67.7618-.3418 1.0035-1.0636 1.6042-1.5876a3.4324 3.4324 0 0 1 3.4747-2.1285 12.9454 12.9454 0 0 0 1.2585 2.297c1.5524 1.8989 3.2111 1.9751 5.4491 1.5029 1.5733-.3319.9075-2.7423-.6646-2.4107-4.5192.9534-4.3505-7.7109-9.4078-3.5857a16.5048 16.5048 0 0 0 -1.3457 1.6069c-1.6532 1.6935-1.2421 1.7328-2.2138.0593-.9871-1.7-.8463-3.5922-2.1-5.1916a1.27 1.27 0 0 0 -1.7678 0c-1.4253 1.22-2.1672 2.7147-3.5825 4.0572a15.0772 15.0772 0 0 1 -7.878 3.5878c-1.5783.3036-.91 2.7136.6645 2.4107z"/><path d="m445.2145 265.7231c1.0578-.7362 2.6712-1.9835 4.0146-1.6507.75.1858 1.3279 1.0071 1.95 1.3967a10.9446 10.9446 0 0 0 2.8521 1.4626c2.93.6685 3.9551-3.0637 6.3668-3.7519a1.2511 1.2511 0 0 0 -.6646-2.4107c-1.5606.4453-2.1933 1.227-3.3841 2.2386-2.0553 1.7459-2.8263.6245-4.7286-.531-2.8-1.7009-5.1653-.6541-7.6682 1.0877-1.3114.9126-.0631 3.0807 1.2618 2.1587z"/><path d="m469.4934 256.3687c.0709 3.9806-.6079 9.93.5507 13.8571.845 2.864 2.6372 2.8732 4.3611.5775.7676-1.0223 1.5984-3.7988 2.8056-4.2365 2.1729-.7879 1.7351.83 3.115 1.4739a5.01 5.01 0 0 0 4.2486.3665c2.2283-.6741 3.5378-2.1157 6.1893-2.2446 1.3761-.0669 2.622.3266 4.0066.1126 4.9877-.7711 9.0644-3.4154 14.3467-2.0277a1.2511 1.2511 0 0 0 .6646-2.4107c-6.3607-1.671-12.0528 1.7792-18.286 1.9086-2.7513.0571-4.536 1.12-7.0626 1.7461-1.6652.4124-2.0641-.2052-4.1635-1.3407-.4491-.2429-.6386-.9571-1.2212-1.0248a3.2345 3.2345 0 0 0 -2.6507.8243c-1.5767 1.051-2.5281 4.5658-3.8713 5.1615q-.1557 1.3673-.23-.9425l-.0452-.9391c-.0377-.8382-.0172-1.6781-.0084-2.5167.0294-2.8058-.199-5.5447-.2489-8.3448a1.2508 1.2508 0 0 0 -2.5 0z"/><path d="m419.9407 287.6a33.8583 33.8583 0 0 1 -.3379-3.7781c-.01-.7867-.1-2.17.4151-2.8545l-.747.5745c.075-.022 2.7971 2.5018 3.23 2.7493a7.8542 7.8542 0 0 0 4.1982.8217 1.2507 1.2507 0 0 0 0-2.5 6.3761 6.3761 0 0 1 -4.879-2.0036c-.8628-.7637-1.9253-2.0018-3.2135-1.4781-1.0177.4136-1.2122 1.52-1.3561 2.4989a21.9979 21.9979 0 0 0 .19 5.97c.1974 1.5752 2.7 1.5949 2.5 0z"/><path d="m439.5771 288.0049c2.821-.7734 5.2777-2.5795 8.206-1.9591a17.5766 17.5766 0 0 0 7.2764.0906c1.585-.2459.9119-2.6553-.6646-2.4107a11.9966 11.9966 0 0 1 -5.495.0431c-1.1161-.3368-2.0818-.9068-3.2793-.7588-2.2991.2842-4.4605 1.968-6.7081 2.5842a1.2511 1.2511 0 0 0 .6646 2.4107z"/><path d="m481.8894 283.7339c3.5534.6667 7.12-.696 10.715-.4864 3.6894.2151 6.735 1.8909 10.5038 1.2872 1.5843-.2537.9118-2.6632-.6646-2.4107-3.4176.5475-6.473-1.2794-9.8392-1.3765-3.2261-.0931-6.8815 1.17-10.05.5757-1.5725-.295-2.2464 2.114-.6646 2.4107z"/><path d="m247.53 73.7648c-.0435-5.6358.255-12.7979 3.2309-17.8l-1.9632.253c2.9738 2.42.4581 7.8948 4.118 10.2192 3.71 2.3562 6.6372-3.0113 7.383-5.9541a1.2511 1.2511 0 0 0 -2.4107-.6646c-.4517 1.7823-2.5565 5.3817-4.433 3.4-.7794-.8233-.6706-3.1777-.8284-4.1805-.276-1.7536-.6239-3.4178-2.0612-4.5875a1.2712 1.2712 0 0 0 -1.9632.253c-3.2446 5.4537-3.62 12.8928-3.5722 19.0617a1.2507 1.2507 0 0 0 2.5 0z"/><path d="m277.0435 62.1569c3.5054-1.2531 4.06 2.8988 6.6122 4.2788 3.3277 1.8 5.2756-1.5154 8.4677-1.5856 3.3825-.0745 6.0575 2.3309 9.6639 2.2908a14.04 14.04 0 0 0 8.6419-2.903c1.2712-.9824-.51-2.74-1.7678-1.7678-4.9465 3.8225-9.263 1.5535-14.1858-.3035a5.8518 5.8518 0 0 0 -4.4447-.1077c-2.9492 1.1022-4.533 2.8712-7.2758-.178-.5022-.5583-.7107-1.3849-1.2739-1.8948-1.7125-1.5507-3.0334-.98-5.1023-.24-1.5041.5376-.8558 2.9541.6646 2.4107z"/><path d="m252.29 83.7071c.1692-1.0122.69-3.7015 1.7845-4.122.5506-.2115 1.6334 3.2071 1.9435 3.8652 1.2254 2.6007 3.3383 4.1467 6.1083 2.6055 1.4062-.7823.1469-2.9424-1.2618-2.1586-2.8853 1.6053-3.4065-5.9739-5.8265-6.8335-3.0629-1.0881-4.7957 3.8079-5.1587 5.9788-.2632 1.5738 2.1455 2.25 2.4107.6646z"/><path d="m277.8443 79.7752c4.0955-1.0563 7.86.778 11.8518-.5163a23.9742 23.9742 0 0 1 5.8085-1.4686c2.59-.18 4.3449.8518 6.7568 1.5315a23.7435 23.7435 0 0 0 10.09.6206c4.0347-.674 10.2352-5.2135 13.9285-1.29 1.1051 1.174 2.87-.5963 1.7678-1.7678-2.2571-2.398-5.4435-2.3956-8.5534-1.8456-2.5716.4548-4.8062 1.8714-7.3633 2.379a20.4827 20.4827 0 0 1 -9.2048-.5074c-4.044-1.1276-6.3216-2.15-10.5691-1.1455-3.4693.8206-5.7619 1.4962-9.4281.9067-2.1149-.34-3.6819.159-5.7491.6922a1.2511 1.2511 0 0 0 .6646 2.4107z"/><path d="m242.68 108.533c1.3661-4.14 2.5816-9.4836 5.5039-12.8233l-1.9633-.253c1.5938 2.74 1.3123 12.4949 6.4924 12.19 3.424-.2017 4.1939-5.8286 6.4658-7.6076h-1.7678c2.53 1.955 3.4278 5.342 7.0944 5.4865 2.3432.0923 4.8935-.994 5.4029-3.399.3324-1.5694-2.077-2.24-2.4107-.6646-.9616 4.54-6.8342-2.0437-8.3188-3.1907a1.3083 1.3083 0 0 0 -1.7678 0c-1.7341 1.358-2.0856 4.26-3.6785 5.4294-2.7179 1.9951-3.3546-2.5242-3.6811-4.4549a13.8591 13.8591 0 0 0 -1.6721-5.0506 1.26 1.26 0 0 0 -1.9632-.253c-3.2557 3.7207-4.6356 9.3467-6.1468 13.9265-.5054 1.5313 1.908 2.1877 2.4107.6646z"/><path d="m285.6034 103.4787c2.4837-2.4926 5.867.76 8.7489 1.1855a44.5087 44.5087 0 0 0 10.993-.1093c4.9131-.5307 9.7448-.43 14.6538-.7743 4.2393-.2976 8.529-1.59 12.77-1.5374a1.2508 1.2508 0 0 0 0-2.5c-4.81-.06-9.6015 1.43-14.4308 1.6-5.4129.191-10.7738.7652-16.1646 1.0115a59.6647 59.6647 0 0 1 -6.3245-.1273c-2.8361-.1731-3.5173-1.2318-5.8463-2.2159-2.7018-1.1415-4.2174-.258-6.1677 1.6992a1.2507 1.2507 0 0 0 1.7678 1.7678z"/><path d="m252.6383 285.4913c3.2173 0 3.2226-5 0-5-3.2172 0-3.2226 5 0 5z"/><path d="m69.8181 319.5238c.6632-2.1394 3.2221-4.0982 4.2217-6.23a24.886 24.886 0 0 0 2.1251-6.6388 35.5377 35.5377 0 0 0 .14-4.6727 13.6946 13.6946 0 0 1 .18-3.0976l4.0542-.8019c2.0151.9576 1.9108 8.5167 1.893 10.1192-.0443 3.9887-3.3468 6.8129-2.1535 10.5226 1.1071 3.4414 2.2521 5.3169-.3021 9.1394-1.7778 2.6606-6.6035 5.1782-10.0361 3.7252-1.4644-.62-2.74 1.533-1.2618 2.1587 6.0815 2.5741 13.5356-1.6909 15.2731-7.8741a12.278 12.278 0 0 0 -.0463-5.6438c-.2543-1.0393-1.2982-2.0907-1.3269-3.1175-.0367-1.3168 1.2793-3.5852 1.6937-4.908a15.5967 15.5967 0 0 0 .5156-6.0841c-.2172-3.7975-2.0871-15.6978-8.7008-12.0872-3.0646 1.673-2.1215 6.6514-2.2281 9.5185a21.6083 21.6083 0 0 1 -2.66 9.9018c-1.1244 1.9433-3.1251 3.2536-3.7922 5.4054-.4774 1.54 1.9351 2.1989 2.4107.6646z"/><path d="m68.3348 349.5862c2.3326-2.0452 4.2879-3.2792 5.5607-6.262a12.93 12.93 0 0 0 .2926-8.8694 1.2365 1.2365 0 0 0 -.8731-.8731l-.1873-.0269c-1.5736-.2257-2.2534 2.1828-.6646 2.4107l.1873.0269-.873-.873a10.2167 10.2167 0 0 1 -.68 8.1891c-1.1678 1.944-2.8682 3.0526-4.53 4.51-1.2121 1.0628.5619 2.8251 1.7677 1.7678z"/></g><path d="m382.7431 69.9086c6.0956.7409 11.7017 3.4308 17.0606 6.2883 11.0954 5.9161 21.584 11.7472 34.5713 10.8814 11.93-.7952 23.3154-5.7459 34.13-10.48 9.1228-3.9934 18.9465-8.6628 28.9355-11.1185v-4.6322h-120.4564v9.0291a25.2272 25.2272 0 0 1 5.759.0319z" fill="#7f0f04"/><path d="m403.4619 96.37c14.4184 4.96 27.884 9.2734 43.2643 6.4128 16.18-3.0092 33.7108-11.6563 50.7144-12.8689v-19.2847c-1.9873.5284-3.9611 1.14-5.91 1.8142-19.7485 6.8308-38.6254 19.6267-60.1615 19.7424-11.3866.0612-21.2663-4.6781-31.0478-10.02-5.007-2.7345-10.1256-5.6743-15.7559-6.8982a21.7437 21.7437 0 0 0 -7.5809-.3111v16.212c8.8932.0422 17.5816 2.1415 26.4774 5.2015z" fill="#ff8b78"/><path d="m392.518 115.8844c10.2451 4.5351 19.2766 12.1324 31.2017 11.0921 7.9-.6892 15.3918-4.0568 22.8462-6.5141 7.2407-2.3867 14.5452-3.4443 22.108-4.26a106.865 106.865 0 0 1 28.7667.293v-21.4543a84.4917 84.4917 0 0 0 -15.8006 3.0659c-12.57 3.5146-24.8214 8.3929-37.818 10.1782-13.1565 1.8072-25.1572-1.359-37.5228-5.644-9.9209-3.4379-19.4051-6.3632-29.3148-6.4515v17.9967a24.9744 24.9744 0 0 1 15.5336 1.698z" fill="#7f0f04"/><path d="m417.7957 146.5151c13.1349.8846 24.6812-2.2924 37.0324-6.4208 13.1847-4.407 28.2891-10.14 42.6125-10.0464v-8.5179c-10.57-1.853-21.545-1.249-32.3584.091a104.5283 104.5283 0 0 0 -21.9023 5.2838c-6.3257 2.1988-12.7345 4.5174-19.46 5.0722-10.4238.86-19.6995-4.2361-28.4917-9.1034-3.9656-2.1952-8.0735-4.2993-12.6973-4.4614a19.2427 19.2427 0 0 0 -5.5466.6552v18.2476c13.1792 4.7543 26.7569 8.2536 40.8114 9.2001z" fill="#eab124"/><path d="m408.6384 163.4037a310.5256 310.5256 0 0 0 46.302-7.7045c13.4423-3.2932 28.311-7.2728 42.5-7.2092v-13.746c-16.5189-.2312-34.7513 8.2776-49.0656 12.6948a85.4984 85.4984 0 0 1 -35.82 3.6177 157.1345 157.1345 0 0 1 -35.5706-8.4451v20.5693a144.94 144.94 0 0 0 31.6542.223z" fill="#7f0f04"/><path d="m401.6557 177.4745c7.2039 1.9237 15.0435 4.4048 22.5471 4.4936 7.4563.0883 14.3879-3.5906 21.3067-5.8773 6.3259-2.0908 13.0669-2.7932 19.5163-4.5066 5.9742-1.587 11.9224-3.3384 18.0517-4.2325a42.1305 42.1305 0 0 1 14.3631.2678v-14.3571c-16.5313-.1219-34.2863 5.862-49.42 9.2041a296.2159 296.2159 0 0 1 -44.5162 6.3335 141.1236 141.1236 0 0 1 -26.52-.5653v3.3546c8.2946 1.4074 16.467 3.6942 24.6713 5.8852z" fill="#3360ff"/><path d="m389.0923 217.6825h43.6077q5.2246-.9422 10.4633-2.1844c17.9847-4.2319 35.8641-9.674 54.2771-10.997v-7.0471c-20.3606-4.62-42.7547 6.9246-62.2483 13.0249-19.0593 5.9642-39.2011-.9282-58.2082-7.2955v10.6042a78.5033 78.5033 0 0 0 12.1084 3.8949z" fill="#7f0f04"/><path d="m455.2885 217.6825h42.1521v-8.162c-14.2822 1.0675-28.2085 4.6628-42.1521 8.162z" fill="#7f0f04"/><path d="m401.2553 204.9431a81.4449 81.4449 0 0 0 21.092 2.6264c6.5682-.1907 12.5211-2.1516 18.6622-4.3025 17.824-6.2426 37.8821-14.53 56.4311-10.9406v-19.4388c-6.8769-1.4715-14.16-.8356-21.9768 1.1047-12.0866 3-24.3883 5.3636-36.0753 9.6288-5.9507 2.1716-11.899 3.8346-18.27 3.0764a149.4041 149.4041 0 0 1 -20.7915-4.4016c-7.7768-2.0768-15.5039-4.2444-23.3425-5.625v21.097c8.0362 2.5769 16.0518 5.2235 24.2708 7.1752z" fill="#fff"/><path d="m301.5543 165.3808h26.3638v203.5571h-26.3638z" fill="#ba3500"/><path d="m321.5548 355.5309v-.3928a5.1585 5.1585 0 0 0 -1.4645-3.5355 5.5633 5.5633 0 0 0 -3.5355-1.4645 5.0531 5.0531 0 0 0 -3.5356 1.4645 5.1959 5.1959 0 0 0 -1.4644 3.5355v1.5859a5.1584 5.1584 0 0 0 1.4644 3.5355 5.5624 5.5624 0 0 0 3.5356 1.4645 5.0526 5.0526 0 0 0 3.5352-1.464 5.1956 5.1956 0 0 0 1.4645-3.5355v-1.5859a5.1585 5.1585 0 0 0 -1.4645-3.5355 5.5633 5.5633 0 0 0 -3.5355-1.4645 5.0531 5.0531 0 0 0 -3.5356 1.4645 5.1959 5.1959 0 0 0 -1.4644 3.5355v.3928a5.1584 5.1584 0 0 0 1.4644 3.5355 5.5624 5.5624 0 0 0 3.5356 1.4645 5.0526 5.0526 0 0 0 3.5355-1.4645 5.1956 5.1956 0 0 0 1.4645-3.5355z" fill="#ba3500"/><path d="m344.5927 180.3722h1.1931a5.1387 5.1387 0 0 0 5-5l-.1786-1.3292a4.9953 4.9953 0 0 0 -1.2859-2.2063l-1.0119-.7818a4.9765 4.9765 0 0 0 -2.5236-.6827h-1.1931a5.1387 5.1387 0 0 0 -5 5l.1786 1.3292a4.9953 4.9953 0 0 0 1.2859 2.2063l1.0119.7819a4.977 4.977 0 0 0 2.5236.6826z" fill="#ba3500"/></svg>