<svg height="491" viewBox="0 0 509 491" width="509" xmlns="http://www.w3.org/2000/svg"><g fill="none" transform="translate(.3548 .08385)"><path d="m222.2146 113.44745c15.1973 8.428 26.9638 21.7286 39.7672 33.4786s27.9194 22.5267 45.2474 23.8423c-5.986834 1.727889-12.349532 1.657714-18.2968-.2018-4.686994-1.641667-9.118578-3.937213-13.1634-6.8186-12.3238-8.2118-23.4668-18.133-36.0617-25.9218s-27.2445-13.46-41.9648-11.845c-2.2866.2509-4.6148.6739-6.865.196-2.5667-.714906-4.888631-2.119014-6.7139-4.06-2.48-2.3471-9-8.2039-6.9984-11.7349 1.824-3.2181 11.1312-3.9607 14.3418-4.2113 10.6082-.8276 21.4682 2.1528 30.7076 7.2765z" fill="#fff"/><path d="m409.2195 332.37665c-62.877716-85.04695-134.78229-163.033158-214.4557-232.5942005-20.3136-17.7315-41.44-35.1071-65.97-46.3021-39.7486-18.1404-84.9733-18.6286-128.6654-18.7966 10.927 85.0700005 72.049 161.5561005 146.25 204.5736005 76.6728 44.4507 136.8664 83.2607 209.1987 127.76 5.0816 3.1262 10.3422 6.32 16.2412 7.213 19.2423 2.9134 32.5255-18.1762 40.3213-36.0081-.1389-2.238-1.4215-4.0328-2.9201-5.8456z" fill="#3360ff"/><path d="m71.2413 137.34615c8.0706108-6.912574 15.4815874-14.559967 22.1374-22.8436 5.9361701-8.497019 11.06635-17.5295213 15.3238-26.9800005 3.174675-8.7230168 5.534032-17.7215019 7.0478-26.88.3098-4.089.436467-8.179.38-12.27-36.5775-13.1454-76.9682-13.5633-116.1303-13.7139 5.3993 42.0355 23.06 81.9716005 48.4928 116.8132005 7.9601772-4.071804 15.5690712-8.796553 22.7485-14.1257z" fill="#eab124"/><path d="m148.7345 221.36135c15.513447-12.992245 29.579212-27.621038 41.9529-43.6322 11.750734-16.316924 21.725767-33.841812 29.7555-52.2767.2436-.6456.47-1.2968.7082-1.9442-8.746667-8.019-17.585233-15.935934-26.5157-23.7508005-.9974-.8706-1.9974-1.7397333-3-2.6074-3.124008 11.4596095-7.23643 22.6265535-12.291 33.3752005-8.8026 18.8488-21.4354 36.4341-35.6567 51.5457-10.874312 11.577115-23.07586 21.831552-36.3519 30.5509 8.528866 6.792838 17.395646 13.150217 26.5664 19.0478 5.0784-3.2318 10.0225-6.6679 14.8323-10.3083z" fill="#eab124"/><path d="m329.2252 329.70495c14.511042-12.058557 27.686955-25.638648 39.3017-40.5073 1.162733-1.6378 2.303467-3.290167 3.4222-4.9571-27.972333-34.712534-57.489-68.1016-88.55-100.1672-10.253613 18.914744-22.170645 36.879175-35.61 53.6806-11.245052 14.253385-23.863664 27.367143-37.6739 39.1522-.0525.0445-.1054.0884-.1578.1329 35.24 21.3623 68.4046 42.1311 103.2043 63.7735 5.5135-3.4597 10.8669-7.179 16.0635-11.1076z" fill="#eab124"/><path d="m283.6341 138.82615c.1444-1.67 1.2916-3.6436 2.94-3.3434.70091.18382 1.304115.630494 1.6844 1.2473 1.7653 2.4831 1.4484 5.81 1.7024 8.8463s1.7861 6.5757 4.8163 6.8919c2.0575.2148 3.9834-1.264 4.9815-3.0761.869163-1.881354 1.419628-3.894071 1.6289-5.9559.05901-.56968.240453-1.119874.5319-1.6129 1.0363-1.503 3.5965-.8591 4.5748.6822s.9027 3.4934.9718 5.3177.44 3.8593 1.93 4.9142c1.7247 1.2209 4.2615.5 5.7231-1.0257 1.338417-1.645738 2.268573-3.584725 2.7145-5.6586 2.2239 1.8436 3.1378 4.7914 4.74 7.1951s4.79 4.3893 7.2789 2.9231c1.9946-1.175 2.9651-4.2578 5.2789-4.1836.857651.094894 1.656276.482868 2.261 1.0984 1.9614 1.7352 3.2318 4.2005 5.3865 5.689s5.8828 1.2729 6.5989-1.2461c.7059-2.483-2.0166-4.5766-2.616-7.0875-.4886-2.0462.4854-4.1143 1.0769-6.1332s.62-4.5963-1.1142-5.7871c-.971023-.472741-1.98977-.840393-3.0389-1.0967-4.13-1.68-4.6019-8.1827-8.8-9.6854-2.89-1.0345-5.9261.8854-8.3957 2.7082.015224-2.679888-1.69695-5.06478-4.241-5.9073-2.550253-.750411-5.307161-.088956-7.2393 1.7369-.8981.8361-1.781 1.9536-3.0081 1.9383-2.3546-.0294-2.5127-3.6806-4.3338-5.1734-2.8039-2.2985-6.6969 1.8021-10.313 1.514-3.97-.318-6.345-5.0459-10.5624-2.5412-2.5845-3.9787-3.2139-10.2333-9.5153-6.5275-3.5706 2.1-3.9539 6.6692-4.07 10.3913-.1357 4.3439-.0355 11.611 2.2586 15.388 3.5081 5.7757 7.66 3.4391 8.1684-2.4403z" fill="#000"/><path d="m298.6035 382.43695c2.5522 5.5442 7.9128 9.1757 13.0642 12.4491 19.320802 12.277227 39.267261 23.540951 59.7585 33.7455-9.1566-7.6192-17.6838-16.6287-21.7252-27.8343s-2.6917-24.9824 5.8287-33.307c-16.015753-9.987255-31.249592-21.176855-45.57-33.4722 6.7093 5.761-1.1929 17.4766-4.7888 21.8047-5.9714 7.1881-10.8357 17.3421-6.5674 26.6142z" fill="#ba3500"/><path d="m397.2876 269.34295c3.7971 1.6342 6.778 5.5091 9.5077 9.2446 10.2356 14.0072 19.912467 28.5296 29.0306 43.5672-5.9743-6.5405-12.731-12.5258-20.2558-14.98s-15.9307-.6673-19.9787 6.27c-8.268679-11.503131-17.274609-22.45795-26.9611-32.7955 4.4887 4.7826 10.7327-1.8715 12.949-4.8441 3.6807-4.9368 9.3581-9.1952 15.7083-6.4622z" fill="#ba3500"/><path d="m270.3362 134.53315c4.8668 17.2863 16.3028 32.3759 30.7427 43.0526 12.6635 9.3632 27.635 15.5852 39.109 26.3732 14.1556 13.3092 21.7662 32.4319 35.9367 45.7251 11.1931 10.5 25.8547 16.7593 36.9275 27.3862 11.9584 11.4768 19.4759 27.7816 33.82 36.0854 1.430536-2.796398 1.245273-6.146303-.4849-8.7679 2.282449.007329 4.407404 1.164802 5.6515 3.0784.885176-2.835707 1.002224-5.855485.3392-8.7512 1.264708 1.770791 3.123739 3.028044 5.2381 3.5425.498131-3.014645.382968-6.0988-.3386-9.0679 1.489971 1.60071 3.303033 2.866591 5.3191 3.7138.35735-2.112419.061033-4.283592-.8493-6.223 1.464163 1.583447 3.420314 2.625832 5.5512 2.9581l-13.3071-37.4209c-3.1876-8.9636-6.3752-17.9274-9.6433-26.862-11.598-31.7071-24.3337-63.2853-42.8161-91.5389-15.515096-23.698388-34.825729-44.6809422-57.1573-62.1060005-7.9456-6.1952-16.8136-12.13-26.8662-12.8119-39.0968-2.6518-56.141 39.7781005-47.1722 71.6344005z" fill="#3360ff"/><path d="m165.258 95.4410495c-14.228786.8880701-26.424114 10.4865655-30.6307 24.1083005 2.7911.9215 5.4042-1.5948 7.5057-3.65 5.5953-5.4717 14.43-9.1742 21.19-5.23-11.264517 2.038424-20.743856 9.615158-25.2144 20.1536-.5244 1.2727-.9092 2.9009.0477 3.8905 1.3917 1.4392 3.751-.0224 5.1485-1.4561 6.6765-6.8491 14.6449-14.4 24.1684-13.5118-8.286145 4.625053-15.073639 11.527413-19.559 19.89-.517685.768481-.754337 1.692059-.67 2.6148.3455 1.6756 2.6547 2.2357 4.1913 1.4837s2.4854-2.3013 3.4587-3.7082c4.575402-6.568999 11.233679-11.401792 18.8972-13.7162-1.9139 3.8872-5.5987 6.5341-8.5336 9.7216-3.182058 3.4631-5.516677 7.617661-6.82 12.1365-.6124 2.1318-.7732 4.8868 1.0825 6.1017 2.603 1.7042 5.6183-1.3895 7.3336-3.9853 4.755395-7.190222 10.704912-13.514638 17.5915-18.7 7.1959-.7128 16.5527 1.0936 22.215 5.5912s10.1859 10.2326 15.0527 15.5809c34.559 37.9792 89.328 56.3932 139.812 47.0066 2.89-.5375 6.3732-1.7794 6.7393-4.6964.2721-2.1686-1.5372-4.1519-3.599-4.8768s-4.317-.51-6.4975-.3611c-21.3307 1.4537-42.4142-4.3489-63.0072-10.0971-7.9671-2.2239-15.9866-4.4676-23.412-8.1122-13.8035-6.7756-24.8221-18.0031-35.5521-29.0172-8.970133-9.207867-17.9403-18.4157-26.9105-27.6235-4.4418-4.5595-8.9278-9.156-14.2326-12.6742-9.3883-6.2268005-18.5402-7.3502005-29.7955-6.8633005z" fill="#fff"/><path d="m291.8982 95.1889495c5.245681 4.8232325 11.561328 8.3324205 18.4276 10.2390005 1.484976.504724 3.065804.662728 4.6213.4619 2.44-.4665 4.2741-2.4032 6.2223-3.9443 7.422199-5.6609648 17.525129-6.2889041 25.5912-1.5906 3.7777 2.2908 7.0767 5.7752 11.4437 6.4446 2.2524.3453 4.5783-.1136 6.8186.3029 5.5019 1.0229 8.7557 6.9667 9.4153 12.5239s-.4651 11.2064.1429 16.77c1.1176 10.2247 7.8163 21.2145 2.3362 29.9187-2.7573 4.3794-8.1392 6.6552-13.3141 6.597s-10.1421-2.1676-14.4878-4.9779c-4.1013-2.6522-7.9488-6.0265-12.717-7.0839-6.1836-1.3713-12.4106 1.4325-18.4807 3.241s-13.6027 2.2538-17.78-2.507c-.896434-1.257049-1.871516-2.456112-2.9194-3.59-4.0083-3.54-10.3126-.8769-15.565-1.8825-14.3606-2.7495-15.4473-30.1573-15.61-41.5108-.0982-6.8549 1.03-16.5089005 4.683-22.3853005 6.2489-10.054 14.8438-2.858 21.1719 2.9733z" fill="#131a59"/><path d="m330.3952 138.52085c-.531713 4.170784.99453 8.340107 4.0933 11.1819 2.111719 1.762246 4.575632 3.052896 7.2267 3.7855 6.337 1.9967 13.5775 2.26 19.333-1.0594s9.2636-10.9076 6.53-16.9636c-1.274324-2.782695-3.626493-4.926761-6.515-5.9386-2.301511-.86957-4.867445-.695028-7.03.4782-2.1597 1.252491-3.259971 3.759086-2.72 6.1966.4758 1.67 1.801 2.9328 2.8651 4.3054s1.9246 3.1914 1.2812 4.8047c-.56899 1.136937-1.567572 2.000279-2.7748 2.399-1.990256.891485-4.249352.973329-6.2989.2282-2.060396-.799559-3.451601-2.743524-3.5437-4.9517.0416-3.9428 4.9575-7.2086 3.5994-10.91-3.2855-8.9565-15.2633.7244-16.0463 6.4438z" fill="#000"/><path d="m313.701 65.1696495c1.146304-.1046253 2.300473.0817286 3.3556.5418 1.068856.4922434 1.718929 1.5972084 1.63 2.7706-.2673 1.6548-2.2253 2.3413-3.8547 2.7349-4.7176 1.1395-9.6872 2.7424-12.6783 6.5644-2.034 2.5992-3.2163 6.6537-6.7193 7.7083-2.7363.8238-4.9455-.7088-4.8042-3.5433.2973-5.9645 7.3-11.4081 12.0954-13.8775 3.397712-1.7697071 7.147059-2.7601043 10.9755-2.8992z" fill="#000"/><path d="m332.8509 71.8361495c1.234484-.1061328 2.475787.1010319 3.6089.6023 1.147606.5360475 1.840933 1.7291207 1.7385 2.9916-.2971 1.78-2.4087 2.5074-4.1648 2.9218-5.0845 1.2-10.443 2.8966-13.6844 6.9936-2.2043 2.7861-3.5 7.1436-7.2766 8.2588-2.95.8711-5.3194-.7913-5.1511-3.8414.354-6.4185 7.9227-12.2381 13.0987-14.8687 3.667453-1.8855782 7.708993-2.9302267 11.8308-3.058z" fill="#000"/><path d="m318.4805 66.6422495c-.7933 1.1492-2.5677 1.6976-4.1114 2.0284-5.5563 1.1906-11.4034 2.89-14.8794 7.0768-2.3639 2.847-3.7 7.3181-7.8222 8.4328-.0617.0167-.119.017-.18.0318.969057 1.3025956 2.694671 1.7878347 4.2006 1.1812 3.503-1.0545 4.6853-5.1091 6.7193-7.7082 2.991-3.8221 7.9607-5.4249 12.6783-6.5645 1.6294-.3936 3.5874-1.08 3.8547-2.7349.080963-.6189387-.084171-1.2449342-.4599-1.7434z" fill="#fff"/><path d="m337.6059 73.5255495c-.8475 1.2194-2.747 1.7989-4.4 2.1476-5.9491 1.255-12.2085 3.05-15.9241 7.4917-2.5269 3.02-3.95 7.7677-8.3631 8.9447-.0661.0175-.1274.0178-.193.0334 1.044642 1.3868328 2.887765 1.9037115 4.5012 1.2623 3.75-1.1141 5.0091-5.4194 7.183-8.1769 3.1968-4.055 8.5167-5.7491 13.5675-6.9513 1.7444-.4152 3.84-1.141 4.1237-2.8985.085382-.6587772-.092565-1.3246414-.4952-1.853z" fill="#fff"/><path d="m54.6508 363.43525c.3089 4.1855.84 8.2977 1.5386 12.35-.8738693-9.743317-.4312899-19.559949 1.3158-29.1851-1.9670835 5.313942-2.9476542 10.942319-2.8935 16.6084.0106.0776.0335.1461.0391.2267z" fill="#ffee9c"/><path d="m431.2978 375.13855c14.1563 16.427 14.2667 47.5289-2.0827 62.6437-9.2027 8.5078-21.3626 13.0755-32.86 17.5412-13.355177 5.301041-27.22016 9.214431-41.3761 11.6784-13.180946 2.08789-26.502423 3.163367-39.8476 3.217-15.8908.1949-31.7645.8607-47.6517 1.2188-10.781.243-21.5275.2078-32.2241-.3035 8.0077 1.093 16.009 2.3507 24.0248 3.2152.4442-.2049.9663.3388 2.7768.357.2988.003.8386-.122 1.0937.0294 20.6952 1.7881 41.657-.644 62.1991-3.0559 21.1-2.4773 42.2847-4.0465 62.6071-10.6539 19.3353-6.2865 39.151-16.3085 54.4964-29.8009 7.6571-6.7325 13.98-14.495 14.6579-25.0426.5667-8.8156-1.993-17.5822-4.0362-26.0641-.2861-1.03074.035804-2.134611.8311-2.85-11.4293-12.6623-26.7008-21.6826-42.4754-28.4555-8.2788 10.9396-16.5575 21.8792-24.8361 32.8188-1.7243 2.2785-3.5472 5.002-2.8273 7.7672.5186 1.9918 2.2334 3.4059 3.8518 4.6775 9.74 7.6535 17.15 7.2959 26.89 14.9493 1.3866-3.247 6.8529-2.2463 8.3329.9592s.2029 6.9777-1.3869 10.13c-8.08 16.023-23.8515 27.1305-40.7584 33.146s-35.0493 7.4973-52.9669 8.4932c-60.4961 3.3626-122.495 1.49-180.2085-15.9384 13.4816 6.2729 28.3752 10.2578 42.1178 13.4687 26.8092 6.2639 54.2173 6.7763 81.6138 6.0606 14.0217-.3662 28.0371-.9956 42.0642-1.1081 13.414071.047802 26.811027-.962228 40.0663-3.0207 12.56366-2.131693 24.895037-5.458327 36.8262-9.9346 11.5214-4.292 24.1923-8.62 33.6518-16.755 14.7395-12.6756 15.7391-40.5876 3.1935-55.1454-2.5099-2.9127 1.7178-7.1725 4.2427-4.2426z" fill="#ffee9c"/><path d="m420.8011 466.84275c15.615118-5.87369 29.939579-14.726745 42.1764-26.0666 3.103482-2.927235 5.773902-6.281869 7.9307-9.9627 3.1375-15.2423-1.1743-31.9124-9.9826-45.0763 1.78 7.61 3.1973 15.3834 2.2124 23.15-1.3155 10.3745-7.3014 18.4358-14.8423 25.33-15.03 13.7407-34.3834 23.9362-53.4493 30.799-20.8808 7.5159-42.485 9.4015-64.3525 12.0044-5.5852.6648-11.2 1.3476-16.8313 1.9673 35.8096 1.4542 73.1018.523 107.1385-12.1451z" fill="#ffee9c"/><path d="m60.7452 388.64425c1.54 3.853933 3.2010667 7.637633 4.9832 11.3511-.1231508-.854184-.1134697-1.722275.0287-2.5735-1.8841946-2.798648-3.5593735-5.732476-5.0119-8.7776z" fill="#ffee9c"/><path d="m58.08 382.25945c-.6931-1.95-1.2979-3.9254-1.7918-5.9217.316 1.784266.6696333 3.555066 1.0609 5.3124.2756661.161262.5226555.36716.7309.6093z" fill="#ffee9c"/><path d="m96.234 434.14695c-3.4391-2.7967-15.9431-12.2951-23.8625-21.8642 5.3277474 8.934551 11.8149823 17.12438 19.2926 24.356 5.334744 3.792068 10.865468 7.300592 16.5692 10.511 7.2386 4.1234 14.6113 7.914366 22.1181 11.3729-11.856923-7.424856-23.250495-15.565168-34.1174-24.3757z" fill="#ffee9c"/><path d="m160.489 462.56245c11.7085 5.3858 12.5337 4.5507 24.9329 7.92 4.7222.22 11.27.53 13.7272.3295 4.214425-.236334 8.411861-.713782 12.5717-1.43-9.928139-1.24228-19.768039-3.10952-29.4611-5.5906-20.324-5.26-42.5886-12.4337-58.9523-26.3143-.6575-.2593-1.3187-.5063-1.9748-.77-4.916-1.9775-9.8053-4.1245-14.591-6.4727 16.9016 12.3752 34.6871 23.5606 53.7474 32.3281z" fill="#ffee9c"/><path d="m95.4475 424.00975c-2.4038-1.4276-4.7641-2.9184-7.055-4.4983 2.033 1.8888 4.1145 3.7382 6.22 5.5666.2006368-.410529.4850842-.774451.835-1.0683z" fill="#ffee9c"/><path d="m159.7565 468.59205c-1.545-.6882-3.0814-1.393034-4.6092-2.1145 4.1733 2.2759 8.4023 4.4624 12.6783 6.517 4.3796 1.381866 8.788367 2.672633 13.2263 3.8723-7.204467-2.410067-14.302933-5.168334-21.2954-8.2748z" fill="#ffee9c"/><path d="m419.1142 473.79735c-17.6683 6.0235-36.7089 8.7663-55.204 10.8736-20.5241 2.3383-40.8991 0-61.4416-.0754-13.4822-.05-24.5415-2.2007-40.9249-4.1109-21.0023-2.07-42.27-7.7979-63.4609-4.9308-.210048.027469-.422205.035236-.6337.0232 11.003096 2.921758 22.195631 5.076665 33.497 6.4492 1.101995.160915 2.050959.861253 2.529583 1.86684.478625 1.005587.423747 2.183719-.146283 3.14046 54.0353 6.7229 110.2379 2.9216 163.9684-6.6864 24.4992-4.3809 51.7287-12.1607 65.7166-31.63-13.012195 10.923295-27.882075 19.418462-43.9002 25.0802z" fill="#ffee9c"/><path d="m411.1192 330.97445.0216.16c.0227.6024.0207 1.1981.0125 1.792 4.834135 1.09316 9.347074 3.297638 13.1809 6.4386-3.7216-3.6202-8.4099-7.433-13.215-8.3906z" fill="#eab124"/><path d="m454.473 416.42615c.3484-1.1-.283-2.2475-.89-3.2287l-8.2926-13.3991 12.0944 9.5205c-.498244-7.232113-2.601385-14.262395-6.1566-20.58 2.959262 2.037674 6.427443 3.211128 10.016 3.3889-3.183334-6.835509-7.772619-12.922729-13.4682-17.8642 2.979226 2.202112 6.524982 3.508354 10.2208 3.7653-5.715812-7.490244-12.867906-13.765473-21.0379-18.4586 1.626667.468266 3.253533.936666 4.8806 1.4052l-31.1811-22.8246c-.563717 3.199207-1.621203 6.291372-3.1346 9.1658-3.827997 10.271371-11.929611 18.372949-22.201 22.2009-4.53399 2.388812-9.582812 3.634094-14.708118 3.6276-.028482 3.5681 1.157618 7.3062 4.035418 11.2445.8932-1.7035 2.51-2.7479 3.3806-4.0942 1.0157 1.5824 9.9213 13.256 9.4892 14.3358 1.424133-3.559 2.848167-7.117967 4.2721-10.6769 2.167935 5.558375 5.212974 10.733241 9.0192 15.3276l2.5206-9.0316c2.300683 6.559475 6.338131 12.371748 11.682 16.8173 1.288082-2.560172 2.182227-5.300154 2.6522-8.1273 4.530444 7.041429 9.965044 13.458107 16.1647 19.0858.9478-2.8862 1.895667-5.772434 2.8436-8.6587 8.933505 12.522075 16.106477 26.210787 21.3182 40.6831 1.777662-11.317638-.288687-22.904546-5.869-32.91.392094.277118.89023.357525 1.349601.217846.459372-.139678.828433-.48377.999899-.932246z" fill="#eab124"/><path d="m410.229 368.51555c.719055 3.377548 2.451105 6.455468 4.965 8.823-.087618-1.815434.053219-3.634682.4192-5.415.802879 3.727317 2.833203 7.077445 5.7659 9.514l.5849-2.4811c.910423 3.429257 2.940315 6.456109 5.7674 8.6l.954-3.9272 18.3711 26.4822c-4.8523-11.5685-4.2075-25.6115-12.1892-35.29-4.6415-5.6281-15.97-12.542-23.6308-11.9982-4.4047.3127-4.9578 3.3271-5.0989 7.7928-.0122-1.3808.1365-2.7907.2011-4.1689.526547 2.870532 1.694568 5.58509 3.4169 7.9411-.6251-2.1021.8227-4.2128.4734-5.8727z" fill="#ba3500"/><circle cx="71.9559" cy="332.94415" fill="#3360ff" r="11.621"/><g fill="#ffee9c"><path d="m123.9398 277.13315 1.093 1.093c.594864.563426 1.526436.563426 2.1213 0l.2346-.3036c.134488-.229582.205193-.490928.204802-.757l-.053602-.3988c-.069108-.250322-.202048-.478402-.3858-.6619l-1.093-1.093c-.594864-.563427-1.526436-.563427-2.1213 0l-.2346.3036c-.13447.22962-.205141.491002-.204702.7571l.053502.3987c.069082.250332.202026.478417.3858.6619z"/><path d="m231.8766 360.68695 8.8189 14.1627c.7638 1.2266 2.7112.0982 1.9429-1.1357l-8.819-14.1626c-.7638-1.2266-2.7111-.0983-1.9428 1.1356z"/><path d="m232.7899 371.18155 10.8405-8.3144c.519656-.326154.696354-1.000021.4036-1.5392-.316128-.533131-1.002145-.713014-1.5392-.4036l-10.8406 8.3144c-.519613.326185-.696301 1.000014-.4036 1.5392.316167.533142 1.002215.713022 1.5393.4036z"/><path d="m488.9025 139.96105-6.86 17.8661c-.5194 1.3529 1.6551 1.9383 2.17.5982l6.86-17.8661c.5194-1.3529-1.6551-1.9384-2.17-.5982z"/><path d="m480.4315 147.28315 13.7728 4.7135c1.3729.47 1.9624-1.7028.5981-2.17l-13.7727-4.7134c-1.373-.47-1.9625 1.7027-.5982 2.17z"/><path d="m184.9071 5.2253495 8.3481 22.3954c.5013 1.3447 2.6769.7627 2.17-.5982l-8.3478-22.3953c-.5013-1.3448-2.6769-.7628-2.17.5981z"/><path d="m184.0131 23.6498495 18.6929-13.5818c1.16-.843.0385-2.7959-1.1357-1.9428l-18.6928 13.5818c-1.16.8429-.0385 2.7959 1.1356 1.9428z"/><path d="m178.6274 13.8988495 23.0387 6.4712c.591928.1454357 1.192106-.2065921 1.354068-.7942138.161961-.5876217-.173114-1.197426-.755968-1.3757862l-23.039-6.4708c-.59124-.1436488-1.189655.2083669-1.351351.7949278-.161696.586561.17182 1.1954805.753151 1.3750722z"/><path d="m475.7196 2.9261495-7.2768 9.7024c-.309471.5370473-.129577 1.223107.4036 1.5392.538504.2982318 1.216322.1204983 1.5392-.4036l7.2768-9.7024c.309471-.53704726.129577-1.22310696-.4036-1.5392-.538504-.29823175-1.216322-.12049832-1.5392.4036z"/><path d="m467.5328 1.6918495 7.9842 14.609c.6946 1.271 2.6382.1368 1.9428-1.1356l-7.9846-14.6091c-.6947-1.271-2.6382-.1368-1.9428 1.1356z"/><path d="m464.2639 8.6217495 16.1707 4.8512c.59124.1436488 1.189655-.2083669 1.351351-.7949278.161696-.586561-.17182-1.1954805-.753151-1.3750722l-16.1708-4.8508c-.591138-.1433578-1.189272.20868074-1.350898.79508737-.161627.58640663.171687 1.19517273.752798 1.37491263z"/><path d="m6.0883 201.85285-.3707.3707c-.42253543.446171-.42253543 1.144828 0 1.591l.2277.1759c.1721844.100914.36822298.153945.5678.153601l.2991-.040001c.18774073-.051788.35879889-.15148.4964-.2893l.3707-.3707c.42243485-.446212.42243485-1.144789 0-1.591l-.2277-.1759c-.17218061-.100924-.3682217-.153956-.5678-.153602l-.299.040002c-.18777115.051784-.35886243.151475-.4965.2893z"/><path d="m35.4386 174.40835.3735 1.1112c.089373.277159.2720839.514753.517.6723.1250585.080967.2694615.127087.4183.1336.1486397.033474.3035289.026569.4486-.02l.2687-.1135c.1668414-.097752.3058067-.236683.4036-.4035l.1134-.2688c.0536012-.195764.0536012-.402337 0-.5981l-.3734-1.1112c-.0894047-.277169-.2721055-.514786-.517-.6724-.1250874-.080893-.2694786-.126975-.4183-.1335-.148631-.033573-.3035463-.026667-.4486.02l-.2688.1134c-.1667924.097825-.305716.236783-.4035.4036l-.1135.2688c-.0534984.195777-.0534984.402322 0 .5981z"/><path d="m33.9459 205.25615c.6058819-.021377 1.0860076-.518742 1.0860076-1.125 0-.606259-.4801257-1.103624-1.0860076-1.125-.6058819.021376-1.0860076.518741-1.0860076 1.125 0 .606258.4801257 1.103623 1.0860076 1.125z"/><path d="m34.3324 462.72475 8.6021 12.4038c.3236269.523085 1.0005396.700582 1.5392.4036.531888-.317112.7114656-1.002008.4036-1.5393l-8.6021-12.4038c-.3236269-.523086-1.0005396-.700583-1.5392-.4036-.531888.317111-.7114656 1.002007-.4036 1.5393z"/><path d="m36.0315 473.41615 11.6916-10.9746c1.058-.9931-.5354-2.5819-1.591-1.591l-11.6916 10.9748c-1.058.9931.5354 2.5818 1.591 1.591z"/><path d="m29.61 467.24775 19.0952 3.3012c1.4162.2449 2.0244-1.923.5981-2.17l-19.0951-3.3008c-1.4162-.2449-2.0245 1.923-.5982 2.17z"/><path d="m505.3963 467.05975 1.2044 1.2044c.446211.422434 1.144789.422434 1.591 0 .21033-.211413.328739-.497283.3295-.7955-.005001-.297353-.122779-.581701-.3295-.7955l-1.2044-1.2043c-.446111-.422687-1.144889-.422687-1.591 0-.210333.211369-.328745.49721-.3295.7954.004981.297356.122762.581712.3295.7955z"/></g><path d="m395.5152 221.00235c17.0268 21.8114 34.0406 43.711 48.84 67.19 7.266381 11.820722 13.783207 24.08613 19.512 36.7238 5.744754 12.637471 10.332578 25.769495 13.7072 39.235 1.668252 6.740887 2.775369 13.608359 3.31 20.532.552501 6.927383.268319 13.896104-.8464 20.7555-1.130991 6.856062-3.287904 13.502741-6.3982 19.7165-3.110919 6.210492-7.361013 11.781195-12.5291 16.4222 5.111368-4.684266 9.296966-10.287327 12.3389-16.5175 3.032955-6.21649 5.112568-12.854233 6.1689-19.69 1.038093-6.828932 1.249617-13.758065.63-20.6376-.602003-6.877721-1.772672-13.693757-3.5-20.3782-3.496228-13.367905-8.196545-26.391518-14.0433-38.9111-5.831866-12.52196-12.444346-24.665325-19.7984-36.3584-14.2562-23.6818-30.8146-45.9276-47.3916-68.0822z" fill="#fff"/><path d="m418.5912 214.94215 6.041 6.441 3.022 3.222 2.87 3.357 5.743 6.718 5.433 6.972 2.719 3.489 2.558 3.606 5.119 7.216 4.794 7.438 2.398 3.721 2.231 3.822 4.324 7.725 3.979 7.907 1.989 3.952 1.815 4.036 3.628 8.07 3.27 8.221 1.635 4.109 1.453 4.177 2.906 8.352 2.536 8.471 1.268 4.234 1.079 4.287 2.158 8.571 1.775 8.658.886 4.328.692 4.364 1.383 8.725.986 8.778.492 4.388.291 4.406.581 8.81-.687-8.802-.343-4.399-.545-4.38-1.091-8.757-1.486-8.697-.743-4.348-.937-4.31-1.875-8.618-2.256-8.526-1.128-4.261-1.315-4.208-2.629-8.414-2.997-8.29-1.498-4.143-1.678-4.075-3.355-8.146-3.709-7.991-1.854-3.995-2.027-3.91-4.053-7.817-4.393-7.631-2.127-3.855-2.295-3.757-4.593-7.518-4.924-7.307-2.463-3.656-2.624-3.54-5.252-7.085-5.569-6.84-2.786-3.422-2.939-3.29z" fill="#fff"/><path d="m442.6402 186.52215 17.981 38.009 33.634 77.063-35.185-76.367z" fill="#fff"/><path d="m29.9112 146.53315 6.447 10.268 3.223 5.132 3.375 5.035 6.748 10.066 7.045 9.861 3.521 4.928 3.665 4.823 7.33 9.644 7.61 9.423 3.804 4.71 3.941 4.596 7.76 9.296 8.029 9.064 4.015 4.533 4.146 4.413 8.293 8.828 8.548 8.581 4.274 4.291 4.399 4.164 8.797 8.33 9.038 8.068 4.52 4.034 4.636 3.9 9.273 7.801 9.499 7.524 4.751 3.763 4.859 3.62 9.72 7.242 9.932 6.95 4.966 3.475 5.068 3.326 10.137 6.651-10.196-6.563-5.098-3.281-4.998-3.433-9.996-6.866-9.789-7.16-4.895-3.58-4.787-3.724-9.574-7.448-9.351-7.728-4.677-3.864-4.56-4-9.122-8-8.885-8.265-4.442-4.133-4.32-4.261-8.64-8.523-8.388-8.773-4.194-4.387-4.064-4.508-8.129-9.016-7.861-9.251-3.869-4.677-3.731-4.789-7.46-9.575-7.174-9.79-3.585-4.894-3.44-4.998-6.878-9.993-6.577-10.193-3.288-5.095-3.134-5.192z" fill="#fff"/><path d="m97.9852 32.6068495c13.25881 4.236285 26.29431 9.1420824 39.0563 14.6985 25.187661 11.8876882 49.100747 26.3067059 71.37 43.0344-22.557881-16.2380313-46.709063-30.1392531-72.0806-41.489-12.499132-6.0592661-25.297464-11.4808601-38.3457-16.2439z" fill="#fff"/><path d="m168.2442 288.23215 64.533 43.819 127.609 89.733-128.58-88.336z" fill="#fff"/></g></svg>