<svg xmlns="http://www.w3.org/2000/svg" width="600" height="600" viewBox="0 0 600 600"><defs><style>.cls-1{fill:#131a59;}.cls-2{fill:#fff;}.cls-3{fill:#eab124;}.cls-4{fill:#ff8b78;}.cls-5{fill:#71e289;}.cls-6{fill:#ba3500;}.cls-7{fill:#ffee9c;}.cls-8{fill:#3360ff;}.cls-9{fill:#7f0f04;}</style></defs><title>bg-team-management</title><g id="Camada_99" data-name="Camada 99"><polygon class="cls-1" points="565.187 553.925 449.475 527.889 343.923 557.889 238.368 527.889 132.808 557.889 37.406 531.852 12.248 445.736 42.248 348.584 12.248 251.429 42.248 154.27 17.09 46.075 132.802 72.111 238.354 42.111 343.909 72.111 449.469 42.111 544.87 68.148 570.028 154.264 540.028 251.416 570.028 348.571 540.047 446.471 565.187 553.925"/><path class="cls-2" d="M288.032,141.418c1.3483-.8127,3.869-6.0139,5.2173-6.8267,5.0306,5.6089,8.9618,15.7149,12.1432,22.5446s4.2148,15.0608.94,21.8463c-6.1538-4.6155-3.9727-15.3129-9.71-20.4368-1.3842-1.2361-3.3677-2.04-5.1088-1.3972-1.6459.6073-2.6018,2.2836-3.42,3.8352l-3.0483,5.7782a13.4479,13.4479,0,0,0-1.9445,5.5254c-.1707,3.9149,3.085,7.1857,6.5852,8.9474s7.447,2.57,10.811,4.58a44.27,44.27,0,0,1-19.3016-.7218c-4.2157-1.1134-8.9-3.6746-9.2424-8.0214-.1752-2.2211.8715-4.3267,1.6631-6.4094a29.8371,29.8371,0,0,0,1.2287-16.9542,36.8358,36.8358,0,0,1-30.0617,20.8089,62.99,62.99,0,0,0,20.7179-22.5414,62.2814,62.2814,0,0,1-18.015,12.502c-4.2005,1.9226-9.9393,3.0355-12.8021-.59,9.7461-.0685,17.4948-7.8671,23.83-15.2732,3.8376-4.4861,7.84-10.3376,5.6542-15.8218-.9252,9.992-12.6877,17.3925-22.2329,14.2966,6.6135-2.058,12.072-6.9627,15.9206-12.7214s6.2374-12.3591,8.2585-18.9841c.8466-2.7752,1.6435-5.6714,1.2275-8.543-.5722-3.95-.8272-8.96-1.2679-12.9267-.7252-6.5266-2.42-14.4091-3.082-17.5856-3.523-16.8955-5.5664-21.429-9.5179-36.7226q10.5264-1.692,21.1594-2.5963a5.5718,5.5718,0,0,1,3.6847.5458,5.36,5.36,0,0,1,1.76,3.1492c1.88,6.8575,2.4472,13.9948,3.0979,21.0756q3.6966,40.2249,11.3425,79.9554l-1.27-7.1431"/><path class="cls-2" d="M275.73,139.9307l3.6975,4.0805a5.0354,5.0354,0,0,0,7.0711,0,5.1129,5.1129,0,0,0,0-7.071l-3.6976-4.0806a5.0353,5.0353,0,0,0-7.071,0,5.1128,5.1128,0,0,0,0,7.0711Z"/><path class="cls-2" d="M335.6967,188.7709c13.7315-3.2983,23.1244,8.9592,29.7867,18.9708.8872,1.3332,3.0534.0828,2.1587-1.2618-7.358-11.057-17.6419-23.715-32.61-20.12-1.5637.3756-.9016,2.7869.6646,2.4107Z"/><path class="cls-2" d="M335.0277,200.2042c8.9352-2.782,15.0817,5.1237,19.5074,11.5587.906,1.3172,3.0735.0684,2.1587-1.2618-5.097-7.411-12.2794-15.8372-22.3307-12.7076-1.5311.4768-.8776,2.8909.6646,2.4107Z"/><path class="cls-2" d="M323.5723,176.2853c5.9105-1.5087,12.1841-3.1064,18.2322-1.3772,5.5233,1.5791,11.89,6.0091,14.966,10.78.869,1.3477,3.034.0957,2.1587-1.2618-3.2839-5.0929-9.2667-9.2652-14.9027-11.3913-6.9188-2.61-14.2175-.9221-21.1188.8395a1.2511,1.2511,0,0,0,.6646,2.4107Z"/><path class="cls-2" d="M186.61,71.6865a40.4157,40.4157,0,0,0-1.8019-12.5421,8.3913,8.3913,0,0,0-2.673-4.1183c-1.98-1.4477-4.667-1.2847-7.1088-1.0584-6.21.5755-12.849,1.081-18.67,3.5165-5.72,2.3935-3.7981,6.1148-2.5355,11.1582a134.6575,134.6575,0,0,1,3.4766,41.7174,34.7621,34.7621,0,0,1-1.0342,7.05,9.2769,9.2769,0,0,0-.55,2.7761c.0039.1146.035.224.0486.3367-1.8709,15.9378-1.6164,21.08-4.5094,38.4928-.5465,3.29-1.8541,11.4718-3.5862,17.9945-1.0526,3.964-2.6715,8.86-3.5919,12.8563-.6692,2.9059-2.51,5.3844-4.3526,7.7285-4.4,5.5957-9.1428,11.0312-14.9714,15.1175s-12.882,6.7557-19.9836,6.2682c7.9939,6.5155,22.0152,3.7989,26.617-5.43.0546,6.067-5.9554,10.1851-11.3,13.0561-8.824,4.74-19.1477,9.33-28.5107,5.7719,1.3946,4.5382,7.3066,5.6058,12.0461,5.3258a64.0054,64.0054,0,0,0,21.9085-5.2793,64.7343,64.7343,0,0,1-28.2312,13.8928,37.8558,37.8558,0,0,0,36.5391-8.7585,30.6628,30.6628,0,0,1-7.4814,15.7867c-1.5328,1.7011-3.3187,3.3293-3.9767,5.5224-1.2878,4.292,2.2474,8.4875,5.8724,11.1218a45.4962,45.4962,0,0,0,18.2241,7.8686c-2.4757-3.1762-5.9565-5.4182-8.6549-8.4075s-4.6014-7.3337-2.9822-11.021a13.8163,13.8163,0,0,1,3.9176-4.5707l5.0689-4.4026c1.3613-1.1823,2.9-2.4329,4.7031-2.4026,1.907.0319,3.5086,1.5393,4.3751,3.2383,3.5918,7.0425-2.4756,16.4805,1.704,23.1907,5.66-5.2835,7.731-13.5538,7.2225-21.28s-.517-18.8706-3.2512-26.115l-1.4394,7.3158c.4417-2.4272.907-4.85,1.37-7.2733l.0694-.0425c-.02.0035-.0445.0141-.065.0186Q165.6067,188.9774,176,152.5821c2.01-7.026,4.12-14.0749,4.8686-21.3442a8.6034,8.6034,0,0,0-.0021-2.3388c.1162-.2389.2366-.4762.34-.7194a34.8786,34.8786,0,0,0,2.0651-9.56C185.132,103.0324,186.996,87.38,186.61,71.6865ZM151.0389,230.6883l3.7684-2.3A14.1877,14.1877,0,0,1,151.0389,230.6883Z"/><rect class="cls-3" x="147.4238" y="272.5932" width="27.8677" height="21.6463"/></g><g id="Camada_100" data-name="Camada 100"><path class="cls-3" d="M247.9752,490.4429c1.0744-2.5208-.0241-5.0065.9341-7.4832.5955-1.5389,1.3943-2.1971,1.4726-3.8834.0916-1.9744-2.3586-5.9735,1.1615-7.0043,1.4447-.423.6588-2.347-.7828-1.9248-4.1842,1.2252-3.3822,3.6816-3.0284,6.873a8.2714,8.2714,0,0,1-.6784,4.659,10.9085,10.9085,0,0,0-1.045,2.0812c-.3387,1.6009.649,3.373.138,4.94-.6906,2.1178-2.5148,4.02-4.1055,5.6873l-1.1091.031L252.27,421.1363c7.7343,3.3419,17.4833-1.4475,22.4085-7.1546,1.65,1.18,2.6062,3.2269,3.797,4.72.8626,1.0818,2.8133-.0817,1.9533-1.16-1.3686-1.7163-2.4277-4.02-4.405-5.2879a1.3154,1.3154,0,0,0-1.3946-.0173,1.0891,1.0891,0,0,0-1.5038.1636c-4.28,5.1314-13.5674,10.29-20.5213,6.5764l10.47-67.6736L297.79,371.46l3.3883,121.2754-17.538.49c3.7989-2.2589,2.1781-6.22,1.9006-10.1454-.2643-3.742,2.5015-5.4243,3.3174-8.7332.5746-2.33-.7612-4.1573-2.333-5.9557-.9132-1.0446-2.8671.1149-1.9532,1.16,4.2819,4.8987-.9739,6.941-1.4761,11.657-.379,3.5584,3.3954,9.1436-2.1482,10.931a.94.94,0,0,0-.7056,1.1808l-7.04.1967c3.1954-1.6775,3.7926-4.9854,3.991-8.5445.21-3.77,1.0953-5.6146,3.327-8.8457,1.5255-2.2086,1.1663-3.8541-.062-6.1524-.6322-1.183-2.8612-.4974-2.2241.6947,2.2159,4.1463-2.5957,6.6727-3.1726,10.7222-.521,3.6592.9945,9.9505-4.6629,10.9943a1.1469,1.1469,0,0,0-1.0078,1.2379l-17.4391.4872a4.3446,4.3446,0,0,0,1.459-2.9362c.4114-2.3269-.2534-3.4622,1.668-5.638.8406-.952,2.0664-1.5447,2.7635-2.6229a4.14,4.14,0,0,0,.5189-3.7311c-.324-1.5577-4.06-7.9622.1872-7.9641,1.5178-.0006,1.3156-2.039-.1932-2.0384-4.766.002-4.6375,3.4566-3.6477,6.5926.3881,1.23,1.2881,2.6576,1.3615,3.9423.1351,2.3691-1.7157,3.2677-3.2,4.9383-1.4448,1.6264-1.4587,7.6364-3.0979,8.3573a1.0527,1.0527,0,0,0-.668,1.18l-3.9269.11A13.8034,13.8034,0,0,0,247.9752,490.4429Zm30.4661-103.1268a1.1576,1.1576,0,0,0-1.0361-.3966,5.7759,5.7759,0,0,0-6.9286-.7628,5.3243,5.3243,0,0,0-1.83,7.5415,6.8292,6.8292,0,0,0,9.0113,1.9555C281.0082,393.6949,280.55,389.8286,278.4413,387.3161Z"/><path class="cls-3" d="M160.6942,490.4429c1.0744-2.5208-.0241-5.0065.9341-7.4832.5954-1.5389,1.3943-2.1971,1.4726-3.8834.0915-1.9744-2.3586-5.9735,1.1615-7.0043,1.4446-.423.6587-2.347-.7828-1.9248-4.1843,1.2252-3.3822,3.6816-3.0284,6.873a8.2714,8.2714,0,0,1-.6784,4.659,10.9085,10.9085,0,0,0-1.045,2.0812c-.3387,1.6009.6489,3.373.138,4.94-.6906,2.1178-2.5148,4.02-4.1055,5.6873l-1.1091.031,11.3373-73.2824c7.7342,3.3419,17.4833-1.4475,22.4085-7.1546,1.65,1.18,2.6062,3.2269,3.797,4.72.8626,1.0818,2.8133-.0817,1.9532-1.16-1.3685-1.7163-2.4276-4.02-4.4049-5.2879a1.3156,1.3156,0,0,0-1.3947-.0173,1.089,1.089,0,0,0-1.5037.1636c-4.28,5.1314-13.5674,10.29-20.5213,6.5764l10.47-67.6736L210.5093,371.46l3.3883,121.2754-17.538.49c3.7989-2.2589,2.178-6.22,1.9006-10.1454-.2643-3.742,2.5015-5.4243,3.3174-8.7332.5746-2.33-.7612-4.1573-2.333-5.9557-.9133-1.0446-2.8671.1149-1.9532,1.16,4.2819,4.8987-.9739,6.941-1.4761,11.657-.3791,3.5584,3.3954,9.1436-2.1482,10.931a.94.94,0,0,0-.7056,1.1808l-7.04.1967c3.1954-1.6775,3.7926-4.9854,3.9909-8.5445.21-3.77,1.0954-5.6146,3.3271-8.8457,1.5255-2.2086,1.1662-3.8541-.0621-6.1524-.6321-1.183-2.8611-.4974-2.224.6947,2.2159,4.1463-2.5958,6.6727-3.1726,10.7222-.521,3.6592.9945,9.9505-4.6629,10.9943a1.1469,1.1469,0,0,0-1.0078,1.2379l-17.4391.4872a4.3441,4.3441,0,0,0,1.4589-2.9362c.4115-2.3269-.2533-3.4622,1.6681-5.638.84-.952,2.0664-1.5447,2.7635-2.6229a4.14,4.14,0,0,0,.5189-3.7311c-.324-1.5577-4.06-7.9622.1871-7.9641,1.5179-.0006,1.3156-2.039-.1931-2.0384-4.766.002-4.6375,3.4566-3.6477,6.5926.3881,1.23,1.2881,2.6576,1.3615,3.9423.1351,2.3691-1.7157,3.2677-3.2,4.9383-1.4448,1.6264-1.4587,7.6364-3.098,8.3573a1.0528,1.0528,0,0,0-.6679,1.18l-3.9269.11A13.8034,13.8034,0,0,0,160.6942,490.4429ZM191.16,387.3161a1.1577,1.1577,0,0,0-1.0361-.3966,5.7759,5.7759,0,0,0-6.9286-.7628,5.3243,5.3243,0,0,0-1.83,7.5415,6.8292,6.8292,0,0,0,9.0113,1.9555C193.7272,393.6949,193.2693,389.8286,191.16,387.3161Z"/><path class="cls-3" d="M344.2994,488.91c1.0744-2.5208-.0241-5.0066.9342-7.4833.5954-1.5388,1.3942-2.1971,1.4725-3.8834.0916-1.9743-2.3585-5.9735,1.1615-7.0042,1.4447-.4231.6588-2.3471-.7828-1.9249-4.1842,1.2252-3.3821,3.6816-3.0283,6.8731a8.2716,8.2716,0,0,1-.6785,4.659,10.9114,10.9114,0,0,0-1.045,2.0812c-.3387,1.6009.649,3.3729.138,4.94-.69,2.1178-2.5147,4.0205-4.1055,5.6874l-1.1091.031,11.3373-73.2825c7.7343,3.3419,17.4833-1.4474,22.4085-7.1546,1.65,1.18,2.6062,3.2269,3.7971,4.72.8626,1.0819,2.8132-.0817,1.9532-1.16-1.3685-1.7164-2.4277-4.02-4.405-5.288a1.3152,1.3152,0,0,0-1.3946-.0172,1.089,1.089,0,0,0-1.5038.1636c-4.28,5.1314-13.5673,10.29-20.5212,6.5764L359.3974,349.77l34.7172,20.1574,3.3883,121.2754-17.538.49c3.7989-2.2588,2.178-6.2194,1.9006-10.1454-.2644-3.742,2.5014-5.4243,3.3173-8.7332.5746-2.33-.7611-4.1573-2.333-5.9556-.9132-1.0447-2.867.1148-1.9532,1.16,4.2819,4.8987-.9739,6.9411-1.4761,11.657-.379,3.5585,3.3954,9.1436-2.1482,10.931a.94.94,0,0,0-.7056,1.1809l-7.04.1967c3.1954-1.6776,3.7927-4.9854,3.991-8.5446.21-3.77,1.0953-5.6145,3.327-8.8457,1.5256-2.2086,1.1663-3.854-.062-6.1524-.6322-1.1829-2.8611-.4974-2.2241.6947,2.2159,4.1464-2.5957,6.6728-3.1725,10.7223-.5211,3.6591.9944,9.95-4.6629,10.9943a1.1469,1.1469,0,0,0-1.0079,1.2379l-17.4391.4872a4.3444,4.3444,0,0,0,1.459-2.9362c.4114-2.3269-.2534-3.4623,1.668-5.6381.8406-.952,2.0664-1.5447,2.7636-2.6228a4.14,4.14,0,0,0,.5189-3.7312c-.324-1.5576-4.06-7.9622.1871-7.964,1.5178-.0007,1.3156-2.0391-.1932-2.0384-4.766.002-4.6375,3.4565-3.6477,6.5926.3881,1.23,1.2882,2.6576,1.3615,3.9422.1352,2.3691-1.7157,3.2678-3.2,4.9384-1.4447,1.6264-1.4587,7.6363-3.0979,8.3573a1.0527,1.0527,0,0,0-.668,1.18l-3.9268.11A13.8078,13.8078,0,0,0,344.2994,488.91Zm30.4661-103.1269a1.1575,1.1575,0,0,0-1.036-.3966,5.776,5.776,0,0,0-6.9287-.7628,5.3245,5.3245,0,0,0-1.83,7.5416,6.83,6.83,0,0,0,9.0114,1.9554C377.3324,392.1618,376.8745,388.2955,374.7655,385.7829Z"/><path class="cls-3" d="M447.1859,488.91c1.0743-2.5208-.0241-5.0066.9341-7.4833.5954-1.5388,1.3943-2.1971,1.4726-3.8834.0915-1.9743-2.3586-5.9735,1.1614-7.0042,1.4447-.4231.6588-2.3471-.7827-1.9249-4.1843,1.2252-3.3822,3.6816-3.0284,6.8731a8.2724,8.2724,0,0,1-.6784,4.659,10.906,10.906,0,0,0-1.0451,2.0812c-.3387,1.6009.649,3.3729.138,4.94-.69,2.1178-2.5147,4.0205-4.1055,5.6874l-1.1091.031L451.48,419.6031c7.7343,3.3419,17.4833-1.4474,22.4086-7.1546,1.65,1.18,2.6062,3.2269,3.797,4.72.8626,1.0819,2.8133-.0817,1.9532-1.16-1.3685-1.7164-2.4277-4.02-4.4049-5.288a1.3154,1.3154,0,0,0-1.3947-.0172,1.089,1.089,0,0,0-1.5038.1636c-4.28,5.1314-13.5673,10.29-20.5212,6.5764l10.47-67.6737,34.7171,20.1574,3.3883,121.2754-17.538.49c3.7989-2.2588,2.178-6.2194,1.9006-10.1454-.2644-3.742,2.5014-5.4243,3.3174-8.7332.5746-2.33-.7612-4.1573-2.3331-5.9556-.9132-1.0447-2.867.1148-1.9532,1.16,4.2819,4.8987-.9739,6.9411-1.4761,11.657-.379,3.5585,3.3954,9.1436-2.1481,10.931a.94.94,0,0,0-.7057,1.1809l-7.04.1967c3.1955-1.6776,3.7927-4.9854,3.991-8.5446.21-3.77,1.0954-5.6145,3.3271-8.8457,1.5255-2.2086,1.1662-3.854-.0621-6.1524-.6321-1.1829-2.8611-.4974-2.2241.6947,2.216,4.1464-2.5957,6.6728-3.1725,10.7223-.5211,3.6591.9944,9.95-4.6629,10.9943a1.1468,1.1468,0,0,0-1.0078,1.2379l-17.4392.4872a4.3444,4.3444,0,0,0,1.459-2.9362c.4114-2.3269-.2534-3.4623,1.668-5.6381.8406-.952,2.0665-1.5447,2.7636-2.6228a4.14,4.14,0,0,0,.5189-3.7312c-.324-1.5576-4.06-7.9622.1871-7.964,1.5178-.0007,1.3156-2.0391-.1931-2.0384-4.766.002-4.6376,3.4565-3.6478,6.5926.3882,1.23,1.2882,2.6576,1.3615,3.9422.1352,2.3691-1.7156,3.2678-3.2,4.9384-1.4447,1.6264-1.4587,7.6363-3.0979,8.3573a1.0525,1.0525,0,0,0-.6679,1.18l-3.9269.11A13.8082,13.8082,0,0,0,447.1859,488.91ZM477.652,385.7829a1.1577,1.1577,0,0,0-1.0361-.3966,5.776,5.776,0,0,0-6.9287-.7628,5.3245,5.3245,0,0,0-1.83,7.5416,6.83,6.83,0,0,0,9.0114,1.9554C480.2188,392.1618,479.7609,388.2955,477.652,385.7829Z"/><path class="cls-3" d="M62.9333,490.4429c1.0744-2.5208-.0241-5.0065.9341-7.4832.5955-1.5389,1.3943-2.1971,1.4726-3.8834.0915-1.9744-2.3586-5.9735,1.1615-7.0043,1.4447-.423.6588-2.347-.7828-1.9248-4.1842,1.2252-3.3822,3.6816-3.0284,6.873a8.2714,8.2714,0,0,1-.6784,4.659,10.9085,10.9085,0,0,0-1.045,2.0812c-.3387,1.6009.649,3.373.138,4.94-.6906,2.1178-2.5148,4.02-4.1055,5.6873l-1.1091.031,11.3373-73.2824c7.7342,3.3419,17.4833-1.4475,22.4085-7.1546,1.65,1.18,2.6062,3.2269,3.797,4.72.8626,1.0818,2.8133-.0817,1.9533-1.16-1.3686-1.7163-2.4277-4.02-4.405-5.2879a1.3154,1.3154,0,0,0-1.3946-.0173,1.0891,1.0891,0,0,0-1.5038.1636c-4.28,5.1314-13.5674,10.29-20.5213,6.5764l10.47-67.6736L112.7484,371.46l3.3883,121.2754-17.538.49c3.7989-2.2589,2.1781-6.22,1.9006-10.1454-.2643-3.742,2.5015-5.4243,3.3174-8.7332.5746-2.33-.7612-4.1573-2.333-5.9557-.9132-1.0446-2.8671.1149-1.9532,1.16,4.2819,4.8987-.9739,6.941-1.4761,11.657-.3791,3.5584,3.3954,9.1436-2.1482,10.931a.94.94,0,0,0-.7056,1.1808l-7.04.1967c3.1954-1.6775,3.7926-4.9854,3.991-8.5445.21-3.77,1.0953-5.6146,3.327-8.8457,1.5255-2.2086,1.1663-3.8541-.062-6.1524-.6322-1.183-2.8612-.4974-2.2241.6947,2.2159,4.1463-2.5957,6.6727-3.1726,10.7222-.521,3.6592.9945,9.9505-4.6629,10.9943a1.1469,1.1469,0,0,0-1.0078,1.2379l-17.4391.4872a4.3441,4.3441,0,0,0,1.4589-2.9362c.4115-2.3269-.2533-3.4622,1.6681-5.638.8406-.952,2.0664-1.5447,2.7635-2.6229a4.14,4.14,0,0,0,.5189-3.7311c-.324-1.5577-4.06-7.9622.1872-7.9641,1.5178-.0006,1.3155-2.039-.1932-2.0384-4.766.002-4.6375,3.4566-3.6477,6.5926.3881,1.23,1.2881,2.6576,1.3615,3.9423.1351,2.3691-1.7157,3.2677-3.2,4.9383-1.4448,1.6264-1.4587,7.6364-3.098,8.3573a1.0528,1.0528,0,0,0-.6679,1.18l-3.9269.11A13.8034,13.8034,0,0,0,62.9333,490.4429ZM93.3994,387.3161a1.1577,1.1577,0,0,0-1.0361-.3966,5.7759,5.7759,0,0,0-6.9286-.7628,5.3243,5.3243,0,0,0-1.83,7.5415,6.8292,6.8292,0,0,0,9.0113,1.9555C95.9663,393.6949,95.5084,389.8286,93.3994,387.3161Z"/><rect class="cls-4" x="69.4337" y="313.9223" width="52.3685" height="32.1352"/><ellipse class="cls-5" cx="184.9592" cy="316.6945" rx="40.1891" ry="29.363"/><ellipse class="cls-6" cx="273.9418" cy="329.9899" rx="24.5403" ry="17.9297"/><polygon class="cls-7" points="410.075 316.694 401.974 324.959 400.26 336.395 388.573 336.755 380.874 345.522 370.266 340.588 359.66 345.522 351.96 336.756 340.272 336.394 338.558 324.958 330.457 316.694 338.558 308.43 340.272 296.994 351.959 296.634 359.659 287.867 370.266 292.801 380.872 287.867 388.572 296.633 400.261 296.994 401.974 308.43 410.075 316.694"/><rect class="cls-8" x="344.0818" y="251.4842" width="52.3685" height="32.1352"/><rect class="cls-9" x="346.9501" y="216.9333" width="42.0806" height="25.8222" transform="translate(-52.6609 123.5528) rotate(-17.8078)"/><ellipse class="cls-9" cx="479.3093" cy="326.2779" rx="24.9631" ry="18.2385"/><ellipse class="cls-9" cx="274.6602" cy="301.6268" rx="11.8645" ry="7.3873"/><ellipse class="cls-5" cx="311.8997" cy="189.3474" rx="10.8592" ry="17.4406" transform="matrix(0.5717, -0.8204, 0.8204, 0.5717, -21.7741, 336.9809)"/><path class="cls-3" d="M353.4352,418.893l.3985-.4006,6.1506,3.4922a3.7214,3.7214,0,0,1,.4232-2.7906c2.01-5.4919-6.2308-8.48-9.1388-3.8528a11.5737,11.5737,0,0,0-1.6438,3.1226l9.1388,3.8528a24.4346,24.4346,0,0,0,.6689-4.9648h-10l-.1261.893c-1.3231,5.3334,6.4338,9.0346,9.1388,3.8528a5.4253,5.4253,0,0,1,1.4957-2.1637q1.8615-.3732.6791-1.4-.7532-1.5675-.5055.432a18.2739,18.2739,0,0,0-.0955,2.79c.0189,4.6159,7.22,7.262,9.3174,2.5236a31.8245,31.8245,0,0,1,6.5981-9.83l-8.5355-3.5355a61.33,61.33,0,0,1-1.8721,10.3517c-1.5388,5.8085,5.9,8.2037,9.1388,3.8528.6233-.8373,2.2214-2.2191,2.3589-3.1686q1.4824-1.4329-1.5881-.7864-2.8611-1.2057-1.8138.9933l9.6428-2.6584c-3.4344-9.5272-7.2076-19.65-5.4283-29.9281.7771-4.4885-4.7122-8.929-8.3569-4.8647l-4.2133,4.6984,8.5355,3.5356a9.3627,9.3627,0,0,1,.449-5.24c2.4975-5.7424-5.4906-10.8455-8.6347-5.0472a28.329,28.329,0,0,1-5.3411,7.062l8.5356,3.5355a10.813,10.813,0,0,1,2.1313-7.1122l-8.3569-4.8647c-.3285,1.3676-.747,2.7517-.99,4.1367-1.1037,6.2936,8.5314,8.9957,9.6428,2.6584.2429-1.385.6614-2.7691.99-4.1367,1.0594-4.4109-5.0869-9.0789-8.3569-4.8648a21.7427,21.7427,0,0,0-5.06,14.1833,5.0574,5.0574,0,0,0,8.5355,3.5356,37.164,37.164,0,0,0,6.9047-9.0859l-8.6347-5.0472a18.7948,18.7948,0,0,0-1.8143,10.2871c.473,3.898,5.3373,7.102,8.5355,3.5355l4.2134-4.6984-8.357-4.8648c-2.1308,12.3085,1.28,23.7362,5.4283,35.2449,2.1714,6.0236,11.0062,3.6921,9.6428-2.6584-.8368-3.8976-3.2963-7.4344-7.6535-7.5026-4.7678-.0746-7.0868,4.7251-9.581,8.0755l9.1387,3.8528a77.1961,77.1961,0,0,0,2.2293-13.01c.3936-4.4325-5.67-6.4413-8.5356-3.5356a39.5306,39.5306,0,0,0-8.1617,11.8541l9.3173,2.5236c-.0212-5.187-.0661-11.5319-6.5827-12.63-5.6591-.9536-11.1285,3.1408-13.6258,7.9246l9.1387,3.8528a16.1321,16.1321,0,0,0,.4833-3.5514c.1894-6.4453-9.7464-6.4186-10,0l-.3117,2.3064c-1.2158,5.2239,6.79,9.2859,9.1387,3.8527a11.5774,11.5774,0,0,1,1.6438-3.1225l-9.1387-3.8528a14.2432,14.2432,0,0,0-.4232,8.1074c.5374,2.708,3.6791,4.0905,6.1506,3.4922a9.6176,9.6176,0,0,0,4.0141-2.1711c5.0305-4.0112-2.0865-11.0457-7.071-7.0711Z"/></g><g id="Camada_101" data-name="Camada 101"><path class="cls-1" d="M363.8259,399.77c1.8928,2.95,4.5982,5.5493,8.2167,6.0163a7.9865,7.9865,0,0,0,8.2544-4.1744c1.4108-2.8786-2.9-5.4158-4.3173-2.5235-1.9634,4.0062-6.309.5384-7.8365-1.842-1.7324-2.7-6.0621-.1952-4.3173,2.5236Z"/><path class="cls-1" d="M348.6006,425.0829c3.5614-5.01,9.6512-6.2617,15.1711-3.7569a14.4225,14.4225,0,0,1,6.4117,5.3622c1.57,2.3852,1.54,4.86,1.8575,7.6321.1811,1.58,2.6832,1.5982,2.5,0-.3779-3.2962-.2834-6.9623-2.3484-9.7121a20.1692,20.1692,0,0,0-8.37-6.03,14.46,14.46,0,0,0-17.38,5.2428c-.934,1.3137,1.2331,2.5637,2.1586,1.2618Z"/></g></svg>