<svg height="525" viewBox="0 0 472 525" width="472" xmlns="http://www.w3.org/2000/svg"><g fill="none"><path d="m292.318 44.5780783h110.901125v162.7616067h-110.901125z" fill="#7f0f04"/><path d="m469.391887 81.2281536c-.403603-1.5966977-.386401-3.270746.049927-4.8588136 2.313347-8.6845275 2.461347-16.9375566.03174-25.2301695-2.297377-7.2709378-6.139034-13.959529-11.261908-19.6077644-5.463193-6.0084795-11.840287-11.1173349-18.896034-15.1381017l-33.818624 2.333122c-45.658 3.1502943-91.729508 6.292119-137.113976.8844824-32.672783-3.8930241-64.508385-12.16932202-97.155492-16.2257627-55.005715-6.83577118-110.7243272-1.79259017-162.78395133 15.2807458-6.60258313 45.5540962-13.1506024 92.2578141-1.39173494 136.9982151 9.37642407 35.675728 30.18843377 69.094647 33.18356147 105.619017 2.2982795 28.024211-6.0684458 56.671151 1.1474458 84.039823 50.2787654-5.143058 100.797755-7.578537 151.338113-7.295888 55.742685.311232 112.738019 3.789607 166.098171-10.416404l-4.060371 9.838696c37.947289.353757 71.136557-5.579255 108.974718-8.136685-7.812998-82.631899-5.913905-165.894722 5.658415-248.0845124z" fill="#131a59"/><path d="m315.87746 243.184623c2.054436.577263 4.456583.099316 6.191215 1.342103 2.483636 1.779306 2.517159 5.27783.731619 7.756806-.229719.345887-.530643.638743-.882651.858985-1.010501.577797-2.276525.122584-3.336865-.357324.282344-1.048781.877941-1.986472 1.707261-2.68786.827625-.698044 1.484767-1.575993 1.921236-2.566791.415509-1.037997-.014173-2.222523-.998555-2.752763-.116186 1.4246-.754538 2.756076-1.792493 3.73879-1.150656 1.080529-2.788285 1.741952-3.446082 3.176862-.784579 1.711729.262655 3.797898 1.80551 4.877268 1.542856 1.07937 3.459278 1.431077 5.28048 1.907865 1.417109.304895 2.75415.904704 3.92414 1.760406-2.341253 29.291781 46.652453 48.812087 75.177402 52.801128-2.000556 5.009422-4.222606 9.921727-6.666152 14.736915 5.345582-8.848998 11.409984-17.243343 18.131873-25.098134-.198909-.930842-.395588-1.862219-.581658-2.795735-1.694386-7.695073-2.079021-15.620759-1.137728-23.443731-2.723022.1126-4.866971.153788-5.659039.161277-9.213188.076158-18.396821-1.052052-27.31759-3.355969-16.265111-4.185712-29.572005-12.191254-42.260241-22.369799.495602-.802463.817765-1.69976.945774-2.63419.14548-1.079112-.243298-2.161514-1.042152-2.90147-.844802-.718712-2.092032-.697981-2.91248.04841.620085-1.517109-1.518426-3.832222-2.304966-1.840198l-.000624.002497c-.752367-1.557872-2.147336-2.70971-3.81947-3.153772-.992573-.121505-1.993863-.156079-2.992453-.103327-4.321957-.128113-7.921923-3.13398-11.68674-5.26-.246161-.1389-.557139-.274323-.795723-.122585-.130647.103229-.223443.246805-.263903.408318-1.012838 3.296177.802891 6.795899 4.081055 7.866018z" fill="#3360ff"/><path d="m224.794337 433.33924c-1.686665-1.111821-8.871084-7.393064-7.797282-6.239876 2.325829 2.497876 4.858323 5.003598 7.47409 7.413302 1.358479.050995-.528253-1.042372.323192-1.173426z" fill="#3360ff"/><path d="m227.958149 438.488067c-1.117935-1.305818-2.445833-2.628128-3.487004-3.975401-43.697892-1.648342-106.519256-17.78094-143.177251-39.733416-23.0141783-13.782092-39.5342771-33.933419-44.7687518-54.60932-3.3804611-13.025813-2.0587058-26.826468 3.7327205-38.973926-.1175097-2.81969-.0596842-5.643957.1731421-8.456475-.0468351-.154652-.0772566-.313804-.0907614-.474826-.2480788-4.052353-.2120308-8.117103.1078795-12.164419-.0112337-2.566612.0350385-5.132512.0508193-7.700372-.0035663-.849446-.0042201-1.696395-.0019615-2.540848 0-.010698 0-.020416 0-.031203.0051711-1.346263.0373269-2.689792.0964675-4.030587-.0171427-.052978-.0455161-.101633-.0831831-.142644-10.7307133 9.925174-27.7990362 24.999621-30.75769883 38.162816-9.44659037 42.023031 26.74306503 89.757264 77.50305303 117.234345 46.7601537 25.312101 103.7754607 42.232807 157.7959947 43.752947-5.598679-6.533455-11.493002-19.774569-17.093465-26.316671z" fill="#3360ff"/><path d="m221.408169 418.969722c-1.047412-3.192641-2.095805-6.500022-1.785629-9.853049.922414-9.96984 13.112087-14.984849 23.002409-13.84334 9.890323 1.141509 19.088434 6.09215 29.024316 6.752681 17.114684 1.137765 32.938024-10.985822 41.588178-25.914148 8.650155-14.928325 11.622993-32.360946 14.85822-49.306883 3.235226-16.945937 7.112202-34.362599 17.153735-48.387631 17.233975-24.071187 50.921004-33.102339 79.181159-24.912074 9.721103 2.817221 18.063132 8.701288 25.452523 15.642349 5.365089 5.039971 10.782245 13.680101 12.700807 21.091441 12.113354 46.79501-2.678265 96.812618-22.873044 140.849784-11.393592 24.84503-25.923983 48.797911-46.462816 66.774808-20.538834 17.976897-47.759422 29.471691-74.786184 26.723742-19.436947-1.976334-37.745616-11.194171-52.250151-24.293176-24.216099-21.869208-34.887702-51.100633-44.803523-81.324504z" fill="#3360ff"/><path d="m338.535904 317.327444c2.423723-8.786429 5.382296-17.542724 10.290457-25.221255 4.908162-7.67853 11.960362-14.262623 20.573694-17.135118 3.70321-1.234852 8.989841-.959549 10.01229 2.814278.453272 1.673572-.187229 3.448331-.978316 4.995574-2.533296 4.95385-6.617383 8.892966-10.214764 13.132972-14.253916 16.800529-21.066641 38.730806-24.740964 60.464324-1.908665 11.290188-12.746277 3.059626-12.088479-4.906065.936501-11.340738 4.127238-23.201057 7.146082-34.14471z" fill="#fff"/><path d="m341.878653 318.627466c2.423812-8.786429 5.382386-17.542724 10.290547-25.221254s11.960361-14.262624 20.573694-17.135119c3.70321-1.234941 8.989841-.959549 10.012289 2.814189.453183 1.673661-.187229 3.448332-.978316 4.995663-2.533296 4.95385-6.617383 8.892877-10.214763 13.132972-14.253916 16.800529-21.066641 38.730806-24.740964 60.464324-1.908576 11.290189-12.746188 3.059537-12.088391-4.906064.936412-11.340828 4.12715-23.201147 7.145904-34.144711z" fill="#000"/><path d="m230.321335 441.114412c37.288511 4.833583 75.601431-7.739868 101.923855-34.798377 6.667222-6.853513 14.649326-17.849409 25.363456-17.398208 7.429511.312836 9.515062 7.55122 7.83972 13.731007-1.45985 5.385438-5.262113 10.009869-9.13258 13.874721-13.953013 13.932313-31.619131 25.644818-49.322605 34.223165-20.135677 9.760286-42.192086 14.914819-64.568121 15.089424-.599988.021468-1.075292.514062-1.075292 1.114407s.475304 1.092938 1.075292 1.114407c42.541263-.394144 82.239232-19.320515 113.270463-47.871706 6.464569-5.947901 13.671812-14.319057 12.497887-23.789465-1.001229-8.07722-8.588993-11.059105-15.82227-8.991747-10.037253 2.868929-16.669704 12.438206-23.767374 19.410738-7.976815 7.820531-17.058103 14.428267-26.953653 19.612043-21.935134 11.370877-46.837835 15.717789-71.328332 12.450777-1.418304-.183922-1.40493 2.046675 0 2.228814z" fill="#fff"/><path d="m319.205677 375.629373c.392289 5.420474 4.74135 9.837894 10.391027 9.169339 6.487927-.767693 12.081614-6.22579 15.229913-11.586621.286179-.529091.101167-1.189795-.418171-1.493344-.519337-.303548-1.185841-.140549-1.506453.368417-1.981734 3.52398-4.861745 6.46006-8.346933 8.509432-5.227609 2.994366-12.577325 2.545662-13.120467-4.967223-.102798-1.422251-2.332605-1.433484-2.228916 0z" fill="#fff"/><path d="m149.541687 449.278734-3.990205 1.978562c-.034771.141307-.068829.282614-.098072.422672.225358.002019.450458.015796.67438.041278 1.250898-.643497 2.401019-1.466365 3.413897-2.442512z" fill="#fff"/><path d="m136.196545 447.21726-4.748572 3.42631c-.014621.190787-.028351.381395-.036108.569417.292709-.046013.587627-.076664.883542-.091827 1.483674-1.104257 2.797949-2.419462 3.901138-3.9039z" fill="#fff"/><path d="m223.568434 464.97814c-6.236985-.147017-12.416582-1.229258-18.332297-3.210561-2.710706-.002701-5.401821-.459326-7.961686-1.350929-1.974463 1.119489-3.901405 2.302632-5.744005 3.571897-5.456386 3.758938-4.321511 11.815832 1.776891 14.365951 2.832956 1.048536 5.917997 1.209861 8.844873.462524 2.904873-.748986 5.75241-1.704915 8.520788-2.86046 9.031566-3.364617 18.489657-5.404516 27.805366-7.876003.736218-.148201 1.438119-.433122 2.069325-.839995.379191-.283687.689088-.649688.906366-1.070455-5.983733.065923-11.963559-.332596-17.885621-1.191969z" fill="#ff8b78"/><path d="m204.424545 503.115101c.231807-3.109373.46825-5.699967 1.846166-7.957666-.351185-3.008376-1.212556-5.934897-2.547116-8.653859-5.028434 2.959864-10.479559 5.627665-16.311561 5.814439-5.832003.186775-12.112017-2.707652-14.280841-8.124382-.819528-2.046496-1.012285-4.296172-1.777159-6.363708-.764875-2.067537-2.370318-4.078997-4.563928-4.299025-1.862571-.18722-3.573576.9468-5.386487 1.4128-5.041005 1.295833-9.956833-2.728067-12.667819-7.170806s-4.320173-9.65522-7.995566-13.340519c-2.250017-2.202283-5.297498-3.3972-8.444827-3.311215-.293058.219048-.589147.434173-.894609.636104-.021584 2.578065.93968 5.067623 2.68853 6.962011 1.636202 1.942545 3.554585 3.463398 4.892648 5.483684 1.041404.828279 2.000178 1.755421 2.862908 2.768454 2.75494 3.320575 3.945538 7.657579 6.274041 11.290188 7.93494 12.379277 26.004046 13.199747 37.049393 22.90632 4.249116 3.734065 7.539976 8.830292 12.05879 12.005014 4.028721-1.426976 6.862208-5.555274 7.197437-10.057834z" fill="#fff" stroke="#131a59" stroke-width="2"/><path d="m206.795843 494.376993c2.319588-5.301545.781369-11.498538-.809809-17.108908-3.864597 1.54666-8.250851 1.018712-11.638018-1.400801-3.387167-2.419514-5.308829-6.397421-5.098732-10.554555.04333-.857558.127673-1.852144-.502486-2.43529-.351188-.275417-.769995-.451308-1.212531-.50924-3.64071-.766712-7.40945-.527337-11.118544-.819579-6.106687-.487886-12.012085-2.409721-17.236205-5.6093-3.370655-2.069498-6.409559-4.644847-9.787882-6.701953s-7.250038-3.608092-11.193703-3.30542c-2.430669.188601-4.72809 1.186003-6.525552 2.833001-.255233 1.396624-.323651 2.820981-.203456 4.235637.692513-.078185 1.389551-.109074 2.086265-.092451 2.840352.145675 5.133371 2.349704 6.817897 4.641192 2.971055 4.041552 4.949262 8.762714 8.091588 12.672677 3.142325 3.909963 8.033012 7.043051 12.953923 6.068703 1.281162-.39804 2.599807-.663501 3.935195-.792209 2.443783.026745 4.503658 1.920256 5.714405 4.043157 1.210747 2.1229 1.82138 4.535903 2.923356 6.717287 3.798073 7.517342 13.929118 11.058392 21.583126 7.543464 2.076547-.953932 4.023549-2.360581 6.294457-2.614131 2.200832-.245882 4.790921 1.267749 4.726193 3.428629.058576-.081931.13855-.158781.200513-.23991z" fill="#131a59"/><path d="m156.480123 452.687392c.383067 1.046403.539836 2.162149.459959 3.273592.057669 1.465007-.275493 2.918979-.965299 4.212725-.734687 1.307206-2.219489 2.002396-3.694026 1.72956-.3592-.064104-.660963-.30684-.800538-.643949-.043229-.231586-.021853-.470603.061786-.690843.272964-.958071.6039-1.89867.990976-2.816596.467714-.931232.806011-1.921991 1.005508-2.944798.102353-.874671-.046066-1.760415-.427952-2.553953-.278168-.585375-1.197195-1.243767-.739465-1.863734 1.099747-1.488312 3.727639 1.402816 4.109051 2.297996z" fill="#ba3500"/><path d="m167.155827 457.310843c1.273785 1.500686 2.011774 3.382665 2.097587 5.349153.069604 1.975066-.661795 3.894465-2.028134 5.322406-.437719.530486-1.089027.838396-1.776803.839996-1.078795-.114918-1.614805-1.422607-1.534831-2.504295.132665-1.794374 1.290274-3.404736 1.352327-5.202854.062054-1.798117-2.266896-3.050265-2.197354-4.261491.130971-2.279006 3.433154-.327457 4.087208.457085z" fill="#ba3500"/><path d="m180.842439 461.666658c.041031.075563.076779.153878.106988.234382.454505 1.51264.46941 3.123343.042973 4.644134-.410195 2.38599-1.541897 4.588928-3.242627 6.312-.793493.725791-1.945575 1.306174-2.914886.841065-1.185783-.568793-1.248193-2.260017-.815338-3.501466.495087-1.419576 1.386208-2.664591 2.011909-4.031745.537829-1.035011.754455-2.206997.622135-3.365865-.192579-1.048345-1.590644-1.949856-1.19354-2.760074 1.26968-2.590594 4.662.829119 6.482311 1.039073 3.46106.399225 7.272952-.497025 10.798116-.369716.399398-.011636.79688.059546 1.167416.209063.376033.159619.619701.529128.618308.937617-.048151.535986-.615187.838034-1.080406 1.108077-1.168415.683527-2.08301 1.728274-2.605959 2.976804-.870169 2.09455-.532533 4.470465-.180453 6.711047l-2.367822-1.867122c-.999125-.717055-1.895723-1.567091-2.664981-2.526583-1.443267-1.979811-1.886732-4.810582-3.999744-6.050872.567513-.312844 1.164855-.568226 1.783132-.762344" fill="#ba3500"/><path d="m185.454778 473.304007c.14368.148146.220126.348847.211409.555035-.008718.206187-.101831.39972-.257503.535211-.326874.257499-.725181.407986-1.14067.430964-1.696915.379916-3.474721.104826-4.977436-.770189-1.123373-.791675-1.842065-2.126288-3.095429-2.690535-2.317091-1.043085-5.414927.978984-7.421754-.579491-.60314-.590822-1.269533-1.113407-1.987123-1.558298-.253674-1.238113-1.267525-2.177318-2.521438-2.335796-1.450668-.152808-2.807275.796399-4.264897.852298-1.666362-.06516-3.191763-.952982-4.071426-2.369674-.850518-1.400737-1.55171-2.886843-2.09206-4.433913-.5462-1.555028-1.528573-2.91993-2.829743-3.931627-1.359966-1.001227-3.223838-.960516-4.538785.099137 2.124246.15156 4.090149.744692 5.372132 2.445098 1.811663 2.403018 2.075299 5.741424 4.020964 8.037369 1.639066 1.887002 4.161406 2.754635 6.61453 2.275262.980723-.204337 1.993364-.624067 2.948321-.320949 1.456641.462702 2.024569 2.362008 3.439217 2.940429 1.125513.460206 2.390913-.060623 3.606653-.080237 1.875053-.029688 3.534971 1.129919 5.046265 2.240671 1.511294 1.110751 3.168805 2.272142 5.043947 2.246644s3.603176-1.851074 2.894826-3.587409z" fill="#71e289"/><path d="m222.786352 400.930954c-1.948865-1.000577-3.953956-1.887639-6.005234-2.656746-5.582511-2.236803-11.40883-3.809029-17.358795-4.684253-2.263796-.276906-4.495305.71973-5.799888 2.590345-1.304582 1.870614-1.468661 4.308962-.426454 6.33748 1.057544 2.010102 2.70197 3.650659 4.714602 4.703509 2.001085 1.040883 4.0741 1.937224 6.203162 2.682155 5.735336 2.417605 11.337501 5.13968 16.782575 8.154604-2.59419-5.805524-2.679869-13.569551 1.890032-17.127094z" fill="#ff8b78"/><path d="m186.969639 421.953123c1.692192-1.622576 3.126633-2.952643 5.032-3.522863 1.31542-1.859099 2.304358-3.928778 2.924337-6.120143-4.299935-.871645-8.689562-2.1188-12.04506-4.945203-3.355499-2.826403-5.413412-7.601146-3.90408-11.720617.570157-1.556425 1.592962-2.911544 2.204309-4.452278s.724308-3.472581-.39229-4.698339c-.947824-1.040499-2.474542-1.265966-3.722735-1.91678-3.470689-1.808459-4.197761-6.529354-3.48112-10.376642.716641-3.847289 2.436294-7.571191 2.232839-11.479371-.151607-2.36244-1.25549-4.562221-3.058964-6.095805-.274068-.024784-.547779-.053491-.820241-.09361-1.307968 1.430846-2.021545 3.306299-1.995504 5.244666-.06125 1.908756.247321 3.723456-.019614 5.525763.166173.986612.236459 1.986992.209874 2.987145-.127939 3.241765-1.641819 6.265641-2.165257 9.467466-1.783133 10.911379 7.910065 20.450701 9.209255 31.430283.499901 4.22378-.220841 8.728033.711024 12.774311 3.160372 1.148022 6.699569.365457 9.081227-2.007983z" fill="#fff" stroke="#131a59" stroke-width="2"/><path d="m192.68761 418.257661c3.961853-1.799544 6.216-6.03848 8.145795-9.976169-2.938766-1.077082-5.126631-3.576615-5.805062-6.63201-.67843-3.055394.245994-6.245927 2.452773-8.465439.455233-.457887 1.002298-.971762.94292-1.614552-.057966-.330419-.203713-.639175-.421978-.893933-1.651003-2.258412-3.879116-4.018551-5.806682-6.045969-3.170314-3.341684-5.507312-7.38428-6.821017-11.79916-.845116-2.851277-1.250332-5.818987-2.106058-8.667143-.855725-2.848156-2.241576-5.661186-4.599412-7.473925-1.454237-1.116046-3.240474-1.712729-5.073547-1.695183-.844672.653246-1.598797 1.415491-2.242556 2.267097.426585.304235.831938.637189 1.213243.996547 1.515663 1.508906 1.690142 3.893915 1.480624 6.022076-.369554 3.753322-1.635846 7.388249-1.843402 11.154142-.207557 3.765892.953173 7.97621 4.194997 9.904134.916635.421136 1.787573.935334 2.599094 1.534493 1.353487 1.242876 1.553822 3.337248 1.164029 5.132958-.389793 1.795711-1.261031 3.452254-1.740961 5.226033-1.496358 6.399911 2.075051 12.897962 8.280154 15.065442 1.640482.51022 3.436809.70172 4.83434 1.70112 1.354467.968464 2.0424 3.116684.920096 4.292695.073911-.016226.157272-.019079.23261-.033254z" fill="#131a59" stroke="#fff"/><path d="m185.498554 369.655172c-.311699.777717-.784765 1.480508-1.38799 2.062009-.703968.848323-1.620946 1.494117-2.656868 1.871134-1.067897.362039-2.247825.004763-2.935482-.888851-.168659-.216364-.215439-.503752-.124106-.762433.092233-.151242.224311-.274185.381769-.355362.634207-.398628 1.292025-.758395 1.969827-1.077319.729629-.285757 1.416785-.669873 2.0424-1.141688.496878-.437708.859082-1.007643 1.04438-1.643348.138639-.46716-.044578-1.297259.523082-1.41396 1.363027-.280206 1.379699 2.657459 1.142988 3.349818z" fill="#ba3500"/><path d="m189.145952 377.605974c-.041867 1.479583-.575124 2.903126-1.515663 4.046099-.953703 1.139462-2.327319 1.84532-3.809038 1.957344-.511448.076729-1.030494-.078369-1.415986-.423118-.545549-.606237-.18821-1.607153.400224-2.171934.975998-.936904 2.432817-1.255803 3.371191-2.230329.938373-.974527.265151-2.845215.912696-3.487559 1.218949-1.208908 2.085106 1.542072 2.056576 2.309497z" fill="#ba3500"/><path d="m194.611699 386.920542c-.015024.062918-.034358.124727-.057863.184992-.506055 1.074403-1.307233 1.982744-2.310048 2.619034-1.428579 1.128271-3.16866 1.791608-4.985817 1.900643-.820425.101669-1.624129-.287635-2.05292-.994407-.377133-.913903.437669-1.891371 1.303737-2.368159.990352-.545168 2.114528-.793458 3.151508-1.243857.820965-.308669 1.531143-.855285 2.039637-1.569887.419036-.683176.090315-1.890034.719583-2.143494 2.012176-.810843 2.190756 2.806522 3.103364 3.83873 1.735077 1.962604 4.317498 3.377009 6.225183 5.219703.22924.194194.415779.433755.547867.703592.130047.278244.080613.607331-.125443.835092-.296268.27557-.765053.159404-1.161176.076849-.997015-.204965-2.033644-.080243-2.953581.355362-1.539467.734171-2.544619 2.232647-3.47381 3.662743l-.385869-2.234252c-.198495-.903119-.272765-1.829107-.220752-2.752317.187853-1.83262 1.362491-3.638761.804014-5.394264.474678.110207.937146.267602 1.380501.469834" fill="#ba3500"/><path d="m191.342593 395.746644c.057149.305526-.263012.576817-.573723.586535-.312234-.020243-.610637-.136237-.854566-.332183-1.140004-.640312-1.996067-1.687582-2.396798-2.932138-.230559-1.007423.038337-2.114876-.379005-3.060339-.77165-1.747925-3.520617-2.173717-3.85959-4.054034-.040408-.633518-.150497-1.260656-.328275-1.870063.480407-.819958.385406-1.854776-.236265-2.573567-.734561-.814497-1.970361-.965343-2.813694-1.666617-.899258-.873841-1.306185-2.136987-1.086106-3.371393.22825-1.210832.582956-2.394366 1.058289-3.531154.475955-1.144209.61245-2.401237.393181-3.62093-.257429-1.24344-1.320362-2.157355-2.588395-2.225515 1.168443 1.023453 1.819524 2.51468 1.775821 4.067317-.194539 2.2544-1.724734 4.253914-1.7908 6.515714-.031684 1.87909.942986 3.631941 2.555943 4.596616.703809.273882 1.326556.721963 1.809879 1.302251.582104.990752-.054742 2.338471.445783 3.372908.398263.822967 1.367663 1.167898 2.057379 1.767806 1.063638.92567 1.409209 2.408366 1.696026 3.788983.286817 1.380616.630337 2.863223 1.691836 3.79139s2.94627.775716 3.42308-.551587z" fill="#71e289"/><g fill="#3360ff"><path d="m57.7896217 25.4761654c-6.0375711-.2624678-12.0755355.5101652-17.8524554 2.2844448-4.5964699 1.4311657-9.5770265 4.0059803-12.4158627 8.0427183-2.1051663 2.993564-2.9321831 7.6069407-1.2136 11.0281695 2.0722675 4.1258905 7.1995759 5.0956918 11.3646169 5.2481427 5.9479952.2177105 12.2427205-.980678 17.9828915.821719 3.1433061.9869186 12.2066121 6.7896793 6.6441302 9.4797681-5.728609 2.6204264-12.071479 3.6017722-18.3241832 2.8350508-5.8621373-.9465325-11.0958988-3.7402166-17.1590843-4.0757867-2.8663855-.1586916-2.8574699 4.2994705 0 4.4576271 6.0977783.3377098 11.4313952 3.4198024 17.3952602 4.1088624 5.1726892.5977678 11.3565928-.4251685 16.3009518-1.9476265 2.9355711-.9039176 6.8081784-2.1591854 8.1043374-5.2456464 1.6427108-3.9105871-2.213759-7.7422743-4.8845349-10.053019-8.2929928-7.1750858-18.0012579-3.6589987-27.9642434-5.0014576-4.7209325-.6361926-7.3309928-3.7817617-4.9757422-8.3938902 1.4476362-2.8350509 4.2807663-4.1415814 6.9416458-5.5928064 6.2631639-3.4157906 13.1158313-3.6547194 20.0555157-3.5383753 2.8696843.0480532 2.8703084-4.4095739 0-4.4576271z"/><path d="m35.8503157 22.5429576c-.9526386 8.1960607-.899947 16.341037-1.4382747 24.5490441-.4523808 6.8971973-1.2247446 13.9161769-1.3774699 20.8286193h4.4578313v-.7966671c0-2.8683047-4.4578313-2.8730298-4.4578313 0v.7966671c0 2.8718709 4.3945301 2.8682156 4.4578313 0 .152547-6.9044186.9254458-13.9374844 1.3774699-20.8286193.5383277-8.2082746.4854578-16.3512895 1.4382747-24.5490441.3305928-2.8439661-4.1299133-2.820519-4.4578313 0z"/><path d="m48.0520241 19.727342c.0087636 8.7031532-.4422843 17.4006926-1.3512578 26.056257-.9125181 9.206783-.0154241 18.661321-.5260241 27.9101841-.1581639 2.8663433 4.3001132 2.8574281 4.4578313 0 .5171084-9.365118-.4190362-18.9727309.5966361-28.2839116.9201095-8.5291194 1.3477009-17.1041902 1.2806458-25.6825295-.019347-2.867324-4.4772674-2.873743-4.4578313 0z"/><path d="m115.345663 23.1309186c-2.582779-.9539322-3.994217-2.1434945-6.858552-2.3349942-2.962222-.25904-5.943435-.206958-8.8948002.1553929-4.5600939.6834434-8.9780722 3.493799-12.515718 6.3373193-6.0846723 4.890641-10.9975591 17.6906281-2.8368747 23.0327376 3.694918 2.4187085 8.2036578 1.9509251 12.3418626 1.4075404 5.3419083-.7013631 11.4884553 1.9188301 15.2767203 5.6803542 3.081075 3.0594478 4.298152 7.2635251-.35413 9.5705254-2.661593 1.3194577-6.413036 1.9596621-9.322841 2.3838499-3.4544625.5035335-7.3508746.035661-10.8253083-.2912614-2.7460241-.2585424-5.3016097-1.2952081-8.0973831-1.2919095-2.8681687.0033878-2.8732506 4.4610149 0 4.4576271 2.6925301-.0032095 5.1238313 1.1761004 7.7935373 1.3607353 3.2752693.3682077 6.5719042.5117818 9.8667851.4297152 4.687856-.3363725 11.073253-1.5019528 14.964049-4.3296932 7.930392-5.7635335.465397-15.0122183-5.308832-18.6845007-3.553796-2.3752767-7.693831-3.7245516-11.964819-3.899443-4.8775807-.0907573-13.2546482 2.8586763-14.0452891-4.5289492-.7628241-7.1268542 5.084959-12.1140474 10.5204819-15.4048461 6.0325152-3.6519555 13.1054002-1.957344 19.0756842.2482899 2.694848.9955664 3.85754-3.3110363 1.18507-4.2984007z"/><path d="m91.5279157 15.6953292c-.2532049 5.3232091-1.621135 10.5503118-2.0483735 15.8646949-.4624555 5.7523895-1.2189494 11.4763393-2.0149398 17.180943-.7391084 5.3004753-1.1519928 10.61994-1.7067253 15.9375326-.5444795 5.2201488-1.9971084 10.5190193-2.0004971 15.7376525-.0020499 2.8759719 4.3591357 2.862599 4.457832 0 .1039654-1.4746781.3873452-2.9311809.8438675-4.3372712.763894-2.7695237-3.5355952-3.9513298-4.2985976-1.1850156-.5540197 1.7940244-.8907933 3.6480346-1.0031019 5.5222868h4.457832c.0037446-5.1435668 1.508441-10.5770576 2.0004964-15.7376525.5386844-5.6495075 1.2167205-11.2544387 1.8890506-16.8879878.645494-5.4087956 1.3536651-10.7844265 1.8321687-16.2304878.4671807-5.3173251 1.7943663-10.5244577 2.0483735-15.8646949.1364096-2.8676807-4.3217783-2.8606377-4.4578313 0z"/><path d="m103.018511 15.1028214c-.815469 5.5042976-1.334277 11.0484704-1.554178 16.6084945-.366167 5.6131333-.71254 11.2483763-1.157164 16.8540207-.5188919 6.5430834-1.8303859 13.1227193-2.8870702 19.5991166-.3284791 2.2419108-.4834772 4.5058237-.4636145 6.7715814-.0320072 2.6061962-.8031229 5.0482627-.8737349 7.6475942-.0789036 2.9160905 4.1789496 2.8000139 4.4578316 0l.38578-1.9405834c.751858-2.772644-3.5473634-3.9549851-4.2985971-1.1850156-.2806213 1.0221731-.4631189 2.0687771-.5450145 3.125599h4.4578316c.056971-2.106318.842886-4.0783722.920185-6.1844227.021951-3.2193797.249735-6.4340622.681959-9.6243736.896559-5.551083 1.893241-11.1472772 2.491036-16.7393705.536723-5.0216952.671706-10.1295118 1.065333-15.1689484.473957-6.0685244.56659-12.6102705 1.61739-18.5786767.494017-2.8054522-3.801192-4.0097247-4.298597-1.1850155z"/><path d="m170.43893 19.3999739c-1.47474.0164041-3.710699-1.2607953-5.197831-1.6146417-1.23268-.2932227-2.503072-.4228505-3.751622-.6320915-3.053704-.5119139-6.259508-1.3561885-9.379277-.9702471-5.70397.6171482-10.972645 3.3395649-14.775839 7.6349345-6.391192 7.6027505-10.714932 22.8334817.650309 28.1782658 6.481687 3.0482146 13.278899-.554618 19.867663-.3279922 8.920477.3067739 17.204554 9.2547471 9.628915 17.0306319-5.206747 5.3442491-12.925393 6.1481376-20.005588 5.5205037-3.680118-.3262092-6.904824-1.7914312-10.400031-2.8172204-1.273781-.3737274-2.575022-.7373806-3.870111-1.0230254-.456422-.0694201-.912459-.1410393-1.368108-.2148576-1.166585-.4966985-1.467192.1290037-.90182 1.8771068 1.924714-2.11978-1.218682-5.2813966-3.152221-3.1519882-3.334458 3.6721933 1.297674 5.1397333 4.237079 5.7880506 7.121921 1.5710461 13.025783 4.3109711 20.492472 4.0603633 6.66-.2235945 12.691714-1.7652203 17.681988-6.4457288 4.176632-3.9171844 5.852687-9.400779 3.939832-14.8698417-1.967598-5.6255254-8.324465-9.1180762-13.997591-10.026719-7.105783-1.1380322-23.653788 6.3798451-24.614807-5.6246338-.687487-8.5870838 4.580868-17.2494123 12.764733-20.0160831 4.613766-1.5601695 8.563226-.9107824 13.23325-.1119756 3.080094.5268024 5.802314 2.2492295 8.918783 2.21446 2.866653-.0320058 2.874143-4.489722 0-4.4576271z"/><path d="m141.629839 85.5276241c.008915-6.1098912 1.296515-11.927897 2.635469-17.8437031 1.49908-6.6240339 2.248887-13.2013518 3.224528-19.9077627.908376-6.3153197 1.480557-12.6744398 1.714125-19.0504719.14134-3.4582093.585494-6.8973795 1.327364-10.27804.652003-3.0681847.733492-6.4011525 1.593675-9.39516233l-1.556764 1.55669253.380075-.0673993c2.819935-.5000566 1.624879-4.79640679-1.18507-4.29840069l-.380075.06739932c-.759778.20352342-1.353231.79694927-1.556764 1.55669254-.869812 3.02744203-.947378 6.30433293-1.593674 9.39516233-.754766 3.2564738-1.237104 6.5701274-1.44202 9.9066306-.305183 6.9717288-.90592 13.9950769-1.838588 20.9107288-.900481 6.6750291-1.724824 13.1431352-3.266787 19.7071695-1.381393 5.8803234-2.50441 11.6547335-2.513061 17.7404644-.004099 2.8683939 4.453733 2.8727623 4.457834 0z"/><path d="m159.53766 9.76187085c.04868 6.00415625-.832544 11.91077965-.949072 17.90334605-.125443 6.4504539.109039 12.8960045-.370802 19.338078-.923306 12.3961261-1.681405 24.7391173-2.331714 37.1550353-.150139 2.8668783 4.308138 2.8586762 4.457832 0 .650308-12.4151156 1.408674-24.7592658 2.331713-37.1550353.479663-6.4397556.269966-12.8886939.370802-19.338078.093704-5.9924772.997841-11.895802.949073-17.90334605-.023359-2.86714577-4.481191-2.87383221-4.457832 0z"/></g><path d="m37.6757084 93.7399997h23.4076265v76.9957013h-23.4076265z" fill="#71e289"/><path d="m69.0046337 114.920237h16.9685567v55.815375h-16.9685567z" fill="#eab124"/><path d="m95.7516217 128.120964h12.9554383v42.614737h-12.9554383z" fill="#ba3500"/><path d="m120.17287 109.039913h18.756236v61.695788h-18.756236z" fill="#ff8b78"/><path d="m74.1339928 109.904158h1.1121397c1.7969358.026772 3.4213159-1.065814 4.0739229-2.740193.2784085-.52816.4109308-1.121005.3839085-1.717434l-.1592338-1.185016c-.205289-.743902-.6003509-1.421704-1.146465-1.966972-.8463295-.820372-1.9735707-1.287285-3.1521326-1.305639h-1.1121397c-1.7969358-.026773-3.4213159 1.065814-4.0739229 2.740192-.2784493.528145-.4109741 1.121002-.3839085 1.717435l.1592338 1.185015c.2052191.743939.6002548 1.421779 1.1463759 1.967062.8463708.820353 1.973643 1.287233 3.1522217 1.30555z" fill="#fff"/><path d="m47.9980843 87.6622034c5.7367832 0 5.7463229-8.9152542 0-8.9152542-5.7367831 0-5.7463229 8.9152542 0 8.9152542z" fill="#fff"/><path d="m102.494181 123.805625c5.736783 0 5.746233-8.915254 0-8.915254-5.7368726 0-5.7463232 8.915254 0 8.915254z" fill="#fff"/><path d="m138.092555 96.549642v-.5560444c-.064878-2.4345034-2.023222-4.3927575-4.457837-4.4576271l-1.18507.1592264c-.743937.2052797-1.421769.6003234-1.967062 1.1464126l-.697027.9021346c-.399781.6823069-.609923 1.4590619-.608678 2.2498535v.5560444c.064878 2.4345035 2.023222 4.392758 4.457837 4.457627l1.18507-.159226c.743962-.205281 1.421823-.600323 1.967152-1.1464128l.697026-.9021346c.39973-.6823242.60984-1.459073.608589-2.2498536z" fill="#fff"/><path d="m152.797865 164.957458c1.057665-2.009677 4.153718-4.024079 5.797142-5.53985 1.873538-1.727955 3.655422-3.530441 5.532882-5.241456 2.129239-1.941119 4.03933-3.978165 6.255229-5.851171 2.274207-1.922218 3.924764-4.445413 6.807198-2.050508 3.923067 3.188499 8.164373 5.964133 12.656674 8.282895 4.107268 2.108992 6.911422-3.114277 9.255796-5.693103 3.389088-3.764991 6.513105-7.760369 9.349587-11.957407 1.602502-2.348813 2.738179-4.382739 4.849497-6.362638 1.903048-1.784567 3.909785-3.508509 5.654402-5.453016 1.547759-1.72519 3.154362-3.528479 4.55947-5.373402 1.124889-1.47699 2.071287-3.042419 3.233622-4.501222-.19347.242851 1.929973-2.466227 1.999872-2.486108 1.735969-.494262 1.890121.694142 2.850248 2.143227.668229 1.008137 1.282518 2.063703 1.916868 3.093593.767995 1.246442 2.591694 2.919657 3.068593 4.197748.993828 2.663788 5.304819 1.510779 4.298597-1.185016-.753195-2.018681-2.371566-3.445211-3.517942-5.262585-1.385137-2.196273-2.60052-4.686839-4.451769-6.549503-4.048959-4.074271-6.66-.41447-9.316867 2.896745-4.031752 5.025083-7.691542 9.986867-12.426294 14.407585-4.115113 3.842475-7.327159 8.443549-10.321217 13.190476-1.916867 3.039032-4.439198 5.545288-6.8154 8.220488-.630635.732656-1.274524 1.453395-1.931667 2.162217.174093.888851-.089217.925819-.789928.110906-.763983-.178306-2.32788-1.448194-2.977118-1.840198-3.238347-1.955472-6.302839-4.16913-9.307952-6.416398-1.643959-1.229413-2.861928-2.440461-5.109388-1.940137-2.324313.517084-3.889725 2.777904-5.549911 4.266484-2.50646 2.247268-4.917612 4.538399-7.392689 6.798327-2.284371 2.086169-4.497328 4.259173-6.752099 6.393574-1.736503 1.643795-4.149884 3.152078-5.274952 5.289867-1.335031 2.536568 2.511186 4.792216 3.849159 2.249853z" fill="#fff"/><path d="m241.495959 124.194954c1.219202-.435497 2.340289-1.107694 3.298795-1.977938 1.667764-1.233693 3.658721-1.896542 5.462627-2.887562 3.394549-1.864893 6.149667-4.415726 9.675366-6.101243 2.587147-1.236814.328186-5.081695-2.249957-3.849072-3.20313 1.531284-5.585217 3.585447-8.568486 5.457294-1.361422.85426-2.847752 1.454435-4.273991 2.184683-1.372566.702701-3.085978 2.449466-4.529156 2.875437-2.745311.810308-1.576646 5.113612 1.18507 4.298401z" fill="#fff"/><ellipse cx="123.72701" cy="257.205465" fill="#ba3500" rx="66.338058" ry="56.081318"/><path d="m157.639783 227.005933c4.520954-3.052048 9.170205-5.898065 13.847629-8.700396-12.066814-10.585706-28.997479-17.181478-47.760402-17.181478-10.606043-.039862-21.102642 2.144096-30.8125305 6.410959 4.9422193 5.644337 9.8647345 11.305077 15.0197715 16.780916 6.958674 7.391726 14.173674 14.911386 19.644147 23.499362 10.689612-5.87649 19.961009-13.990352 30.061385-20.809363z" fill="#3360ff"/><path d="m167.989708 244.711539c-9.560354 6.454644-18.38151 14.062833-28.361792 19.842057 3.942684 14.60702 7.308525 29.364619 10.223501 44.2103 23.646744-8.574513 40.21365-28.428517 40.21365-51.558341-.017405-7.921179-1.969248-15.718246-5.685874-22.713483-5.532704 3.29597-11.050518 6.614851-16.389485 10.219467z" fill="#71e289"/><path d="m120.371867 271.9677c-11.398763.148796-22.738773-1.733393-34.1852357-1.057171-8.6320554.509774-17.1781638 1.872204-25.738359 3.087085 8.4417952 22.765191 33.5649735 39.289526 63.2787377 39.289526 2.065224 0 4.104771-.090936 6.12185-.247042-2.729976-13.785955-5.888973-27.476754-9.476993-41.072398z" fill="#eab124"/><g fill="#fff" transform="translate(39.843373 37.335593)"><path d="m240.202573 132.077887c3.420584 1.261062 6.237309 11.41099 11.315938 7.715528 2.091436-1.521834 2.855508-5.141249 4.370279-7.292678 1.246827-1.838537 2.590284-3.609662 4.024709-5.305913.707547-.807187 2.047125-3.013356 3.022409-3.404558 2.630121-1.053159 1.482586-5.366448-1.185069-4.2984-2.48649.995566-4.164328 3.509579-5.870162 5.537799-2.227645 2.632961-4.195734 5.474939-5.876848 8.486341-.350921.638868-.704337 1.282281-.99588 1.950747-.48412 1.111554-.001961.599819-.111178.50817.306788.258542-.552771-1.405579-.653161-1.553572-.510422-.755301-1.294287-1.374376-1.875767-2.081534-1.497831-1.821119-2.689588-3.715343-4.980645-4.559974-2.695651-.993695-3.858521 3.312819-1.18507 4.2984z"/><path d="m242.513513 160.909106c1.341455 2.953741 2.849774 5.828825 4.517656 8.611333 1.155737 2.065129 2.827067 5.2674 5.653332 5.125469 2.270641-.114115 3.372795-2.297194 4.402465-3.989576 2.426654-3.78386 5.275083-7.279989 8.490564-10.421219 2.006024-2.054075-1.143701-5.209094-3.152132-3.152078-3.480462 3.415316-6.562657 7.214034-9.187591 11.323443-.800091 1.315357-.221911 1.602249-1.456908.448526-.784579-.732744-1.245964-2.255559-1.771007-3.164023-1.191154-1.919278-2.25923-3.912251-3.197781-5.966891-1.093239-2.605929-5.408776-1.461299-4.298598 1.185016z"/><path d="m248.79754 210.614679c1.920879-3.266816 4.177968-5.029451 7.00245-7.396986 2.39127-2.004328 4.821323-5.460148 7.668808-6.721121 2.617727-1.158983.352257-5.001458-2.249957-3.849072-3.312971 1.467183-5.792684 5.138574-8.570983 7.418205-3.176205 2.606196-5.566138 4.670969-7.699566 8.299121-1.457176 2.47844 2.394479 4.723836 3.849248 2.249853z"/><path d="m247.158484 192.382271c1.847236 3.510025 4.119036 6.787094 6.034477 10.264489 1.508618 2.97508 3.305436 5.795014 5.364644 8.419299 1.853923 2.194311 4.993662-.972476 3.152222-3.151988-2.084661-2.467297-3.669776-5.661187-5.176791-8.511929-1.685595-3.188808-3.846217-6.079222-5.525393-9.269724-1.336547-2.5396-5.185438-.289211-3.849159 2.249853z"/><path d="m246.605892 236.030019c1.490609 2.232647 2.124513 4.988887 3.757684 7.078712.99664 1.500416 2.855794 2.17478 4.582651 1.662249 2.101243-.714736 3.660414-3.649995 5.050455-5.21373 2.377155-2.648378 5.022017-5.043649 7.892323-7.147538 2.25914-1.709054.040209-5.581573-2.249957-3.849072-3.667391 2.756885-7.057582 5.864341-10.122576 9.278373-.48793.685015-1.039044 1.322752-1.646099 1.904833-.893973.650011.258555.976488-.509886-.299196-.537347-.892328-.589682-2.117194-1.08361-3.055168-.562212-.900323-1.170288-1.771182-1.821826-2.609139-1.585205-2.374488-5.448094-.14514-3.849249 2.249854z"/><path d="m252.869234 267.421431c-1.04973 1.051198-.999981-.293133-.855369 1.115833.18049.494637.428978.961735.738306 1.387838.441771.838034.839945 1.678118 1.240169 2.537192.855012 1.835116 1.635846 3.77044 3.757506 4.326395.972479.241954 1.989882-.172059 2.51707-1.024274 4.503657-6.430216 8.897831-12.845633 14.703621-18.288039 2.097588-1.966081-1.059448-5.113612-3.152132-3.152077-6.109725 5.726892-10.670978 12.437314-15.400648 19.190263l2.517159-1.024274c-.8066-.211381-3.001815-6.251822-3.72853-7.212441-1.449598-1.916779-3.535596-2.964322-5.489285-1.008047-2.02965 2.032678 1.121501 5.185468 3.152133 3.151988z"/><path d="m221.892031 270.418026c-.022291-.379107-.015346-.759367.020774-1.137408l-.079617.592508c.023672-.141422.055615-.281334.095665-.419017l-2.741834 1.556693c.053245.008892.105561.022649.156292.041099l-.532444-.224664c.043183.015601.084317.036376.122502.061871l-.451133-.348497c.033606.022508.063657.049913.089157.081307l-.348513-.451112c.024059.029899.043173.06346.056614.099406l-.224675-.532419c.01374.03725.022057.076282.024697.115898l-.079617-.592508c.002756.043922.000453.088015-.006865.131411l.079617-.592508c-.016308.07608-.039036.15064-.067938.222881l.224675-.532419-.037713.080238 3.049602-.799609-.453361-.341544c-.519111-.30246-1.138066-.383424-1.717514-.224664-.558577.158729-1.035214.525225-1.332089 1.024273-.301089.519526-.381983 1.137854-.224674 1.717346l.224674.532419c.193754.330551.46908.605864.799646.799609l.453361.341632c.51834.304715 1.138232.385802 1.717514.224665.562699-.150413 1.042137-.519088 1.332-1.024274.441081-.772832.514498-1.702104.200246-2.534606-.330088-.797373-1.027242-1.384499-1.869169-1.574167-1.183505-.300071-2.393063.386663-2.741834 1.556693-.175741.702044-.241904 1.427033-.196144 2.149289 0 1.23094.997919 2.228814 2.228915 2.228814s2.228916-.997874 2.228916-2.228814z"/><path d="m223.918027 249.777608c2.868436 0 2.873161-4.457627 0-4.457627-2.868347 0-2.873162 4.457627 0 4.457627z"/><path d="m158.518075 200.726949c2.579301 2.333835 6.643417 11.090042 10.186501 4.595725 2.110337-3.868062 5.860265-6.999634 9.29012-9.773615 3.637145-2.942034 9.191424-7.07577 14.011767-7.465367 2.839906-.229568 2.864424-4.689424 0-4.457627-7.602297.614439-15.061764 6.616456-20.450123 11.617646-1.917492 1.779752-6.325039 4.928977-6.725352 7.797549.193381-1.385341 1.663217 1.020173.630961-.97096-.326045-.628793-1.160016-.901154-1.578072-1.424123-.832455-1.040499-1.133983-2.095085-2.212867-3.071305-2.12282-1.920703-5.284938 1.222281-3.152222 3.152077z"/><path d="m158.437923 244.911484c3.084819 1.295832 4.721913 4.907491 6.917752 7.257017.565127.551125 1.378118.765105 2.141354.563606.763237-.201499 1.364642-.788888 1.584055-1.547137 1.594032-6.840139 6.8598-12.119842 12.880815-15.539288 2.494424-1.416634.250708-5.268915-2.249957-3.848983-7.068605 4.014628-13.058236 10.173732-14.929455 18.203434l3.72532-.983531c-2.936641-3.142003-4.757219-6.66968-8.884814-8.403251-2.641265-1.109414-3.794685 3.20227-1.18507 4.298401z"/><path d="m178.539622 138.556959c-5.47493-1.29191-9.865538.545881-13.948911 4.380599-3.723894 3.497187-6.164111 10.325113-1.863374 14.285982 5.272634 4.85596 13.095326-1.03203 18.342906 3.040725 5.527087 4.289575-3.277576 7.658204-6.836797 7.750388-3.127793.081128-9.54921-1.750421-12.276244-3.549966l-1.124978 4.153261.16494.014175c2.858005.244813 2.8416-4.214241 0-4.457627l-.16494-.014175c-2.357479-.201931-2.817349 3.036357-1.124978 4.153349 2.409101 1.589768 6.045711 2.276956 8.822761 3.106966 3.469221 1.153769 7.21105 1.202333 10.709048.138989 4.763282-1.440081 10.730446-6.213932 7.72988-11.718834-3.241735-5.947099-10.033687-5.251085-15.589571-4.986748-2.562005.121872-5.565157.354025-6.356868-2.550476-.663236-2.43431 1.883167-5.466923 3.617085-6.851105 2.678443-2.138235 5.365624-3.387797 8.714792-2.597103 2.7898.658392 3.980487-3.638761 1.18507-4.2984z"/><path d="m169.268581 133.133899c.001783 7.547297-.913677 15.10244-.534405 22.652858.331395 6.597288.099499 13.31939 1.481159 19.782949.223426 1.045314 1.508084.953041 2.036961.26621l.209608-.272183c.874448-1.135803-1.060964-2.246644-1.924624-1.124927l-.209608.272183 2.036962.26621c-1.426506-6.674049-1.318359-14.027529-1.486509-20.860269-.172339-6.998474.621065-13.989906.619371-20.983121-.020115-.600958-.513135-1.07773-1.114457-1.07773-.601323 0-1.094343.476772-1.114458 1.07773z"/><path d="m176.286634 132.837288c-1.110981 8.1193-.661186 16.310725-.308482 24.438852.182236 4.199084-.184198 8.350027-.069364 12.528072.07507 2.732436.130704 6.554405 1.265489 9.029726.519783 1.133842 1.953868.385852 2.076725-.562464l.06241-.479373c.183752-1.418328-2.046947-1.404866-2.228916 0l-.062409.479373 2.076814-.562463c-.227367-1.008003-.357065-2.035569-.387296-3.068452-.411397-2.721171-.542609-5.477359-.391576-8.225303.149257-3.307513.117232-6.620718-.095933-9.924729-.315168-7.655885-.838072-15.387728.211837-23.060731.191954-1.402637-1.955384-2.009498-2.149299-.592508z"/><path d="m305.879357 174.867808c5.458614 0 9.552241 1.332474 10.308913-5.034533.107969-.908197-.272017-3.482833.257663-4.213527-.203456-.63435-.146782-.348795.170021.856667.104501.450913.251956.890779.440345 1.313573.585848 1.120291 1.166436 2.044892 2.534366 1.717346 1.984805-.475273 1.626663-3.252018 3.09641-4.252577 4.07107-2.772644 3.793614 4.765917 4.917879 6.832295 3.138313 5.769328 5.692116-1.287898 9.213357-1.740436 1.403147-.180356 1.421067-2.411488 0-2.228814-1.102989.043854-2.165744.426156-3.043897 1.094972-1.671062 1.242786-2.477395 3.797898-4.420742 1.198388-1.759862-2.354162-.463614-7.254788-3.278824-9.0472-1.780458-1.133485-3.152043.129628-4.322135 1.449264-.304737.343594-2.677641 4.32577-2.621205 4.335131-.20506-.034413-1.255681-4.101017-1.579944-4.694238-.256106-.434868-.771546-.644599-1.258535-.512092-1.696472.70805-1.891012 1.935502-2.075745 3.678167-.206486 1.947804.37642 5.89111-1.68506 7.016305-1.241952.677559-5.167607.003298-6.652422.003298-.600986.020115-1.077779.513112-1.077779 1.114407s.476793 1.094292 1.077779 1.114407z"/><path d="m343.081653 166.137992c-.12654 2.358238-.114632 4.721868.035663 7.078711.01445.443526.287132.837553.697136 1.007365.410003.169812.881448.083981 1.205288-.219434.854209-.909356 2.318072-4.769661 3.681544-3.488183.734383.690397-.30126 3.107055.468608 4.161997 1.757098 2.407743 3.084819-.37239 4.604672-1.170394 3.020359-1.586291 3.930916.345288 6.287058 1.247333 1.37696.447503 2.849908.510969 4.26026.183565.984022-.196135 1.807026-.693607 2.756366-.930307 3.850407-.959816 2.171499-.112153 4.500181-.015066 2.197354.091648 4.372598.464484 6.470453-.355362 1.321301-.516283.746419-2.672437-.592535-2.149112-3.477108 1.358685-6.686747-1.114406-10.06819-.081396-1.520745.464574-2.974622 1.480467-4.645863 1.499278-1.763429.019881-2.35641-.812714-3.651053-1.576038-.91439-.539195-1.004171-1.121628-2.198157-1.310543-.939064-.048383-1.872951.166758-2.696185.621126-.428933.193283-2.540964 2.056839-2.696186 2.038562-.79287-.093432-.678303-4.732662-1.899036-5.891913-.28388-.28308-.697648-.39242-1.084323-.286536-2.6936.871555-3.284173 4.021582-5.073903 5.92695l1.902513.788019c-.149679-2.356864-.161587-4.720459-.035663-7.078712-.020115-.600958-.513135-1.07773-1.114458-1.07773-.601322 0-1.094342.476772-1.114457 1.07773z"/><path d="m385.844737 174.153875c3.873637-.399773 7.768354-.55874 11.661687-.475986.600986-.020114 1.07778-.513111 1.07778-1.114406s-.476794-1.094292-1.07778-1.114407c-3.893333-.082698-7.788046.07627-11.661687.475985-1.405286.172867-1.422672 2.40382 0 2.228814z"/><path d="m306.413494 190.534763c2.326275-.447457 5.702458-1.264718 7.663101-2.567058 1.897966-1.260706 1.872913-3.396712 3.538359-4.821816h-1.576111c1.430697 1.825399 1.269234 8.553741 5.093429 6.838.679195-.304723.894687-.948226 1.430251-1.415385.504845-1.243344 1.760891-2.012726 3.097925-1.897612.303815.718787.679751 1.404909 1.122036 2.047834 1.384068 1.692917 2.862909 1.760852 4.858234 1.339873 1.402701-.295897.809096-2.44483-.592535-2.1492-4.029166.84998-3.878759-6.874463-8.387677-3.196743-.429876.451631-.830611.930126-1.199781 1.432592-1.473937 1.509799-1.107414 1.544836-1.973749.052868-.880065-1.515593-.754533-3.202538-1.872289-4.628443-.439154-.425636-1.136957-.425636-1.576111 0-1.270749 1.087661-1.932203 2.420224-3.194036 3.617096-1.978248 1.729812-4.420166 2.84186-7.023759 3.198615-1.407159.270668-.811326 2.419244.592446 2.149201z"/><path d="m338.094855 188.756526c.943099-.656341 2.381552-1.76834 3.579282-1.471641.668675.165646 1.183911.897856 1.738555 1.245194.779025.557077 1.635823.996435 2.542836 1.303945 2.612289.595985 3.526233-2.731366 5.676424-3.344914.573067-.180024.900655-.781501.74101-1.360552-.159644-.579051-.749182-.927699-1.333545-.788649-1.391378.396997-1.955472 1.093902-3.01715 1.995769-1.832436 1.556515-2.519833.556758-4.21586-.4734-2.496385-1.516395-4.605207-.583146-6.836708.969713-1.1692.813606-.056258 2.746522 1.124978 1.924535z"/><path d="m359.741104 180.416841c.063212 3.548806-.541984 8.852847.490985 12.353957.753374 2.553329 2.351239 2.561531 3.88821.514856.684366-.911407 1.425079-3.386727 2.501378-3.776948 1.937284-.702432 1.546957.739967 2.777229 1.31402 1.150944.667635 2.539627.787423 3.787908.326744 1.986678-.600977 3.154184-1.886201 5.518172-2.001118 1.226884-.059643 2.337686.291172 3.572149.100386 4.446865-.687456 8.081513-3.044916 12.791034-1.807746.584363.13905 1.1739-.209598 1.333545-.788649.159644-.579051-.167944-1.180528-.74101-1.360552-5.670986-1.489739-10.74587 1.586202-16.303181 1.701566-2.452966.050906-4.044145.998508-6.296776 1.556692-1.484636.367665-1.840282-.182941-3.712036-1.195268-.400403-.216552-.569354-.853279-1.088781-.913635-.858178-.122693-1.726024.147173-2.363275.734884-1.405732.936993-2.253968 4.070527-3.45152 4.601609-.092545.812655-.160898.532567-.20506-.840263l-.040299-.837232c-.033612-.747276-.015335-1.496068-.007489-2.243702.026212-2.501442-.177422-4.943241-.221911-7.439601-.021469-.599961-.514086-1.075243-1.114458-1.075243s-1.092988.475282-1.114458 1.075243z"/><path d="m315.561588 208.260339c-.163285-1.116246-.263863-2.240768-.30126-3.368272-.008916-.701363-.089157-1.93461.370089-2.54486l-.666.512182c.066867-.019614 2.4938 2.230418 2.879759 2.451071 1.155842.585788 2.451564.839384 3.742973.732566.600986-.020115 1.07778-.513112 1.07778-1.114407s-.476794-1.094292-1.07778-1.114406c-1.639846.060288-3.225752-.590947-4.349951-1.786261-.769244-.680858-1.716533-1.784655-2.865049-1.317764-.907347.368735-1.080756 1.355119-1.209053 2.227833-.18579 1.773586-.128799 3.564224.169398 5.322407.175995 1.404331 2.407229 1.421894 2.228916 0z"/><path d="m333.06874 208.621318c2.515108-.689506 4.705419-2.29969 7.316193-1.746588 2.133153.479156 4.34297.506669 6.487392.080772 1.413133-.219226.81302-2.367267-.592535-2.1492-1.608083.391675-3.285127.404828-4.899156.038425-.995077-.300266-1.856063-.808435-2.923714-.67649-2.0498.253372-3.976831 1.754522-5.980715 2.30388-.573067.180024-.900655.781501-.74101 1.360552.159644.579051.749181.927699 1.333545.788649z"/><path d="m370.792959 204.813613c3.168092.59438 6.347952-.620502 9.553133-.433638 3.289344.191767 6.004698 1.685785 9.364833 1.147571 1.412509-.22618.81293-2.37431-.592535-2.1492-3.047017.48811-5.771108-1.140618-8.772298-1.227185-2.876282-.083001-6.135314 1.043085-8.960241.513251-1.401988-.263-2.002815 1.884685-.592535 2.149201z"/><path d="m161.846024 17.6208217c-.038783-5.024459.227349-11.40965323 2.880562-15.86915255l-1.750323.22555593c2.651339 2.15749153.408426 7.03841492 3.67147 9.11067662 3.30771 2.1006122 5.917503-2.68465051 6.582433-5.30823153.139057-.5843365-.209607-1.17384689-.788685-1.33348406-.579077-.15963717-1.180581.1679357-1.360614.74097626-.40272 1.58896577-2.279289 4.79792238-3.952313 3.03118644-.694887-.73399288-.597884-2.83300034-.738573-3.72702203-.246073-1.56337898-.556248-3.04705559-1.837697-4.08987288-.247502-.23722302-.589088-.34966826-.929113-.30585082s-.64194.23918773-.82121.53140675c-2.892775 4.8621122-3.227469 11.49425897-3.184853 16.99399017.020116.6009585.513136 1.0777304 1.114458 1.0777304.601323 0 1.094342-.4767719 1.114458-1.0777304z"/><path d="m188.159265 7.27208373c3.125296-1.11717051 3.619759 2.5843539 5.895215 3.81465897 2.966865 1.6047458 4.703547-1.35101762 7.549515-1.4136027 3.015723-.06641864 5.400663 2.0780566 8.616007 2.0423064 2.784673.0183071 5.495943-.8924251 7.704827-2.58809826 1.133359-.87583458-.454699-2.44277967-1.576111-1.57603865-4.410132 3.40785591-8.258578 1.38498475-12.647581-.27057796-1.256842-.55207038-2.680637-.58656892-3.962744-.09601729-2.629407.98263932-4.04147 2.55974779-6.486858-.15869153-.447745-.49773864-.633636-1.23467356-1.135766-1.68926237-1.526808-1.38248848-2.704477-.87369492-4.549039-.2139661-1.341005.47928407-.763002 2.63365525.592535 2.14920034z"/><path d="m166.08988 26.4846349c.150853-.902402.61518-3.2999813 1.591-3.6748678.490896-.1885576 1.456284 2.8592112 1.732759 3.4459241 1.092525 2.3185902 2.976315 3.6968885 5.445954 2.3228695 1.25372-.6974404.130971-2.6232244-1.124979-1.9244468-2.572436 1.4311658-3.03712-5.3258837-5.19471-6.092239-2.730779-.9700688-4.275685 3.3948397-4.599323 5.3302522-.234661 1.4030827 1.912855 2.0059322 2.149299.5925078z"/><path d="m188.873231 22.9792461c3.65141-.9417183 7.007711.6936068 10.566665-.4602946 1.66468-.651249 3.404483-1.0911143 5.178663-1.3092942 2.309157-.1604746 3.873766.7594013 6.024135 1.3653712 2.924151.8280115 5.992317 1.0167148 8.995904.5532807 3.597202-.6008882 9.125359-4.6479678 12.41818-1.1500678.98527 1.0466508 2.558795-.5316167 1.576111-1.5760387-2.012354-2.137878-4.853241-2.1357383-7.625923-1.6453993-2.292752.4054658-4.285046 1.6684007-6.56487 2.120939-2.734398.4747472-5.54104.3200426-8.206689-.45236-3.605494-1.0052841-5.636125-1.9167797-9.423053-1.0212424-3.093111.7315858-5.137115 1.3339003-8.405776.8083461-1.885573-.3031186-3.282658.1417525-5.125703.6171139-.573067.1800241-.900655.7815006-.741011 1.3605516.159645.5790511.749182.9276991 1.333546.7886487z"/><path d="m157.521928 48.6175559c1.217968-3.6909152 2.301667-8.4548705 4.907091-11.4322979l-1.750412-.225556c1.420979 2.4427797 1.170003 11.1395211 5.788405 10.8676949 3.052723-.1798206 3.73914-5.196345 5.764689-6.7823688h-1.576111c2.255663 1.7429322 3.056111 4.7625288 6.325128 4.8913543 2.089118.0822878 4.36288-.8861763 4.817043-3.0302949.296357-1.39916-1.851783-1.997017-2.149298-.5925078-.85733 4.0475254-6.093143-1.8220105-7.416762-2.8445902-.445914-.4086078-1.130197-.4086078-1.576111 0-1.546065 1.2106915-1.85945 3.7978983-3.279626 4.8404481-2.423188 1.7786824-2.990848-2.2503884-3.281945-3.9716566-.201466-1.5830991-.707722-3.1121803-1.490788-4.5027383-.176708-.2953538-.47907-.493403-.820438-.5373935-.341368-.0439906-.684065.070933-.929885.3118376-2.902672 3.3170986-4.132944 8.3328207-5.480279 12.4158288-.450598 1.3651929 1.701108 1.9503902 2.149299.5925078z"/><path d="m195.790983 44.111519c2.214383-2.2222163 5.230819.6775593 7.800224 1.0569034 3.25847.3726454 6.550572.3399145 9.800988-.0974438 4.380354-.4731325 8.688135-.3833559 13.064834-.6903081 3.779617-.265318 7.604169-1.4175254 11.385301-1.3706312.599988-.0214683 1.075293-.514062 1.075293-1.1144068 0-.6003447-.475305-1.0929385-1.075293-1.1144067-4.288434-.0534916-8.560373 1.2748813-12.866014 1.4264406-4.825959.1702814-9.605557.6821953-14.411812.901778-1.880255.0618998-3.76247.0240162-5.638711-.1134912-2.528571-.154323-3.135906-1.098181-5.212364-1.9755312-2.408834-1.0176762-3.760092-.2300135-5.498913 1.51488-.411152.4391116-.399866 1.1251816.025506 1.5505337.425371.4253521 1.111473.4366374 1.550605.025505z"/><path d="m166.400412 206.380379c2.868436 0 2.873161-4.457627 0-4.457627-2.868347 0-2.873161 4.457627 0 4.457627z"/><path d="m3.40408916 236.721218c.59128674-1.907329 2.87271566-3.653649 3.7639253-5.554203.9061145-1.874232 1.5439256-3.866659 1.89466747-5.918659.13299668-1.384366.1746933-2.775986.12481927-4.165831-.05130386-.923636.0025356-1.850111.16048193-2.761589l3.61458797-.714914c1.7965952.853724 1.7036048 7.592854 1.6877349 9.021524-.0394964 3.556027-2.983894 6.073873-1.9199879 9.381165.987053 3.068096 2.0078964 4.740152-.2693422 8.148008-1.5850265 2.371992-5.88745783 4.616497-8.94784819 3.32111-1.30560964-.552746-2.44289157 1.366709-1.12497831 1.924536 5.42206024 2.294876 12.0678843-1.50748 13.6169807-7.01996.3771646-1.657647.3630313-3.380355-.0412795-5.031591-.2267253-.926563-1.1574313-1.863913-1.1830193-2.779331-.0327205-1.173961 1.1405807-3.196297 1.5100458-4.375607.5091198-1.760099.6653435-3.60346.4596916-5.42413-.1936482-3.385567-1.860788-13.994987-7.75733978-10.776046-2.73229398 1.491522-1.89145784 5.929893-1.9864988 8.485985-.07082603 3.090209-.88424422 6.118005-2.37156626 8.827707-1.00247711 1.732501-2.78623374 2.900667-3.38099759 4.819051-.42563374 1.372949 1.72526987 1.960375 2.14929879.592508z"/><path d="m2.08162892 263.522612c2.07966747-1.823348 3.82294698-2.92349 4.95773253-5.582732 1.01710003-2.522458 1.10950325-5.32329.26087228-7.907296-.1020815-.379714-.39869436-.676314-.7784265-.77839l-.16699036-.023982c-1.40296868-.201218-2.00905542 1.946021-.59253494 2.1492l.16699036.023982-.77833735-.778302c.82866871 2.411188.60876687 5.059299-.60626506 7.300791-1.04117108 1.733125-2.55719036 2.721471-4.03879518 4.02078-1.08066747.947513.50097108 2.518648 1.57602169 1.576038z"/></g><path d="m322.240836 51.5185146c5.434631.6605312 10.432841 3.0586454 15.210656 5.6061793 9.892284 5.2743536 19.243566 10.4729275 30.822604 9.7010447 10.636386-.708941 20.787224-5.1226159 30.429157-9.3431864 8.133581-3.5602176 16.89206-7.7231064 25.797916-9.9124254v-4.1297241h-107.394863v8.0496722c1.706984-.186542 3.429717-.177 5.13453.0284397z" fill="#7f0f04"/><path d="m340.713019 75.1095254c12.854959 4.4219661 24.860434 8.2674719 38.572991 5.7171743 14.425542-2.6827783 30.055412-10.3918878 45.215248-11.4729516v-17.1928003c-1.77181.471082-3.531583 1.016339-5.269157 1.6174054-17.607096 6.0898319-34.437103 17.4977021-53.637964 17.6008515-10.151908.0545614-18.960315-4.170645-27.681171-8.9330847-4.464072-2.4378763-9.027643-5.0587827-14.047429-6.1499207-2.219291-.4878317-4.507072-.5817118-6.758874-.2773535v14.4534101c7.928877.0376224 15.675161 1.9092017 23.606356 4.6372695z" fill="#ff8b78"/><path d="m330.955807 92.5071092c9.134186 4.0431569 17.186366 10.8163428 27.818383 9.8888888 7.043374-.614439 13.72281-3.61674 20.368902-5.8074855 6.455563-2.1278037 12.968009-3.070681 19.710747-3.7978983 8.521837-1.069252 17.14913-.9813837 25.647419.261217v-19.1270539c-4.772045.4607739-9.489203 1.3760349-14.087282 2.7333278-11.206988 3.1333552-22.129923 7.4824837-33.717253 9.0741241-11.729892 1.6111647-22.429311-1.2115831-33.454063-5.0317695-8.84514-3.0649753-17.300932-5.6729546-26.136087-5.7516763v16.0445156c4.659501-.9897101 9.513599-.459126 13.849234 1.5138102z" fill="#7f0f04"/><path d="m353.492552 119.815157c11.710634.788643 22.004925-2.043733 33.016838-5.724306 11.755034-3.928953 25.221608-9.040068 37.991868-8.956622v-7.5939239c-9.423856-1.6519966-19.208795-1.1135153-28.849658.0811288-6.659834.8621049-13.206974 2.4414911-19.527352 4.7106421-5.639781 1.960286-11.35365 4.027377-17.349879 4.521995-9.293509.766712-17.56341-3.776591-25.402239-8.1159124-3.535595-1.9570766-7.19806-3.8329352-11.320484-3.9774515-1.668024-.0468099-3.333955.1499716-4.945162.5841275v16.2681994c11.75013 4.238579 23.85555 7.358294 36.386068 8.202123z" fill="#eab124"/><path d="m345.328212 134.871773c13.914028-1.244861 27.713876-3.541005 41.281301-6.868757 11.984701-2.935972 25.241133-6.483887 37.891567-6.427185v-12.254909c-14.727694-.206121-30.983087 7.379691-43.745234 11.317737-10.29571 3.329502-21.182335 4.428964-31.935904 3.225272-10.828135-1.267232-21.471335-3.794003-31.713547-7.529022v18.338054c9.371801 1.096382 18.835499 1.16305 28.221817.19881z" fill="#7f0f04"/><path d="m339.102672 147.416249c6.422755 1.715028 13.412277 3.926991 20.102234 4.006159 6.647786.078721 12.827766-3.201111 18.996335-5.239763 5.639959-1.864001 11.650007-2.490208 17.400075-4.017748 5.326395-1.414851 10.629609-2.976269 16.094286-3.773381 4.250744-.654079 8.58225-.573322 12.805656.23875v-12.79972c-14.73875-.108677-30.568509 5.226122-44.061205 8.20569-13.067541 2.884955-26.33547 4.772551-39.689142 5.646476-7.879789.574699-15.796196.40596-23.644338-.503979v2.990711c7.395186 1.254733 14.681422 3.293473 21.996099 5.246805z" fill="#3360ff"/><path d="m327.901569 183.262703h38.879154c3.105385-.559996 6.21496-1.209146 9.328725-1.947448 16.034552-3.772846 31.975222-8.624617 48.391632-9.804105v-6.282669c-18.152825-4.118847-38.118649 6.173457-55.498485 11.61203-16.992629 5.317236-34.950378-.827514-51.896467-6.504124v9.453914c3.498629 1.447549 7.108957 2.608827 10.795441 3.472402z" fill="#7f0f04"/><path d="m386.919867 183.262703h37.581391v-7.27663c-12.733528.951703-25.149747 4.157005-37.581391 7.27663z" fill="#7f0f04"/><path d="m338.745689 171.905204c6.139107 1.598552 12.461236 2.385755 18.804916 2.341503 5.855985-.170014 11.16339-1.918206 16.638588-3.835788 15.891277-5.565437 33.774402-12.953865 50.312065-9.753823v-17.330185c-6.131212-1.311879-12.624578-.744958-19.593774.984868-10.776004 2.674577-21.743785 4.781786-32.16352 8.58432-5.305444 1.936037-10.608747 3.418644-16.288916 2.742689-6.264321-.866378-12.458989-2.177741-18.537-3.924138-6.933532-1.85152-13.822754-3.783991-20.811385-5.014831v18.808512c7.164804 2.297372 14.311243 4.656883 21.639026 6.396873z" fill="#fff"/><path d="m249.855641 136.634408h23.505075v181.47633h-23.505075z" fill="#ba3500"/><path d="m267.687412 306.158057v-.350192c-.014986-1.179202-.482416-2.307588-1.305699-3.151988-.863251-.794248-1.980079-1.256847-3.152132-1.305639-1.181288.00513-2.313301.474006-3.152222 1.305639-.820369.84631-1.287269 1.973495-1.30561 3.151988v1.413871c.014954 1.179192.482352 2.307579 1.30561 3.151988.863237.794327 1.980122 1.256936 3.152222 1.305639 1.18111-.005057 2.312987-.473769 3.151865-1.305194.820424-.84628 1.287361-1.973476 1.305699-3.151988v-1.41387c-.014987-1.179203-.482416-2.307588-1.305699-3.151988-.863252-.794248-1.980079-1.256847-3.152133-1.305639-1.181287.00513-2.3133.474005-3.152221 1.305639-.82037.84631-1.28727 1.973494-1.30561 3.151988v.350191c.014953 1.179193.482351 2.30758 1.30561 3.151989.863236.794326 1.980121 1.256936 3.152221 1.305638 1.181266-.005105 2.313261-.473986 3.152133-1.305638.820424-.846281 1.287361-1.973477 1.305699-3.151989z" fill="#ba3500"/><path d="m288.227227 149.999628h1.063727c2.434615-.064875 4.392959-2.023129 4.457832-4.457633l-.159234-1.185015c-.20527-.743911-.600335-1.421717-1.146465-1.966973l-.902176-.696994c-.682338-.399763-1.459129-.609896-2.249957-.60865h-1.063727c-2.434615.064875-4.392959 2.023129-4.457832 4.457632l.159234 1.185016c.20527.743911.600335 1.421717 1.146465 1.966972l.902176.697084c.682355.399712 1.45914.609812 2.249957.608561z" fill="#ba3500"/></g></svg>