<svg height="330" viewBox="0 0 520 330" width="520" xmlns="http://www.w3.org/2000/svg" xmlns:xlink="http://www.w3.org/1999/xlink"><defs><path id="a" d="m24 2h417v8h-417z"/><filter id="b" height="275%" width="103.4%" x="-1.7%" y="-62.5%"><feOffset dx="0" dy="2" in="SourceAlpha" result="shadowOffsetOuter1"/><feGaussianBlur in="shadowOffsetOuter1" result="shadowBlurOuter1" stdDeviation="2"/><feColorMatrix in="shadowBlurOuter1" type="matrix" values="0 0 0 0 0   0 0 0 0 0   0 0 0 0 0  0 0 0 0.5 0"/></filter><filter id="c" height="300%" width="340%" x="-120%" y="-100%"><feOffset dx="0" dy="2" in="SourceAlpha" result="shadowOffsetOuter1"/><feGaussianBlur in="shadowOffsetOuter1" result="shadowBlurOuter1" stdDeviation="2"/><feColorMatrix in="shadowBlurOuter1" result="shadowMatrixOuter1" type="matrix" values="0 0 0 0 0   0 0 0 0 0   0 0 0 0 0  0 0 0 0.5 0"/><feMerge><feMergeNode in="shadowMatrixOuter1"/><feMergeNode in="SourceGraphic"/></feMerge></filter><rect id="d" height="56" rx="4" width="248"/><filter id="e" height="135.7%" width="107.3%" x="-4.4%" y="-8.9%"><feOffset dx="-2" dy="6" in="SourceAlpha" result="shadowOffsetOuter1"/><feGaussianBlur in="shadowOffsetOuter1" result="shadowBlurOuter1" stdDeviation="2"/><feColorMatrix in="shadowBlurOuter1" type="matrix" values="0 0 0 0 0   0 0 0 0 0   0 0 0 0 0  0 0 0 0.5 0"/></filter><mask id="f" fill="#fff"><path d="m9.5 2.70833333v7.58333337h-7v-7.58333337zm0-1.08333333h-7c-.55 0-1 .4875-1 1.08333333v7.58333337c0 .5958333.45 1.0833333 1 1.0833333h7c.55 0 1-.4875 1-1.0833333v-7.58333337c0-.59583333-.45-1.08333333-1-1.08333333z" fill="#fff" fill-rule="evenodd"/></mask><mask id="g" fill="#fff"><path d="m9.5 2.70833333v7.58333337h-7v-7.58333337zm0-1.08333333h-7c-.55 0-1 .4875-1 1.08333333v7.58333337c0 .5958333.45 1.0833333 1 1.0833333h7c.55 0 1-.4875 1-1.0833333v-7.58333337c0-.59583333-.45-1.08333333-1-1.08333333z" fill="#fff" fill-rule="evenodd"/></mask><mask id="h" fill="#fff"><path d="m8.88888889 1h-7.77777778c-.61666667 0-1.11111111.5-1.11111111 1.11111111v7.77777778c0 .61111111.49444444 1.11111111 1.11111111 1.11111111h7.77777778c.61666667 0 1.11111111-.5 1.11111111-1.11111111v-7.77777778c0-.61111111-.49444444-1.11111111-1.11111111-1.11111111zm-5.03174603 8-2.85714286-2.87907869.80571429-.8119002 2.05142857 2.06142035 4.33714285-4.37044146.80571429.81765835z" fill="#fff" fill-rule="evenodd"/></mask><mask id="i" fill="#fff"><path d="m33.3333333 3.33333333h-20c-1.8333333 0-3.3333333 1.5-3.3333333 3.33333334v20.00000003c0 1.8333333 1.5 3.3333333 3.3333333 3.3333333h20c1.8333334 0 3.3333334-1.5 3.3333334-3.3333333v-20.00000003c0-1.83333334-1.5-3.33333334-3.3333334-3.33333334zm-14.1666666 12.49999997c0 1.3833334-1.1166667 2.5-2.5 2.5h-1.6666667v3.3333334h-2.5v-10h4.1666667c1.3833333 0 2.5 1.1166666 2.5 2.5zm8.3333333 3.3333334c0 1.3833333-1.1166667 2.5-2.5 2.5h-4.1666667v-10h4.1666667c1.3833333 0 2.5 1.1166666 2.5 2.5zm6.6666667-5h-2.5v1.6666666h2.5v2.5h-2.5v3.3333334h-2.5v-10h5zm-19.1666667 1.6666666h1.6666667v-1.6666666h-1.6666667zm-8.33333333-5.8333333h-3.33333334v23.3333333c0 1.8333334 1.5 3.3333334 3.33333334 3.3333334h23.33333333v-3.3333334h-23.33333333zm16.66666663 9.1666667h1.6666667v-5h-1.6666667z" fill="#fff" fill-rule="evenodd"/></mask><mask id="j" fill="#fff"><path d="m33.3333333 3.33333333h-20c-1.8333333 0-3.3333333 1.5-3.3333333 3.33333334v20.00000003c0 1.8333333 1.5 3.3333333 3.3333333 3.3333333h20c1.8333334 0 3.3333334-1.5 3.3333334-3.3333333v-20.00000003c0-1.83333334-1.5-3.33333334-3.3333334-3.33333334zm-14.1666666 12.49999997c0 1.3833334-1.1166667 2.5-2.5 2.5h-1.6666667v3.3333334h-2.5v-10h4.1666667c1.3833333 0 2.5 1.1166666 2.5 2.5zm8.3333333 3.3333334c0 1.3833333-1.1166667 2.5-2.5 2.5h-4.1666667v-10h4.1666667c1.3833333 0 2.5 1.1166666 2.5 2.5zm6.6666667-5h-2.5v1.6666666h2.5v2.5h-2.5v3.3333334h-2.5v-10h5zm-19.1666667 1.6666666h1.6666667v-1.6666666h-1.6666667zm-8.33333333-5.8333333h-3.33333334v23.3333333c0 1.8333334 1.5 3.3333334 3.33333334 3.3333334h23.33333333v-3.3333334h-23.33333333zm16.66666663 9.1666667h1.6666667v-5h-1.6666667z" fill="#fff" fill-rule="evenodd"/></mask><mask id="k" fill="#fff"><path d="m33.3333333 3.33333333h-20c-1.8333333 0-3.3333333 1.5-3.3333333 3.33333334v20.00000003c0 1.8333333 1.5 3.3333333 3.3333333 3.3333333h20c1.8333334 0 3.3333334-1.5 3.3333334-3.3333333v-20.00000003c0-1.83333334-1.5-3.33333334-3.3333334-3.33333334zm-14.1666666 12.49999997c0 1.3833334-1.1166667 2.5-2.5 2.5h-1.6666667v3.3333334h-2.5v-10h4.1666667c1.3833333 0 2.5 1.1166666 2.5 2.5zm8.3333333 3.3333334c0 1.3833333-1.1166667 2.5-2.5 2.5h-4.1666667v-10h4.1666667c1.3833333 0 2.5 1.1166666 2.5 2.5zm6.6666667-5h-2.5v1.6666666h2.5v2.5h-2.5v3.3333334h-2.5v-10h5zm-19.1666667 1.6666666h1.6666667v-1.6666666h-1.6666667zm-8.33333333-5.8333333h-3.33333334v23.3333333c0 1.8333334 1.5 3.3333334 3.33333334 3.3333334h23.33333333v-3.3333334h-23.33333333zm16.66666663 9.1666667h1.6666667v-5h-1.6666667z" fill="#fff" fill-rule="evenodd"/></mask><mask id="l" fill="#fff"><path d="m35 31.6666667v-23.33333337c0-1.83333333-1.5-3.33333333-3.3333333-3.33333333h-23.33333337c-1.83333333 0-3.33333333 1.5-3.33333333 3.33333333v23.33333337c0 1.8333333 1.5 3.3333333 3.33333333 3.3333333h23.33333337c1.8333333 0 3.3333333-1.5 3.3333333-3.3333333zm-20.8333333-9.1666667 4.1666666 5.0166667 5.8333334-7.5166667 7.5 10h-23.33333337z" fill="#fff" fill-rule="evenodd"/></mask><mask id="m" fill="#fff"><path d="m12 2c-5.52 0-10 4.48-10 10s4.48 10 10 10 10-4.48 10-10-4.48-10-10-10zm0 18c-4.41 0-8-3.59-8-8s3.59-8 8-8 8 3.59 8 8-3.59 8-8 8zm4.59-12.42-6.59 6.59-2.59-2.58-1.41 1.41 4 4 8-8z" fill="#fff" fill-rule="evenodd"/></mask><mask id="n" fill="#fff"><path d="m12 12c2.21 0 4-1.79 4-4s-1.79-4-4-4-4 1.79-4 4 1.79 4 4 4zm0 2c-2.67 0-8 1.34-8 4v2h16v-2c0-2.66-5.33-4-8-4z" fill="#fff" fill-rule="evenodd"/></mask><mask id="o" fill="#fff"><path d="m9 11h-2v2h2zm4 0h-2v2h2zm4 0h-2v2h2zm2-7h-1v-2h-2v2h-8v-2h-2v2h-1c-1.11 0-1.99.9-1.99 2l-.01 14c0 1.1.89 2 2 2h14c1.1 0 2-.9 2-2v-14c0-1.1-.9-2-2-2zm0 16h-14v-11h14z" fill="#fff" fill-rule="evenodd"/></mask><mask id="p" fill="#fff"><path d="m19 15-6 6-1.42-1.42 3.59-3.58h-11.17v-12h2v10h9.17l-3.59-3.58 1.42-1.42z" fill="#fff" fill-rule="evenodd"/></mask><mask id="q" fill="#fff"><path d="m14.4 6-.4-2h-9v17h2v-7h5.6l.4 2h7v-10z" fill="#fff" fill-rule="evenodd"/></mask></defs><g fill="none" fill-rule="evenodd"><path d="m0 0h520v330h-520z" fill="#f4f0ea"/><g transform="translate(24 123)"><text fill="#000" font-family="Roboto-Regular, Roboto" font-size="14" letter-spacing=".21875"><tspan x="1" y="13">3 Subtasks</tspan></text><g fill="#000" fill-opacity=".54" mask="url(#f)" transform="translate(0 73)"><path d="m0 0h12v13h-12z"/></g><path d="m26 75h226v9h-226z" fill="#d8d8d8"/><g fill="#000" fill-opacity=".54" mask="url(#g)" transform="translate(0 53)"><path d="m0 0h12v13h-12z"/></g><path d="m26 55h326v9h-326z" fill="#d8d8d8"/><g transform="translate(1 31)"><use fill="#000" filter="url(#b)" xlink:href="#a"/><use fill="#d8d8d8" fill-rule="evenodd" xlink:href="#a"/><g filter="url(#c)"><g mask="url(#h)" transform="translate(0 1)"><path d="m0 0h11v11h-11z" fill="#1935e6" transform="translate(-1)"/></g></g></g></g><g transform="translate(24 228)"><g fill="#000" fill-opacity=".54" mask="url(#i)" transform="translate(36 32)"><path d="m0 0h40v40h-40z"/></g><path d="m16 81h80v8h-80z" fill="#d8d8d8"/><g fill="#000" fill-opacity=".54" mask="url(#j)" transform="translate(156 32)"><path d="m0 0h40v40h-40z"/></g><path d="m136 81h80v8h-80z" fill="#d8d8d8"/><g fill="#000" fill-opacity=".54" mask="url(#k)" transform="translate(396 32)"><path d="m0 0h40v40h-40z"/></g><path d="m376 81h80v8h-80z" fill="#d8d8d8"/><g fill="#000" fill-opacity=".54" mask="url(#l)" transform="translate(276 32)"><path d="m0 0h40v40h-40z"/></g><path d="m256 81h80v8h-80z" fill="#d8d8d8"/><text fill="#000" font-family="Roboto-Regular, Roboto" font-size="14" letter-spacing=".21875"><tspan x="0" y="13">Files</tspan></text></g><g transform="translate(25 67)"><path d="m0 32h317v8h-317z" fill="#d8d8d8"/><text fill="#000" font-family="Roboto-Regular, Roboto" font-size="14" letter-spacing=".21875"><tspan x="0" y="13">Description…</tspan></text></g><text fill="#2c4bff" font-family="Roboto-Regular, Roboto" font-size="18" letter-spacing=".225" transform="translate(16 22)"><tspan x="0" y="17">Technical viewing</tspan></text><g transform="translate(237 25)"><use fill="#000" filter="url(#e)" xlink:href="#d"/><use fill="#f9f9fa" fill-rule="evenodd" xlink:href="#d"/></g><g fill="#000" fill-opacity=".54"><g mask="url(#m)" transform="translate(253 41)"><path d="m0 0h24v24h-24z"/></g><g mask="url(#n)" transform="translate(301 41)"><path d="m0 0h24v24h-24z"/></g><g mask="url(#o)" transform="translate(349 41)"><path d="m0 0h24v24h-24z"/></g></g><g fill="#2c4bff" mask="url(#p)" transform="translate(445 41)"><path d="m0 0h24v24h-24z"/></g><g fill="#000" fill-opacity=".54" mask="url(#q)" transform="translate(397 41)"><path d="m0 0h24v24h-24z"/></g></g></svg>