<svg height="330" viewBox="0 0 520 330" width="520" xmlns="http://www.w3.org/2000/svg"><g fill="none" fill-rule="evenodd"><path d="m0 0h520v330h-520z" fill="#f4f0ea"/><g fill-rule="nonzero" transform="translate(105 10)"><path d="m171.922561 211.012777c-.53777-2.049559-1.488697-4.005355-1.739451-6.106227-.091303-.765294-.134372-1.636134-.741313-2.13308-.580611-.475308-1.429171-.401917-2.176953-.531192-1.981353-.343171-3.499046-2.224034-5.51161-2.239726-.448569-.023354-.890321.114194-1.241119.386447-.634462.549966-.560581 1.519578-.402887 2.330515.126427.649895.27385 1.295459.442268 1.936691.706842.48848 1.372531 1.030722 1.990773 1.621599 2.262221 1.904021 4.339213 4.00583 6.204746 6.278886.121996.183598.296846.328419.502872.416508.185934.042571.380391.0343.561772-.023895.59084-.143815 1.154312-.377986 1.669258-.69372.183812-.095878.337429-.238268.444538-.412048.100379-.268528.099354-.562895-.002894-.830758z" fill="#fff"/><path d="m164.456424 179.469434c-.095135-.613976-.193621-1.227385-.301365-1.839544-.8185-4.649106-.759034-8.819421.662025-12.974632-.832416-5.836123-1.211876-11.682069 1.125942-17.351725.477031-1.710585 1.163623-3.355714 2.044179-4.898012.291149-3.798658.890049-7.567451 1.790807-11.269307 1.662091-6.494654 4.430596-12.654688 8.184153-18.210065 3.23521-9.01825 5.406045-18.410087 8.62291-27.3948961 4.250398-11.8718711 1.259528-24.7351654 2.973489-37.0388751 1.713961-12.3037096 10.707698-25.5292351 27.441436-27.4418498-34.143473-18.30692474-78.821186-25.28668786-118.4703263-18.50819582-27.8472498 4.76089849-53.1486908 15.87168662-81.8879931 17.56332892-35.2069956 2.0723256-5.1543212 62.5628868 4.8577277 74.073719 5.6027329 6.3424519 12.4652785 12.1580789 17.0497561 18.8913769 3.1403022 4.612146 5.1981117 9.634384 9.3895545 13.810206 9.7440242 9.707568 29.0465169 12.990983 37.0831118 23.453048 3.9473865 5.138971 4.5628948 11.335224 6.7783158 16.916196 2.1366428 1.635689 4.0885446 3.499337 5.8211171 5.557921 2.7639764 3.302733 5.8380204 6.333268 9.1800304 9.050101.055434.039743.111833.078862.167381.118832 4.503542 1.204334 8.922059 3.345302 13.275146 5.471678 1.626039.794297 3.266107 1.549986 4.909299 2.294377 1.373861.085789 2.776859.254016 4.222284.470503 4.198088.628681 8.119916 2.548506 11.999203 4.364772 8.223172 3.077262 15.348404 6.886934 21.898453 12.994561 2.415119 2.252078 4.90095 4.288976 7.266769 6.427048 1.231736-.471771 2.472011-.923576 3.720824-1.355415-3.005856-4.591317-5.276647-9.623359-6.730436-14.914556-1.684938-5.931052-2.332253-12.133949-3.073793-18.260595z" fill="#fff"/><path d="m61.2440703 69.9221981 2.6473484-21.084128.6944237-5.5309225.0119532-.0968747-48.8908494-5.2102729-.7069462 5.6277972 41.9636876 4.4720989-2.6473483 21.0841281-.2071888-.0220943-.7069461 5.6277972.2071887.0220943 6.927731.7381739 41.7564989 4.4500047.706377-5.6277972z" fill="#ff8b78"/><path d="m128.86215 68-6.86215-.7398213 3.137288-25.2601787 6.862712.7398213z" fill="#3360ff"/><path d="m153.164574 65.4061505-24.341174-12.9828819-6.385641-3.4059078-.11185-.0599632-27.325909 28.5767314 6.49749 3.465871 23.45376-24.5277901 24.341742 12.983453-.115824.1210685 6.496923 3.4652999.115823-.1210685 3.87215-4.0489413 23.337936-24.4067216-6.496922-3.4652999z" fill="#ff8b78"/><path d="m70.3067424 70.7175093c2.1508187-2.3966883 4.9267262-4.1543238 8.0201574-5.0781638 3.3691457-.9782926 7.5201436-.8893928 10.6692448.6535096 3.1491012 1.5429023 4.9112136 4.6634669 3.5256974 7.0923254l-5.0263618-.5501874c.7768678-1.5669019-.9591904-3.4928961-3.2325312-3.9977323-2.1983215-.4477184-4.4842387.0595795-6.2827398 1.3942853-1.4001133 1.1518752-2.3903381 2.7213773-2.8242169 4.4763716-1.2831685 4.3548527-.665118 8.9637854.4650672 13.439481 1.1724383 4.6421716 2.6280742 10.0527803-1.6511556 13.3766653-1.6255544 1.262682-3.8872275 2.010274-6.2015187 2.505646-6.2818336 1.344596-13.1076898 1.007475-19.7683852.658749.0188974-1.684408.4926379-3.332798 1.3716395-4.7726483 5.4275044 1.1580833 11.0594149.9547973 16.3882514-.5915389 6.4521486-1.9480783 5.0515663-3.370363 2.1662921-7.166634-4.9378909-6.4972937-2.8199123-15.7731299 2.3805594-21.4401285z" fill="#ba3500"/><path d="m95.2148434 91.9217337c5.7568906 2.7770066 13.5474726 2.7632713 18.8991976.0052872 5.351726-2.7579841 7.975601-8.079129 6.461278-12.9875246-1.057509-3.4276817-3.880116-6.4738202-6.974352-9.2066899-3.094235-2.7328697-6.535802-5.2699967-9.221275-8.2257924-.726026-.7988327-1.421364-1.7059962-1.300754-2.6356305.18412-1.4195084 2.356126-2.2794891 4.265779-1.997369 1.769052.2999339 3.370437 1.2492074 4.504078 2.6699401l1.922129-2.1161594c.223855-.2464887.457265-.541712.322378-.8357859-.153346-.2265471-.372501-.3980278-.626434-.4901614-2.77683-1.4283118-5.85032-2.1486236-8.958304-2.0994931-3.121718.1239053-6.1626166 1.3972675-7.3752443 3.4999215-1.7433489 3.0229206.5823715 6.6475519 3.4227393 9.3772033 2.332409 2.2416738 5.044522 4.2550194 7.445217 6.4574987 2.400695 2.2024794 4.524311 4.6581714 5.384548 7.3759839.985975 2.7775998.10093 5.8883145-2.188361 7.6915515-3.351812 2.6436189-9.269779 2.6602852-13.9992855 1.193479-1.7265243-.4591477-3.3386121-1.2863544-4.730518-2.4273593-2.4980939-2.2858108-2.3484263-5.4920607-1.6702294-8.2825727-2.3870375.2586148-3.6937484-.5257354-3.7956437 1.6646178-.0296893 1.5367789.3110919 3.0573962.9922572 4.4276017 1.5690462 3.082968 4.1147871 5.5302235 7.2207998 6.9414535z" fill="#ba3500"/><path d="m156.187343 55.6547995.776028.0224414c-.661705-1.4954908-1.492207-3.1444802-3.420559-3.9202212-1.761633-.6234668-3.705815-.5172485-5.386064.2942621-1.386218.7131998-2.533483 1.803614-3.304292 3.1405529-1.013922 1.6016133-1.668188 3.3970343-1.919148 5.266477-.246653 1.9078503-.045729 3.8526166-.296669 5.7600181-.170605 2.0457541-1.220084 3.9236111-2.886153 5.1642567-3.301491 2.3315428-9.136218 1.9559309-13.25495.059189-4.118732-1.8967418-6.90771-4.9470245-9.495536-7.919043 1.106022-.9088742 2.463671-1.7145743 3.569522-2.6235607 2.377928 3.9454115 6.005126 7.9390159 11.594172 9.503121 1.012506.283378 2.192153.4699777 3.097023.102052.700887-.3407181 1.234105-.9420634 1.481175-1.670421 1.392498-2.9985367 2.628087-6.0369068 3.706767-9.1151103.845994-2.4139024 1.60956-4.8798688 3.243528-7.0492729 1.856352-2.4583908 4.628278-4.0961049 7.710604-4.5555915 3.415986-.5067254 7.555581.7044897 8.951528 3.0775489.513448.9739984.727902 2.0733019.617347 3.1645652-.047387 1.1161199-.257228 2.2979369-1.265675 3.1134551-.890523.7202547-2.256174 1.0341529-3.573752 1.2840933-3.753999.7075722-7.558734 1.1252318-11.379244 1.249141-.228835-.8502191-.18573-1.7489415.123469-2.574302.06302-.2310464.221587-.4257122.437345-.536909.362628-.1050548.748213-.106767 1.111796-.0049371 3.72331.6693889 7.566178.2037272 11.011808-1.3343619-.604485-.209041-.645356.3115419-1.25007.1025569z" fill="#ba3500"/><path d="m135.631767 47.420704c.240687-2.507068 2.286634-4.6321874 4.264458-6.6247894l2.919647-2.9414655c6.415357-6.4635704 2.362568-16.6309659-5.287631-22.9559823-1.976954-1.6659923-4.241639-2.9576328-6.682779-3.8114564-4.378511-1.38267475-9.067524-1.44769519-13.482767-.1869595-3.919845 1.1120459-7.495207 3.1946628-10.394662 6.0547994-1.31186 1.2900944-2.462218 2.7190845-2.840577 4.3280294-.686316 2.9172058 1.468916 5.9362342 4.784538 7.8887449 3.155146 1.382236 5.969215 2.2174318 9.638569 1.9256315.784939-.0626426 1.554029-.1619025 2.317761-.2738048.150614-.0300115.30043-.0617314.448821-.0961279.010261-.0029043.020922.0081436.031696.024032.676909-.1037019 1.351823-.2123012 2.029473-.3152058.854742-.245785 1.739191-.3733023 2.628623-.3789873.474589-.1346815.949747-.275798 1.427357-.4296709 2.433258-.7838858 5.045178-1.7341161 7.666105-2.1678302.289897-.052428.587929-.0383686.87159.0411163-.331176-1.6672405-.662353-3.334519-.993529-5.0018354-2.73557 2.3747215-6.833052 3.6940871-10.955903 4.6061624-2.635236.5830311-5.437675 1.0315516-8.21258.6337715-2.774904-.39778-5.513153-1.8326927-6.208646-3.8328687-.490551-1.4112224.07981-2.8602011.866516-4.1448286.494842-.836428 1.111325-1.5947828 1.829262-2.2502336 1.793404-1.595847 4.468716-2.5362253 7.197957-3.1695982 3.533506-.8200477 7.674143-1.143511 10.958696.3445909 3.421314 1.5501179 4.91862 4.5850916 5.854686 7.398083 1.029281 2.8190636 1.53265 5.8026973 1.485164 8.8030411-.142002 3.4381742-1.562213 6.6999268-3.983125 9.1479167-2.385201 2.4791067-3.40273 5.6106638-2.503948 8.7110136 1.006927 3.4729589 4.367528 6.6344136 8.774106 8.2540078 0-1.0482374.518028-1.8455629 1.293275-2.6977861-3.635948-1.1013696-6.009975-4.0924935-5.742153-6.8815099z" fill="#ba3500"/><path d="m147.904449 26.8974323-.012386.1025677c-1.008532-2.1070976-2.320808-4.0441259-3.892063-5.7450127 2.076499-.5584566 3.432233-2.0059109 4.465444-3.4604548 2.481014-3.4011796 3.834315-7.5370458 3.859299-11.7945325 1.872736.37610378 3.769492.61110888 5.675257.70315548-.222146 7.33030872-3.906138 14.42776262-10.24941 19.74611692-.094747-.1788689.248606.6269125.153859.4481599z" fill="#ba3500"/><g fill="#71e289"><path d="m154.354346 26-2.676524 7.1512198c1.50942-.9457736 3.214793-1.4946681 4.970519-1.599821 1.853047-.0783547 3.869044.5123556 4.963916 1.7100221 1.094873 1.1976664.987098 2.9973624-.462436 3.8284154-1.010998.4691668-2.116346.6713289-3.219204.5887749-1.073779.0429991-2.143308-.1639072-3.131685-.6058417-.912115-.4818582-1.49514-1.4323201-1.053688-2.1650778-1.280486-.4206876-2.824589.0879731-3.421492.9994923-.596903.9115191-.328137 2.0963414.476258 2.9734923.95025.9163494 2.125602 1.5366315 3.393848 1.7910747 2.521876.5133274 5.121761.4236353 7.60597-.2623946 1.377629-.3334769 2.764322-.7917583 3.65064-1.6480303.606437-.6012315 1.000886-1.3998713 1.119158-2.2659537.235579-1.544094-.215372-3.1163337-1.224247-4.2683398-1.259166-1.390126-2.961367-2.2474997-4.783676-2.4094672-1.635099-.0738767-3.270697.1336163-4.84176.6142285 2.040611-1.0408043 4.342963-1.3787156 6.577855-.9654173 2.163551.3310072 4.152501 1.4323246 5.632725 3.1189413.075935-.6367496.207045-2.5987854-.35869-3.1390578-.70507-.6736397-2.536237-.6451364-3.522888-.8204376-3.297446-.5820412-6.540957-1.4605596-9.694599-2.6258225z"/><path d="m49.6158964 26.5891673c-.5489667 1.2732959-.8806034 2.6690142-.3422962 3.9904026.7516445 1.5461311 2.2971809 2.5281836 3.9930781 2.5372503 2.0214019.01926 3.4477969-1.2672988 4.8602437-2.279085 1.7204414-1.2051217 3.6301974-2.1033198 5.6472926-2.6560398 1.9737175-.5581373 4.4263208-.7908147 6.1708012.2191262.7910154.4032486 1.3623966 1.1461712 1.5567238 2.024087.1943271.8779157-.0089055 1.7981859-.5537057 2.507269-1.0584704 1.414517-3.102779 2.2604593-5.2020296 2.7483033-3.2619022.7339288-6.6357186.792351-9.9202973.1717834-.8410837 1.1906624.2525406 2.8154828 1.900348 3.5215304 1.6478074.7060475 3.6295195.702876 5.4578021.5295933 3.0676365-.3141455 6.0896937-.9852751 9.0068647-2.0002182 1.0815595-.2975963 2.0959897-.8060024 2.9869415-1.4969776.6126887-.5953563 1.0621689-1.342884 1.3040937-2.16883.894098-2.5960684.7902808-5.6470541-1.5856645-7.8175564-1.9191156-1.7530093-5.0623216-2.6237474-8.0189287-2.5697155-2.827036.0933247-5.5977144.828816-8.1089679 2.1525685-1.4704506.7508531-2.8633361 1.6478287-4.6079299 1.9975656-.6444491-1.2051939.1392545-2.5676396 1.4283227-3.3534952 1.2890683-.7858556 2.9817819-1.1178317 4.6305532-1.406271-1.1177784-2.3085517-.8547484-5.8578765-4.760679-3.4195213-2.5715287 1.6083074-4.6073977 3.9667282-5.8425665 6.7682304z"/><path d="m49.2058355 25c.4995346-.4962586 1.1131477-.8791188 1.7941645-1.1194582-1.385251-1.13176-2.5971572-2.4376206-3.6013434-3.8805418-1.3496122.5191154-1.7769581 1.2945312-1.0423987 2.2678506.2607874.3456857 3.0786425 2.4959211 2.8495776 2.7321494z"/><path d="m52.7840774 19.8630284c.0693576.0665674.1537978.1134883.2453198.1363169.1908073.0098389.3711168-.091819.4683192-.2640368.4043843-.5038986.9200332-.8969106 1.5022836-1.1449651.0084782-.0711406-1.3642559-.9604512-1.5207044-1.1098248-.4418853-.445555-.833991-.9422473-1.1687712-1.4805186-2.1919721 1.340548-1.3569302 2.3423186.473553 3.8630284z"/><path d="m60.3978329 34.9104604c.0605294.0411729.1309895.0707248.2064664.086595.0997361.0089171.2005549-.002489.2939669-.0332579.681812-.1679845 1.3923011-.2381423 2.1017338-.2075374-1.1081332-.8325709-2.2409586-1.6527243-3.3984762-2.4604599-.1278408-.100844-.2788553-.1785398-.4437212-.2282912-.930423-.2362295-2.420824.1752654-2.1178669.8023916.3092379.6396822 2.5606645 1.5673226 3.3578972 2.0405598z"/><path d="m67.2167005 33c.4767609-.5859578 1.0998343-.9873536 1.7832995-1.1488354l-4.0203726-3.5840132c-.0934186-.0929869-.2004135-.1662146-.3160305-.2162925-.1246065-.038578-.25355-.0553739-.3825014-.049824-1.9090395-.0209236-1.3732175.6857547-.397012 1.7100915 1.071004 1.1235349 2.1818763 2.2198261 3.332617 3.2888736z"/><path d="m70.9350578 44c-.1777413-.5059007 1.1641839-.7082841 1.0590642-1.2210354-.0428682-.1238417-.1197141-.2343212-.222464-.3198309-.8411996-.8508699-1.6901455-1.6982564-2.5229936-2.5527838-.989045-1.0149363-1.6023339-.9744712-3.2486644-.8302019.1013071.7067166 1.4250768 1.4920412 2.0495616 2.0574493 1.0227131.9258396 1.9845452 1.8813072 2.8854962 2.8664027z"/><path d="m75.5634387 41c.3645317-.5040411.8647869-.8826699 1.4365613-1.0872919-1.3042601-.6695608-2.4266972-1.671137-3.2641866-2.9127081-.9373056.6810561-.946242.8148812-.2135732 1.728559.1822117.2279199 2.1326978 2.1362054 2.0411985 2.271441z"/></g><path d="m108.698214 148.720872 1.414042-11.043867.370971-2.896899.006298-.050852-26.1122564-2.729254-.3772686 2.947751 22.412276 2.342554-1.414042 11.043867-.11049-.011177-.377841 2.947751.111062.011735 3.699408.3867 22.301786 2.330819.377841-2.947751z" fill="#ff8b78"/><path d="m144.431186 147-3.431186-.398297 1.568814-13.601703 3.431186.398297z" fill="#3360ff"/><path d="m158.064941 145.813196-13.000449-6.815938-3.410291-1.788111-.05996-.031618-14.594241 15.003307 3.46968 1.819164 12.527052-12.876996 13.000449 6.816502-.062244.063236 3.470251 1.819729.062244-.0638 2.06776-2.125746 12.464808-12.813761-3.470251-1.819164z" fill="#ff8b78"/><path d="m112.896763 149.006136c1.147131-1.257959 2.627649-2.18049 4.277515-2.665378 1.878066-.551982 3.89566-.430361 5.690345.343014 1.679514.809815 2.619277 2.447709 1.88038 3.722543l-2.680771-.288779c.414303-.822399-.511579-1.833345-1.724056-2.09829-1.172377-.23493-2.391448.031326-3.350608.731801-.746741.604594-1.274875 1.428386-1.506294 2.349538-.684344 2.285557-.354687 4.704811.248024 7.053959.625238 2.436628 1.401624 5.27641-.880601 7.020995-.991438.669024-2.120273 1.117861-3.307488 1.315093-3.350324.705741-6.990825.528999-10.543209.345798.010066-.884087.262714-1.749273.731502-2.505008 2.894723.607786 5.898445.501064 8.740536-.31055 3.441114-1.022473 2.694139-1.769031 1.155306-3.761522-2.633783-3.410154-1.50419-8.278733 1.269419-11.253214z" fill="#ba3500"/><path d="m127.349671 159.908933c3.047665 1.457908 7.171768 1.450692 10.005009.002728 2.83324-1.447965 4.222154-4.241565 3.420485-6.818231-.55979-1.799558-2.054039-3.398831-3.69234-4.833613-1.638301-1.434783-3.45993-2.767066-4.881621-4.318554-.412302-.341643-.662523-.844468-.688602-1.38376.097491-.745232 1.247327-1.196713 2.257986-1.048643.936488.157517 1.784219.655874 2.384389 1.401714l1.017439-1.110974c.118502-.129376.242047-.284093.170665-.43881-.081188-.11892-.197211-.208927-.331638-.257274-1.470006-.749883-3.097065-1.128063-4.742388-1.102281-1.652868.065057-3.262426.733585-3.904355 1.8374-.922917 1.586999.308162 3.489968 1.81188 4.923046 1.234833 1.176883 2.670531 2.233936 3.941447 3.390251s2.395034 2.445529 2.850498 3.872414c.521932 1.458259.053392 3.091385-1.158521 4.038097-1.774396 1.387851-4.907282 1.396658-7.411014.626539-.914079-.241013-1.767581-.675285-2.504516-1.274328-1.322295-1.200065-1.243237-2.883372-.8842-4.348383-1.263632.135626-1.955428-.276025-2.009328.873927-.015718.806812.164683 1.605141.525276 2.324505.830865 1.618687 2.178863 2.9035 3.823449 3.64423z" fill="#ba3500"/><path d="m159.484451 140.980264.40564.011702c-.284842-.889886-.931199-1.626673-1.788046-2.038207-.920857-.324191-1.937131-.268962-2.815452.153002-.724671.370863-1.324443.937877-1.727445 1.633093-.529987.832822-.871978 1.766419-1.003155 2.738505-.128912.992074-.023914 2.003376-.155076 2.995176-.089184 1.06378-.637776 2.040252-1.508673 2.685379-1.725756 1.212431-4.775736 1.017126-6.928683.03082-2.152947-.986305-3.610978-2.572481-4.963561-4.117893.578159-.472468 1.287706-.891592 1.865865-1.364225 1.243085 2.051557 3.139053 4.128221 6.060572 4.941526.520062.185637 1.087259.204231 1.618903.053071.36636-.177169.645086-.489849.774255-.868573.72774-1.559256 1.373609-3.139206 1.937607-4.739848.366162-1.300618.938203-2.537394 1.695428-3.665587.970383-1.278348 2.419351-2.129947 4.030572-2.36888 1.785626-.263704 3.949489.366273 4.679236 1.600294.268419.506469.380538 1.078106.322756 1.645564.034475.608462-.207592 1.200809-.661606 1.618974-.560326.362782-1.200328.591537-1.868115.667719-1.962308.367914-3.951134.585091-5.948204.649534-.119626-.442108-.097094-.909442.06454-1.338624.03296-.120138.115845-.221359.228619-.279196.189548-.054617.391092-.055513.581141-.002582 1.946304.348092 3.955106.105967 5.756272-.693814-.315947-.108943-.33733.161738-.65339.05307z" fill="#ba3500"/><path d="m148.568816 135.904826c.126075-1.333576 1.197769-2.463961 2.233755-3.523839l1.529546-1.564661c3.360445-3.437931 1.237526-8.846334-2.769715-12.210734-1.035541-.886198-2.221814-1.573253-3.500522-2.027403-2.293507-.735462-4.749653-.77004-7.062396-.099428-2.053237.591521-3.926033 1.699299-5.444789 3.22065-.696045.613277-1.211057 1.410123-1.487933 2.302184-.359499 1.551598.769441 3.157616 2.506206 4.196217 1.563515.789787 3.306049 1.143291 5.048737 1.024226.411178-.0332.814034-.08608 1.214077-.145634.078727-.015972.157453-.0328.235112-.051339.005623-.001541.010965.004335.016588.012777.354608-.055161.70809-.112947 1.063091-.167652.447735-.130726.911026-.198555 1.376928-.201594.248551-.071647.497496-.146717.747622-.228575 1.309042-.483145 2.651161-.868535 4.015619-1.153089.151853-.027894.307969-.020424.456559.021848-.173499-.886882-.346979-1.773727-.52044-2.660534-1.432936 1.26324-3.579249 1.964939-5.738832 2.450099-1.402347.373584-2.859576.487785-4.301847.33713-1.453518-.211576-2.887805-.974883-3.25214-2.038811-.183858-.766765-.017077-1.576753.453971-2.204752.259191-.444901.582103-.84827.958159-1.196899 1.105321-.860558 2.398462-1.438817 3.77033-1.685993 1.850919-.436216 4.019781-.608261 5.740295.183282 1.792099.824572 2.576441 2.438918 3.066739 3.935184.539178 1.49953.802863 3.086607.777987 4.682574-.074373 1.828777-.818238 3.563723-2.086255 4.865857-1.242348 1.1833-1.745806 2.961919-1.311585 4.633574.527412 1.847371 2.287795 3.528973 4.595947 4.390509.031639-.549926.274916-1.06525.677442-1.435-1.905015-.5855-3.148502-2.176687-3.008256-3.660174z" fill="#ba3500"/><path d="m154.231182 124.946289-.007088.053711c-.576313-1.103749-1.326203-2.118417-2.224094-3.009396 1.050659-.299117 1.954947-.941483 2.551722-1.81263 1.417683-1.781566 2.190952-3.947926 2.205192-6.177974 1.070164.196982 2.154051.320071 3.243086.368293-.12692 3.839587-2.232151 7.557251-5.857026 10.343034-.053858-.093492.142368.328626.088208.234962z" fill="#ba3500"/><g fill="#71e289" transform="translate(89 120)"><path d="m69.3222742 5.70896751-1.4410098 3.67843824c.8126473-.48647276 1.730781-.76880792 2.6760234-.82290349.972405-.0761957 1.9348061.24056561 2.6724491.8796006.2938841.26484507.4395483.65706484.3898959 1.04984524-.0496525.3927805-.2883212.7362819-.6388388.9194421-.5443096.2413379-1.1394169.3453275-1.7331831.302858-.5780856.0221142-1.1538821-.0843252-1.6859815-.3116637-.4909645-.2478652-.8049799-.7367216-.5673267-1.1134904-.6614627-.2109607-1.3848831-.0090399-1.8419964.5141371-.2949609.5048922-.1870373 1.1487813.256375 1.5295723.5116039.4713489 1.1443908.7904108 1.8271891.9212996 1.3577113.264039 2.7574197.2178992 4.0948507-.1349823.7148052-.1164342 1.3898938-.4076306 1.9654466-.8477866.3264409-.3092744.53877-.7200604.6024443-1.165529.126772-.794255-.1160074-1.60296619-.6591202-2.19556444-.6779695-.71510532-1.5944899-1.15612561-2.5756633-1.23938298-.8802846-.03800532-1.7608381.06873688-2.6066392.31598131 1.0985889-.53540009 2.3381093-.70923259 3.54131-.49663944 1.1648044.17027531 2.235607.73677438 3.0325314 1.60433514.0409043-.32751389.111423-1.33675658-.192891-1.6146747-.3797118-.34654548-1.365442-.33188831-1.89663-.42199013-1.7752376-.29947207-3.521431-.75144189-5.2192355-1.35090245z"/><path d="m13.8854913 5.60210652c-.3458122.64089683-.4116394 1.39644269-.1818849 2.08762405.3993853.8089389 1.2206517 1.32273876 2.1218019 1.32743962 1.0740629.0100555 1.8319546-.66303808 2.5824144-1.19234369.9141069-.63046957 1.9288037-1.10037104 3.0005342-1.38953375 1.0487034-.29200718 2.3518529-.41369577 3.2787512.11458725.4202787.21098522.7238586.59965617.827111 1.05894361.1032523.45928744-.0047167.94073343-.2941643 1.31171152-.5624476.74001663-1.6486514 1.18257227-2.7640157 1.43776607-1.7331491.3840051-3.5257757.4145709-5.2709757.0898746-.4469399.6229297.1341728 1.4729319 1.0098416 1.8423153.9305286.323553 1.9250503.4185732 2.8998904.2770659 1.6299348-.1643362 3.2356501-.5154514 4.7856277-1.0464537.5746702-.1556572 1.1136684-.4216297 1.5870398-.783136.3255195-.3114604.5643141-.7025322.6928193-1.13462395.4750794-1.35817423.4198218-2.95415819-.8424801-4.08980477-1.2141177-.94362083-2.7256091-1.42054692-4.2606236-1.34436922-1.5020975.04879586-2.974254.43356431-4.3085627 1.12610238-.7630399.4617519-1.5872388.81355356-2.4482984 1.04503346-.3424384-.6303151.0737525-1.34328982.758913-1.75437229.77015-.38914621 1.6031915-.6382465 2.4603257-.73569901-.5938776-1.2077394-.4538614-3.06459825-2.5294828-1.7888564-1.3664018.84133223-2.4482079 2.07511586-3.104582 3.54072902z"/><path d="m13.4664638 4.66603605c.2405474-.25505572.5359862-.45185199.8638684-.57543593-.6669814-.58172254-1.2504921-1.25294523-1.7339773-1.99462489-.6498161.26701046-.855472.66542414-.501914 1.16569946.1257763.17770398 1.482368 1.28318406 1.3720229 1.40436136z"/><path d="m15.5030532 2.43394229c.0407134.03738968.090299.06373222.1440443.07652406.1120289.00553208.2178996-.05153349.2749832-.1482192.2374381-.28290049.5401929-.50354655.882046-.64281346.0049693-.03976752-.8010317-.53930431-.8928819-.62315695-.2594285-.25014569-.4896323-.52900033-.6861817-.83119785-1.2869806.75262861-.7966969 1.31505488.2779901 2.1688634z"/><path d="m19.8861059 10.0616355c.0296446.0239045.0641191.0410782.1010409.0503344.0487919.0051737.0981112-.0014502.1438173-.0193157.3335662-.09774105.6811805-.13857111 1.0282797-.12077962-.5421374-.48414108-1.0963778-.96102932-1.6627212-1.43066472-.0625386-.05860869-.1364126-.10375588-.2170592-.13265307-.4552229-.13736835-1.1844079.10186165-1.0361655.46652975.1511359.37193988 1.2526574.9113578 1.642808 1.18654896z"/><path d="m23.2572746 9.21470111c.269222-.2881139.621087-.48547788 1.0070617-.56486913l-2.2703848-1.76209855c-.0527502-.04573304-.1131787-.08174001-.1784809-.10634969-.0703594-.01896617-.1431685-.02722042-.2159813-.02448543-1.0779208-.01028274-.7754789.33717171-.2242075.84079887.6047324.55223821 1.2320634 1.09123952 1.8819928 1.61700393z"/><path d="m25.0858821 15.1823279c-.0884463-.2629201.5795242-.3679631.5273302-.6345191-.0213376-.0643463-.059592-.121748-.1107422-.1661714-.4186304-.4421579-.8414023-.8824411-1.2559479-1.3265306-.4923828-.5273741-.7976613-.5063541-1.6172215-.4317616.0504354.3672246.7091584.7752393 1.0202804 1.0691212.5090055.4813384.9877725.9779589 1.436301 1.4898615z"/><path d="m27.7502752 13.5933885c.195411-.2586859.4635596-.4529966.7700326-.5579951-.6991155-.343687-1.3007713-.8577937-1.7496923-1.4950881-.5024246.3496133-.5071901.4182407-.1145433.8872701.3915803.3624327.7572169.7519985 1.094203 1.1658131z"/><path d="m.26823207 9.25230982c-.29777257 1.23086118-.00932208 2.53042268.78109541 3.51908408 1.08919901 1.1678914 2.71349551 1.6726964 4.27162969 1.3275533 1.67247913-.4610191 2.21467327-1.9334965 3.28828232-2.9626798 1.45693741-1.22630515 3.34442471-1.81574775 5.23920541-1.63614916 1.2796621.08760216 2.7087013.60787486 3.0125048 1.52610676.2349867.7109295-.2809402 1.4007823-.8381117 1.9747411-1.5451143 1.5916664-3.582498 2.9673383-4.5095666 4.8133463-1.65823919 3.3019535 1.2894202 7.5941749 6.020698 8.7669189 3.5316654.8754534 7.2958214.1379933 10.6362411-.8321068 2.9217325-.8485251 5.8831779-1.8937858 9.0936797-1.7393743 3.2105018.1544116 6.6796479 2.0758643 6.4471574 4.397719-.1282725 1.2807412-1.3422949 2.3467378-2.7985659 3.0203427-1.5524475.6226746-3.1564021 1.1079144-4.7934568 1.4501508-3.2319468.8339247-6.3606401 1.9946817-8.6783966 3.8027969-2.3177565 1.8081153-3.741236 4.3410218-3.2053959 6.8772803.5358401 2.5362584 3.313188 4.9521917 6.7848303 5.3856576 3.0277092.3781891 5.9163665-.7101342 8.3124709-1.9819561 2.3961043-1.2718219 4.6339813-2.7894071 7.4802593-3.4643186 2.8462781-.6749115 6.5948893-.2015077 8.2004239 1.75085-2.9247961 1.0350916-6.2527913 1.4151554-9.2238245 2.3840057s-5.7313046 2.8023599-5.8392101 5.2195998c-.0944032 2.115575 2.0057835 4.1791113 4.7003017 5.0959229 2.7650513.8500357 5.7178711.8725855 8.4955473.0648779 1.8478398-.5132282 3.5195246-1.309033 5.4077014-1.7485208 5.019423-1.1683696 11.2367564.6428134 14.037081 4.0891798-1.1083862-3.5382293-5.7984193-6.4366562-10.721794-6.6266313-3.0100085-.1159507-5.856627.6662763-8.7172584 1.2294411-2.8606315.5631649-6.0462844.8934625-8.8251074-.0637984-.6557035-.1833508-1.2499016-.5403642-1.7200211-1.0334441-1.1111093-1.3879998.7271994-2.9206398 2.5082081-3.7267842 2.3945307-1.0732594 4.8963019-1.888347 7.4630694-2.4314994 2.2361182-.4798803 4.8850233-.9804965 5.651425-2.581707.5509877-1.1512695-.1725808-2.5258621-1.4200188-3.4227899-2.1120438-1.518551-5.382739-1.8040249-8.1619024-1.3548224-2.7791633.4492024-5.2413612 1.5111655-7.8051106 2.3685531-2.053781.6841699-4.1492428 1.2358157-6.2734987 1.6515449-1.8473292.3635887-4.0890072.5654372-5.5586103-.4214789-1.6985762-1.1407595-1.2109021-3.2361666.3128239-4.3748242 1.5237261-1.1386575 3.7317049-1.6225146 5.744807-2.265044 4.7724657-1.5231526 8.8052508-4.1456497 11.409791-7.4194819 1.2438071-1.563545 2.1643514-3.5204476 1.0722475-5.2379497-.5104068-.7206747-1.1804719-1.313262-1.957731-1.7313639-3.5193545-2.0666609-8.4065337-2.1499455-12.6821914-1.5751344-4.2756577.574811-8.4168023 1.7017087-12.809386 1.6872788-1.0218768.0450443-2.0422305-.1184354-2.9990592-.4805052-.7760041-.318783-1.385829-.9447024-1.6849332-1.7294021s-.2608607-1.6583237.1056659-2.4138048c.6569643-1.4286195 2.082089-2.5606302 3.1961484-3.814784 1.1140595-1.2541538 1.941392-2.8240048 1.2335952-4.2964822-.5798331-1.01898293-1.5544375-1.75269471-2.6930431-2.02740468-2.1766057-.61503301-4.5292528.0920902-6.3901411.99032472-1.86088833.89823456-3.61148835 2.02439366-5.83279933 2.34628336-.87998045.1276537-1.96431199.0648778-2.51456216-.4840843-.36559414-.4560103-.45762053-1.0738371-.24083019-1.6168335.1517599-.67826336 1.44708023-4.26495226.34204128-4.30841247-1.34513162-.05220907-2.2263602 3.36171839-2.35440583 4.06401269z"/></g><path d="m141.788482 146-4.788482-.509134 3.210953-25.490866 4.789047.508574z" fill="#3360ff"/><path d="m132.803614 146-4.803614-.512223 2.196386-17.487777 4.803614.512223z" fill="#3360ff"/><path d="m106.890683 174.421018c-.04917 1.307574.187096 2.754877 1.480684 3.7228 1.651067 1.235433 4.347364 1.199818 6.532283.755141 2.184918-.444676 4.302814-1.207498 6.608832-1.106798 2.010716.053988 3.929221.852866 5.381526 2.240905 1.148474 1.215749 1.570867 2.763013 2.9997 3.814454 2.882537 2.121202 7.646019.980325 11.562718 1.700535 1.926576.43696 3.78216 1.141354 5.512494 2.092584 8.803676 4.343902 17.691546 8.739234 25.03108 14.359361-4.910592-2.381943-8.620402-5.845139-12.536474-9.066995-3.916073-3.221855-8.362289-6.369864-13.907582-7.721757-4.871004-1.18753-10.695287-1.068111-14.23557-3.833001-1.857329-1.450774-2.703369-3.466667-4.650767-4.853607-1.614672-1.085692-3.524226-1.651598-5.47131-1.621453-2.497278.023838-5.273661.908241-7.297666-.243559-1.644735-.935948-1.713641-2.712776-1.183612-4.115077.53003-1.402301 1.499622-2.751009 1.368997-4.228465-.194384-1.097065-.693722-2.117644-1.441154-2.945526-2.709473-3.465927-6.891074-6.356267-11.784496-8.145384-.497509-.135881-.959954-.376756-1.3560481-.706327-.567278-.592599-.2502982-1.369019.0869313-2.01339l1.7568788-3.357204c-.466542-.402974-1.269174.093589-1.5273436.559031-2.1428223 3.863041.0480289 8.895064 4.9651806 11.403651 1.551073.791326 3.340922 1.36185 4.631772 2.373409 2.355359 1.846238.808963 2.967031-.466942 4.497342-1.483194 1.778136-1.981623 4.351468-2.060112 6.43933z" fill="#eab124"/><path d="m166.39807 180.760413c.533735-.918195.913578-1.942337.605454-2.948668-.513277-1.676782-2.711347-2.791402-4.719072-3.717303l-9.339863-4.306979c-1.808507-.833939-3.735697-1.768059-4.544551-3.21114-1.189263-2.12158.497339-4.357327 2.126634-6.192859l9.17252-10.333953c.420373-.588325 1.068273-.968721 1.782453-1.046519.880297-.052864 1.646999.600782 1.74323 1.486179-.019893.717544-.607771 1.332166-1.236905 1.856254-2.188011 1.822802-5.110557 3.098285-7.351241 4.885752-2.240683 1.787468-3.762767 4.432621-2.385815 6.775857 1.647662 2.803618 6.322256 3.725809 9.944639 5.243498 2.823067 1.125564 5.31163 2.966405 7.226001 5.345221.976367 1.277708 1.682533 2.711142 1.565828 4.133387-.205435 2.504384-2.738984 4.254519-4.31781 6.280198-.963855 1.160187-1.582539 2.572467-1.784374 4.07322-.115801.938231.327791 2.524193-.435511 3.346543-2.070741 2.23021-2.897398-2.706747-2.73904-3.9683.366109-2.914875 3.193879-5.131043 4.687423-7.700388z" fill="#3360ff"/><path d="m23.1820589 32.6615522c-.4083512 2.2310343-.2165715 4.6590216 1.4776443 6.6342957s5.2158958 3.2899054 8.0810793 2.502776c3.1638812-.8691411 4.189575-3.6450806 6.2206734-5.5853775 2.2505195-2.1498189 6.0902746-3.3447315 9.9114502-3.084137 2.4208131.1649332 5.1242519 1.1458307 5.6984512 2.8770037.4445415 1.3402244-.531512 2.6408648-1.5854741 3.7228835-2.9230309 3.0006467-6.7773761 5.594136-8.531206 9.0743402-3.1369807 6.224977 2.4392786 14.3167703 11.3898354 16.5274439 6.6812297 1.6504126 13.8022705.2601395 20.1215409-1.5687422 5.5272458-1.5996245 11.1291518-3.5701781 17.2032405-3.2790995 6.0740887.2910787 12.636432 3.9134667 12.196393 8.2907369-.242617 2.4145083-2.5393 4.4241908-5.29426 5.6941196-2.7549604 1.2699288-5.9695079 1.9370551-9.0682466 2.7338531-6.1141545 1.5721546-12.0328817 3.76042-16.417542 7.1691911s-7.0776125 8.1838147-6.064001 12.9653418c1.0136114 4.7815275 6.2673502 9.3360155 12.8353929 10.1535725 5.7277453.712966 11.1925843-1.338803 15.7254821-3.73659 4.5328976-2.397788 8.7664706-5.2582415 14.1509506-6.5311276 5.38448-1.2728862 12.476055-.3798582 15.513356 3.3007686-5.533002 1.951444-11.828905 2.667936-17.449448 4.494486-5.620542 1.82655-10.8423084 5.283095-11.0464555 9.840142-.1786715 3.988369 3.7945035 7.878632 8.8919115 9.607587 5.097408 1.728954 11.024912 1.519148 16.071882.122334 3.495749-.967532 6.658205-2.467855 10.230153-3.296445 9.495633-2.202598 21.257515 1.211974 26.555138 7.709091-2.096925-6.67041-10.969402-12.135102-20.283343-12.492723-5.69429-.218622-11.07934 1.256052-16.491233 2.317823-5.411893 1.061772-11.438393 1.684366-16.695095-.120344-1.2405-.34561-2.364634-1.018683-3.253987-1.948316-2.10194-2.616637 1.375799-5.506039 4.745024-7.025586 4.529929-2.023384 9.262744-3.560036 14.118522-4.584005 4.230211-.904744 9.241447-1.848389 10.691222-4.867179 1.042392-2.1703499-.326396-4.7618486-2.686342-6.4527551-3.995515-2.8628422-10.182905-3.4010363-15.440462-2.5540759-5.257558.8469605-9.915497 2.8489651-14.7656149 4.4652536-3.8853376 1.2898055-7.8495209 2.329784-11.8681733 3.1135406-3.4947226.6851553-7.7354769 1.0659804-10.5155706-.7946367-3.2133506-2.1505583-2.2908132-6.100879.59181-8.2475699 2.8826233-2.1466909 7.0594889-3.0588284 10.8678982-4.2701205 9.0284655-2.871487 16.6576516-7.8155587 21.5848236-13.9879845 2.352992-2.9476975 4.094454-6.6371394 2.028476-9.8747212-.965591-1.3586517-2.233229-2.4758194-3.703657-3.264028-6.657806-3.8961203-15.9033554-4.053148-23.9919008-2.9694801-8.0885453 1.083668-15.9227901 3.2081214-24.2325803 3.180879-1.9396255-.0063699-3.9758532-.1512836-5.6735455-.9058814-1.4680438-.6009721-2.6217132-1.7809799-3.1875601-3.2603325-.565847-1.4793526-.4934975-3.1263522.1998997-4.5506194 1.2427783-2.6932454 3.939378-4.8273672 6.0463904-7.191713 2.1070124-2.3643459 3.6726531-5.3239868 2.3337285-8.0999263-.8263911-1.7135422-2.7613432-3.165068-5.0946158-3.8219003-4.1177644-1.1595372-8.5683651.1735211-12.0887343 1.8669301-3.5203691 1.6934089-6.8322598 3.8164973-11.0344302 4.4238496-1.6647506.240575-3.7159104.1222212-4.7569922-.9127062-.873353-.868288-.6853917-2.0246972-.45594-3.0480793.2871282-1.2786872 2.7376344-8.0404934.6471498-8.1224481-2.5436889-.0996424-4.2108332 6.3367903-4.4531083 7.6604077z" fill="#71e289"/><path d="m123.978976 66-8.978976-.9780818 6.021024-49.0219182 8.978976.9786538z" fill="#3360ff"/><path d="m105.921153 65-8.921153-.9383273 4.078847-32.0616727 8.921153.9388896z" fill="#3360ff"/><path d="m33.2235241 65c4.3632122-3.3165082 11.3802036-4.686093 17.3423175-5.7014045 7.9056172-1.3462041 16.8724166-1.5434757 24.0942832-4.283622 4.2569975-1.615284 7.0978169-4.2924687 8.4702027-7.6906085 1.5857242-3.9262466.9227622-8.2041813 2.5580722-12.1306577 1.1364414-2.7287143 2.8616647-7.3693096 6.3116003-9.6435063-1.4115206-1.1680621-2.8050926-2.3476709-4.1607226-3.550201-3.1375392 2.4490068-4.9646038 5.7950425-5.0519044 9.2520076-.1673876-.2513864-.0529938.1875058.1185971.680168-1.774298 5.9797334-3.548615 11.9594859-5.3229509 17.9392575-.1066004.5450446-.3831273 1.0411809-.7889997 1.4155996-.7932029.6324298-2.1519001.6234107-3.3547967.5998576-5.6906705-.1203438-11.3762686.4182746-16.9458581 1.6053457-8.9397061 1.9302064-16.2931768 5.5838113-25.4933647 6.7260224.1437591.2417354.1363184.5132281.2576986.7609379.6553509 1.3404594 1.310626 2.6807273 1.9658255 4.0208037z" fill="#7f0f04"/><path d="m93.3144179 28.7022334c2.6367625 6.9297915 13.3531401 10.9992966 19.7793791 16.2977666 1.602629-.6794995 3.230462-1.3278117 4.906203-1.9093936-8.288144-4.7109333-16.195319-10.0915739-23.6461127-16.0906064-.5030342.3483297-.9583537.7638247-1.3538873 1.2354695.137986.1292338.245494.2888329.3144179.4667639z" fill="#7f0f04"/><path d="m90.9035911 31c-.3731407.7172276-.6837716 1.3868952-.9421606 1.8971789-1.4338741 2.8638197-2.3222344 5.9829459-2.617288 9.1895729-.0846252.7634536-.1970639 1.5180912-.3441425 2.2601428 1.9294545-2.7914805 3.989401-5.5379529 6.2157207-8.2445214 4.2157181 3.8682376 8.0135233 8.1924291 11.3275903 12.8976268 1.748921-1.0216694 3.577953-1.9661989 5.456689-2.8544684-6.143789-5.0839872-15.3027178-8.8786351-19.0964089-15.1455316z" fill="#7f0f04"/><path d="m77.2812419 56.0116624c-6.5042521 2.6872859-14.4600591 3.1297188-21.7345703 4.2002863-6.9142324 1.0176014-16.1048028 2.2677525-20.5466716 6.6947616.1450193.3010929.2900197.6021469.4350012.9031621.3731254.9408635.9644263 1.7738588 1.7224731 2.4265342.9425161.735547 2.1739458.9557142 3.3030474.5905515 12.1417887-5.1828501 24.7825147-9.0345428 37.7119422-11.4910184.9023045-1.8030222 1.8448166-3.5816688 2.8275361-5.3359397-1.1654674.8060673-2.4122804 1.4805309-3.7187581 2.0116624z" fill="#7f0f04"/><path d="m62 94.2668054c-.8116016-.090349-4.7717249-8.2775284-5.4143622-9.2556955-1.7881583-2.7216237-3.7180748-6.9182224-7.1933563-8.8083565-6.594478-3.5866316-14.4601978 1.5175282-13.2722925 6.5278255.6209296 2.6184473 3.7893834 4.9826348 7.4889007 5.3767125 2.6818937.2857147 5.7769769-.7681894 5.9821969-2.6612237 1.6821663 1.932408 3.4631659 3.7811384 5.3362377 5.5391734l-11.1215196 1.6661022c-.3442477.0288913-.6797338.1211524-.9886419.2718835-1.1245579.6718171.4391928 2.0746803-.021994 3.0767732 6.2057282-1.8838191 12.7492453-2.4743575 19.2048312-1.7331946zm-15.0385713-12.4104924c-.2458361.9660299-1.0506246 1.7018882-2.0562102 1.8800954-.3824081.0457748-.7699411.0300801-1.1471247-.0464572-.9471997-.1376368-1.8051688-.6209465-2.3998665-1.3518885-.9454557-1.3624292.1832834-2.8679667 2.3701975-2.7558112.9802858.0726089 1.9187025.4171017 2.7042314.9927233.2559169.1512179.4597953.3732119.5856476.6376854.0523528.2149431.0324151.4405766-.0568751.6436528z" fill="#3360ff"/><path d="m179.16092 81.4422727c.804292.4643182 1.110289-.8098295.562091-1.4404545l-5.042093-5.8011364c-.182329-.3061896-.501952-.5043425-.856798-.53118s-.700535.120997-.926673.3962937c-5.687829 4.7346022-9.01036 10.9764204-9.279894 17.4328977-6.7836-2.2352841-14.491033-4.5052841-21.134677-2.5859659-2.413022.7757214-4.686907 1.9326022-6.735739 3.4269318-5.522249 3.6974087-10.56996 8.0609029-15.02959 12.9923299l-8.57762-5.6658526c-.969469-.7501626-2.113235-1.2412961-3.324005-1.4273296-1.579287-.0773074-3.093997.6353274-4.043292 1.9022732-.84308 1.072727-1.324192 2.313295-2.393935 3.267443-.462566.449756-1.077919.707381-1.72234.721079-.599246-.053747-1.176594-.252067-1.6827013-.578011-3.2420433-1.775568-6.3836753-3.6460986-9.4248961-5.611591-2.6302379 2.200852-3.5945602 5.214716-4.4638396 8.112216-1.3813351 4.604394-2.7241087 9.216345-4.0283208 13.835852l-11.8169598-7.276136c-.8789764-.541364-2.0466541-1.119318-3.0338865-.775852-.549764.235612-.9728029.695427-1.1625173 1.263579l-3.2183015 6.900341c-3.2965463-2.472285-5.9751831-5.677671-7.8249321-9.363693 1.2504716-.309659 2.66965-1.970682 3.9201217-2.280341l2.9326625 5.469034c1.5254495-.772102 2.1985753-2.143409 3.1497413-3.309261.9511659-1.165853 2.6145297-2.264319 4.4954259-1.950569 1.0290709.238304 1.9850937.72315 2.7860719 1.412955 2.1202803 1.578636 4.233869 3.162064 6.3407662 4.750284 3.4786356-7.501652 7.5594155-14.707939 12.2021216-21.5478408l9.8019487 7.9431818c2.2055502-1.8255682 2.1838312-5.3765909 5.5361912-5.7784091 1.051427-.0619124 2.105032.0765774 3.104941.408125 4.705416 1.2696069 9.274478 3.0008168 13.640921 5.1685231l17.758104-15.4196595c.755144-.7558893 1.683039-1.3156527 2.703108-1.6306818 1.434149-.3594318 3.052884.0056818 4.541473.3689773l12.591423 3.0738636c1.671927-7.4985795 6.894181-14.4096022 14.594866-19.3144886l4.240636 11.8602841c-.521545-.6896023 1.341772 2.2710227.820397 1.5819886z" fill="#eab124"/><path d="m117.965943 108.812985c-.350667 1.558085-.282673 3.192212.19597 4.709857.068936.135714.068243.300346-.001834.435374-.067973.073713-.150103.130322-.240558.165808l-1.66005.817907c-.24527.087406-.461088.251589-.620157.471787-.051309.121891-.044609.263189.017959.378752.062567.115564.173174.190933.296484.202028.1212.01317.2436.002651.361364-.031055 2.538782-.557253 5.104438-.959917 7.684879-1.206097-.318842-.957632-.469679-1.971302-.444756-2.988882-1.113487.165606-2.186635.563886-3.159767 1.172695.033357-1.881608.321725-3.888519.054149-5.762844-3.12352-.864309-4.811035 1.612944-6.449626 3.151319.773986 1.104626 1.116893 1.582852 2.251576.739487.747152-.573003 1.339075-1.351984 1.714367-2.256136z" fill="#131a59"/><path d="m131.997211 109.400175c-.049147-.858488-.689365-1.661496-1.371194-2.392832-.566904-.661891-1.260897-1.206201-2.041883-1.601482-3.188094-1.48248-4.513199 1.44346-4.584134 3.199402.03932 1.17366.731744 2.229737 1.79959 2.744711 1.248941.665829 2.710342.827484 4.077322.45102 1.29234-.39187 2.179439-1.369684 2.120299-2.400819zm-3.424326.593661c-.401484.114537-.831214.083019-1.211194-.088833-.527789-.202188-.927739-.63915-1.078552-1.178364-.081911-.357708-.054935-1.276749.315194-1.547135.562457-.410813 1.705719.242268 2.069624.599058.356524.334507.555389.801039.548532 1.286842.00692.413236-.251212.785648-.643604.92854z" fill="#131a59"/><path d="m139.997216 107.400214c-.049146-.858491-.689361-1.661556-1.371185-2.392842-.566901-.661894-1.26089-1.206206-2.041871-1.601489-3.188074-1.48254-4.513171 1.443466-4.58416 3.199416.039379 1.173663.731807 2.229725 1.799633 2.744723 1.248948.665792 2.710331.827428 4.077297.450969 1.292332-.39198 2.179371-1.369961 2.120286-2.400777zm-3.424305.593664c-.401489.114465-.83119.082949-1.211186-.088834-.527786-.202188-.927734-.639152-1.078546-1.178368-.08191-.35771-.054935-1.276755.315193-1.547196.562453-.410761 1.705708.242323 2.06961.599061.356486.33451.555345.801012.548529 1.286793.006887.413228-.251232.785625-.6436.928544z" fill="#131a59"/><path d="m147.997221 105.400164c-.049147-.858491-.689366-1.661502-1.371196-2.392842-.566892-.661892-1.260889-1.206189-2.041885-1.601434-3.188098-1.4825399-4.513205 1.443412-4.58414 3.199361.03932 1.173665.731745 2.229746 1.799592 2.744722 1.248943.665832 2.710345.827488 4.077327.451023 1.292342-.391872 2.179333-1.36969 2.120302-2.40083zm-3.42433.593664c-.401485.114537-.831215.083019-1.211196-.088834-.52779-.202188-.92774-.639152-1.078553-1.178368-.081912-.357709-.054936-1.276701.315194-1.547141.562458-.410815 1.705722.242268 2.069353.59906.356517.334518.555398.801041.548588 1.286847.00692.413172-.251101.785552-.643386.928544z" fill="#131a59"/><path d="m150.997211 97.4001624c-.049147-.8584921-.689365-1.6615035-1.371194-2.3928435-.566922-.6618621-1.260911-1.2061535-2.041883-1.6014355-3.188094-1.4825408-4.513199 1.4434669-4.584134 3.199363.039308 1.1736701.731736 2.2297575 1.799589 2.7447243 1.248942.6658323 2.710343.8274883 4.077322.4510227 1.292505-.3918722 2.17944-1.3696367 2.1203-2.400831zm-3.424326.5936639c-.401485.1145375-.831214.0830195-1.211194-.0888337-.527797-.2021486-.927755-.6391021-1.078552-1.178315-.081912-.3577095-.054935-1.2767553.315194-1.5471962.562457-.4107615 1.705719.2422689 2.069623.5990609.356502.3345232.555363.8010479.548533 1.2868476.006936.4132431-.251202.7856656-.643604.9285444z" fill="#131a59"/><path d="m152.997216 88.4002168c-.049147-.8584922-.689365-1.6615578-1.371195-2.392844-.566893-.6619063-1.260888-1.2062207-2.041884-1.6014897-3.188041-1.4825411-4.513202 1.4434672-4.584137 3.1994175.039332 1.1736629.731753 2.2297393 1.799591 2.7447248 1.248958.6657866 2.710348.8274224 4.077324.4509689 1.292342-.3918723 2.179386-1.369637 2.120301-2.4007775zm-3.424328.5936641c-.401492.1144649-.831196.0829488-1.211195-.0888338-.527779-.2022032-.927724-.6391612-1.078553-1.1783692-.081911-.3577096-.054935-1.2767555.315195-1.5471965.562457-.4107615 1.70572.2422689 2.069352.5990611.356502.3345049.555381.8010059.548587 1.2867938.006966.4132123-.251063.7856479-.643386.9286525z" fill="#131a59"/><path d="m131.122664 86.9068774c.874232-.0954098 1.757496-.0640509 2.622922.0931226.08267-1.2494759-.133899-2.5006761-.63141-3.6478884 1.550312.2205424 3.061802.6618135 4.489331 1.3106356.060589-.7911193.193315-1.5749184.396493-2.3414496l-4.413349-.4955575c.18974-1.1385871.290984-2.2904003.302807-3.4449128-.922473-.0627378-1.839521-.1899858-2.744539-.3808273-.383301 1.0000906-.460935 2.0931215-.22289 3.1381527-1.582674.0116072-3.167895-.0255208-4.755664-.1113842-.368899.3805437-.08121.9697909.440947 1.2802374.579077.2846997 1.206229.4564689 1.848482.5062763 1.621377.2321827 2.626237.0238761 2.921738 1.1644296-.001417.9819638-.086689 1.9619778-.254868 2.9291656z" fill="#131a59"/><path d="m82.9684767 145.257704c1.7173501-1.835233 3.5811501-3.527816 5.5729723-5.061015.4556076-.426054 1.0575939-.66076 1.6814492-.655571.5994414.105178 1.1399695.425199 1.5203525.900128l10.2679253 10.558754c1.416396-9.960815 8.194541-19.248615 18.593112-25.477003.65617-.457181 1.421727-.73254 2.218856-.798088 1.290369-.030669 2.363016.767589 3.237899 1.498238l6.938957 5.794913-3.672432-11.438645c-3.919633.423893-7.883471-.118377-11.545065-1.579415-8.565473 6.027592-15.987667 13.533126-21.9183732 22.164484-.2105056-3.710179-.9883236-7.366228-2.3063898-10.840934-3.9663873 2.411145-7.7706398 5.07925-11.3883594 7.987202 1.0668083-5.090765.8090656-10.370022-.7485716-15.332742.9466206 3.071268-24.3816399-.799912-26.420809-1.485127 3.5573547 2.037004 6.2439325 3.707401 10.687518 4.447456 2.7416072.456563 6.312705.16167 8.8104148 1.315306 3.3364386 1.541106 3.2032274 4.179355 3.7871668 6.691792.9321586 4.000667 2.5142762 7.821452 4.6833771 11.310267z" fill="#71e289"/><path d="m96.4058945 117.445469c4.7735505 1.09868 7.9115435 4.440142 9.8990295 7.719914.388161.537216.627526 1.16259.695076 1.815881.009803 1.501514-1.833465 2.563788-3.51556 3.412058-1.499931-1.608239-2.216245-3.486086-3.27692-5.248797-1.0941885-2.008078-2.9135334-3.551541-5.1077853-4.33325-2.8331705-.917208-6.1459318-.286372-8.548722.948024-2.4027903 1.234397-4.1307967 2.99318-6.0316379 4.604905-3.0607343 2.595712-10.7911365 9.14148-16.5193748 7.320343 1.6432389-2.930439 8.2714354-4.804468 11.2898997-7.155137 5.3628845-4.176509 11.0819064-11.393281 21.1159948-9.083941z" fill="#131a59"/><path d="m125.830889 138.910734c5.982568-.052139 11.474764-2.476141 14.987503-5.907564 3.409374-3.33052 5.108184-7.858933 3.287756-12.005715-.807464-1.907592-2.389457-3.368793-4.339255-4.007934-2.187599-.692523-5.127342.004579-5.596691 1.669038-.309187 1.096475.477882 2.258998 1.515083 3.138846 1.002228.897551 2.268501 1.43575 3.603048 1.531391 1.39516.048649 2.813491-.762576 2.675258-1.790601l.01232 3.270254c.037787.272459-.045268.547902-.226904.752503-.375845.235218-.820918.330344-1.258566.268997-3.386995-.09598-6.919117-1.373599-8.652287-3.58933-.866784-1.029777-1.189319-2.420009-.866049-3.732954.323269-1.312944 1.252569-2.387056 2.49529-2.884131 2.452027-1.130816 5.946681-.634317 8.327501.772306 2.136025 1.284915 3.744478 3.30499 4.531685 5.691394 2.521201 7.223816-2.233431 15.185369-10.976311 18.379731-8.097715 2.961309-21.477339 1.692274-27.35027-4.329127 2.692608-3.398113 4.425495-1.428886 7.709861.300303 3.1254 1.644192 6.599158 2.49284 10.121028 2.472593z" fill="#131a59"/><path d="m166.90062 104.980883c.587243.602052 1.898036.61844 2.644963.177242.659176-.410458 1.059573-1.129093 1.05986-1.902243.069666-.598794-.140168-1.196355-.569569-1.622011-.820219-.761335-2.449479-.818526-3.55022-.36571-.977322.455122-1.802328 1.180036-2.376638 2.088297-1.851746 2.513298-3.242832 5.331635-4.109286 8.325407-.743765 2.619576-1.052293 5.356845-2.532596 7.779479-1.778572 2.82178-4.891974 4.536248-8.242006 4.538656.548572-1.40368.466632-2.973593-.225128-4.313315 2.933559-.381312 4.45734-2.622269 5.613869-4.586474 1.824235-3.098097 2.159641-6.610565 3.812672-9.764338 1.128286-2.089467 2.691606-3.915946 4.5858-5.3577437 1.714522-1.3362228 4.334019-2.5193928 6.738551-1.7174235 2.429829.8105004 3.04282 3.0818212 3.204989 4.9790692.104405 1.221896.109205 2.570017-.987019 3.452694-1.500235 1.207921-4.224081.94969-6.507042.600144-.309005-.012141-.605751-.12339-.845855-.317106-.113635-.162103-.146263-.367028-.088539-.556086l.336366-2.124105c.557768.155242 1.479061.530157 2.036828.685567z" fill="#131a59"/><path d="m158.979547 102.951619c.464523-.949008 1.28322-1.677696 2.279825-2.029178-.8123-1.2781603-1.549582-2.6760286-1.044901-3.9827365.518142-1.3420122 2.170565-2.2713531 3.949537-2.7712433 1.84641-.4202488 3.71382-.7422685 5.594357-.9647014 1.768961-.2267611 3.47859-.7880457 5.037636-1.6538946 1.404221-.8732032 2.360418-2.1968594 2.182785-3.5798627-.177632-1.3830034-1.680413-2.747313-3.57394-2.9477646-1.164468-.1231989-2.448728.2702718-2.816891 1.0616615-.368162.7913896.571646 1.8612155 1.730538 1.7973075.952537-.0525341 1.567436-.9142507 1.102122-1.5446034l-.655112-.2590105c.383594.3040558-.160905.8595207-.669416.6826616-.154317-.0373219-.281957-.1452788-.344343-.2912412s-.052197-.3128018.027487-.4500919c.24005-.265737.5816-.417174.939752-.416669.963497-.0666404 1.886414.398371 2.406038 1.2122817.335067.6960648.316219 1.5105002-.050688 2.1903278-.245782.5793575-.653675 1.0754327-1.174662 1.4286117-.541636.318832-1.127224.5563022-1.737972.7047901-2.967151.8507931-6.17721 1.2746131-9.083818 2.220114-1.606859.5227507-3.164101 1.2435318-4.026864 2.3558692-.537332.7601322-.866449 1.6475576-.954677 2.5741701-.106195.5901146-.124717 1.1926654-.054968 1.7881859.226512 1.031891.635135 2.015172 1.206708 2.903733.021176-.167963-.33668.130237-.268533-.028717z" fill="#131a59"/><path d="m33.9972111 52.4001642c-.0491468-.8584915-.6893649-1.6615024-1.3711939-2.3928419-.5668916-.6618926-1.2608878-1.2061888-2.0418829-1.6014344-3.188094-1.4825398-4.5131992 1.4434119-4.5841343 3.1993608.0393201 1.1736656.7317445 2.2297467 1.7995896 2.7447224 1.2489414.6658315 2.7103423.8274877 4.0773222.4510224 1.2923406-.3919259 2.1794392-1.3697437 2.1202993-2.4008293zm-3.424326.5936635c-.4014845.1145374-.831214.0830194-1.2111939-.0888336-.5277894-.2021886-.9277393-.6391522-1.0785524-1.1783682-.0819112-.3577093-.0549351-1.2767005.3151944-1.5471412.5624571-.4108152 1.7057193.2422687 2.0693505.5990605.3565165.3345174.5553967.8010405.5485868 1.2868467.0068732.4131332-.2511393.7854576-.6433854.9284358z" fill="#eab124"/><path d="m93.9972159 55.4001642c-.0491464-.8584915-.6893605-1.6615024-1.3711853-2.3928419-.5668881-.6618926-1.2608799-1.2061888-2.0418702-1.6014344-3.1880742-1.4825398-4.5131711 1.4434119-4.5841604 3.1993608.0393545 1.17367.7317901 2.2297429 1.799633 2.7447224 1.2489337.6658315 2.7103255.8274877 4.0772968.4510224 1.2923327-.3918719 2.1793711-1.3696897 2.1202861-2.4008293zm-3.4243046.5936635c-.401482.1145374-.8312089.0830194-1.2111864-.0888336-.5277935-.2021485-.9277497-.6391018-1.0785457-1.1783142-.0819107-.3577633-.0549348-1.2767545.3151924-1.5471952.5624536-.4107612 1.7057087.2422687 2.0696107.5990605.3564885.3345307.5553461.80105.5485288 1.2868467.0069034.413233-.2512211.7856381-.6435998.9285437z" fill="#eab124"/><path d="m130.997216 35.4002145c-.049146-.8584917-.689361-1.6615028-1.371185-2.3927885-.566896-.6619131-1.260885-1.2062436-2.041871-1.6015428-3.188074-1.4825402-4.513171 1.4434663-4.58416 3.1993616.039335 1.1736901.731773 2.2297885 1.799633 2.7447772 1.248948.6657916 2.710331.8274276 4.077297.4509685 1.292332-.391818 2.179371-1.3695821 2.120286-2.400776zm-3.424359.5936637c-.401478.1145302-.831196.0830319-1.211187-.0887797-.527765-.2022025-.92769-.639164-1.078491-1.1783685-.08191-.3577093-.054989-1.2767547.315193-1.5471955.562453-.4107613 1.705654.2422687 2.06961.5990606.356483.3345346.55534.8010515.548529 1.286847.006912.4132519-.251243.7856699-.643654.928544z" fill="#eab124"/><path d="m96.9972111 109.400187c-.0491468-.85849-.6893649-1.6615-1.3711939-2.392839-.5669046-.661892-1.260897-1.206203-2.0418829-1.601486-3.188094-1.482484-4.5131992 1.443464-4.5841343 3.19941.0393201 1.173664.7317445 2.229744 1.7995896 2.744719 1.2489501.665804 2.71034.827458 4.0773222.451022 1.2923406-.391925 2.1794392-1.369688 2.1202993-2.400826zm-3.424326.593663c-.4014845.114537-.831214.083019-1.2111939-.088834-.5277793-.202203-.9277236-.63916-1.0785524-1.178366-.0819112-.357709-.0549351-1.276753.3151944-1.547194.5624571-.41076 1.7057193.242323 2.0696235.59906.3565165.334517.5553968.80104.5485868 1.286845.006902.413261-.2512471.785689-.6436584.928597z" fill="#7f0f04"/><path d="m182.997216 62.4001869c-.049146-.8584903-.689361-1.6615002-1.371185-2.3928387-.566901-.6618926-1.26089-1.2062036-2.041871-1.6014863-3.188074-1.4824838-4.513171 1.443464-4.58416 3.1994106.039367 1.1736647.731798 2.2297306 1.799633 2.7447188 1.248942.6658032 2.710323.827458 4.077297.4510218 1.292332-.3919254 2.179371-1.369688 2.120286-2.4008262zm-3.424305.5936628c-.401482.1145372-.831209.0830192-1.211186-.0888336-.527786-.2021882-.927734-.6391513-1.078546-1.1783666-.08191-.3577088-.054935-1.2767527.315193-1.5471931.562453-.4107606 1.705708.2423224 2.069337.5990597.356486.3345098.555344.801011.548529 1.286791.006975.4131975-.251028.7856282-.643327.9286505z" fill="#71e289"/><path d="m192 117.42294c-.050582-1.074879-.36299-2.11709-.906375-3.023722-.343224-.75998-.839609-1.429601-1.453633-1.960945-2.323513-1.742748-3.476874 2.122389-3.623329 4.401471-.110759 1.288563.33487 2.560739 1.210513 3.455763.846803.785991 2.061923.928137 3.048158.356577 1.05972-.685382 1.712066-1.906788 1.724666-3.229144zm-2.611284.960632c-.285954.171969-.639009.153525-.907859-.047427-.443292-.344207-.718605-.88241-.750174-1.466498-.042798-.458948.026483-1.651173.319392-2.022277.445401-.563638 1.272326.218649 1.527416.660356.267976.495541.38835 1.066362.345134 1.636646.007682.478151-.188872.934065-.534121 1.238917z" fill="#131a59"/><path d="m75 151.422937c-.050524-1.074889-.3629394-2.117116-.9063835-3.02372-.3431912-.759988-.8395651-1.429613-1.453593-1.960944-2.3235346-1.742747-3.4769066 2.122387-3.6233623 4.401469-.1107519 1.288561.3348792 2.560732 1.2105241 3.455761.8467876.785996 2.0619079.928143 3.048133.356576 1.0597295-.685381 1.7120814-1.906787 1.7246817-3.229142zm-2.6113083.960631c-.2859564.171969-.6390149.153525-.9078666-.047427-.4433047-.344206-.7186378-.882404-.7502346-1.466496-.042745-.458948.0264838-1.651229.3194482-2.022277.4454055-.563637 1.2723375.218649 1.52743.660356.2679534.495552.3883269 1.066364.3451376 1.636645.0077755.47824-.1887673.934274-.5340735 1.239199z" fill="#131a59"/><path d="m27 106.42294c-.0505819-1.074879-.3629901-2.11709-.9063761-3.023722-.3432395-.75997-.8396221-1.429587-1.4536342-1.960945-2.3235158-1.7427478-3.4768783 2.122389-3.6233329 4.401471-.1107351 1.28856.3348899 2.560725 1.2105143 3.455763.8468039.785991 2.0619247.928137 3.0481612.356577 1.0597209-.685382 1.7120675-1.906788 1.7246677-3.229144zm-2.611287.960632c-.2859542.171969-.6390098.153525-.9078593-.047427-.4432927-.344207-.7186064-.88241-.7501756-1.466498-.0427446-.458948.0264836-1.651173.3193927-2.022277.4454019-.563638 1.2723271.218649 1.5274176.660356.2679665.495547.3883574 1.066358.3451877 1.636646.0077703.478214-.1887245.934231-.5339631 1.2392z" fill="#131a59"/><path d="m41.9972151 163.400161c-.0491467-.858492-.6893652-1.661503-1.3711945-2.392789-.5669049-.661894-1.2608977-1.206206-2.041884-1.601489-3.1880956-1.48254-4.5132014 1.443467-4.5841366 3.199362.0393123 1.173682.7317363 2.229783 1.7995905 2.744777 1.2489563.665792 2.7103488.827428 4.0773243.450969 1.2926143-.391872 2.1793857-1.369637 2.1203003-2.40083zm-3.4243277.593663c-.4014807.11453-.8312016.083032-1.2111945-.088779-.5277897-.202189-.9277397-.639153-1.0785529-1.178369-.0819113-.357709-.0549352-1.276755.3151945-1.547195.5624574-.410762 1.7057202.242268 2.0696246.59906.3564853.334535.5553432.801052.5485324 1.286847.0069366.413243-.2512014.785665-.6436041.928544z" fill="#7f0f04"/><path d="m212.517328 219.910955c-1.668529 8.278072-6.834939 15.547784-9.736135 23.523165-2.670012 7.340049-3.37759 15.258256-2.051784 22.960683.653424 3.770399 1.793562 7.502519 1.786257 11.317358-.007304 3.814839-1.400567 7.883593-4.778228 10.055653-2.528191 1.625836-5.756751 1.956365-8.839892 2.105885-13.027085.628418-26.060885-1.091832-38.487615-5.079739-8.726694-2.813894-17.846836-7.579248-20.596894-15.735924-2.317933-6.874833.618939-14.377353 5.039847-20.265959 4.420909-5.888607 10.273701-10.745692 14.847164-16.53344 9.310071-11.781948 13.78772-27.772643 27.503976-34.997516 18.115193-9.541717 39.271567 3.011619 35.313304 22.649834z" fill="#3360ff"/><path d="m179.114425 211.919998c2.231-2.589923 5.278085-4.973522 8.805793-4.919083.566826 2.717928-2.00463 4.989706-3.98132 7.037334-2.527904 2.628606-4.396802 5.791668-5.460309 9.241432-.5341 1.733487-.855115 3.522604-.956309 5.329808-.09875 1.746403.253904 3.896118-.942368 5.39432-1.950724 2.443244-3.581091-.137455-4.155295-2.079601-.918958-3.108281-.199127-6.364713.763456-9.386753 1.233873-3.886702 3.248343-7.495761 5.926352-10.617457z" fill="#000"/><path d="m174.866674 231.439022c-.389196-1.70822-.499391-3.465178-.326555-5.206595.175132-2.045976.666397-4.054748 1.457308-5.958899 1.561202-3.807079 4.032998-7.199266 7.211376-9.896583 1.478183-1.24628 3.083565-2.342916 4.791197-3.272867-.00624-.034463-.010788-.068587-.018019-.103163-3.541368-.05444-6.600251 2.329177-8.839891 4.919119-2.68842 3.12171-4.710731 6.730796-5.949417 10.617536-.96631 3.021892-1.688928 6.278518-.766412 9.386822.504061 1.698258 1.818851 3.884603 3.450458 2.77335-.406926-1.064558-.744277-2.152958-1.010045-3.25872z" fill="#fff"/><path d="m190.114426 213.919998c2.230943-2.589923 5.278086-4.973522 8.805793-4.919083.566827 2.717928-2.004688 4.989706-3.981378 7.037334-2.527903 2.628606-4.396801 5.791668-5.460308 9.241432-.534072 1.733493-.855087 3.522607-.956309 5.329808-.09875 1.746403.253962 3.896118-.94231 5.39432-1.950782 2.443244-3.581149-.137455-4.155295-2.079601-.918958-3.108281-.199127-6.364713.763398-9.386753 1.233893-3.886706 3.248383-7.495764 5.926409-10.617457z" fill="#000"/><path d="m189.235916 243.843529c1.478073 4.118522-2.173218 6.917084-6.150038 6.770089-3.625416-.133904-6.462573-2.496141-7.671972-5.751275-.309187-.832047-1.680528-.472991-1.367879.368652 1.63712 4.406133 5.85498 7.356184 10.757205 6.669967 4.320449-.604621 7.309787-4.220698 5.800564-8.425864-.300222-.836595-1.671166-.476541-1.36788.368653z" fill="#131a59"/><path d="m185.866349 233.438999c-.389205-1.708218-.499404-3.465174-.326564-5.20659.175137-2.045974.666416-4.054744 1.457351-5.958893 1.561227-3.807103 4.033097-7.199309 7.211585-9.896631 1.478246-1.246229 3.08365-2.342861 4.791279-3.272864-.006181-.034406-.01073-.06853-.017961-.103106-3.541471-.054439-6.600444 2.329175-8.840149 4.919115-2.68836 3.121756-4.71059 6.730857-5.949182 10.617582-.966338 3.021889-1.688978 6.278512-.766434 9.386757.504075 1.698313 1.818904 3.884655 3.450558 2.773347-.407086-1.064545-.744583-2.152944-1.010483-3.258717z" fill="#fff"/><path d="m218.341104 265.909514c7.718536 5.816767 19.218054 5.874346 26.993473.135147 1.502672 3.04478.318996 6.942063-2.135427 9.274993s-5.899796 3.324158-9.261984 3.597632c-5.927601.464912-11.843217-1.039121-16.84338-4.282395-4.335115-2.829737-7.767703-6.842122-11.783202-10.116254-4.015499-3.274131-9.058387-5.890188-14.163846-5.106166-1.427373-7.293501 7.904222-8.796697 12.996953-6.280354 5.78434 2.857959 9.146246 8.970856 14.197413 12.777397z" fill="#3360ff"/><path d="m165.413373 218.623368c.401557.328045.924404.450413 1.422801.332995 1.233113-.275735 2.369552-.897583 3.285317-1.797694 2.882722-2.486735 5.284707-5.826499 5.822526-9.676026.094177-.455233.069189-.928324-.072369-1.370152-.291156-.606457-.860017-1.017229-1.509248-1.089823-.953439-.106416-1.910465.164416-2.679803.758368-2.096327 1.565119-3.807814 3.620644-4.99578 6.000015-.614698 1.388868-2.517687 5.617721-1.273444 6.842317z" fill="#fff"/><path d="m167.375788 218.650721c.358743.303054.838078.417657 1.293413.309239 1.131377-.261779 2.166605-.840412 2.986701-1.669394 2.620637-2.309268 4.804297-5.410721 5.293163-8.985549.085642-.422925.063002-.860905-.065781-1.272541-.252877-.554327-.771907-.937185-1.372027-1.012064-.872193-.097276-1.74729.15569-2.436182.704233-1.923271 1.474911-3.47848 3.382913-4.54162 5.571872-.558831 1.28994-2.288776 5.217025-1.157667 6.354204z" fill="#000"/><path d="m160.389518 200.175345v.665027c0 .407836-.48729.820161-.423229 1.222585.464487 2.915692 2.517631 5.286663 4.722371 7.171109 2.204739 1.884447 4.672693 3.49046 6.498472 5.765934 1.189736-.39874 1.839884-1.80075 1.812007-3.091892-.119058-1.289694-.502552-2.538472-1.125006-3.66338-1.343338-2.878621-2.686658-5.757261-4.02996-8.63592-.861512-1.846167-1.772143-3.757266-3.325006-5.033557-1.890398-1.553631-4.494949-1.962906-6.338625-3.575251 1.693794 1.978551 2.971109 4.298743 3.751023 6.813584l-5.931565-.752927c.987014 1.303519 3.044005 2.215493 4.389518 3.114688z" fill="#fff"/><path d="m199.127745 237.990601c-.423104-.085159-.766857-.397504-.896804-.814867-.391006-.964322-.222017-2.131514.039896-3.246591.764403-3.585045 2.663734-6.81787 5.408145-9.205131.333567-.308024.728732-.53935 1.158495-.678171.565033-.138533 1.159828.042016 1.557068.472648.511673.634247.713683 1.46906.549701 2.271654-.414444 2.404444-1.352963 4.684583-2.747002 6.673862-.873044 1.167531-3.517661 4.742847-5.069499 4.526596z" fill="#fff"/><path d="m198.057766 236.994006c-.405546-.064316-.738503-.347469-.858941-.730459-.361549-.878492-.171753-1.955276.107726-2.985914.848062-3.352722 2.76649-6.356171 5.478585-8.57715.332488-.290253.722636-.510757 1.146212-.647818.541266-.143237 1.119647.010589 1.511333.401952.488255.579273.669296 1.348402.488958 2.077267-.465616 2.241261-1.429964 4.35562-2.825023 6.193936-.877803 1.091462-3.537223 4.434552-5.04885 4.268186z" fill="#000"/><path d="m301.274849 265.134268c-.815348 4.220197-1.822096 8.545719-4.341447 12.030688-4.054432 5.609023-11.203957 7.981381-17.991048 9.368328-5.883202 1.202271-11.940006 1.918018-17.895147 1.145935-12.667955-1.642429-23.594139-9.844088-32.115241-19.346793-8.521102-9.502706-15.235284-20.487715-23.553861-30.167861-1.753751-2.040717-3.749847-4.125467-6.378105-4.712077.005191-1.980335 1.82877-3.710715 3.799479-3.935607s3.91238.589458 5.624599 1.588769c6.67031 3.893055 12.094438 11.036675 19.81628 11.287599 1.074861.107887 2.154066-.158078 3.055215-.752944.749847-.691712 1.289574-1.580192 1.557444-2.563812 4.15889-11.511864 3.434079-24.193246 1.585969-36.291436-2.515871-16.469339-5.266386-32.499832-5.679137-49.165183-.443235-17.894395-.150648-35.786872.877759-53.6774313l79.362392-3.9424427c-4.767262 24.666385.549042 50.127866-.883921 75.208888-.862755 15.10102-3.287063 30.074612-3.417249 45.176144-.142566 16.511891-.271669 32.43421-3.423981 48.749236z" fill="#fff"/><path d="m235 116h65v2h-65z" fill="#131a59"/><path d="m235 124h65v2h-65z" fill="#3360ff"/><path d="m235 131h65v2h-65z" fill="#eab124"/><path d="m235 140h65v2h-65z" fill="#ba3500"/><path d="m235 148h65v2h-65z" fill="#71e289"/><path d="m235 155h65v2h-65z" fill="#3360ff"/><path d="m237 162h65v2h-65z" fill="#131a59"/><path d="m237 170h65v2h-65z" fill="#3360ff"/><path d="m237 177h65v2h-65z" fill="#ba3500"/><path d="m237 186h65v2h-65z" fill="#3360ff"/><path d="m237 194h65v2h-65z" fill="#3360ff"/><path d="m237 201h65v2h-65z" fill="#131a59"/><path d="m133.467113 213.501151c-10.698906-2.059842-21.718111-.350217-32.613061-.418577-10.8949503-.06836-22.6746315-2.414893-29.8970819-10.576685-4.5150891-5.164409-6.661444-11.985111-5.9179485-18.806098.6928923-6.021421 3.63561-11.996207 2.2314657-17.892339-.9938657-4.173426-4.0113293-7.515728-6.860714-10.721651-2.8493848-3.205923-5.7495854-6.70593-6.4116698-10.94476-.6620845-4.238829 1.9212272-9.275229 6.1919791-9.656839-1.5588088-4.453635-10.3985006-2.140088-11.5645947-6.712414-.7472323-2.929924 2.8338103-5.116703 5.8432594-5.391849-2.8245452-2.448049-7.9208564-1.253968-9.3653578 2.194343-.7067616-3.085809 2.194519-6.427201 5.3471507-6.158254-2.9381136-2.311101-8.0699504-.306028-8.6653604 3.385581-1.8384667-2.682076.7143214-7.02754 3.9507936-6.725153-2.1746493-.487546-4.4527676-.149816-6.3926849.947713-.1246824-.607078.0412606-1.23758.4486056-1.70448.4073449-.466901 1.009313-.716582 1.6273431-.674982-2.6715291-1.895481-6.6664314.684112-7.2858283 3.901693-.6193968 3.217582 1.0196147 6.415714 2.8202253 9.152728 3.9110617 5.945042 8.9506456 11.40781 10.7997984 18.280432.6150201 2.285736.8552304 4.669918 1.6268476 6.907598 1.6186624 4.694031 5.4173494 8.332578 7.391382 12.888468 1.6423651 3.790509 1.9368586 8.006362 2.2371498 12.126785.7242118 9.936706 1.6529944 20.044994 5.4705527 29.246802 3.8175582 9.201808 11.0089166 17.510842 20.5778791 20.267421 8.2279685 2.370304 16.9804092.432851 25.4905372-.510198 9.004175-.996239 18.09777-.856759 27.067193.415165 2.85649.405496 5.856845 1.000432 8.011689 2.925943 4.049469 3.622054 3.697964 11.781173 9.588572 13.512751 5.133372 1.509151 8.784613-4.41718 7.539908-9.109733-2.482135-9.358149-20.808767-18.516905-29.28803-20.149411z" fill="#3360ff"/><path d="m312.660011 246.626697c.900456-3.091247-.1401-6.395875-1.346091-9.378997-1.041614-2.576554-2.260747-5.165879-4.265349-7.075173-1.266358-1.16524-2.733138-2.086452-4.327826-2.718097-3.271461-1.351244-6.84666-1.771832-10.337903-1.216156 3.89123.461819 7.463016 2.401346 9.991162 5.425335-4.091335-1.534077-8.694853-.210768-11.374004 3.269524 4.492571-1.286852 9.321856-.395499 13.073852 2.413073-3.287354-.415475-6.623898.121034-9.621147 1.547058-.757294.362124-1.599951.983028-1.497883 1.823278 4.087421-1.101238 8.428901-.703026 12.253189 1.123895-4.243254-.322711-8.387101 1.403805-11.17165 4.654619 2.168435-.605526 4.422632-.836112 6.667197-.681999 1.34197.092654 2.920539.52088 3.346573 1.81017.69955 2.117838-5.010115 7.401181.896502 6.201789 3.278138-.665572 6.781293-3.998272 7.713378-7.198319z" fill="#3360ff"/><path d="m303.235646 218.153651c-.44844 2.252452-.254032 4.592374.55924 6.731091 1.007547 2.633747 1.686184 4.994659 3.467607 7.138348.288117.389674.656584.706961 1.078194.928435.08502.049061.185113.061463.278811.034546.103349-.063422.173829-.171902.191931-.295416.499217-1.802211-.06439-3.740082-.853689-5.426351-.789298-1.68627-1.813132-3.271427-2.317742-5.07201-.302-1.077687-.413848-2.219917-.865068-3.23952-.108273-.32434-.3391-.588498-.638946-.73121-.309766-.105662-.83352-.400291-.900338-.067913z" fill="#3360ff"/><path d="m156.346387 300.787392c-.592856-.813916-.982634-1.760009-1.136332-2.758172-.738508-.819252-1.60999-1.505486-2.577007-2.02922-.855976 1.950827-1.897978 3.904992-3.575909 5.202885-1.67793 1.297894-4.138413 1.775547-5.92065.627822-.673369-.433593-1.205047-1.061075-1.866814-1.512597-.63629-.515382-1.50302-.632953-2.251589-.305427-.587951.341286-.852501 1.042693-1.288 1.567404-1.210652 1.459261-3.508033 1.310393-5.24431.567585-1.736277-.742809-3.31063-1.949074-5.170943-2.261232-1.127524-.175175-2.277224.118906-3.185921.814924-.040019.127544-.081831.254522-.128912.379577.537794.770841 1.346457 1.305912 2.261398 1.496307.876333.14675 1.743846.34285 2.598474.587381.481547.02431.95963.095607 1.427561.212894 1.512362.399826 2.778503 1.435165 4.231118 2.0187 4.950166 1.988497 10.444454-1.617008 15.746326-1.085339 2.039613.204522 4.084606 1.018088 6.085546.998745.867559-1.380724.865987-3.143092-.004036-4.522237z" fill="#fff" stroke="#131a59" stroke-width="2"/><path d="m156 297.500091c-.43958-2.06343-2.214618-3.572786-3.880637-4.89713-.817845 1.279068-2.231947 2.054256-3.752004 2.05679-1.520057.002533-2.936744-.767937-3.758863-2.044272-.16946-.263278-.356205-.575841-.667334-.614636-.162766-.00701-.324427.0298-.468049.106575-1.202378.631098-2.362846 1.338752-3.474214 2.118578-1.916141 1.152372-4.07763 1.837139-6.308774 1.99864-1.440411.10274-2.890595-.015-4.330836.093154-1.454653.037557-2.861529.526172-4.025412 1.398044-.681258.572118-1.150873 1.355582-1.333877 2.225322.221386.468001.504133.904535.840805 1.298123.188881-.170219.389157-.3274.599436-.47045.873963-.560052 2.023411-.394044 3.010742-.072911 1.741654.566424 3.33328 1.54505 5.097755 2.036138 1.764475.491089 3.88267.380568 5.135771-.952968.295524-.390064.630402-.748792.999363-1.070539.791815-.446812 1.758863-.452764 2.556136-.015732.811037.37177 1.505654.957085 2.296806 1.369342 2.879132 1.375926 6.334243.362763 8.010549-2.348982.413426-.723523.691906-1.553959 1.311904-2.111361.600849-.54026 1.691607-.641928 2.132147.012067.000057-.036822.007456-.076632.008586-.113792z" fill="#131a59"/><path d="m135.504614 295.028324c.750812.180151 1.41775.594992 1.895618 1.17909.474543.590163.68047 1.33923.57104 2.077178-.018388.258827-.155966.49635-.375342.64801-.370962.201824-.841841-.081279-1.064236-.43049-.368591-.579276-.367618-1.327351-.759683-1.892274-.392065-.564922-1.423037-.436966-1.678454-.823461-.479758-.727421 1.022397-.854852 1.411057-.758053z" fill="#ba3500"/><path d="m140.899847 294.060966c.027463.013934.053972.02984.079337.047603.443628.35807.780803.840805.972176 1.391868.374783.80862.503787 1.718026.369634 2.605725-.078678.390474-.290791.814828-.666461.884309-.459286.084814-.82689-.411892-.958679-.880059-.150608-.535409-.151047-1.103779-.253208-1.651591-.058885-.428609-.238654-.829072-.516292-1.150118-.272137-.274653-.861401-.244276-.914457-.574629-.169317-1.056232 1.515298-.757979 2.083439-1.088446 1.080208-.628147 1.993842-1.72268 3.036356-2.447009.112728-.089911.242016-.154429.37973-.189495.141409-.033147.28802.025695.371994.149299.096894.172268-.004225.385823-.0823.568025-.195569.458929-.243305.971954-.136013 1.461751.2566.802601.718253 1.516362 1.334897 2.063885l-1.068412-.051278c-.436211-.000212-.870353-.062749-1.2904-.185878-.82519-.285218-1.538068-1.043369-2.403474-.960623.098968-.217141.218439-.423377.356631-.615629" fill="#ba3500"/><path d="m144.63312 296c.072239.014352.135934.060701.176154.128184.04022.067482.053428.150163.036529.228663-.041152.156282-.125143.294827-.240535.396766-.411985.507289-.983155.824848-1.599145.889093-.489051.004355-.973534-.256083-1.453118-.149876-.886182.196266-1.363014 1.544664-2.266534 1.5065-.296923-.050316-.597987-.064514-.897741-.042338-.330069-.335644-.817974-.403153-1.213464-.167899-.451347.281909-.646747.892601-1.056813 1.242432-.495408.358904-1.120612.424256-1.668719.174432-.53636-.251406-1.047235-.563957-1.524233-.93252-.480365-.369699-1.047414-.579664-1.633437-.604826-.600891-.008358-1.13148.4292-1.292064 1.065522.591955-.478877 1.347438-.642685 2.060566-.446785 1.022081.350799 1.790417 1.351785 2.829177 1.638351.865234.226296 1.77457-.072594 2.384599-.783793.241361-.288381.447109-.652425.78617-.773572.517398-.184774 1.075198.289409 1.60421.151206.420909-.110138.678892-.563939 1.026485-.846755.581571-.369907 1.256377-.523337 1.923785-.43741.667393.085924 1.342225-.066624 1.924556-.435051.270194-.195268.440346-.519527.458786-.874306s-.11701-.698217-.365214-.926018z" fill="#71e289"/><path d="m147.651903 282.011106c1.33101.930661 2.802662 1.601778 4.348097 1.982862-1.025941 2.301749-.590987 5.00817-.288353 7.542156.126042.719683.119577 1.459174-.019024 2.176153-.899483 3.560474-6.216554 2.688158-6.64474-.711749-.218916-1.73795.366423-3.677141.67348-5.365428.076471-.420574 1.51573-5.914305 1.93054-5.623994z" fill="#ff8b78"/><path d="m176.919677 302.163004c.664777-.715089 1.148922-1.587575 1.409864-2.540741.805961-.698642 1.723608-1.247566 2.711965-1.622263.599265 2.032534 1.377138 4.094655 2.841888 5.60401 1.464749 1.509355 3.776898 2.326522 5.623091 1.455031.697497-.329199 1.281089-.868533 1.969228-1.216905.68054-.414423 1.527705-.40661 2.200942.020298.526352.417726.700425 1.142105 1.058847 1.718129.997187 1.601078 3.223907 1.781211 4.979447 1.300106 1.755541-.481104 3.408371-1.439704 5.233724-1.4816 1.11247-.008325 2.182059.441817 2.97095 1.250339.023884.130602.049489.260968.080377.39015-.609046.680518-1.45046 1.09098-2.34717 1.145005-.858749.019304-1.715766.088333-2.567.206763-.46497-.04457-.933036-.042588-1.397635.005917-1.500689.177175-2.837524 1.011918-4.301872 1.377273-4.990068 1.245724-9.860892-3.065754-15.021933-3.297134-1.985417-.089061-4.045987.417726-5.968539.115039-.677909-1.455505-.473451-3.184386.523826-4.429417z" fill="#fff" stroke="#131a59" stroke-width="2"/><path d="m178.005008 300.053197c.651522-1.867752 2.503144-3.03956 4.230425-4.053197.638488 1.293653 1.875906 2.197866 3.314744 2.422168 1.42261.195819 2.848841-.333233 3.789572-1.40572.190522-.223172.402727-.490034.701485-.484805.15553.015492.304128.071425.430668.162108 1.065783.750354 2.082737 1.566215 3.044837 2.442748 1.67567 1.329739 3.64057 2.257444 5.740325 2.710228 1.351186.288622 2.736346.372628 4.086566.666255 1.377962.232716 2.651017.876035 3.648557 1.843742.577786.622138.931988 1.415068 1.007813 2.256124-.262678.407079-.580145.776984-.94368 1.099554-.159276-.184198-.330772-.357728-.513353-.519441-.762888-.639828-1.86932-.638591-2.840201-.470804-1.712429.295876-3.329938.996712-5.055284 1.219209-1.725347.222497-3.716731-.164019-4.749868-1.576937-.235278-.403998-.511047-.783613-.823152-1.133122-.689759-.521781-1.602568-.656503-2.416532-.35666-.809722.238692-1.533686.692233-2.329295.971297-2.920787.881809-6.050127-.515725-7.310146-3.264644-.218326-.762608-.555701-1.4869-.99996-2.14676-.506468-.584779-1.527028-.825607-2.018529-.273946.004268-.034469.001821-.072592.005008-.107397z" fill="#131a59"/><path d="m196.662818 300.003017c-.712242.060584-1.379044.322007-1.891702.741651-.509292.426858-.787679 1.010547-.770096 1.614647-.012304.212796.087153.419416.272085.565249.363854.158848.81186.059544 1.034987-.229412.408515-.426958.494595-1.031424.923132-1.444135s1.367973-.194726 1.649109-.47861c.529183-.534289-.846224-.804378-1.217515-.76939z" fill="#ba3500"/><path d="m192.177762 297.41988c-.02871.009232-.056736.020483-.08387.033668-.479124.275156-.868109.68421-1.119538 1.177299-.463775.715194-.695085 1.557069-.662065 2.409648-.008397.392117.208877.754078.558267.930029.444361.145279.864347-.271841 1.047914-.695392.209906-.484514.275004-1.021531.438354-1.524647.106135-.395324.329778-.748837.641155-1.013475.300361-.220845.87948-.108539.969473-.413121.287654-.974012-1.411755-.931419-1.935827-1.324258-.996448-.746793-1.775076-1.910994-2.723293-2.743031-.101046-.100857-.221445-.180089-.353906-.232898-.134184-.051829-.286289-.016984-.384751.088141-.115523.148872-.03974.365081.016867.548432.141173.457941.129961.949536-.031943 1.400519-.344161.721012-.882693 1.33093-1.554599 1.760674l1.062123.103208c.429933.061702.86625.064236 1.296866.007534.848289-.152407 1.639336-.767655 2.485488-.566571-.073237-.21957-.167804-.431388-.282339-.632401" fill="#ba3500"/><path d="m188.442245 299.001169c-.140682-.016702-.249295.148588-.240244.29975.023222.151538.088705.291996.187838.4029.338902.529825.848735.906593 1.431351 1.057776.468008-.022485.936952.002088 1.400679.073396.824428.311304 1.137751 1.630815 2.003021 1.72744.289073-.003234.577604.027542.860409.091774.355422-.262753.827493-.254016 1.174235.021732.400593.327229.523173.921939.87717 1.305921.43012.403802 1.017946.555382 1.572425.405474.53661-.154151 1.056352-.369169 1.550413-.641406.499639-.273016 1.06249-.384777 1.62025-.321721.57569.082195 1.031886.561238 1.120208 1.176311-.509967-.528798-1.211244-.790382-1.917427-.715222-1.01126.175887-1.84798.991085-2.867955 1.104891-.855961.079555-1.687985-.328618-2.191082-1.074898-.199905-.302564-.357964-.669963-.668493-.831841-.473672-.246828-1.055174.111112-1.544937-.094529-.389698-.163614-.588151-.62183-.889909-.93499-.512712-.426635-1.138958-.667115-1.787863-.686546-.64893-.019364-1.275359-.259031-1.78898-.68445-.46652-.481803-.48032-1.402486.098891-1.681762z" fill="#71e289"/><path d="m188.339818 289c-.186591.01458-.372895.0361-.559657.046656-.688672.096635-1.38227.159912-2.074608.188256-.854925.096285-1.710537.181257-2.572279.195895-.11336 1.64645-.411288 3.274306-.88798 4.851845-.208572.666515-.28529 1.368507-.225719 2.065391.507524 3.506585 5.973415 3.461971 6.788352.302504.416491-1.615046.043768-3.53907-.076252-5.184617-.012947-.176009-.175362-1.281633-.391857-2.46593z" fill="#ff8b78"/></g></g></svg>