<svg height="330" viewBox="0 0 520 330" width="520" xmlns="http://www.w3.org/2000/svg" xmlns:xlink="http://www.w3.org/1999/xlink"><mask id="a" fill="#fff"><path d="m12 2c-5.52 0-10 4.48-10 10s4.48 10 10 10 10-4.48 10-10-4.48-10-10-10zm5 11h-10v-2h10z" fill="#fff" fill-rule="evenodd"/></mask><mask id="b" fill="#fff"><path d="m6 2v6h.01l-.01.01 4 3.99-4 4 .01.01h-.01v5.99h12v-5.99h-.01l.01-.01-4-4 4-3.99-.01-.01h.01v-6z" fill="#fff" fill-rule="evenodd"/></mask><mask id="c" fill="#fff"><path d="m19 15-6 6-1.42-1.42 3.59-3.58h-11.17v-12h2v10h9.17l-3.59-3.58 1.42-1.42z" fill="#fff" fill-rule="evenodd"/></mask><g fill="none" fill-rule="evenodd"><path d="m0 0h520v330h-520z" fill="#f4f0ea"/><g transform="translate(77 74)"><text fill="#000" font-family="Roboto-Regular, Roboto" font-size="14" letter-spacing=".21875"><tspan x="32" y="49">Production kickoff</tspan></text><g fill="#d8d8d8"><path d="m32 60h317v8h-317z"/><path d="m32 80h250v8h-250z"/><path d="m32 100h177v8h-177z"/></g><text fill="#ff4b33" font-family="Roboto-Regular, Roboto" font-size="14" letter-spacing=".21875"><tspan x="32" y="17">Blocking</tspan></text><g fill="#ff4b33" mask="url(#a)"><path d="m0 0h24v24h-24z"/></g><text fill="#000" font-family="Roboto-Regular, Roboto" font-size="14" letter-spacing=".21875"><tspan x="32" y="169">Supplier confirmation</tspan></text><path d="m32 180h317v8h-317z" fill="#d8d8d8"/><path d="m32 200h212v8h-212z" fill="#d8d8d8"/><g fill="#faab3d" transform="translate(0 120)"><text font-family="Roboto-Regular, Roboto" font-size="14" letter-spacing=".21875"><tspan x="32" y="17">Waiting on</tspan></text><g mask="url(#b)"><path d="m0 0h24v24h-24z"/></g></g></g><text fill="#2c4bff" font-family="Roboto-Regular, Roboto" font-size="18" letter-spacing=".225" transform="translate(91 23)"><tspan x="0" y="17">Linked tasks</tspan></text><g fill="#2c4bff" mask="url(#c)" transform="translate(61 22)"><path d="m0 0h24v24h-24z"/></g><path d="m-77.513612 70.0661859c3.8679915 2.9170889 10.184664 2.8329951 15.3033216 1.7830312 5.1186575-1.049964 10.080297-2.8511304 15.4826562-2.6133571 4.7105501.1274743 9.2050722 2.0137756 12.6074204 5.291195 2.6905559 2.870609 3.6801042 6.5239892 7.0274636 9.0066381 6.7529825 5.0085537 18.04179152 4.6989844 27.21753044 6.3995337 4.51343132 1.0317449 8.73125101.3106952 12.78494416 2.5567286 20.6245659 10.2567616 9.6808696-2.5441744-3.31020958-5.7362475-11.41140989-2.8039787-25.05608542-2.5220091-33.34998372-9.0504313-4.3512064-3.4255477-6.333243-8.185447-10.895455-11.4602706-3.7827272-2.5635209-8.2562806-3.8997326-12.8177578-3.8285533-5.8504289.0562865-15.7661402-.440605-20.5078206-3.1602212-3.8531583-2.2099484 9.7882006-11.0907947 6.3058276-16.3805235-.4553878-2.5903745-4.0853009-5.735158-5.8363273-7.6899414-6.3475417-8.1837006-22.7512422-15.7651551-29.4061425-24.6844054-4.4366005-5.94616683-9.6615925-15.8432312-15.6749755-29.6911931-1.09298-.9514963-1.695959-3.2125325-2.30078-2.1135362-5.020037 9.1213604 17.4511679 45.2305013 28.9706864 51.1537434 3.6337338 1.8684683 7.8268529 3.2155818 10.8509554 5.6040617 5.5179514 4.3593117 1.8951755 7.0057152-1.0939153 10.6190635-3.4747111 4.1985124-4.6423915 10.274628-4.8262697 15.2044613-.1151912 3.087426.4383144 6.5047793 3.4688312 8.7902241z" fill="#ff8b78" fill-rule="nonzero" transform="matrix(.75470958 -.65605903 .65605903 .75470958 -35.722833 -20.744975)"/><g transform="translate(339 17)"><path d="m18.6379714 41.844931c-6.5970398 5.0532185-12.97639079 10.868626-16.38902172 18.4639863-3.41263094 7.5953602-3.20096121 17.3461423 2.4358738 23.4601118 2.22819003 2.2554839 4.85277725 4.0773126 7.74115982 5.3734419 3.6790306 1.8290652 7.5756278 3.1786459 11.5951873 4.0159762 13.284198 2.676142 27.1828401-1.3097765 38.9788294-8.0035739-7.9752337-4.0781066-11.0979474-13.7261217-13.2639673-22.4463784-2.2158443-8.9202495-4.0222264-19.0980523 1.1153623-26.707182 6.2531183-9.2623027-.3803701-10.4782118-8.4945435-7.6667263-8.5714721 3.2077244-16.5784203 7.7685058-23.7188801 13.5103444z"/><g fill-rule="nonzero"><path d="m120.328549 58.4775777c-.362144-.7916102-1.211738-1.2343478-2.062383-1.0747424-.295077.1320452-.566284.3126335-.802508.5343654-2.161018 1.728839-6.142557 2.9166331-7.549639.525348-3.588491-6.0987789-1.502568-13.8564284-2.430897-20.8843352-.49732-3.7632682-2.275071-7.7877075-5.804215-9.1207822-3.0999569-1.1709281-6.5724064.0885043-9.458848 1.7221595-4.1152313 2.3344567-7.7573293 5.4285592-10.7359644 9.1206152-1.1567648.4820977-1.7833872 1.7954677-2.782336 2.8306336-1.5269362 1.5820555-3.8054877 1.8113317-5.67574 2.2573598-2.5242535.3308155-4.6374343 2.088601-5.4373583 4.522902l3.8921871-1.728338c.5516929-.2449732 1.3759169-.325462 1.5189791.3830731.0357752.3687166-.0758523.7365864-.3101616 1.0221408-.9196686 1.1423661-1.9933227 2.1496471-3.1898063 2.9926132-1.2384628.9236974-2.1216709 2.2504403-2.4998586 3.7552527 2.4749926-.4552125 4.1073605-4.0424741 6.6077165-4.1413317-.2649068 1.2674629-1.0466162 2.3643332-2.1540559 3.0225042-1.1143344.708465-1.7828863 1.9495647-1.7651522 3.2768287 2.1293557-.6876614 3.3138046-4.182578 5.5132824-4.2248263-.5245062 2.1025608-3.3099919 2.8174415-3.1445503 5.0096755.8951748.3202853 1.7005006-.6925041 2.3393902-1.5371354 1.1681512-1.5641269 2.6094331-2.9007704 4.2532409-3.9444515.227275 1.681748-2.2387659 2.2680471-2.2593218 3.9733406.94988.0586132 1.7033188-.9361414 2.3123692-1.8470673l4.7742658-7.1414595c.5248191-.2567037.9954983-.6130682 1.3861948-1.049527 2.7478552-2.8438258 5.1139349-6.591564 8.9620263-7.4418729 2.7888106-.5692281 5.6506653.5549659 7.3207071 2.8757207 1.907551 2.7429643 1.676132 6.376482 1.806927 9.7227782.016121 3.2115222.768928 6.3758307 2.199643 9.2458571 1.468599 2.8887218 4.125997 4.9789819 7.264178 5.7138689 3.202802.6535035 6.457962-.8515093 8.054253-3.7238588l-1.030612-.4401835c1.840745-.9752168 1.937059-2.3974637.888047-4.2071255z" fill="#668eff"/><path d="m150.661376 30c-.006839 1.2840625-1.131289 2.5439897-1.791735 3.9845093-1.01486 2.2140288-.224138 4.369998.146006 6.2785388.715125 2.6856117-.228712 5.5357997-2.412687 7.2858054.031686-1.4674678.063258-2.9349918.094716-4.4025721.013506-.6244784-.275257-1.4028822-1.106499-1.1487026-.407122.1596713-.747108.4513191-.964084.8270118-.800767 1.3968184-1.400581 2.8969222-1.78216 4.4570875-.491922 1.6876936-1.515195 3.1770276-2.921656 4.2523598-.635827-2.4528496 2.499367-5.8408976 1.466897-8.1248005-1.201771.8432897-2.022121 2.1168379-2.286 3.5488934-.337093 1.4732095-1.349528 2.7076225-2.739064 3.3396088-.227044-2.2698943 3.012611-5.2086555 2.055024-7.1929776-2.034508 1.6003523-1.538703 4.4699146-3.983532 5.503173-.754307-.6256598-.026158-1.8903127.59582-2.914626 1.132997-1.8170506 1.92147-3.8225304 2.326862-5.9183667-1.922183.7031288-1.432191 3.218595-3.266839 4.1551437-.495804-.8155349.235764-2.0233097.943226-3.0572433l5.546684-8.1052223c.044143-.6277478.215167-1.2404152.502985-1.8018731.147032-.3206781.301928-.6430439.461611-.9657473h-23.546951v53.3412506c.093519-.205234.188064-.4087802.288079-.6076006.133485-.2922055.321388-.5570544.553934-.7807667.421719-1.4643172.843437-2.9286908 1.265156-4.3931206.161393-.5603427.385189-1.1897156.906125-1.3488731.299535.8280245-.918948 1.5981581-.490675 2.3657601.68541-.8147403 1.216434-1.7447818 1.567597-2.7455105.189602-.5341821.438188-1.1824581.977419-1.2043993.488111 1.0266762-.878771 1.9218743-.77773 3.0412095 1.174544-.4541814 1.174544-2.3767308 2.19385-3.1293115.24747.6592068.112647 1.3990902-.352021 1.9318321-.467627.5129746-.688943 1.1998442-.607446 1.8852494 1.325849-.5414396 1.549987-2.5969859 2.797021-3.3055156.06482.8222665-.169002 1.6404578-.659591 2.3080381-.484974.6353746-.878461 1.3340027-1.169244 2.0759685-.074224.179258-.067193.3813042.019319.5551106.205161.3142645.634288.1125748.886123-.114769l1.777031-1.6033903c-.022432 1.3895321-.83343 2.6488961-2.098449 3.2585954-1.065722.4883907-1.977696 1.2523924-2.639219 2.2109908-.211999.4243077-.332018.8703878-.512901 1.2592521h46.075622v-55z" fill="#668eff"/><ellipse cx="126.5" cy="63" fill="#ffee9c" rx="3.5" ry="6"/><path d="m130.745097 76.4461437c1.631262 1.2537304 3.509487 2.1423059 5.509111 2.6063225 2.890984.7509724 5.83791 1.2635113 8.81154 1.5325313 2.136477.2459798 4.284322.3786312 6.434634.3974047 2.307256.1133419 4.608595-.3220323 6.717724-1.2708796 2.131246-.9932889 3.573349-3.0574116 3.781894-5.4131314-.091872-2.3958678-1.47792-4.5491178-3.612175-5.6115788-2.114142-1.0140836-4.45192-1.462933-6.788243-1.3033312-5.428469.1116267-10.744917 1.6392308-16.168831 1.8876299-.90642.0971199-1.822932-.0111459-2.682433-.3168703-1.583311-.6796148-2.440171-2.4737977-3.963253-3.2801606-.817849-.3708569-1.69525-.590584-2.59032-.6486922-1.388117-.1736416-3.022377.5472597-1.716251 2.0451306.829867.9514607 2.262017.9434752 3.138953 1.7590129 1.013083.9422858.403715 2.4061759.647327 3.6339.358926 1.5705348 1.232674 2.9735327 2.480323 3.9827122z" fill="#ff8b78"/><path d="m151.465166 80.9862564c-2.141977-.0174809-4.28151-.1493825-6.409522-.3951452-2.968351-.2716994-5.910236-.7817784-8.797399-1.5253381-2.000134-.4665081-3.879084-1.3531976-5.513038-2.6016399-1.256238-1.0073148-2.134431-2.4130587-2.490703-3.9869287-.068083-.4391522-.085026-.8847659-.050487-1.32785.166077-.8031073-.048743-1.638101-.581445-2.260048-.429137-.3480052-.921367-.609265-1.449488-.769342-.634237-.1822603-1.213293-.5201611-1.684927-.9832172-.587503-.6715272-.538531-1.1372883-.395484-1.4099537.315041-.5973635 1.319737-.8043122 2.148737-.7015981 1.755013.0082692 3.406624.8344709 4.469971 2.2360588.573628.6931978 1.28122 1.2625396 2.080074 1.6736654.851237.2995096 1.758036.4058451 2.655123.3113521 2.565998-.1661495 5.120861-.4748207 7.652854-.9245958 2.801156-.5096718 5.633552-.8278373 8.477648-.9523016 2.339338-.1707219 4.682348.2778248 6.794908 1.30082 2.152826 1.0555445 3.548614 3.2186298 3.628012 5.6224141-.204591 2.3610242-1.654288 4.4307689-3.798323 5.4228988-2.112398.9408907-4.413977 1.3752596-6.722542 1.2687218zm-25.626981-15.890276c-.631365-.0677905-1.254681.1858166-1.660861.6757506-.186298.3532487-.053853.8038054.383029 1.3030162.462107.4506344 1.028118.7794749 1.647567.9572007.539304.1654019 1.042027.4330413 1.480959.7884321.550885.6417713.77649 1.5025398.611568 2.3333669-.034188.4355953-.01798.8737004.0483 1.3055502.351852 1.5527162 1.218737 2.9393812 2.45856 3.9326997 1.623671 1.2394317 3.490499 2.1194905 5.477527 2.5822121 2.882154.7424119 5.818991 1.2515335 8.782254 1.5224661 2.124703.2455514 4.260926.3773405 6.399593.3948073h.014473c2.293686.1062119 4.580543-.3246124 6.679797-1.2584166 2.113299-.976331 3.543211-3.014774 3.746657-5.3411329-.080305-2.3681776-1.456947-4.4982025-3.578534-5.5369317-2.098071-1.0160408-4.425228-1.460949-6.74846-1.2901769-2.839856.1244931-5.668026.4422625-8.465026.951119-2.53541.4502265-5.093693.7592916-7.66312.9257784-.911266.0953795-1.832261-.0135014-2.696523-.3187854-.811073-.4157537-1.529516-.9926373-2.111712-1.6956272-1.048272-1.3857032-2.679955-2.2018701-4.413257-2.2075084-.130323-.0159794-.261499-.0239344-.392791-.0238202z" fill="#ff8b78"/><path d="m123.986835 16.6733683c.562546-.009079 1.169536.2309128 1.202566.7234012-.005901.1975775-.046877.3925826-.121052.576083-.505998 1.6405431-.202676 4.0455995 1.64285 4.0267565 4.707543-.0479641 8.96166-3.5135408 13.550227-5.2104417 2.457185-.9089195 5.409819-1.2426125 7.154353.1519433 1.369 1.4334339 1.898079 3.4632725 1.400745 5.3740336-.404029 2.9255369-1.368643 5.7476613-2.841957 8.3145747.003458.7410452-.645554 1.4677012-1.025312 2.2990216-.371242 1.177697-.341898 2.443555.083526 3.6031308.408977 1.5411663-.130884 3.176767-1.379994 4.1809269l.054301-2.5265084c.007609-.358189-.157541-.8051115-.63293-.6589923-.23284.0916392-.427267.25904-.551306.4746732-.458048.8015206-.8011 1.6623612-1.019258 2.557685-.281313.9685201-.866511 1.8232177-1.670865 2.4403443-.363157-1.4075747 1.429452-3.3520046.838891-4.6626233-.687316.4839231-1.156479 1.2147768-1.307363 2.0365894-.192809.8454445-.771864 1.5538401-1.566587 1.916508-.129699-1.3018824 1.72309-2.9890192 1.175935-4.1283376-1.163484.9181697-.879531 2.5648796-2.278547 3.1579213-.431291-.3597307-.015045-1.0845023.340848-1.6725763.647909-1.0427787 1.098825-2.1936534 1.330709-3.3963714-1.099326.4034123-.819004 1.84696-1.867661 2.3845004-.283954-.4679924.134886-1.1610735.539373-1.7544578l3.172257-4.6513175c.02525-.3602333.123095-.7118062.287758-1.0339687 1.042432-2.2854888 2.74356-4.6549148 2.265404-6.8876431-.447166-1.6612169-1.95189-2.827524-3.687247-2.8579745-2.297666.1739845-4.520546.8871103-6.484935 2.0804423-1.963605.9770863-4.100773 1.5653542-6.291769 1.7318462-2.014645.198757-4.011378-.5196537-5.427631-1.9528236-1.235714-1.573181-1.149818-3.7988576.20354-5.2739941l.540757.3915925c.123301-1.2427838.977756-1.7316749 2.370374-1.7539439z" fill="#131a59"/><path d="m116.000084 0c-4.454478.04117062-8.642245 2.08917487-11.356511 5.55383954.16491.09728459.333031.19241466.506896.28174412 2.483794 1.27613513 5.805656.89495191 8.578888.85733079 3.342983-.0447476 7.206211.59050253 8.644276 3.35341795l-5.915483-.78109413c-.838745-.1108746-2.04009.03016319-2.117645.82948783.023441.4197058.260629.7996683.631086 1.0109642 1.595198 1.0016555 3.321847 1.7859009 5.132497 2.331184 1.807352.5382583 3.337121 1.732819 4.277025 3.3398279-3.645262.1937406-6.643218-3.2047565-10.260939-2.6218776.421231 1.4584402 2.153128 2.0970049 3.646783 2.6480633 1.493655.5510583 3.15408 1.4990444 3.132959 3.0290807-3.1899-.1508159-5.525173-3.5738413-8.700035-3.0120103 1.134603 2.1110921 5.273921 2.1100977 5.431735 4.5079059-1.230576.5903368-2.573176-.2741205-3.645601-1.0040035-2.077183-1.4065372-4.39127-2.4422424-6.835669-3.0594097-.023487 1.8669692 3.632759 1.8160895 3.97069 3.6399683-1.365981.1236778-2.714758-.3713046-3.662497-1.3440851l-6.397036-4.9727838c-.038186.4658722-.061503.9360534-.061503 1.4123667 0 8.83649 6.715704 16.0000829 14.999916 16.0000829 8.284211 0 15.000084-7.1635929 15.000084-16.0000829 0-8.83648997-6.715535-15.9999171-14.999916-15.9999171z" fill="#131a59"/><path d="m52.688302 32.9758719c-4.4111164 2.1776251-7.5785914 6.3278182-8.5693824 11.2280576-.3340038 1.2625907.0478922 2.6100801.9906084 3.4952817 1.1963667.6087598 2.647151.2706688 3.4665182-.807838.7653612-1.0678246 1.3601558-2.2527916 1.7622457-3.5107966 1.7584228-3.7997884 4.5366634-7.011906 8.0118268-9.2630316 2.7415039-1.8945853 5.8394033-3.0298386 8.6498813-4.7293302-3.3409678-1.5471971-11.2646125 1.9184817-14.311698 3.5876571z" fill="#131a59"/><path d="m109 86h-17l8.5-17z" fill="#fff"/><path d="m117 14.9860642c-.712146-1.1613694-1.827839-2.013001-3.129027-2.3884508-1.316243-.3922525-2.576323-.9556564-3.748515-1.6760263-.246066-.1822169-.491467-.4260117-.463702-.7203105.053536-.56728849.9284-.66242384 1.539907-.5803759l4.313303.5786981c-1.058416-1.96747275-3.875704-2.43408895-6.311258-2.41613572-2.106199.25966978-4.243288.03979628-6.254231-.64346392-.99383-.73906716-2.111589-1.29119842-3.2996109-1.62988486-3.8560216-2.34189494-8.0790512-4.00403773-12.4880117-4.91515824-3.3467346-.93395762-6.9015684-.76483324-10.1463952.48272378-3.0423129 1.49224495-4.9377039 4.6432173-4.8456698 8.05563126-.019785 5.534293 3.2183095 11.0526462.2844722 16.3837489-.8264822 1.5020311-3.2971171 1.8473371-5.5494515 1.5859247-.9433636-.274388-1.8978112-.5102409-2.8633428-.7075587-.1567178-.0526943-.3190643-.0864868-.4836525-.1006723-.0111395-.0008389-.022279 0-.0332522-.0008389-5.4072143-1.1117024-11.0125807-.7123839-16.2114213 1.1548793-9.2090171 3.5376253-14.7684442 14.1513402-17.051537 23.2232585-1.4644499 4.9108967-1.6544037 10.11909-.5516531 15.125345 1.3886494 4.5419592 3.9562821 8.6262025 7.4365111 11.8289976 9.219824 9.0158774 23.5591492 13.1775033 35.4634194 8.3240908 7.3168502-3.1245917 13.0873284-9.0785898 16.0205539-16.5300594-.5651544-.1502757-1.1573154-.1649858-1.7291118-.0429535-2.0652912.4572201-3.3351908 2.4725121-4.81009 4.0015569-.2097124.2347-.4623375.4263499-.7440169.5644361l-2.5635746 3.8394745c-.3268686.4897709-.7315473 1.0246765-1.2411365.9931325.0109732-.9169571 1.3345751-1.2322292 1.2125397-2.1364344-.8822932.5611602-1.6558532 1.2799038-2.2827602 2.120998-.3428297.4540321-.7752739.9986694-1.2556012.8263519-.0887833-1.1787051 1.4062334-1.5631055 1.6877129-2.6936557-1.1804514.0223157-1.8160663 1.9015323-2.9594415 2.2713353-.0093633-.7136574.3495657-1.3809128.9476863-1.7617656.5942725-.3538664 1.0138224-.9434871 1.1561773-1.6248512-1.3420568.0533563-2.218251 1.982238-3.5465082 2.2270395.2028933-.8091676.6768746-1.5226064 1.3415581-2.019319.6423427-.4532017 1.2187498-.9948031 1.7124858-1.6090792.1257068-.1535878.1855452-.3514181.1662607-.5496709-.0766462-.3808769-.519066-.3375878-.8146777-.2058749l-2.0889001.9292055c.4294312-1.3087999 1.5635038-2.2538864 2.9182088-2.4319076 1.1100529-.1000717 2.1678461-.5215502 3.0462296-1.2137726.5361909-.556718.8723702-1.2629343 1.4933541-1.5221655 1.5987067-1.9852129 3.5535157-3.6488899 5.7622653-4.9040843 1.2817489-.8370694 2.7986015-1.2304829 4.3214496-1.1208185.1330086-.7709822.2400805-1.5468302.3104088-2.3270407.4426293-5.364996-.4856402-10.7549005-2.6960844-15.6545457-.5323107.781009-1.1042335 1.5337541-1.7134834 2.2552277l-9.2224842 11.160869c-1.1031401 1.3352505-2.4679746 2.7933213-4.1884409 2.7072465.0369099-2.5000293 4.5040039-3.358932 4.0923422-5.8238938-2.8828279 1.4587609-5.4903579 3.4155546-7.7045234 5.7817792-1.1571749 1.2379339-2.6166118 2.7225151-4.2376542 2.2528787-.2992694-3.2132927 4.7460796-4.2617949 5.6960935-7.3428712-3.9839402.0607389-6.129369 5.1836177-9.9866186 6.1913477-.3395044-2.0198224 1.4898627-3.6953453 3.1973606-4.8032442 1.707498-1.1078989 3.6878299-2.3919743 3.9019737-4.4295821-4.5292755.1454715-7.4863893 5.4035868-11.9692781 6.0710443.7897993-2.3329424 2.4012088-4.2918509 4.5281117-5.5045947 2.1123329-1.1938763 4.055804-2.6692781 5.7780601-4.3864608.4111138-.3819623.6193732-.9374019.5617951-1.4983397-.2585355-1.038435-1.7520559-.9204806-2.7514493-.5612482l-7.0494561 2.5335868c1.1861043-4.0216914 5.7649255-5.8415114 9.8487885-6.6296079 3.3877291-.6543701 7.5149862-.9899445 10.2809001-3.3089314 1.7168086-1.4392786 2.8264329-3.2450044 4.7246319-4.0302485-1.1481373-1.2184502-2.3905353-2.3427616-3.7154291-3.3622877-1.0722431-.8208653-2.1962059-1.5705518-3.3647852-2.2443216 1.3019135-1.0054185 2.369264-2.2869897 3.1266998-3.7542386 1.0911071-2.3241211 1.4576801-4.9276732 1.0512668-7.4665304-.3175581-2.5760369-1.0527631-5.3020755.5742646-7.7556278 1.7609595-2.2499646 4.441193-3.56842012 7.2822212-3.58225667 4.1480396-.08221573 7.1357454 2.32586617 10.4011066 3.97219417.497952.2684743 1.0373181.4500082 1.595272.536919l5.9720866 4.5383082c.709181.7000095 1.685186 1.0537912 2.673639.9691389-.252716-1.2961561-2.916546-1.2751827-2.906404-2.6007016 1.774888.4444698 3.462664 1.1882114 4.992145 2.199858.784252.5226571 1.765856 1.1417919 2.660172.7276931-.12403-1.7027045-3.14-1.7188121-3.974796-3.2215143 2.311025-.3859105 4.025672 2.0538831 6.351161 2.173851.009477-1.0860866-1.203894-1.7657925-2.294398-2.1631126s-2.354751-.8577282-2.667155-1.8949886c2.631908-.3995014 4.82921 2.025527 7.484394 1.9027068z" fill="#ff8b78"/><path d="m62.2668159 87.9996388c-2.7338977-.008536-5.4566008-.3493159-8.1078447-1.0151726-6.3565382-1.602409-12.1853294-4.8292763-16.9125138-9.3629082-3.5294838-3.1970665-6.1284088-7.285948-7.5223444-11.8348836-1.1275107-5.0065068-.9356205-10.2191754.5569557-15.1296218 1.2110041-4.8658537 3.2376915-9.4923401 5.9943682-13.683838 2.6641326-4.2731754 6.5992739-7.6090978 11.2556436-9.5417042 5.2564858-1.8775914 10.9288984-2.2775611 16.3977034-1.1562249h.0070522.0211566c.1700175.0143499.3377126.0488897.4995307.1028873.9582593.1928717 1.9324701.4308194 2.8905616.706135 2.1227115.24331 4.7028085-.0382057 5.5502476-1.5614063 1.9260896-3.4611341 1.1898065-7.0841397.4777025-10.5880039-.4503188-1.8864857-.7086421-3.8135236-.7710404-5.75180001-.0985858-3.42763669 1.8278543-6.59385101 4.9207551-8.08754187 3.2818154-1.27026957 6.8885898-1.44083208 10.2760598-.4859496 4.4530338.91568805 8.7190368 2.57563862 12.6178934 4.90976663.810596.14522362 1.575095.48032359 2.230677.97776411.356875.23769117.726428.45585231 1.107027.65351842 1.671901.62610432 3.467718.85184067 5.242974.6590482.365539-.00971899.710592-.01876771 1.051785-.02128124h.134327c2.292804 0 5.189578.43216001 6.279814 2.43795886l.044161.0811033-4.447754-.59000982c-.450069-.08678308-.916384-.01275102-1.31725.20912589-.105097.07869583-.172139.19791133-.184701.32843493-.02082.2186773.1261.4400357.449326.6771456.885781.5786781 1.84994 1.0279544 2.863192 1.334183.30039.1070765.611023.2178395.911581.333462 1.333814.3622489 2.475435 1.2255103 3.185746 2.4089694l.030392.0640113-.07069.0031838c-1.273485-.0414208-2.519862-.3778828-3.640613-.9827911-1.175105-.6617291-2.512148-.982514-3.860239-.9261529.334812.9762559 1.561558 1.4181349 2.646086 1.8097433 1.544767.5568312 2.357281 1.3194369 2.349557 2.2055409v.0490977l-.049198-.0025136c-1.066076-.1394592-2.084241-.527586-2.971997-1.1329328-.968267-.7219743-2.154643-1.0921347-3.362556-1.0491484.514837.6235036 1.196432 1.0883678 1.965549 1.3405506 1.002251.4524358 1.949093.879066 2.019783 1.83823l.002351.0335138-.029552.013573c-.958596.4386952-2.025996-.2645911-2.732223-.7302649-1.521962-.9976897-3.201097-1.7330547-4.967266-2.1753785.036604.6106208.700686.9140879 1.402547 1.2348147.689269.3150294 1.402045.6407832 1.530327 1.2924583l.0089.0447409-.044664.0100541c-1.012438.0898655-2.013477-.2676142-2.73894-.9780992l-6.0210655-4.5243583c-.5647641-.0866254-1.1105102-.2690596-1.61361-.5394041-.7465255-.3721704-1.491372-.7904221-2.2118715-1.1949333-2.4466469-1.66953605-5.310109-2.62759845-8.2707169-2.76723161-2.8539336.01186937-5.54684 1.32123149-7.3151442 3.55681591-1.0913233 2.0154406-1.3534759 4.3757363-.7309099 6.580763.0549064.3725055.1116598.7577462.1583386 1.1325977.4171697 2.5449394.0450294 5.15633-1.066561 7.4842941-.7560833 1.4512658-1.8191274 2.7212432-3.1155602 3.7220388 1.1601875.6650297 2.2767003 1.403216 3.3427418 2.2100652 1.3397976 1.0199203 2.5963493 2.1443761 3.757814 3.3627713l.0475184.0502706-.0638056.0261408c-1.1896424.582128-2.2433004 1.40745-3.0925567 2.4223749-.5258644.5618046-1.0821999 1.0944116-1.6665015 1.5954228-2.3366283 1.9372632-5.6847432 2.5036459-8.6386066 3.0031685-.6145487.1040603-1.1948438.2022556-1.7657361.3111754-3.815239.7280865-8.6120769 2.4465048-9.8828157 6.4991569l7.0320487-2.4984512c.7382057-.3093969 1.5653379-.3337066 2.3205089-.0682005.2621759.1336126.4521764.3755648.5195119.6615617.0721392.5761924-.1435244 1.1510472-.5771048 1.5382819-1.2950844 1.3668954-2.7855564 2.5351933-4.4230714 3.466999-.4701465.2986076-.9550691.6077721-1.4216895.9216285-2.1322353 1.1753871-3.7495037 3.101025-4.5365781 5.4015812 2.1077481-.5305635 4.0549058-1.563897 5.6741648-3.0112118 1.7518503-1.6426553 3.9694866-2.7050079 6.3494967-3.0417094l.0540669-.0016757-.0057089.053622c-.2182824 2.0565723-2.2068342 3.3321062-3.9609845 4.4573308-1.6387965 1.0513269-3.5180393 2.7162907-3.2173134 4.6993002 1.735575-.6413702 3.2906757-1.690773 4.5335557-3.059304 1.7036096-1.5833579 3.3125181-3.0792448 5.5138113-3.112591l.064981-.0008379-.0193096.0618329c-.6290727 1.3889656-1.666457 2.5542178-2.9745163 3.3411549-1.5021182 1.1460032-2.9216248 2.2286654-2.7790697 3.9417215 1.6540762.4495872 3.1859143-1.1716412 4.2015988-2.2454223 2.237557-2.3695803 4.8755883-4.3276122 7.7933503-5.7844759l.0570892-.0284867.0104104.0625032c.2182823 1.2958097-.9149388 2.1701839-2.0113876 3.0162389-1.0207217.7875735-2.075529 1.6001147-2.1195213 2.7638802l.0973875.0016757c1.674554-.2734495 3.1497635-1.2539095 4.0481295-2.6904851l9.312931-11.1470135c.6140781-.7194581 1.1907117-1.4699267 1.7276206-2.2484385l.0473505-.0702114.0347572.0772493c2.2363393 4.9006519 3.1751729 10.2920176 2.726682 15.6583014-.0671638.7418272-.1731147 1.5248764-.3138228 2.3278662l-.0078918.0454111-.0456714-.0070379c-1.5282825-.1154548-3.0519769.2761684-4.3342472 1.1139976-2.22358 1.2533243-4.1926936 2.910578-5.8058059 4.886307l-.0186379.0139082c-.405574.2172685-.7486494.5345535-.9965427.9216286-.1545021.2047507-.3200244.4009831-.4958367.5878314-.7281741.6198668-1.6262004 1.0070486-2.5775783 1.1113165-.1779841.0375354-.3526099.0740654-.5216948.1139468-1.313285.1788848-2.4223297 1.0624544-2.8880429 2.3008875l2.0207905-.8881147c.2122683-.109012.4604436-.1248596.6849027-.0437355.1089535.0568502.1844991.1618277.2036742.2830237.0246042.2107538-.0389307.4223092-.1756333.5848153-.3714002.4905248-.815524.9217121-1.3170819 1.2787177-.141044.1112657-.2824237.2223638-.4197737.3374836-.6458644.4726235-1.1125823 1.1493408-1.324302 1.9201712.6215007-.2202701 1.1771358-.5937271 1.6152891-1.0856784.4836079-.5850982 1.1569962-.983024 1.9035897-1.1248896l.0533953-.0020108-.0045336.0529517c-.1423894.6942651-.5729831 1.2957637-1.1849372 1.6552449-.5679828.3659354-.9211956.9855406-.9461698 1.6597692.5112454-.2580536.9530049-.6347297 1.2882014-1.0984136.4869375-.5608529.9906659-1.1409762 1.6589456-1.1533763l.0616228-.0011729-.0149439.0594869c-.1700897.4906016-.4792416.9213719-.8899202 1.2400093-.4352214.4110464-.8467675.7996385-.8155363 1.4040592.4229639.122828.8170474-.3351376 1.1856087-.8189088.6359765-.8451931 1.4216513-1.5670291 2.3181582-2.1297998l.0616228-.0380382.0100746.0717195c.0671638.4889658-.2748678.8148872-.6044741 1.1299166-.320332.2322167-.5408705.576689-.6174032.9643586.4484862-.0038541.8249393-.4680197 1.1654597-.9718992l2.5957125-3.8465424.0127612-.0055298c.2795824-.1339603.5297775-.3219094.7361151-.5529771.3358189-.344354.6676081-.720546.9883152-1.0845055.9530271-1.363255 2.3167034-2.387826 3.8929811-2.9249138.5849311-.1231574 1.1905989-.108296 1.7687584.0434003l.0520519.0134055-.020317.0502706c-1.5022509 3.6821141-3.6938258 7.0448147-6.4574625 9.9081772-2.7460647 2.8684102-6.0676818 5.1263121-9.7478166 6.6261741-3.4494724 1.3742195-7.1323313 2.0709824-10.8464483 2.0524237zm-4.7033122-62.231249c-3.4122992-.0274711-6.8010514.5658636-10.0001846 1.7509267-11.6043916 4.4085683-16.0924439 18.8421092-17.1915793 23.1608606-1.4881945 4.894596-1.6801975 10.0905022-.5572915 15.0811944 1.3898022 4.5326052 3.9801211 8.6066338 7.4974938 11.791986 9.91942 9.5923099 24.2921351 12.9294431 35.7647178 8.3037056 7.3701435-3.0938645 13.1839447-9.0156177 16.1329101-16.4324694-.5481245-.1357548-1.1199349-.1458949-1.6725462-.0296597-1.5558838.5345148-2.9014797 1.5483241-3.8427762 2.8952542-.3213788.3647973-.6538395.7419947-.9915055 1.0880244-.2120887.2363307-.4680548.4294096-.7537456.568561l-2.580097 3.8234179c-.3677217.5445987-.7765813 1.0426133-1.2954216 1.0126184l-.0448318-.0026811v-.0449084c.0566785-.433412.2915617-.8237254.6482985-1.0773.3089534-.2947536.6016196-.5742584.5834854-.9752506-.859864.5510746-1.6143897 1.25073-2.2281587 2.0661237-.3133191.410376-.7851447 1.0327267-1.3212797.8411955l-.0288804-.0102217-.0023507-.0304975c-.0503729-.666924.3831694-1.0767973.8425697-1.5108006.3770481-.2967688.6689607-.6875658.8462638-1.1329328-.5943996.0455787-1.0474193.5670529-1.5261292 1.1180192-.3529892.4964821-.8307591.8914464-1.3852532 1.1451654l-.0532273.0167568-.0077238-.0554652c-.0223959-.7316617.3490976-1.4193841.9738749-1.8028731.5707303-.3399586.9824513-.8925893 1.1443031-1.5359358-.7011869.1585624-1.3301101.5441769-1.7887396 1.0967379-.4618866.5273648-1.0614276.916386-1.7318184 1.1237166l-.0680033.0124001.0134328-.0678654c.2005373-.8215011.6862746-1.545512 1.3709808-2.0435018.1386932-.1159577.2805767-.2275585.4224603-.3393269.4938628-.3515151.9314319-.7757668 1.2977723-1.2582743.1213264-.1420072.1794136-.3272308.1608572-.5129282-.0141394-.0929288-.0714856-.1737092-.1546446-.2178395-.1994646-.0666918-.4174744-.0500721-.6044741.0460814l-2.1967596.9663695.0223319-.092498c.4399739-1.3228069 1.5977058-2.2791206 2.9820723-2.4632618.1697565-.0400489.3453898-.0769141.5242134-.1144495.9325904-.101779 1.8133863-.4795142 2.5292204-1.084673.1734232-.1845647.3368095-.3782728.4894561-.5802909.2554619-.3969308.6079386-.7224544 1.0242478-.945926 1.6193077-1.9809587 3.5950421-3.6427325 5.8256191-4.8998801 1.2885274-.8373612 2.8146697-1.2345293 4.3488554-1.1317598.1361746-.7845573.2387673-1.5496765.3047557-2.2749144.4449218-5.3214887-.4789908-10.6682264-2.6842008-15.5336303-.5394932.793606-1.1535381 1.5488387-1.6859791 2.1859354l-9.3122594 11.1473486c-.9143283 1.4595195-2.4166204 2.4529461-4.1198268 2.724334-.0493654 0-.0988987-.0013405-.1489357-.0036865l-.0453356-.0025135v-.0452436c.0184701-1.2333066 1.1056839-2.0716534 2.1574689-2.8821838 1.1046764-.8517524 2.1492412-1.6572557 1.9858653-2.8620756-2.8853074 1.4487611-5.4945636 3.3898382-7.7098993 5.7355458-1.0375126 1.0974082-2.6049476 2.7558369-4.3268592 2.2621792l-.0308954-.0088812-.0030223-.0318381c-.1679095-1.7836026 1.279806-2.8880487 2.8128195-4.0575115 1.2691303-.7695734 2.2847677-1.8930709 2.9216248-3.2319-2.1324503.0613302-3.7124784 1.5309088-5.3851926 3.0859475-1.263064 1.3950333-2.8511161 2.4579752-4.6237232 3.0948287l-.0503728.0127352-.0083955-.0502706c-.2767148-1.6275961.8469354-3.3027816 3.2500558-4.8444148 1.7217437-1.1046137 3.6699973-2.3546772 3.9122907-4.3350056-2.3386574.3537912-4.5148206 1.4070628-6.2411951 3.0207633-1.6462119 1.476989-3.6350426 2.5216487-5.787 3.0396985l-.0691787.0102217.0167909-.0670275c.7748953-2.3554583 2.4160846-4.3299801 4.592492-5.525247.4676279-.3150294.9537258-.624529 1.4237044-.9236394 1.6294113-.9270768 3.1127618-2.0891251 4.4020827-3.4485664.4121547-.3652607.6202179-.9079661.5576274-1.4544974-.0615139-.2600551-.234399-.4800119-.4728331-.6015721-.7316423-.2526854-1.5310834-.226364-2.2444459.0738978l-7.2075142 2.5609544.0263618-.0886439c1.2411868-4.1615718 6.1137518-5.9151796 9.9827219-6.6536554.5717318-.1092549 1.1526986-.2076178 1.7675831-.311678 2.9422777-.4975119 6.2771277-1.0618837 8.5939426-2.9827252.5817884-.4987761 1.1357148-1.0290348 1.6592814-1.5883849.8452512-1.0050222 1.8868195-1.8276463 3.0611577-2.417683-1.1448686-1.1957419-2.381774-2.3002104-3.6993816-3.3032843-1.0814822-.8184083-2.2149493-1.5660458-3.3932825-2.2382168l-.0611191-.0348543.0555781-.0430652c1.3099814-.9992254 2.3835727-2.2739029 3.1446086-3.7336011 1.1031755-2.3110667 1.4722696-4.903399 1.0578297-7.4296666-.046511-.3740137-.1030964-.7587517-.1580028-1.1307545-.3285989-2.2310113-.6684477-4.538099.7456859-6.6467851 1.7860221-2.26053392 4.5071816-3.58528852 7.3917109-3.59854054 2.9780077.13602923 5.8589244 1.0985455 8.318739 2.77929654.7194921.4040085 1.4633311.8210873 2.2076738 1.1927549.4970178.2676909 1.0366854.4475742 1.59514.5316959l.0124253.0015082.0102425.0077081 6.0311406 4.5320665c.69618.6763676 1.645887 1.0283932 2.615694.9695532-.143899-.5749286-.816376-.8822498-1.467026-1.1796845-.720163-.3291052-1.464506-.6702753-1.459133-1.381605v-.0596545l.057929.0145785c1.798258.4433196 3.507995 1.1882574 5.056258 2.2030274.681209.449252 1.706968 1.1253922 2.610656.7373028-.085969-.8807417-.99755-1.2919556-1.961686-1.7267967-.812919-.2592929-1.526338-.7616685-2.043626-1.4390811l-.033582-.0584816.067164-.0108919c1.251424-.0688862 2.487394.3026352 3.492517 1.0498187.86306.5854913 1.848121.967669 2.880823 1.1176841-.028881-1.0359105-1.253613-1.6946236-2.285416-2.0661237-1.126001-.4058517-2.401106-.8649903-2.722652-1.9230198l-.015784-.0519464.053899-.0080433c1.384154-.0789533 2.761745.2422726 3.967533.9251475 1.087733.5838995 2.292442.9179001 3.526099.9775965-.7121-1.1241633-1.818393-1.943179-3.102967-2.297201-.299383-.1152874-.609679-.2258828-.909566-.3326241-1.021987-.3090364-1.994285-.7627389-2.887203-1.3472534-.35261-.258056-.511284-.5072308-.486938-.7616003.014639-.1561256.094562-.2988551.22013-.39311648.421182-.2374343.91297-.31846112 1.388275-.22873145l4.26255.56554483c-1.124993-1.93407944-4.032178-2.32769862-6.286195-2.30692008-.340184.00251353-.684902.01156225-1.049938.02111367-1.79077.1946864-3.602311-.03442552-5.287805-.66876719-.383519-.19906892-.755879-.41885431-1.115422-.65837792-.64652-.49146653-1.401056-.82215913-2.201126-.96469374l-.019309-.00670275c-3.8920315-2.33125307-8.15103-3.98897315-12.5969049-4.90306389-3.3675839-.9501532-6.9533972-.78212985-10.2169556.47874414-3.059794 1.47857122-4.9651715 4.61161179-4.867024 8.00291962.0626829 1.93184194.3203839 3.85245434.7691933 5.73269714.7154623 3.5206211 1.4552714 7.1610538-.4869375 10.6521828-.8704427 1.5640874-3.4899984 1.8568302-5.6511612 1.6078229-.9631288-.2759859-1.9349888-.5134309-2.8957668-.7071405-.1563294-.0523591-.3183089-.0861067-.4825718-.1005413h-.0325745c-2.0942694-.395381-4.2206088-.5972062-6.3520153-.6029126z" fill="#ff8b78"/><path d="m103.594357 82.0829441c.234756.1999316.574565.2289189.841162.0717551.086012-.0768932.15886-.1667814.215767-.2662404.546058-.8065137 1.786722-1.6755289 2.556017-1.1146383 1.960332 1.4305552 2.148382 4.0890632 3.295602 6.1420365.553837 1.1996292 1.740241 2.0015686 3.083319 2.084143 1.219611-.1510036 2.327131-.7719711 3.076681-1.7250431 1.138304-1.2184429 2.036496-2.6322253 2.649294-4.1700717.344399-.2948125.407303-.7792402.632033-1.2250306.42671-.6124148 1.014917-1.1004583 1.702241-1.4123729.815903-.3897159 1.338981-1.194518 1.353527-2.0825195l-1.146224 1.0247009c-.16249.1461075-.438838.2740328-.571452.0733784-.0557-.1114253-.059929-.2408512-.011619-.3555283.187683-.4740036.441484-.9203424.754191-1.3263319.316457-.4266389.467314-.9495267.42556-1.4750368-.804481.4527711-.949045 1.7664402-1.804149 2.1125528-.052553-.4380596.090219-.8770486.391867-1.2049003.299517-.3402494.386414-.8127878.226888-1.233797-.657261.4810185-.657427 1.7094583-1.414938 1.9997253-.065228-.7152776.816432-1.2873698.501743-1.9435551-.348547.0141238-.508216.4284198-.630705.7698245-.226489.6395482-.569008 1.2339178-1.011121 1.7545892-.276348-.490759.50971-.9828167.316515-1.5118884-.3361.1016259-.480498.5032593-.584564.8618722l-.816266 2.8075376c-.150052.1429591-.271274.3122482-.357344.4990385-.618589 1.2247059-.998506 2.6804241-2.232697 3.4283324-.879018.5273839-1.982879.5409713-2.875187.0353905-.866064-.7257159-1.483284-1.6941535-1.768133-2.7742576-.387476-.9961247-1.022798-1.8820172-1.848465-2.5774995-.889191-.7176027-2.050971-1.0264834-3.189211-.8479108-1.164908.1810408-2.098499 1.0398053-2.354689 2.1659632l.408963.0058443c-.524482.5324809-.390872.9834661.185394 1.4099378z" fill="#fff"/><path d="m95.7513684 75.1455679c-.1563061-.274508-.4617033-.4180601-.7638108-.3590296-.1074477.0431917-.2077469.1034855-.2972865.1787106-.8003468.5772353-2.2748877.9739728-2.7960438.1754938-1.329086-2.037301-.5564859-4.6269965-.9003041-6.9738242-.1074662-1.3535933-.9380094-2.5302962-2.149769-3.045765-1.1957167-.2784987-2.4488647-.0727773-3.5031548.5750907-1.4931413.7557437-2.8406509 1.7878668-3.9762281 3.0455863-.4284372.1608396-.6605791.5995741-1.0305931.9453792-.6256089.4367998-1.3503633.6966374-2.1025478.7538013-.8896475.0764528-1.6650849.658057-2.0136203 1.5102834l1.4414516-.5772353c.2043952-.0818494.5097817-.108656.5625177.1279568.0123959.1257932-.0296423.2508098-.1147784.3413373-.3478673.3875773-.7453709.7238294-1.1813906.9993497-.4441935.2887201-.7729456.7340155-.9258104 1.2540124.916504-.1520827 1.5210727-1.34998 2.4472278-1.3830414-.0437744.4646476-.448084.7566607-.7977618 1.0090001s-.723828.6340653-.6538579 1.0942451c.7888001-.2296432 1.2274053-1.3966235 2.0418841-1.4105629-.1942272.702154-1.2258543.9407327-1.1645013 1.6729101.3314098.1072263.6297303-.2312516.8663531-.5132569.4452951-.5328556.9787924-.9789525 1.5753598-1.3172759.0841019.5616874-.8293.7573755-.8368829 1.3267475.3519182.0196582.6309366-.3125648.8565297-.6167303l1.7682082-2.3847144c.1905389-.0830313.3646503-.2018413.5135731-.3504515 1.0168059-.9496682 1.8938441-2.2009999 3.3190958-2.4849711 1.0039576-.2005769 2.0353086.1647756 2.7110802.9603909.5519801.9802184.7864569 2.1180866.6690239 3.2466357.009284 1.0849037.2899881 2.1487297.814651 3.0874045.5962664 1.0018737 1.5737669 1.6950746 2.6903995 1.9079145 1.1442725.2368605 2.3152232-.2512468 2.9830328-1.2434684l-.3817331-.1470789c.6826387-.3257894.7181407-.8006235.3296864-1.4048441z" fill="#fff"/><path d="m94.5160589 77.8820098 3.1075887.0013.0013 3.107112-3.1075886-.0013001z" fill="#ff8b78" transform="matrix(.76822096 -.64018479 .64018479 .76822096 -28.586728 79.914525)"/><path d="m96.2726426 81-2.2726426-2.7273574 2.7273574-2.2726426 2.2726426 2.7271712zm-2.1253538-2.7139505 2.1389469 2.5664755 2.5664755-2.1387607-2.1389469-2.5664755z" fill="#ff8b78"/><path d="m101.20819 80.2205672 3.10717.0013092.001309 3.1075311-3.107169-.0013093z" fill="#668eff" transform="matrix(.65697796 -.75390978 .75390978 .65697796 -26.401184 105.524224)"/><path d="m52.64831 32.0004217c-.8510085.5975262-1.4274002 1.5224686-1.5967857 2.5623803-.1693856 1.0399116.0827935 2.1054145.6986149 2.9517766.7271039.8685235 1.766928 1.4007845 2.8838471 1.4761723s2.2163745-.31248 3.0492286-1.0757122c.8777255-.8057943 1.3591256-1.9680161 1.3138564-3.1719819-.0452693-1.2039657-.6125248-2.3251221-1.5481762-3.0599046-.9236264-.6801046-2.1114444-.865254-3.1918933-.4975317-1.0804489.3677224-1.9215995 1.2434154-2.2603318 2.353154-.3716114 1.1582693 1.4156544 1.6547186 1.7854506.5023433.1993902-.5948689.7001868-1.0318727 1.3069822-1.1404954.6067953-.1086227 1.2234346.1283486 1.6093089.618449.3770334.4929662.5320905 1.1257154.4268268 1.7417731-.1052638.6160577-.4610203 1.1579049-.9792934 1.4915464-.945821.6190792-2.1910903.4529004-2.9491289-.3935556-.6098127-.8676645-.4394367-2.071924.3859676-2.7281133.9765524-.683544.0516494-2.3217592-.9344738-1.6314791z" fill="#fff"/><path d="m125.912324 10.5693915c-2.100693.1626771-2.345634 2.6585291-1.341321 4.1927428.528531.7144945 1.322537 1.1611465 2.18456 1.2288804.862024.067734 1.711072-.2498143 2.335998-.8736753.623201-.6162262.953861-1.4885823.903403-2.3833767-.050459-.8947943-.47688-1.7205749-1.165031-2.2561272-.719252-.48539483-1.608988-.60835041-2.42435-.335029-.815362.2733213-1.47042.914115-1.784902 1.7460328-.639491 1.2821844 1.217221 2.4193216 1.858248 1.1345328.195645-.3922683.443846-.9454106.952332-.7881427.196196.078786.347116.2469719.409693.4565635s.029937.4375664-.088605.6188686c-.256431.3916321-.733824.5528175-1.161212.392068-.169927-.0831353-.300025-.2350832-.360218-.4207168-.044308-.1033761-.048144-.2315945-.099165-.3291607-.155749-.2983082.1686-.166083-.21943-.1360318 1.372778-.1061809 1.383903-2.355012 0-2.2478294z" fill="#fff"/><path d="m124.147024 43.7448347c-1.307172 1.2840658-1.526029 3.4510289-.507184 5.0217773.509326.7072184 1.261025 1.149864 2.076447 1.2227368s1.621756-.2305341 2.227368-.8381125c1.208543-1.258519 1.404527-3.3031455.461376-4.8133557-.450018-.7228886-1.157201-1.2001208-1.94485-1.3124533-.787649-.1123324-1.581362.1508459-2.182818.7237761-.9244.8282255.390686 2.2655154 1.307177 1.4442069 1.175356-1.0530296 2.135347 1.6174972 1.042545 2.519808-.259298.2248558-.596239.309334-.918001.2301617-.321761-.0791722-.594393-.3136412-.742788-.6388137-.285292-.7463567-.085615-1.6112629.4884-2.1155247.341772-.4022573.33275-1.0315917-.020382-1.421692-.353131-.3901002-.922824-.4000668-1.28696-.0225149z" fill="#fff"/></g></g></g></svg>